<svg width="340" height="340" viewBox="0 0 340 340" fill="none" xmlns="http://www.w3.org/2000/svg">
<g clip-path="url(#clip0_9757_327089)">
<path d="M155.4 223.571C148.965 223.571 143.456 221.263 138.874 216.647C134.291 212.031 132 206.482 132 200V58.5714C132 52.0893 134.291 46.5402 138.874 41.9241C143.456 37.308 148.965 35 155.4 35H342.6C349.035 35 354.544 37.308 359.126 41.9241C363.709 46.5402 366 52.0893 366 58.5714V200C366 206.482 363.709 212.031 359.126 216.647C354.544 221.263 349.035 223.571 342.6 223.571H155.4ZM155.4 129.286H342.6V82.1429H155.4V129.286Z" fill="url(#paint0_linear_9757_327089)"/>
<path d="M371.559 320.23L265.264 212.995L271.203 205.256C291.519 178.809 302.231 147.073 302.231 113.61C302.231 29.9824 234.458 -38 151.143 -38C67.8286 -38 0 29.9824 0 113.61C0 197.238 67.7731 265.165 151.143 265.165C182.671 265.165 213.088 255.31 238.954 236.658L246.614 231.146L353.297 338.381C355.739 340.775 358.903 342 362.733 342C370.171 342 375 336.933 375 329.083C375 325.631 373.779 322.513 371.559 320.23ZM151.143 252.582C74.7114 252.582 12.5444 190.223 12.5444 113.61C12.5444 36.9978 74.7114 -25.4168 151.143 -25.4168C227.576 -25.4168 289.687 36.9421 289.687 113.61C289.687 190.278 227.52 252.582 151.143 252.582Z" fill="url(#paint1_linear_9757_327089)"/>
</g>
<defs>
<linearGradient id="paint0_linear_9757_327089" x1="547.327" y1="-49.5963" x2="264.314" y2="247.052" gradientUnits="userSpaceOnUse">
<stop stop-color="#4D5F5D"/>
<stop offset="1" stop-color="#262B28"/>
</linearGradient>
<linearGradient id="paint1_linear_9757_327089" x1="422.693" y1="-99.6354" x2="105.98" y2="264.392" gradientUnits="userSpaceOnUse">
<stop stop-color="#4D5F5D"/>
<stop offset="1" stop-color="#2C2F2D"/>
</linearGradient>
<clipPath id="clip0_9757_327089">
<rect width="340" height="340" fill="white"/>
</clipPath>
</defs>
</svg>
