<svg width="80" height="80" viewBox="0 0 80 80" fill="none" xmlns="http://www.w3.org/2000/svg">
    <g clip-path="url(#clip0_15673_104242)">
        <path d="M40 80C62.0914 80 80 62.0914 80 40C80 17.9086 62.0914 0 40 0C17.9086 0 0 17.9086 0 40C0 62.0914 17.9086 80 40 80Z" fill="white"/>
        <path d="M54.2857 40.4141C57.144 44.2271 48.7735 51.6025 50.6537 48.5574H32.8238C30.895 46.0335 29.5689 43.2764 28.9312 40.4141H54.2857Z" fill="url(#paint0_linear_15673_104242)"/>
        <path d="M49.0992 62.4002C46.5659 64.421 43.827 66.1697 40.9279 67.6171L39.5085 68.3307L38.0817 67.619C24.6689 60.8874 16.6667 49.2907 16.6667 36.5857V21.6641H24.8477V36.5838C24.8477 37.5366 24.91 38.4855 25.0402 39.4286C26.0706 47.148 31.281 54.2704 39.4776 59.0674C39.4856 59.0745 39.4949 59.0805 39.5048 59.0849L39.5261 59.0713L39.5612 59.0499C42.5241 60.7075 45.7507 61.8394 49.0992 62.4002Z" fill="url(#paint1_linear_15673_104242)"/>
        <path d="M62.0865 40.4159C61.7074 43.3647 60.8984 46.2418 59.6853 48.9559C57.4433 53.9959 53.8386 58.5829 49.0903 62.3998C45.7429 61.8387 42.5173 60.7047 39.5552 59.0477C40.6245 58.4156 41.6629 57.7313 42.6642 56.9962C42.7633 56.932 42.8587 56.8601 42.952 56.7862C48.4943 52.7951 52.4871 47.0112 54.2546 40.4141L62.0865 40.4159Z" fill="url(#paint2_linear_15673_104242)"/>
        <path d="M62.3424 21.6641H24.843V29.8424H62.3424V21.6641Z" fill="url(#paint3_linear_15673_104242)"/>
        <path d="M62.3558 29.8438V36.5813C62.3558 36.8593 62.3461 37.1393 62.3362 37.4174H54.1504C54.1601 37.1393 54.164 36.8593 54.164 36.5813V29.8438H62.3558Z" fill="url(#paint4_linear_15673_104242)"/>
    </g>
    <defs>
        <linearGradient id="paint0_linear_15673_104242" x1="54.8866" y1="40.4141" x2="36.5018" y2="57.4467" gradientUnits="userSpaceOnUse">
            <stop stop-color="#000756"/>
            <stop offset="1" stop-color="#0042B8"/>
        </linearGradient>
        <linearGradient id="paint1_linear_15673_104242" x1="49.0992" y1="21.6641" x2="8.37437" y2="30.6196" gradientUnits="userSpaceOnUse">
            <stop stop-color="#000756"/>
            <stop offset="1" stop-color="#0042B8"/>
        </linearGradient>
        <linearGradient id="paint2_linear_15673_104242" x1="62.0865" y1="40.4159" x2="35.2482" y2="49.1168" gradientUnits="userSpaceOnUse">
            <stop stop-color="#000756"/>
            <stop offset="1" stop-color="#0042B8"/>
        </linearGradient>
        <linearGradient id="paint3_linear_15673_104242" x1="62.3424" y1="21.6641" x2="46.4432" y2="44.7314" gradientUnits="userSpaceOnUse">
            <stop stop-color="#000756"/>
            <stop offset="1" stop-color="#0042B8"/>
        </linearGradient>
        <linearGradient id="paint4_linear_15673_104242" x1="62.3558" y1="29.8438" x2="52.6901" y2="33.1549" gradientUnits="userSpaceOnUse">
            <stop stop-color="#000756"/>
            <stop offset="1" stop-color="#0042B8"/>
        </linearGradient>
        <clipPath id="clip0_15673_104242">
            <rect width="80" height="80" fill="white"/>
        </clipPath>
    </defs>
</svg>
