<svg width="122" height="116" viewBox="0 0 122 116" fill="none" xmlns="http://www.w3.org/2000/svg">
<path d="M61 152C43.5896 152 29.0703 145.894 17.4422 133.682C5.81406 121.47 0 106.27 0 88.0821C0 80.0274 1.77917 71.9726 5.3375 63.9179C8.89583 55.8633 13.3438 48.1333 18.6812 40.7282C24.0187 33.3231 29.801 26.3727 36.0281 19.8769C42.2552 13.3812 48.0375 7.72991 53.375 2.92308C54.3917 1.88376 55.5672 1.13675 56.9016 0.682051C58.2359 0.22735 59.6021 0 61 0C62.3979 0 63.7641 0.22735 65.0984 0.682051C66.4328 1.13675 67.6083 1.88376 68.625 2.92308C73.9625 7.72991 79.7448 13.3812 85.9719 19.8769C92.199 26.3727 97.9812 33.3231 103.319 40.7282C108.656 48.1333 113.104 55.8633 116.662 63.9179C120.221 71.9726 122 80.0274 122 88.0821C122 106.27 116.186 121.47 104.558 133.682C92.9297 145.894 78.4104 152 61 152ZM63.0969 128.615C64.6219 128.485 65.9245 127.868 67.0047 126.764C68.0849 125.66 68.625 124.328 68.625 122.769C68.625 120.95 68.0531 119.489 66.9094 118.385C65.7656 117.28 64.3042 116.793 62.525 116.923C57.3146 117.313 51.7865 115.851 45.9406 112.538C40.0948 109.226 36.4094 103.217 34.8844 94.5128C34.6302 93.0838 33.963 91.9145 32.8828 91.0051C31.8026 90.0957 30.5635 89.641 29.1656 89.641C27.3865 89.641 25.925 90.3231 24.7812 91.6872C23.6375 93.0513 23.2563 94.6427 23.6375 96.4615C25.7979 108.284 30.8813 116.728 38.8875 121.795C46.8937 126.862 54.9635 129.135 63.0969 128.615Z" fill="#34434C"/>
</svg>
