<svg width="180" height="120" viewBox="0 0 180 120" fill="none" xmlns="http://www.w3.org/2000/svg">
<g clip-path="url(#clip0_13594_143203)">
<path d="M23.8338 43.8429H18.3672V33.1018C18.3672 32.255 18.0274 31.4428 17.4226 30.844C16.8177 30.2452 15.9974 29.9088 15.142 29.9088C14.2867 29.9088 13.4664 30.2452 12.8615 30.844C12.2567 31.4428 11.9169 32.255 11.9169 33.1018V43.8429H6.45029C4.74113 43.848 3.10344 44.5224 1.89488 45.7189C0.686326 46.9154 0.00510452 48.5367 0 50.2288V127.466C0 129.16 0.679583 130.784 1.88925 131.982C3.09891 133.18 4.73956 133.852 6.45029 133.852H11.9169V144.613C11.9169 145.459 12.2567 146.272 12.8615 146.87C13.4664 147.469 14.2867 147.806 15.142 147.806C15.9974 147.806 16.8177 147.469 17.4226 146.87C18.0274 146.272 18.3672 145.459 18.3672 144.613V133.852H23.8338C25.5445 133.852 27.1852 133.18 28.3949 131.982C29.6045 130.784 30.2841 129.16 30.2841 127.466V50.2288C30.279 48.5367 29.5978 46.9154 28.3892 45.7189C27.1807 44.5224 25.543 43.848 23.8338 43.8429ZM66.0509 4.25024H60.6069V-6.49087C60.6069 -7.33769 60.2671 -8.14983 59.6623 -8.74863C59.0574 -9.34742 58.2371 -9.68382 57.3818 -9.68382C56.5264 -9.68382 55.7061 -9.34742 55.1012 -8.74863C54.4964 -8.14983 54.1566 -7.33769 54.1566 -6.49087V4.25024H48.6997C46.9905 4.25529 45.3528 4.92971 44.1443 6.12621C42.9357 7.32271 42.2545 8.94406 42.2494 10.6362V87.8738C42.2494 89.5674 42.929 91.1917 44.1386 92.3893C45.3483 93.5869 46.9889 94.2597 48.6997 94.2597H54.1566V105.02C54.1566 105.867 54.4964 106.679 55.1012 107.278C55.7061 107.876 56.5264 108.213 57.3818 108.213C58.2371 108.213 59.0574 107.876 59.6623 107.278C60.2671 106.679 60.6069 105.867 60.6069 105.02V94.2597H66.0509C66.8988 94.2626 67.739 94.0995 68.5229 93.7796C69.3068 93.4597 70.0191 92.9894 70.6186 92.3959C71.2182 91.8023 71.6932 91.0972 72.0163 90.321C72.3394 89.5449 72.5042 88.7132 72.5012 87.8738V10.6362C72.5012 8.9425 71.8216 7.31822 70.612 6.12063C69.4023 4.92304 67.7617 4.25024 66.0509 4.25024ZM108.3 26.5051H102.843V15.7545C102.843 14.9076 102.504 14.0955 101.899 13.4967C101.294 12.8979 100.474 12.5615 99.6182 12.5615C98.7629 12.5615 97.9426 12.8979 97.3377 13.4967C96.7329 14.0955 96.3931 14.9076 96.3931 15.7545V26.5051H90.9491C89.2383 26.5051 87.5977 27.1779 86.388 28.3755C85.1783 29.5731 84.4988 31.1974 84.4988 32.8911V110.129C84.4988 111.822 85.1783 113.447 86.388 114.644C87.5977 115.842 89.2383 116.515 90.9491 116.515H96.3931V127.262C96.3931 128.109 96.7329 128.921 97.3377 129.52C97.9426 130.119 98.7629 130.455 99.6182 130.455C100.474 130.455 101.294 130.119 101.899 129.52C102.504 128.921 102.843 128.109 102.843 127.262V116.515H108.3C110.009 116.51 111.647 115.835 112.856 114.639C114.064 113.442 114.746 111.821 114.751 110.129V32.8911C114.746 31.199 114.064 29.5776 112.856 28.3811C111.647 27.1846 110.009 26.5102 108.3 26.5051ZM150.55 -17.0468H145.083V-27.807C145.083 -28.6539 144.743 -29.466 144.138 -30.0648C143.534 -30.6636 142.713 -31 141.858 -31C141.003 -31 140.182 -30.6636 139.577 -30.0648C138.973 -29.466 138.633 -28.6539 138.633 -27.807V-17.0468H133.166C131.455 -17.0468 129.815 -16.374 128.605 -15.1764C127.395 -13.9788 126.716 -12.3545 126.716 -10.6609V66.5768C126.721 68.2689 127.402 69.8902 128.611 71.0867C129.819 72.2832 131.457 72.9576 133.166 72.9627H138.633V83.7038C138.633 84.5506 138.973 85.3627 139.577 85.9615C140.182 86.5603 141.003 86.8967 141.858 86.8967C142.713 86.8967 143.534 86.5603 144.138 85.9615C144.743 85.3627 145.083 84.5506 145.083 83.7038V72.9627H150.55C152.259 72.9576 153.897 72.2832 155.105 71.0867C156.314 69.8902 156.995 68.2689 157 66.5768V-10.6609C157 -12.3545 156.32 -13.9788 155.111 -15.1764C153.901 -16.374 152.26 -17.0468 150.55 -17.0468Z" fill="#34434C"/>
</g>
<defs>
<clipPath id="clip0_13594_143203">
<rect width="180" height="120" fill="white"/>
</clipPath>
</defs>
</svg>
