<svg
        width="80"
        height="80"
        viewBox="0 0 80 80"
        fill="none"
        xmlns="http://www.w3.org/2000/svg"
>
    <g clip-path="url(#clip0_15599_124175)">
        <g opacity="0.8" filter="url(#filter0_f_15599_124175)">
            <circle cx="40" cy="40" r="23.5" stroke="#7DA491" stroke-width="7" />
        </g>
        <path
                d="M36.0175 46.1425L29.4025 39.5275C28.9975 39.1225 28.5025 38.92 27.9175 38.92C27.3325 38.92 26.8375 39.1225 26.4325 39.5275C25.9825 39.9775 25.7575 40.5063 25.7575 41.1138C25.7575 41.7213 25.96 42.2275 26.365 42.6325L34.6 50.8675C34.96 51.2275 35.4325 51.4075 36.0175 51.4075C36.6025 51.4075 37.075 51.2275 37.435 50.8675L53.635 34.6675C54.04 34.2625 54.2425 33.7675 54.2425 33.1825C54.2425 32.5975 54.0175 32.08 53.5675 31.63C53.1625 31.225 52.6562 31.0225 52.0487 31.0225C51.4412 31.0225 50.9125 31.2475 50.4625 31.6975L36.0175 46.1425ZM40 67C36.175 67 32.62 66.3137 29.335 64.9412C26.05 63.5687 23.1925 61.6675 20.7625 59.2375C18.3325 56.8075 16.4313 53.95 15.0588 50.665C13.6863 47.38 13 43.825 13 40C13 36.22 13.6863 32.6875 15.0588 29.4025C16.4313 26.1175 18.3325 23.26 20.7625 20.83C23.1925 18.4 26.05 16.4875 29.335 15.0925C32.62 13.6975 36.175 13 40 13C43.78 13 47.3125 13.6975 50.5975 15.0925C53.8825 16.4875 56.74 18.4 59.17 20.83C61.6 23.26 63.5125 26.1175 64.9075 29.4025C66.3025 32.6875 67 36.22 67 40C67 43.825 66.3025 47.38 64.9075 50.665C63.5125 53.95 61.6 56.8075 59.17 59.2375C56.74 61.6675 53.8825 63.5687 50.5975 64.9412C47.3125 66.3137 43.78 67 40 67Z"
                fill="#7DA491"
        />
    </g>
    <defs>
        <filter
                id="filter0_f_15599_124175"
                x="-3"
                y="-3"
                width="86"
                height="86"
                filterUnits="userSpaceOnUse"
                color-interpolation-filters="sRGB"
        >
            <feFlood flood-opacity="0" result="BackgroundImageFix" />
            <feBlend
                    mode="normal"
                    in="SourceGraphic"
                    in2="BackgroundImageFix"
                    result="shape"
            />
            <feGaussianBlur
                    stdDeviation="8"
                    result="effect1_foregroundBlur_15599_124175"
            />
        </filter>
        <clipPath id="clip0_15599_124175">
            <rect width="80" height="80" fill="white" />
        </clipPath>
    </defs>
</svg>