<svg width="340" height="340" viewBox="0 0 340 340" fill="none" xmlns="http://www.w3.org/2000/svg">
<g clip-path="url(#clip0_2454_61493)">
<path fill-rule="evenodd" clip-rule="evenodd" d="M110.25 94.625C110.25 119.271 90.2707 139.25 65.625 139.25C40.9793 139.25 21 119.271 21 94.625C21 69.9793 40.9793 50 65.625 50C90.2707 50 110.25 69.9793 110.25 94.625ZM131.5 71.25C129.153 71.25 127.25 73.1528 127.25 75.5V84C127.25 86.3472 129.153 88.25 131.5 88.25H314.25C316.597 88.25 318.5 86.3472 318.5 84V75.5C318.5 73.1528 316.597 71.25 314.25 71.25H131.5ZM131.5 105.25C129.153 105.25 127.25 107.153 127.25 109.5V118C127.25 120.347 129.153 122.25 131.5 122.25H254.75C257.097 122.25 259 120.347 259 118V109.5C259 107.153 257.097 105.25 254.75 105.25H131.5ZM110.25 200.875C110.25 225.521 90.2707 245.5 65.625 245.5C40.9793 245.5 21 225.521 21 200.875C21 176.229 40.9793 156.25 65.625 156.25C90.2707 156.25 110.25 176.229 110.25 200.875ZM131.5 177.5C129.153 177.5 127.25 179.403 127.25 181.75V190.25C127.25 192.597 129.153 194.5 131.5 194.5H314.25C316.597 194.5 318.5 192.597 318.5 190.25V181.75C318.5 179.403 316.597 177.5 314.25 177.5H131.5ZM131.5 211.5C129.153 211.5 127.25 213.403 127.25 215.75V224.25C127.25 226.597 129.153 228.5 131.5 228.5H254.75C257.097 228.5 259 226.597 259 224.25V215.75C259 213.403 257.097 211.5 254.75 211.5H131.5Z" fill="url(#paint0_linear_2454_61493)"/>
<path fill-rule="evenodd" clip-rule="evenodd" d="M245.221 152.01C260.844 141.572 279.211 136 298 136C323.196 136 347.359 146.009 365.175 163.825C382.991 181.641 393 205.804 393 231C393 249.789 387.428 268.156 376.99 283.779C366.551 299.402 351.714 311.578 334.355 318.769C316.996 325.959 297.895 327.84 279.466 324.175C261.038 320.509 244.111 311.461 230.825 298.175C217.539 284.889 208.491 267.962 204.825 249.534C201.16 231.105 203.041 212.004 210.231 194.645C217.422 177.286 229.598 162.449 245.221 152.01ZM252.761 298.705C266.152 307.653 281.895 312.429 298 312.429C319.596 312.429 340.308 303.849 355.579 288.579C370.85 273.308 379.429 252.596 379.429 231C379.429 214.895 374.653 199.152 365.705 185.761C356.758 172.37 344.04 161.933 329.161 155.77C314.282 149.607 297.91 147.994 282.114 151.136C266.319 154.278 251.809 162.033 240.421 173.421C229.033 184.809 221.278 199.318 218.136 215.114C214.994 230.91 216.607 247.282 222.77 262.161C228.933 277.04 239.37 289.758 252.761 298.705ZM260.301 174.579C271.46 167.123 284.579 163.143 298 163.143C315.997 163.143 333.257 170.292 345.982 183.018C358.708 195.743 365.857 213.003 365.857 231C365.857 244.421 361.877 257.54 354.421 268.699C346.965 279.858 336.367 288.556 323.968 293.692C311.569 298.828 297.925 300.172 284.762 297.553C271.599 294.935 259.508 288.472 250.018 278.982C240.528 269.492 234.065 257.401 231.447 244.238C228.828 231.075 230.172 217.431 235.308 205.032C240.444 192.633 249.142 182.035 260.301 174.579ZM293.202 199.059C291.929 200.331 291.214 202.057 291.214 203.857V217.429C291.214 219.228 291.929 220.954 293.202 222.227C294.474 223.499 296.2 224.214 298 224.214C299.8 224.214 301.526 223.499 302.798 222.227C304.071 220.954 304.786 219.228 304.786 217.429V203.857C304.786 202.057 304.071 200.331 302.798 199.059C301.526 197.786 299.8 197.071 298 197.071C296.2 197.071 294.474 197.786 293.202 199.059ZM270.857 237.786H284.429C286.228 237.786 287.954 237.071 289.227 235.798C290.499 234.526 291.214 232.8 291.214 231C291.214 229.2 290.499 227.474 289.227 226.202C287.954 224.929 286.228 224.214 284.429 224.214H270.857C269.057 224.214 267.331 224.929 266.059 226.202C264.786 227.474 264.071 229.2 264.071 231C264.071 232.8 264.786 234.526 266.059 235.798C267.331 237.071 269.057 237.786 270.857 237.786ZM302.798 262.941C304.071 261.668 304.786 259.943 304.786 258.143V244.571C304.786 242.772 304.071 241.046 302.798 239.773C301.526 238.501 299.8 237.786 298 237.786C296.2 237.786 294.474 238.501 293.202 239.773C291.929 241.046 291.214 242.772 291.214 244.571V258.143C291.214 259.943 291.929 261.668 293.202 262.941C294.474 264.214 296.2 264.929 298 264.929C299.8 264.929 301.526 264.214 302.798 262.941ZM311.571 237.786H325.143C326.943 237.786 328.669 237.071 329.941 235.798C331.214 234.526 331.929 232.8 331.929 231C331.929 229.2 331.214 227.474 329.941 226.202C328.669 224.929 326.943 224.214 325.143 224.214H311.571C309.772 224.214 308.046 224.929 306.773 226.202C305.501 227.474 304.786 229.2 304.786 231C304.786 232.8 305.501 234.526 306.773 235.798C308.046 237.071 309.772 237.786 311.571 237.786Z" fill="url(#paint1_linear_2454_61493)"/>
</g>
<defs>
<linearGradient id="paint0_linear_2454_61493" x1="549.033" y1="-37.7045" x2="264.317" y2="328.267" gradientUnits="userSpaceOnUse">
<stop stop-color="#4D5F5D"/>
<stop offset="1" stop-color="#262B28"/>
</linearGradient>
<linearGradient id="paint1_linear_2454_61493" x1="417.164" y1="105.182" x2="259.111" y2="289.27" gradientUnits="userSpaceOnUse">
<stop stop-color="#4D5F5D"/>
<stop offset="1" stop-color="#2C2F2D"/>
</linearGradient>
<clipPath id="clip0_2454_61493">
<rect width="340" height="340" fill="white"/>
</clipPath>
</defs>
</svg>
