<svg width="24" height="24" viewBox="0 0 24 24" fill="none" xmlns="http://www.w3.org/2000/svg">
    <g clip-path="url(#clip0_27_2477)">
        <circle cx="12" cy="12" r="12" fill="#F9F9F9"/>
        <g clip-path="url(#clip1_27_2477)">
            <path d="M12.0035 3L11.8828 3.41007V15.3094L12.0035 15.4298L17.527 12.1649L12.0035 3Z" fill="#343434"/>
            <path d="M12.0001 3L6.47656 12.1649L12.0001 15.4299V9.6543V3Z" fill="#8C8C8C"/>
            <path d="M11.9977 16.4762L11.9297 16.5591V20.7979L11.9977 20.9965L17.5245 13.2129L11.9977 16.4762Z" fill="#3C3C3B"/>
            <path d="M12.0001 20.9965V16.4762L6.47656 13.2129L12.0001 20.9965Z" fill="#8C8C8C"/>
            <path d="M12 15.4298L17.5235 12.1649L12 9.6543V15.4298Z" fill="#141414"/>
            <path d="M6.47656 12.1649L12 15.4298V9.6543L6.47656 12.1649Z" fill="#393939"/>
        </g>
    </g>
    <defs>
        <clipPath id="clip0_27_2477">
            <rect width="24" height="24" rx="12" fill="white"/>
        </clipPath>
        <clipPath id="clip1_27_2477">
            <rect width="11.0504" height="18" fill="white" transform="translate(6.47656 3)"/>
        </clipPath>
    </defs>
</svg>
