<svg width="180" height="120" viewBox="0 0 180 120" fill="none" xmlns="http://www.w3.org/2000/svg">
    <g style="mix-blend-mode:screen" opacity="0.1" clip-path="url(#clip0_13403_209907)">
        <path d="M180.7 64.5219L15.772 -29.6917C14.7909 -30.1964 14.0013 -30.0864 12.7291 -29.3252L12.7672 -29.3587L1.02451 -22.6506C0.257186 -22.1218 0.0465687 -21.3217 0 -20.9521V167.306L0.00846704 167.255C-0.0275179 168.53 0.289996 169.216 1.30922 169.851L13.5938 176.869C14.4786 177.247 14.9581 177.191 15.809 176.726L180.801 82.577C181.688 82.0188 181.995 81.3099 181.999 79.9444V66.5607C181.968 66.1576 181.676 65.0308 180.7 64.5219ZM112.019 57.6683L139.965 73.6332L112.016 89.5981L112.019 57.6683ZM28.3233 105.324L56.2127 121.246L28.3233 137.178V105.324ZM56.2137 25.7898L28.3466 41.7306V9.87195L56.2137 25.7898ZM29.3213 73.5212L83.6734 42.473V104.569L29.3213 73.5212Z" fill="#0C422F"/>
        <path d="M69.9843 113.38L56.273 121.281L14.5591 97.4654L14.4331 177.09C14.1114 177.096 13.9219 177.01 13.5938 176.869L1.30922 169.852C0.289996 169.219 -0.0275179 168.531 0.00846704 167.256L0 167.307V73.4039L69.9843 113.38ZM181.641 65.5512L112.014 105.239L112.019 57.617L98.2303 49.7916L98.206 129.683L180.802 82.5769C181.689 82.0188 181.996 81.3099 182 79.9433V66.5607C181.966 66.1199 181.826 65.8664 181.641 65.5512ZM15.772 -29.6917C14.7909 -30.1964 14.0013 -30.0864 12.7291 -29.3252L12.7672 -29.3587L1.02451 -22.6506C0.708056 -22.4255 0.469921 -22.1825 0.302697 -21.8966L69.9875 17.9099L28.3159 41.7484L28.3466 57.4431L98.3309 17.468L15.772 -29.6917Z" fill="#1C8B63"/>
        <path d="M181.722 65.5187L112.014 105.228L112.016 89.5866L153.751 65.746L83.7676 25.7719L98.3234 17.4564L180.699 64.5114C181.19 64.813 181.517 65.1334 181.722 65.5187ZM0.303755 -21.9082C0.147115 -21.6391 0.0465687 -21.3333 0 -20.9637V73.3913L14.558 81.7434V1.98158L56.3079 25.7803L69.9885 17.8973L0.303755 -21.9082ZM28.2249 153.014L28.3222 105.313L14.558 97.4538L14.4416 177.145C14.8332 177.139 15.2417 177.019 15.7106 176.792L98.2102 129.668V113.038L28.2249 153.014Z" fill="#95B1A4"/>
    </g>
    <defs>
        <clipPath id="clip0_13403_209907">
            <rect width="180" height="120" fill="white"/>
        </clipPath>
    </defs>
</svg>
