<svg width="121" height="111" viewBox="0 0 121 111" fill="none" xmlns="http://www.w3.org/2000/svg">
<path fill-rule="evenodd" clip-rule="evenodd" d="M34.1735 65C33.096 65 32.1928 64.6539 31.4639 63.9618C30.735 63.2697 30.3706 62.412 30.3706 61.3889V57.2361C27.5184 56.6343 25.0148 55.581 22.8598 54.0764C20.7048 52.5718 18.9618 50.4653 17.6308 47.7569C17.1871 46.9144 17.1713 46.0266 17.5833 45.0938C17.9952 44.1609 18.74 43.4838 19.8175 43.0625C20.7048 42.7014 21.6239 42.7164 22.5746 43.1076C23.5253 43.4988 24.2542 44.1458 24.7613 45.0486C25.8388 46.8542 27.2015 48.2234 28.8494 49.1563C30.4974 50.0891 32.5256 50.5556 34.9341 50.5556C37.5328 50.5556 39.7353 49.9988 41.5417 48.8854C43.3481 47.772 44.2513 46.0417 44.2513 43.6944C44.2513 41.588 43.5541 39.9178 42.1597 38.684C40.7653 37.4502 37.5328 36.0509 32.4622 34.4861C27.0113 32.8611 23.2718 30.9201 21.2436 28.6632C19.2153 26.4062 18.2012 23.6528 18.2012 20.4028C18.2012 16.4907 19.5323 13.4514 22.1943 11.2847C24.8564 9.11806 27.5818 7.88426 30.3706 7.58333V3.61111C30.3706 2.58796 30.735 1.73032 31.4639 1.03819C32.1928 0.346065 33.096 0 34.1735 0C35.251 0 36.1542 0.346065 36.8831 1.03819C37.612 1.73032 37.9765 2.58796 37.9765 3.61111V7.58333C40.385 7.94445 42.4766 8.68171 44.2513 9.79514C46.026 10.9086 47.4838 12.2778 48.6247 13.9028C49.1951 14.6852 49.306 15.5579 48.9574 16.5208C48.6088 17.4838 47.8958 18.1759 46.8183 18.5972C45.9309 18.9583 45.0119 18.9734 44.0611 18.6424C43.1104 18.3113 42.2231 17.7245 41.3991 16.8819C40.5751 16.0394 39.6085 15.3924 38.4994 14.941C37.3902 14.4896 36.0116 14.2639 34.3637 14.2639C31.5749 14.2639 29.4516 14.8507 27.9938 16.0243C26.536 17.1979 25.8071 18.6574 25.8071 20.4028C25.8071 22.3889 26.7578 23.9537 28.6593 25.0972C30.5607 26.2407 33.8566 27.4444 38.5469 28.7083C42.9203 29.912 46.232 31.8229 48.482 34.441C50.7321 37.059 51.8571 40.0833 51.8571 43.5139C51.8571 47.787 50.5261 51.037 47.8641 53.2639C45.202 55.4907 41.9061 56.875 37.9765 57.4167V61.3889C37.9765 62.412 37.612 63.2697 36.8831 63.9618C36.1542 64.6539 35.251 65 34.1735 65ZM49.6964 123.966C48.6401 124.261 47.4157 124.384 46.0232 124.335C44.6308 124.286 43.4544 124.064 42.494 123.67L0 107.273C0 103.924 1.15239 101.117 3.45714 98.8523C5.7619 96.5871 8.4508 95.4545 11.5238 95.4545H50.9929C51.281 95.4545 51.6171 95.4299 52.0012 95.3807C52.3853 95.3315 52.6734 95.2576 52.8655 95.1591L61.3643 92.0568C62.1325 91.7614 62.6607 91.2689 62.9488 90.5796C63.2369 89.8902 63.2849 89.1515 63.0929 88.3636C62.9008 87.6743 62.4206 87.1326 61.6524 86.7386C60.8841 86.3447 60.1159 86.2955 59.3476 86.5909L52.8655 89.1023C52.4814 89.2992 52.1692 89.4223 51.9292 89.4716C51.6891 89.5208 51.329 89.5455 50.8488 89.5455H35.7238C33.8992 89.5455 32.2907 88.9053 30.8982 87.625C29.5058 86.3447 28.8095 84.6705 28.8095 82.6023C28.8095 81.2235 29.2177 79.8939 30.0339 78.6136C30.8502 77.3333 31.9306 76.447 33.275 75.9545L73.1762 60.7386C73.8484 60.5417 74.5206 60.3693 75.1929 60.2216C75.8651 60.0739 76.5373 60 77.2095 60H86.4286V113.33L49.6964 123.966ZM121 113.182C121 116.432 119.872 119.214 117.615 121.528C115.358 123.843 112.645 125 109.476 125C106.307 125 103.594 123.843 101.337 121.528C99.0807 119.214 97.9524 116.432 97.9524 113.182V71.8182C97.9524 68.5682 99.0807 65.786 101.337 63.4716C103.594 61.1572 106.307 60 109.476 60C112.645 60 115.358 61.1572 117.615 63.4716C119.872 65.786 121 68.5682 121 71.8182V113.182Z" fill="#34434C"/>
</svg>
