<svg width="24" height="24" viewBox="0 0 24 24" fill="none" xmlns="http://www.w3.org/2000/svg">
    <g clip-path="url(#clip0_27_3143)">
        <path d="M12 24C18.65 24 24 18.65 24 12C24 5.34996 18.65 0 12 0C5.34996 0 0 5.34996 0 12C0 18.65 5.34996 24 12 24Z" fill="#2775CA"/>
        <path d="M15.3015 13.8996C15.3015 12.1496 14.2515 11.5496 12.1515 11.2997C10.6515 11.0996 10.3515 10.6997 10.3515 9.99961C10.3515 9.29953 10.8516 8.84965 11.8515 8.84965C12.7515 8.84965 13.2516 9.14965 13.5015 9.89965C13.5516 10.0496 13.7016 10.1496 13.8516 10.1496H14.6515C14.8515 10.1496 15.0015 9.99961 15.0015 9.79969V9.74965C14.8015 8.64961 13.9015 7.79965 12.7515 7.69969V6.49969C12.7515 6.29965 12.6015 6.14965 12.3516 6.09961H11.6016C11.4015 6.09961 11.2515 6.24961 11.2015 6.49969V7.64965C9.70148 7.84969 8.75156 8.84965 8.75156 10.0997C8.75156 11.7497 9.75152 12.3996 11.8515 12.6497C13.2516 12.8997 13.7016 13.1997 13.7016 13.9997C13.7016 14.7997 13.0015 15.3497 12.0516 15.3497C10.7515 15.3497 10.3015 14.7996 10.1515 14.0496C10.1016 13.8497 9.95156 13.7496 9.80156 13.7496H8.95148C8.75156 13.7496 8.60156 13.8996 8.60156 14.0997V14.1497C8.80148 15.3996 9.60152 16.2996 11.2515 16.5497V17.7497C11.2515 17.9496 11.4015 18.0996 11.6515 18.1496H12.4015C12.6015 18.1496 12.7515 17.9997 12.8016 17.7497V16.5497C14.3016 16.2996 15.3015 15.2496 15.3015 13.8996Z" fill="white"/>
        <path d="M9.45097 19.1499C5.55097 17.75 3.55094 13.4 5.00102 9.54992C5.75102 7.44992 7.40101 5.84996 9.45097 5.09996C9.65101 5 9.75098 4.85 9.75098 4.59992V3.89996C9.75098 3.69992 9.65101 3.54992 9.45097 3.5C9.40093 3.5 9.30098 3.5 9.25094 3.54992C4.50098 5.04992 1.90093 10.1 3.40093 14.85C4.30093 17.6499 6.45098 19.8 9.25094 20.7C9.45097 20.7999 9.65102 20.7 9.70093 20.4999C9.75098 20.45 9.75098 20.4 9.75098 20.3V19.5999C9.75098 19.4499 9.60098 19.25 9.45097 19.1499ZM14.751 3.54992C14.551 3.44996 14.3509 3.54992 14.301 3.74996C14.251 3.8 14.251 3.84992 14.251 3.95V4.64996C14.251 4.85 14.401 5.04992 14.551 5.15C18.451 6.54992 20.451 10.8999 19.0009 14.75C18.2509 16.85 16.6009 18.45 14.551 19.2C14.3509 19.2999 14.251 19.4499 14.251 19.7V20.4C14.251 20.6 14.3509 20.75 14.551 20.7999C14.601 20.7999 14.701 20.7999 14.751 20.75C19.501 19.25 22.101 14.1999 20.601 9.44996C19.701 6.59996 17.5009 4.44992 14.751 3.54992Z" fill="white"/>
    </g>
    <defs>
        <clipPath id="clip0_27_3143">
            <rect width="24" height="24" fill="white"/>
        </clipPath>
    </defs>
</svg>
