<svg width="24" height="24" viewBox="0 0 24 24" fill="none" xmlns="http://www.w3.org/2000/svg">
    <circle cx="12" cy="12" r="12" fill="#50AF95"/>
    <path fill-rule="evenodd" clip-rule="evenodd" d="M13.6277 13.6008C13.5368 13.6082 13.0671 13.6387 12.0193 13.6387C11.1859 13.6387 10.5943 13.6115 10.3867 13.6008C7.16606 13.447 4.76216 12.8384 4.76216 12.1096C4.76216 11.3809 7.16606 10.7731 10.3867 10.6168V12.9947C10.5973 13.0111 11.2003 13.0498 12.0337 13.0498C13.0338 13.0498 13.5345 13.0045 13.6247 12.9955V10.6185C16.8385 10.7739 19.2371 11.3826 19.2371 12.1096C19.2371 12.8367 16.8392 13.4454 13.6247 13.6L13.6277 13.6008ZM13.6277 10.3725V8.24474H18.1128V5H5.90161V8.24474H10.3859V10.3717C6.74104 10.5535 4 11.3373 4 12.2766C4 13.2159 6.74104 13.9989 10.3859 14.1815V21H13.627V14.179C17.2635 13.9973 20 13.2143 20 12.2758C20 11.3373 17.2658 10.5543 13.627 10.3717L13.6277 10.3725Z" fill="white"/>
</svg>
