<svg width="80" height="80" viewBox="0 0 80 80" fill="none" xmlns="http://www.w3.org/2000/svg">
    <g filter="url(#filter0_d_14647_142567)">
        <path fill-rule="evenodd" clip-rule="evenodd" d="M10.1628 66.0818L10.1706 66.0681L38.8969 13.6662C39.0446 13.4103 39.1997 13.2704 39.3593 13.1818C39.602 13.0471 39.8088 13 40 13C40.1912 13 40.398 13.0471 40.6407 13.1818C40.8003 13.2704 40.9554 13.4103 41.1031 13.6662L69.8293 66.0681L69.8372 66.0818C69.9789 66.331 70.0055 66.5079 69.9991 66.649C69.9867 66.9249 69.9216 67.1598 69.8059 67.3794C69.7083 67.5647 69.5769 67.713 69.3803 67.8398C69.2218 67.9419 69.045 68 68.8052 68H11.1948C10.955 68 10.7782 67.9419 10.6197 67.8398C10.4231 67.713 10.2917 67.5647 10.1941 67.3794C10.0784 67.1598 10.0133 66.9249 10.0009 66.649C9.99449 66.5079 10.021 66.331 10.1628 66.0818Z" fill="#0F0F0F"/>
    </g>
    <g filter="url(#filter1_d_14647_142567)">
        <path d="M11.9856 68C11.4318 68 10.9284 67.86 10.4754 67.5799C10.0223 67.2998 9.66991 66.9306 9.41821 66.4722C9.16651 66.0139 9.02807 65.5174 9.0029 64.9826C8.97773 64.4479 9.11617 63.9259 9.41821 63.4167L37.3571 14.5278C37.6592 14.0185 38.0493 13.6366 38.5275 13.3819C39.0058 13.1273 39.4966 13 40 13C40.5034 13 40.9942 13.1273 41.4725 13.3819C41.9507 13.6366 42.3408 14.0185 42.6429 14.5278L70.5818 63.4167C70.8838 63.9259 71.0223 64.4479 70.9971 64.9826C70.9719 65.5174 70.8335 66.0139 70.5818 66.4722C70.3301 66.9306 69.9777 67.2998 69.5246 67.5799C69.0716 67.86 68.5682 68 68.0144 68H11.9856ZM40 58.8333C40.8558 58.8333 41.5731 58.5405 42.1521 57.9549C42.731 57.3692 43.0204 56.6435 43.0204 55.7778C43.0204 54.912 42.731 54.1863 42.1521 53.6007C41.5731 53.015 40.8558 52.7222 40 52.7222C39.1442 52.7222 38.4269 53.015 37.8479 53.6007C37.269 54.1863 36.9796 54.912 36.9796 55.7778C36.9796 56.6435 37.269 57.3692 37.8479 57.9549C38.4269 58.5405 39.1442 58.8333 40 58.8333ZM40 49.6667C40.8558 49.6667 41.5731 49.3738 42.1521 48.7882C42.731 48.2025 43.0204 47.4769 43.0204 46.6111V37.4444C43.0204 36.5787 42.731 35.853 42.1521 35.2674C41.5731 34.6817 40.8558 34.3889 40 34.3889C39.1442 34.3889 38.4269 34.6817 37.8479 35.2674C37.269 35.853 36.9796 36.5787 36.9796 37.4444V46.6111C36.9796 47.4769 37.269 48.2025 37.8479 48.7882C38.4269 49.3738 39.1442 49.6667 40 49.6667Z" fill="#CD8C8C"/>
    </g>
    <defs>
        <filter id="filter0_d_14647_142567" x="0" y="3" width="80" height="75" filterUnits="userSpaceOnUse" color-interpolation-filters="sRGB">
            <feFlood flood-opacity="0" result="BackgroundImageFix"/>
            <feColorMatrix in="SourceAlpha" type="matrix" values="0 0 0 0 0 0 0 0 0 0 0 0 0 0 0 0 0 0 127 0" result="hardAlpha"/>
            <feOffset/>
            <feGaussianBlur stdDeviation="5"/>
            <feComposite in2="hardAlpha" operator="out"/>
            <feColorMatrix type="matrix" values="0 0 0 0 0.819608 0 0 0 0 0.231373 0 0 0 0 0.231373 0 0 0 0.6 0"/>
            <feBlend mode="normal" in2="BackgroundImageFix" result="effect1_dropShadow_14647_142567"/>
            <feBlend mode="normal" in="SourceGraphic" in2="effect1_dropShadow_14647_142567" result="shape"/>
        </filter>
        <filter id="filter1_d_14647_142567" x="1" y="5" width="78" height="71" filterUnits="userSpaceOnUse" color-interpolation-filters="sRGB">
            <feFlood flood-opacity="0" result="BackgroundImageFix"/>
            <feColorMatrix in="SourceAlpha" type="matrix" values="0 0 0 0 0 0 0 0 0 0 0 0 0 0 0 0 0 0 127 0" result="hardAlpha"/>
            <feOffset/>
            <feGaussianBlur stdDeviation="4"/>
            <feComposite in2="hardAlpha" operator="out"/>
            <feColorMatrix type="matrix" values="0 0 0 0 0.752941 0 0 0 0 0.627451 0 0 0 0 0.627451 0 0 0 0.6 0"/>
            <feBlend mode="normal" in2="BackgroundImageFix" result="effect1_dropShadow_14647_142567"/>
            <feBlend mode="normal" in="SourceGraphic" in2="effect1_dropShadow_14647_142567" result="shape"/>
        </filter>
    </defs>
</svg>
