<svg width="340" height="340" viewBox="0 0 340 340" fill="none" xmlns="http://www.w3.org/2000/svg">
<g clip-path="url(#clip0_13789_100799)">
<path d="M108.991 229C101.67 229 95.5079 226.523 90.5047 221.569C85.5016 216.615 83 210.514 83 203.266V-8.26595C83 -15.5143 85.5016 -21.6155 90.5047 -26.5695C95.5079 -31.5232 101.67 -34 108.991 -34H322.375C329.696 -34 335.858 -31.5232 340.861 -26.5695C345.865 -21.6155 348.366 -15.5143 348.366 -8.26595V16.9529H243.363C230.562 16.9529 220.345 20.7326 212.71 28.2921C205.075 35.8513 201.258 45.9679 201.258 58.642V136.358C201.258 149.032 205.075 159.149 212.71 166.708C220.345 174.267 230.562 178.047 243.363 178.047H348.366V203.266C348.366 210.514 345.865 216.615 340.861 221.569C335.858 226.523 329.696 229 322.375 229H108.991ZM243.363 162.607C235.728 162.607 229.401 160.122 224.382 155.152C219.362 150.182 216.853 143.918 216.853 136.358V58.642C216.853 51.0825 219.362 44.8178 224.382 39.8479C229.401 34.8781 235.728 32.3932 243.363 32.3932H338.489C346.124 32.3932 352.452 34.8781 357.471 39.8479C362.49 44.8178 365 51.0825 365 58.642V136.358C365 143.918 362.49 150.182 357.471 155.152C352.452 160.122 346.124 162.607 338.489 162.607H243.363ZM282.609 122.333C289.757 122.333 295.724 119.964 300.51 115.224C305.297 110.485 307.69 104.577 307.69 97.5C307.69 90.4231 305.297 84.515 300.51 79.7757C295.724 75.0364 289.757 72.6667 282.609 72.6667C275.462 72.6667 269.495 75.0364 264.708 79.7757C259.922 84.515 257.528 90.4231 257.528 97.5C257.528 104.577 259.922 110.485 264.708 115.224C269.495 119.964 275.462 122.333 282.609 122.333Z" fill="url(#paint0_linear_13789_100799)"/>
<path d="M44.8156 251.078V287.266V50.7342V251.078ZM55.3593 303C48.0555 303 41.8362 300.446 36.7016 295.338C31.5672 290.23 29 284.043 29 276.777V61.2233C29 53.9573 31.5672 47.7702 36.7016 42.6621C41.8362 37.554 48.0555 35 55.3593 35H271.771C279.074 35 285.294 37.554 290.428 42.6621C295.563 47.7702 298.13 53.9573 298.13 61.2233V112.161H282.314V61.2233C282.314 58.164 281.326 55.651 279.349 53.6843C277.372 51.7176 274.846 50.7342 271.771 50.7342H55.3593C52.2841 50.7342 49.758 51.7176 47.781 53.6843C45.8041 55.651 44.8156 58.164 44.8156 61.2233V276.777C44.8156 279.836 45.8041 282.349 47.781 284.316C49.758 286.282 52.2841 287.266 55.3593 287.266H271.771C274.846 287.266 277.372 286.282 279.349 284.316C281.326 282.349 282.314 279.836 282.314 276.777V225.839H298.13V276.777C298.13 284.043 295.563 290.23 290.428 295.338C285.294 300.446 279.074 303 271.771 303H55.3593ZM191.63 235.345C184.144 235.345 177.793 232.744 172.577 227.542C167.36 222.34 164.751 216.04 164.751 208.643V129.386C164.751 121.946 167.364 115.631 172.591 110.441C177.817 105.25 184.147 102.655 191.579 102.655H288.122C295.607 102.655 301.958 105.256 307.175 110.458C312.392 115.66 315 121.96 315 129.357V208.614C315 216.054 312.387 222.369 307.16 227.559C301.934 232.75 295.605 235.345 288.172 235.345H191.63ZM288.641 219.61C291.716 219.61 294.242 218.627 296.219 216.66C298.196 214.694 299.184 212.181 299.184 209.121V128.879C299.184 125.819 298.196 123.306 296.219 121.34C294.242 119.373 291.716 118.39 288.641 118.39H191.11C188.035 118.39 185.509 119.373 183.532 121.34C181.555 123.306 180.567 125.819 180.567 128.879V209.121C180.567 212.181 181.555 214.694 183.532 216.66C185.509 218.627 188.035 219.61 191.11 219.61H288.641ZM231.415 194.305C238.538 194.305 244.563 191.863 249.489 186.979C254.415 182.096 256.878 176.111 256.878 169.025C256.878 161.939 254.423 155.946 249.514 151.045C244.605 146.145 238.589 143.695 231.466 143.695C224.343 143.695 218.319 146.137 213.393 151.021C208.467 155.904 206.004 161.889 206.004 168.975C206.004 176.061 208.458 182.054 213.367 186.955C218.277 191.855 224.292 194.305 231.415 194.305Z" fill="url(#paint1_linear_13789_100799)"/>
</g>
<defs>
<linearGradient id="paint0_linear_13789_100799" x1="583.522" y1="-151.986" x2="190.298" y2="204.16" gradientUnits="userSpaceOnUse">
<stop stop-color="#4D5F5D"/>
<stop offset="1" stop-color="#262B28"/>
</linearGradient>
<linearGradient id="paint1_linear_13789_100799" x1="351.374" y1="-8.46919" x2="131.07" y2="265.357" gradientUnits="userSpaceOnUse">
<stop stop-color="#4D5F5D"/>
<stop offset="1" stop-color="#2C2F2D"/>
</linearGradient>
<clipPath id="clip0_13789_100799">
<rect width="340" height="340" fill="white"/>
</clipPath>
</defs>
</svg>
