<svg width="134" height="103" viewBox="0 0 134 103" fill="none" xmlns="http://www.w3.org/2000/svg">
<path d="M57.1175 82.2425L40.7025 65.8275C39.6975 64.8225 38.4692 64.32 37.0175 64.32C35.5658 64.32 34.3375 64.8225 33.3325 65.8275C32.2158 66.9442 31.6575 68.2562 31.6575 69.7637C31.6575 71.2712 32.16 72.5275 33.165 73.5325L53.6 93.9675C54.4933 94.8608 55.6658 95.3075 57.1175 95.3075C58.5692 95.3075 59.7417 94.8608 60.635 93.9675L100.835 53.7675C101.84 52.7625 102.342 51.5342 102.342 50.0825C102.342 48.6308 101.784 47.3467 100.667 46.23C99.6625 45.225 98.4062 44.7225 96.8987 44.7225C95.3912 44.7225 94.0792 45.2808 92.9625 46.3975L57.1175 82.2425ZM67 134C57.5083 134 48.6867 132.297 40.535 128.891C32.3833 125.485 25.2925 120.767 19.2625 114.737C13.2325 108.707 8.51458 101.617 5.10875 93.465C1.70292 85.3133 0 76.4917 0 67C0 57.62 1.70292 48.8542 5.10875 40.7025C8.51458 32.5508 13.2325 25.46 19.2625 19.43C25.2925 13.4 32.3833 8.65417 40.535 5.1925C48.6867 1.73083 57.5083 0 67 0C76.38 0 85.1458 1.73083 93.2975 5.1925C101.449 8.65417 108.54 13.4 114.57 19.43C120.6 25.46 125.346 32.5508 128.807 40.7025C132.269 48.8542 134 57.62 134 67C134 76.4917 132.269 85.3133 128.807 93.465C125.346 101.617 120.6 108.707 114.57 114.737C108.54 120.767 101.449 125.485 93.2975 128.891C85.1458 132.297 76.38 134 67 134Z" fill="#34434C"/>
</svg>
