<svg width="62" height="100" viewBox="0 0 62 100" fill="none" xmlns="http://www.w3.org/2000/svg">
<path d="M44.2857 29.2482C35.8714 36.7818 29.3393 45.6079 24.6893 55.7266C20.0393 65.8453 17.7143 76.5179 17.7143 87.7445C17.7143 101.187 20.925 113.78 27.3464 125.523C33.7679 137.267 42.7357 146.684 54.25 153.774C56.3167 155.104 57.756 156.913 58.5679 159.203C59.3798 161.493 59.1952 163.745 58.0143 165.961C56.8333 168.177 55.1357 169.691 52.9214 170.504C50.7071 171.316 48.5667 171.131 46.5 169.95C32.0333 161.234 20.6667 149.601 12.4 135.051C4.13333 120.501 0 104.732 0 87.7445C0 74.3022 2.65714 61.5615 7.97143 49.5225C13.2857 37.4834 20.8143 26.8847 30.5571 17.7262L8.85714 17.7262C6.34762 17.7262 4.24405 16.8768 2.54643 15.178C0.84881 13.4793 0 11.3743 0 8.86308C0 6.35187 0.84881 4.24689 2.54643 2.54814C4.24405 0.849379 6.34762 0 8.85714 0L53.1429 0C55.6524 0 57.756 0.849379 59.4536 2.54814C61.1512 4.24689 62 6.35187 62 8.86308L62 53.1785C62 55.6897 61.1512 57.7947 59.4536 59.4934C57.756 61.1922 55.6524 62.0416 53.1429 62.0416C50.6333 62.0416 48.5298 61.1922 46.8321 59.4934C45.1345 57.7947 44.2857 55.6897 44.2857 53.1785V29.2482Z" fill="#34434C"/>
</svg>
