<svg xmlns="http://www.w3.org/2000/svg" width="24" height="24" fill="none"><g clip-path="url(#a)"><circle cx="12" cy="12" r="11.5" fill="#2E2F2F" stroke="#383C3A"/><path fill="#4A9671" d="M20.9 11.3 8.213 4.025c-.075-.04-.136-.03-.234.028l.003-.002-.903.518a.19.19 0 0 0-.079.13V19.24v-.004c-.002.099.022.152.1.2l.946.543c.068.03.105.025.17-.011l12.692-7.272c.068-.043.092-.098.092-.203v-1.034c-.002-.031-.025-.118-.1-.157Zm-5.283-.529 2.15 1.233-2.15 1.233v-2.466Zm-6.438 3.681 2.145 1.23-2.145 1.23v-2.46Zm2.145-6.143L9.181 9.54V7.08l2.143 1.229Zm-2.069 3.687 4.181-2.398v4.796l-4.18-2.398Z"/><path fill="#3D8562" d="m12.383 15.074-1.054.61-3.21-1.839-.009 6.15c-.025 0-.04-.006-.064-.017l-.945-.542c-.079-.049-.103-.102-.1-.2L7 19.238v-7.252l5.383 3.087Zm8.59-3.694-5.357 3.065v-3.678l-1.06-.604-.002 6.17 6.354-3.638c.068-.043.092-.098.092-.203v-1.034a.163.163 0 0 0-.028-.078ZM8.212 4.024c-.075-.04-.136-.03-.234.028l.003-.002-.903.518a.189.189 0 0 0-.056.058l5.36 3.074-3.205 1.842.003 1.212 5.383-3.088-6.35-3.642Z"/><path fill="#7DA491" d="m20.979 11.378-5.363 3.067v-1.209l3.211-1.84-5.383-3.088 1.12-.643L20.9 11.3a.205.205 0 0 1 .079.078ZM7.023 4.625A.189.189 0 0 0 7 4.698v7.288l1.12.645V6.47l3.211 1.837 1.053-.609-5.36-3.074Zm2.148 13.51.008-3.684-1.06-.607L8.112 20c.03 0 .061-.01.098-.027l6.346-3.64v-1.284L9.17 18.136Z"/></g><defs><clipPath id="a"><rect width="24" height="24" fill="#fff" rx="12"/></clipPath></defs></svg>