<svg xmlns="http://www.w3.org/2000/svg" width="65" height="65" fill="none"><g clip-path="url(#a)"><path fill="url(#b)" d="M32.5 65C50.45 65 65 50.45 65 32.5S50.45 0 32.5 0 0 14.55 0 32.5 14.55 65 32.5 65Z"/><path fill="url(#c)" d="m17.365 24.817-7.8-3.971A25.59 25.59 0 0 0 8.02 24.58l8.33 2.694c.274-.844.613-1.665 1.014-2.457Z"/><path fill="url(#d)" d="m23.991 17.817 4.323 7.445a8.231 8.231 0 0 1 2.009-.835l-2.236-8.314c.569-.154 1.146-.277 1.729-.37L28.44 7.095a25.772 25.772 0 0 0-3.926.945l2.671 8.19c-.855.276-1.686.62-2.486 1.03l-3.9-7.666a25.728 25.728 0 0 0-3.451 2.106l5.16 7.082c.477-.348.972-.67 1.482-.965Z"/><path fill="url(#e)" d="m47.177 23.985-7.443 4.326c.368.63.65 1.305.839 2.008l8.313-2.242c.155.57.278 1.146.371 1.729l8.645-1.378a25.49 25.49 0 0 0-.949-3.926l-8.187 2.678a17.327 17.327 0 0 0-1.03-2.48l7.664-3.936a26.056 26.056 0 0 0-2.12-3.432l-7.068 5.171c.348.477.67.971.965 1.482Z"/><path fill="url(#f)" d="M44.142 9.558a25.94 25.94 0 0 0-3.735-1.54l-2.688 8.33c.844.274 1.666.613 2.457 1.014l3.965-7.804Z"/><path fill="url(#g)" d="m41.035 17.664-4.372 7.585a8.314 8.314 0 0 1 1.736 1.33L50.658 14.28a25.869 25.869 0 0 0-3.072-2.6l-5.053 6.956a18.182 18.182 0 0 0-1.498-.972Z"/><path fill="url(#h)" d="m17.67 23.959 7.582 4.375a8.314 8.314 0 0 1 1.33-1.736L14.3 14.336a25.896 25.896 0 0 0-2.62 3.068l6.962 5.057c-.351.48-.676.981-.972 1.498Z"/><path fill="url(#i)" d="m35.152 15.6 1.323-8.509A25.736 25.736 0 0 0 32.5 6.78h-.02v17.362h.02c.726 0 1.45.093 2.151.28l2.246-8.45a17.49 17.49 0 0 0-1.745-.371Z"/><path fill="url(#j)" d="m24.42 30.342-8.45-2.249a17.451 17.451 0 0 0-.37 1.742l-8.515-1.326a25.98 25.98 0 0 0-.309 3.991h17.365c0-.728.093-1.454.28-2.158Z"/><path fill="url(#k)" d="m47.635 40.183 7.8 3.971a25.49 25.49 0 0 0 1.544-3.737l-8.33-2.694a17.072 17.072 0 0 1-1.014 2.46Z"/><path fill="url(#l)" d="m41.008 47.184-4.322-7.446a8.228 8.228 0 0 1-2.008.835l2.236 8.313c-.57.155-1.147.278-1.73.371l1.375 8.645a25.378 25.378 0 0 0 3.926-.943l-2.671-8.19c.85-.279 1.676-.623 2.473-1.03l3.93 7.667A26.063 26.063 0 0 0 47.65 53.3l-5.16-7.072c-.478.344-.972.663-1.483.956Z"/><path fill="url(#m)" d="m17.823 41.018 7.442-4.325a8.37 8.37 0 0 1-.838-2.009l-8.31 2.24a17.352 17.352 0 0 1-.374-1.727l-8.645 1.375c.212 1.333.529 2.647.949 3.93l8.203-2.678a17.5 17.5 0 0 0 1.014 2.476l-7.663 3.933a25.848 25.848 0 0 0 2.118 3.431l7.07-5.16c-.348-.478-.67-.974-.966-1.486Z"/><path fill="url(#n)" d="M20.858 55.442a25.563 25.563 0 0 0 3.735 1.54l2.688-8.33a16.636 16.636 0 0 1-2.457-1.014l-3.966 7.804Z"/><path fill="url(#o)" d="m23.965 47.34 4.372-7.583a8.425 8.425 0 0 1-1.736-1.329L14.342 50.723a26.18 26.18 0 0 0 3.071 2.616l5.054-6.971c.485.347.982.672 1.498.971Z"/><path fill="url(#p)" d="m47.33 41.044-7.582-4.374a8.492 8.492 0 0 1-1.33 1.735L50.7 50.667a25.831 25.831 0 0 0 2.616-3.068l-6.968-5.06c.352-.481.68-.98.982-1.495Z"/><path fill="url(#q)" d="m30.349 40.58-2.246 8.45c.572.149 1.157.27 1.745.364l-1.323 8.521c1.315.211 2.644.32 3.975.325h.02V40.859h-.02c-.726 0-1.45-.093-2.151-.28Z"/><path fill="url(#r)" d="M40.859 32.5a8.42 8.42 0 0 1-.28 2.158l8.45 2.252c.153-.575.277-1.157.371-1.745l8.508 1.326c.211-1.319.32-2.652.325-3.988L40.86 32.5Z"/></g><defs><linearGradient id="b" x1="32.5" x2="32.5" y1="65" y2="0" gradientUnits="userSpaceOnUse"><stop/><stop offset="1" stop-color="#424242"/></linearGradient><linearGradient id="c" x1="12.694" x2="12.694" y1="27.274" y2="20.846" gradientUnits="userSpaceOnUse"><stop stop-color="#D4D4D4"/><stop offset="1" stop-color="#fff"/></linearGradient><linearGradient id="d" x1="23.835" x2="23.835" y1="25.262" y2="7.095" gradientUnits="userSpaceOnUse"><stop stop-color="#D4D4D4"/><stop offset="1" stop-color="#fff"/></linearGradient><linearGradient id="e" x1="48.818" x2="48.818" y1="30.319" y2="17.339" gradientUnits="userSpaceOnUse"><stop stop-color="#D4D4D4"/><stop offset="1" stop-color="#fff"/></linearGradient><linearGradient id="f" x1="40.931" x2="40.931" y1="17.361" y2="8.018" gradientUnits="userSpaceOnUse"><stop stop-color="#D4D4D4"/><stop offset="1" stop-color="#fff"/></linearGradient><linearGradient id="g" x1="43.66" x2="43.66" y1="26.578" y2="11.664" gradientUnits="userSpaceOnUse"><stop stop-color="#D4D4D4"/><stop offset="1" stop-color="#fff"/></linearGradient><linearGradient id="h" x1="19.126" x2="19.126" y1="28.334" y2="14.336" gradientUnits="userSpaceOnUse"><stop stop-color="#D4D4D4"/><stop offset="1" stop-color="#fff"/></linearGradient><linearGradient id="i" x1="34.691" x2="34.691" y1="24.421" y2="6.779" gradientUnits="userSpaceOnUse"><stop stop-color="#D4D4D4"/><stop offset="1" stop-color="#fff"/></linearGradient><linearGradient id="j" x1="15.6" x2="15.6" y1="32.5" y2="28.093" gradientUnits="userSpaceOnUse"><stop stop-color="#D4D4D4"/><stop offset="1" stop-color="#fff"/></linearGradient><linearGradient id="k" x1="52.306" x2="52.306" y1="44.158" y2="37.726" gradientUnits="userSpaceOnUse"><stop stop-color="#D4D4D4"/><stop offset="1" stop-color="#fff"/></linearGradient><linearGradient id="l" x1="41.164" x2="41.164" y1="57.902" y2="39.738" gradientUnits="userSpaceOnUse"><stop stop-color="#D4D4D4"/><stop offset="1" stop-color="#fff"/></linearGradient><linearGradient id="m" x1="16.182" x2="16.182" y1="47.661" y2="34.684" gradientUnits="userSpaceOnUse"><stop stop-color="#D4D4D4"/><stop offset="1" stop-color="#fff"/></linearGradient><linearGradient id="n" x1="24.07" x2="24.07" y1="56.982" y2="47.639" gradientUnits="userSpaceOnUse"><stop stop-color="#D4D4D4"/><stop offset="1" stop-color="#fff"/></linearGradient><linearGradient id="o" x1="21.34" x2="21.34" y1="53.339" y2="38.425" gradientUnits="userSpaceOnUse"><stop stop-color="#D4D4D4"/><stop offset="1" stop-color="#fff"/></linearGradient><linearGradient id="p" x1="45.874" x2="45.874" y1="50.667" y2="36.67" gradientUnits="userSpaceOnUse"><stop stop-color="#D4D4D4"/><stop offset="1" stop-color="#fff"/></linearGradient><linearGradient id="q" x1="30.313" x2="30.313" y1="58.224" y2="40.58" gradientUnits="userSpaceOnUse"><stop stop-color="#D4D4D4"/><stop offset="1" stop-color="#fff"/></linearGradient><linearGradient id="r" x1="49.4" x2="49.4" y1="36.91" y2="32.5" gradientUnits="userSpaceOnUse"><stop stop-color="#D4D4D4"/><stop offset="1" stop-color="#fff"/></linearGradient><clipPath id="a"><path fill="#fff" d="M0 0h65v65H0z"/></clipPath></defs></svg>