<svg xmlns="http://www.w3.org/2000/svg" width="500" height="500" fill="none"><path fill="#F3F3F3" d="M77 86h347v329H77z"/><path fill="#000" d="M250.058 499.524C113.947 501.82-.546 385.88.002 248.686.54 114.274 113.995-.535 250.965.002 385.945.53 500.94 113.91 499.994 251.78c-.926 135.045-114.042 249.816-249.936 247.743Zm56.144-152.851c0 14.071-.049 28.142.021 42.212.034 6.848 2.088 9.045 8.739 9.062 27.776.071 55.552.072 83.328 0 6.753-.017 9.432-2.648 9.448-9.253.069-27.593.07-55.186.002-82.779-.017-7.027-2.617-9.492-9.696-9.5-27.593-.033-55.187-.033-82.78-.001-7.22.008-9.007 1.788-9.046 9.142-.074 13.706-.022 27.412-.016 41.117Zm-105.485.27c0-13.886.042-27.772-.017-41.657-.032-7.556-1.393-8.868-9.083-8.876-27.223-.026-54.447-.026-81.67.002-8.231.009-9.977 1.719-9.989 9.987-.043 27.223-.039 54.447.002 81.67.012 7.823 1.937 9.861 9.658 9.881 27.406.071 54.812.067 82.218-.002 6.969-.018 8.833-1.94 8.863-8.801.063-14.067.019-28.135.018-42.204Zm52.766-52.911c14.253 0 28.506.059 42.758-.027 6.186-.037 7.576-1.367 7.589-7.372.059-28.505.062-57.011-.012-85.517-.015-5.769-1.914-7.714-7.54-7.728a16371.3 16371.3 0 0 0-84.969.002c-6.296.017-8.175 1.991-8.185 8.278-.047 28.14-.043 56.28-.002 84.421.01 6.674 1.276 7.899 8.151 7.93 14.069.063 28.14.019 42.21.013ZM356.74 190.91c14.063 0 28.127.046 42.19-.02 6.846-.032 8.801-1.953 8.816-8.862.06-27.396.057-54.792.003-82.188-.014-6.953-1.916-8.87-8.787-8.882-28.309-.051-56.618-.051-84.927.004-6.456.013-7.806 1.359-7.816 7.7-.048 27.945-.05 55.889 0 83.833.013 7.056 1.352 8.374 8.333 8.403 14.061.059 28.125.017 42.188.012Zm-206.109.004c14.064 0 28.129.048 42.193-.021 6.545-.033 7.856-1.267 7.869-7.651.059-28.129.055-56.258.004-84.387-.012-6.663-1.299-7.89-8.181-7.901-27.946-.044-55.892-.05-83.839.004-6.944.013-8.708 1.832-8.719 8.876-.044 27.581-.04 55.162-.002 82.743.009 6.828 1.454 8.272 8.481 8.312 14.065.081 28.13.024 42.194.025Z"/></svg>