<svg xmlns="http://www.w3.org/2000/svg" width="50" height="50" fill="none"><g clip-path="url(#a)"><path fill="url(#b)" d="M25 0c13.82 0 25 11.21 25 25 0 13.82-11.21 25-25 25C11.18 50 0 38.79 0 25S11.21 0 25 0Z"/><path fill="#373535" d="m28.44 19.23-3.42-3.43-3.41 3.41 3.41 3.44 3.42-3.42Zm8.97-.14-9.32 9.13c-1.69 1.67-4.45 1.67-6.14 0l-9.32-9.13-3.3 3.39 9.32 9.13a9.13 9.13 0 0 0 6.38 2.59c2.31 0 4.61-.87 6.38-2.59l9.32-9.13-3.32-3.39Z"/></g><defs><linearGradient id="b" x1="48.487" x2="-5.466" y1="16.24" y2="36.366" gradientUnits="userSpaceOnUse"><stop offset=".372" stop-color="#FF97D6"/><stop offset=".802" stop-color="#F8B994"/></linearGradient><clipPath id="a"><path fill="#fff" d="M0 0h50v50H0z"/></clipPath></defs></svg>