<svg xmlns="http://www.w3.org/2000/svg" width="53" height="51" fill="none"><path fill="#F00500" d="M38.603 4.714c-1.3 1.3-2.49 2.707-3.549 4.209l-.335-.11c-1.93-.63-3.93-1.018-5.946-1.15-.607-.047-2.872-.047-3.612 0-2.234.147-3.946.482-5.892 1.159a3.784 3.784 0 0 1-.218.077 31.676 31.676 0 0 0-3.666-4.177 25.496 25.496 0 0 1 22.907-.163l.311.155Zm12.05 29.506a24.286 24.286 0 0 1-4.36 7.64 27.08 27.08 0 0 1-3.409 3.337 25.16 25.16 0 0 1-9.83 4.846c-3.97.957-8.11.957-12.08 0a25.108 25.108 0 0 1-9.83-4.846 27.083 27.083 0 0 1-3.41-3.338 23.998 23.998 0 0 1-4.359-23.4 25.409 25.409 0 0 1 1.985-4.278c.366-.622.817-1.322 1.035-1.61a80.577 80.577 0 0 0 2.008 7.056 1.756 1.756 0 0 1-.085.17C6.504 23.47 5.524 27.01 5.29 30.775c0 .047-.008.101-.008.148-.062 1.128-.03 1.665.156 2.373.584 2.217 2.382 4.66 5.2 7.055 4.615 3.921 10.873 6.753 15.613 7.08 4.942.334 12.235-2.552 17.092-6.769a24.39 24.39 0 0 0 2.149-2.154c.482-.56 1.198-1.525 1.144-1.525-.016 0 0-.016.03-.031.024-.016.048-.039.032-.055-.008-.007.008-.03.031-.038.024-.008.04-.024.031-.04-.007-.015 0-.03.032-.038.023-.008.03-.031.023-.047-.008-.015 0-.031.015-.031.016 0 .032-.023.032-.039 0-.015.015-.039.03-.039.016 0 .032-.015.032-.031a.818.818 0 0 1 .101-.179c.117-.179.584-1.011.646-1.151.444-1.004.724-1.898.856-2.793.063-.428.101-1.213.07-1.4-.008-.031-.008-.086-.015-.171-.016-.156-.024-.39-.04-.623-.015-.35-.046-.84-.07-1.08-.334-3.533-1.237-6.419-2.95-9.476a2.71 2.71 0 0 1-.17-.327c-.016-.023-.024-.046-.032-.062.242-.723 1.23-3.75 2.016-7.211l.016.015.117.156c.202.272.74 1.081.98 1.47a24.486 24.486 0 0 1 2.561 5.718 24.262 24.262 0 0 1-.358 14.741Z"/><path fill="#000" d="M40.55 24.924c-.024.125-.39.498-.756.77-1.074.786-2.996 1.517-4.95 1.867-1.113.203-2.226.234-2.56.07-.219-.108-.25-.194-.172-.474.163-.584.693-1.221 1.518-1.82.42-.304 2.124-1.338 2.918-1.774 1.308-.716 2.367-1.143 3.083-1.245.225-.03.498-.039.583 0 .14.055.296.467.358.965.032.264.016 1.431-.023 1.641ZM22.21 27.5c-.046.094-.28.195-.545.234-.264.038-1.074.015-1.533-.04-1.65-.217-3.401-.723-4.678-1.345-.716-.35-1.23-.7-1.61-1.081l-.219-.226-.023-.296c-.04-.513-.031-1.322.03-1.61a2.11 2.11 0 0 1 .242-.684c.063-.078.063-.078.343-.078.342 0 .63.054 1.097.202.958.296 2.382 1.011 4.118 2.054 1.432.855 1.969 1.275 2.381 1.851.28.358.467.864.397 1.02Zm11.022 10.829c0 .023-.094.396-.21.84-.117.443-.21.801-.21.817-.086.008-.164.015-.25.008h-.249l-.342.809c-.187.443-.358.855-.382.917l-.046.11-.164-.265-.163-.265v-2.154l-.063.015a25.69 25.69 0 0 1-1.486.195 21.22 21.22 0 0 1-5.114-.11 5.208 5.208 0 0 0-.514-.061c-.007.007 0 .505.016 1.12l.023 1.104-.132.203c-.07.108-.14.202-.14.21-.023.023-.101-.102-.28-.46a5.254 5.254 0 0 1-.436-1.182l-.055-.225-.241.015-.241.023-.063-.287a8.189 8.189 0 0 1-.085-.53l-.023-.248-.203-.18a7.191 7.191 0 0 0-.257-.217c-.039-.031-.054-.086-.054-.132v-.094l.973.008.973.008.03.101.032.101.335.016c.186.008.778.023 1.307.039l.973.023.25-.389.256-.389h.327l-.008-.809-.008-.809-.428-.187c-1.377-.606-2.187-1.299-2.49-2.139-.063-.171-.063-.233-.078-1.011-.008-.77-.008-.84.047-1.011.108-.39.412-.693.801-.794.133-.039.483-.039 2.32-.039l2.163.008.242.117c.288.14.42.24.584.459.186.248.24.443.24.918 0 .676-.046 1.26-.116 1.493a3.224 3.224 0 0 1-.451.895c-.39.498-1.098.995-1.744 1.221l-.187.07.008.817.008.817.171.015.171.016.234.35.226.35h1.043c.576 0 1.081.008 1.128.015.078.016.094.008.171-.124l.094-.14h.895c.67-.031.872-.016.872.008Z"/><path fill="#000" d="M29.123 40.56c-.148.086-.249.125-.272.11-.024-.009-.133-.102-.25-.187l-.21-.171-.217.233c-.475.513-.49.537-.631.544-.218.024-.265-.015-.53-.412-.14-.202-.248-.373-.248-.373s-.102-.016-.218-.024l-.218-.023-.101.21-.102.21-.179-.054a3.779 3.779 0 0 1-.412-.164l-.234-.116v-.444l2.07.008 2.071.008.008.21c.008.249.015.24-.327.435Z"/><path fill="#fff" d="M48.582 31.07c-.008-.031-.008-.086-.016-.171-1.868-.203-7.2-.327-12.15 3.757 0 0-1.595-7.312-9.068-7.312-7.472 0-10.243 7.312-10.243 7.312-4.187-4.504-9.791-4.177-11.815-3.882 0 .047-.008.101-.008.148-.062 1.128-.03 1.665.156 2.373.584 2.217 2.382 4.66 5.2 7.055 4.615 3.921 10.873 6.753 15.613 7.08 4.942.334 12.236-2.552 17.092-6.769a24.403 24.403 0 0 0 2.149-2.154c.482-.56 1.198-1.525 1.144-1.525-.016 0 0-.016.031-.031.023-.016.047-.039.031-.055-.008-.007.008-.03.031-.038.024-.008.04-.024.031-.04-.007-.015 0-.03.032-.038.023-.008.03-.031.023-.047-.008-.015 0-.031.016-.031.015 0 .03-.023.03-.039 0-.015.016-.039.032-.039a.034.034 0 0 0 .03-.031.814.814 0 0 1 .102-.179c.117-.179.584-1.011.646-1.151.444-1.004.724-1.898.856-2.793.047-.428.086-1.213.055-1.4Zm-19.459 9.49c-.148.086-.249.125-.272.11-.024-.009-.133-.102-.25-.187l-.21-.171-.217.233c-.475.513-.49.537-.631.544-.218.024-.265-.015-.53-.412-.14-.202-.248-.373-.248-.373s-.102-.016-.218-.024l-.218-.023-.101.21-.102.21-.179-.054a3.779 3.779 0 0 1-.412-.164l-.234-.116v-.444l2.07.008 2.071.008.008.21c.008.249.015.24-.327.435Zm3.892-1.4c-.117.444-.21.801-.21.817-.086.008-.164.016-.25.008h-.248l-.335.817c-.187.443-.358.855-.382.917l-.046.11-.164-.265-.163-.265v-2.154l-.062.015c-.133.031-1.075.156-1.487.195a21.22 21.22 0 0 1-5.114-.11 5.208 5.208 0 0 0-.513-.061c-.008.007 0 .505.015 1.12l.023 1.104-.132.203c-.07.108-.14.202-.14.21-.023.023-.101-.102-.28-.46a5.256 5.256 0 0 1-.436-1.182l-.055-.225-.24.015-.242.023-.062-.287a8.193 8.193 0 0 1-.086-.53l-.023-.248-.203-.18a7.035 7.035 0 0 0-.257-.217c-.038-.031-.054-.086-.054-.132v-.094l.973.008.973.008.03.101.032.101.335.016c.186.008.778.023 1.307.039l.973.023.25-.389.256-.389h.327l-.008-.809-.008-.809-.428-.187c-1.377-.606-2.187-1.299-2.49-2.139-.063-.171-.063-.233-.078-1.011-.008-.77-.008-.84.047-1.011.109-.39.412-.693.801-.794.133-.039.483-.039 2.32-.039l2.164.008.24.117c.289.14.421.24.585.459.186.249.24.443.24.918 0 .676-.046 1.26-.116 1.493a3.223 3.223 0 0 1-.451.895c-.39.498-1.098.995-1.744 1.221l-.187.07.008.817.008.817.171.015.171.016.234.35.226.35h1.043c.576 0 1.082.008 1.128.015.078.016.094.008.171-.124l.094-.14h.895c.693 0 .895.008.895.031-.023-.008-.124.373-.241.81Z"/><path fill="#FFA409" d="M48.52 30.276c-.016-.35-.047-.84-.07-1.08-.335-3.533-1.238-6.419-2.95-9.476a2.693 2.693 0 0 1-.172-.327c-.015-.023-.023-.046-.03-.062.24-.723 1.229-3.75 2.015-7.211C48.379 7.42 49.056 1.93 46.986.28c0 0-3.58-.264-8.375 4.434-1.3 1.3-2.49 2.707-3.55 4.209l-.334-.11c-1.93-.63-3.93-1.018-5.946-1.15-.607-.047-2.872-.047-3.612 0-2.234.147-3.946.482-5.892 1.159-.078.03-.148.054-.218.077a31.67 31.67 0 0 0-3.666-4.177C10.403 0 6.691.272 6.691.272c-2.195 1.704-1.448 7.445-.311 12.3a80.593 80.593 0 0 0 2.008 7.055 1.764 1.764 0 0 1-.086.17C6.49 23.47 5.508 27.01 5.275 30.775c2.031-.295 7.627-.63 11.823 3.882 0 0 2.77-7.312 10.243-7.312 7.472 0 9.067 7.312 9.067 7.312 4.95-4.084 10.282-3.952 12.15-3.757-.007-.156-.023-.39-.038-.623ZM9.858 16.694S6.948 9.421 7.695 5.266c.125-.7.358-1.314.724-1.78 0 0 3.3.326 8.624 6.238 0 0-1.012.49-2.366 1.532 0 0-.008.008-.016.008-1.47 1.128-3.354 2.917-4.802 5.43Zm12.352 10.805c-.046.094-.28.195-.544.234-.265.038-1.075.015-1.534-.04-1.65-.217-3.401-.723-4.678-1.345-.716-.35-1.23-.7-1.61-1.081l-.219-.226-.023-.296c-.04-.513-.031-1.322.031-1.61a2.11 2.11 0 0 1 .241-.684c.063-.078.063-.078.343-.078.342 0 .63.054 1.097.202.958.296 2.382 1.011 4.118 2.054 1.432.855 1.969 1.275 2.381 1.851.28.358.467.864.397 1.02Zm18.338-2.575c-.023.125-.389.498-.755.77-1.074.786-2.996 1.517-4.95 1.867-1.113.203-2.226.234-2.56.07-.219-.108-.25-.194-.172-.474.163-.584.693-1.221 1.518-1.82.42-.304 2.125-1.338 2.918-1.774 1.308-.716 2.367-1.143 3.083-1.245.225-.03.498-.039.584 0 .14.055.295.467.358.965.03.264.015 1.431-.024 1.641Zm-1.292-13.668-.015-.007c-1.308-1.043-2.289-1.533-2.289-1.533 5.145-5.912 8.329-6.239 8.329-6.239.35.475.576 1.082.7 1.782.724 4.154-2.086 11.435-2.086 11.435a18.532 18.532 0 0 0-4.639-5.438Z"/><path fill="#FF9300" d="M45.99 5.259c-.607-.078-3.48-.094-6.733 5.997l-.015-.007c-1.308-1.043-2.289-1.533-2.289-1.533 5.145-5.912 8.329-6.239 8.329-6.239.358.475.583 1.082.708 1.782Z"/><path fill="#FF8300" d="M43.904 16.694a18.46 18.46 0 0 0-4.647-5.438c3.254-6.09 6.118-6.075 6.733-5.997.724 4.162-2.086 11.435-2.086 11.435Z"/><path fill="#FF9300" d="M17.043 9.716s-1.012.49-2.366 1.533c0 0-.008.007-.016.007-3.37-6.098-6.335-6.075-6.974-5.997.125-.7.358-1.315.724-1.782.008 0 3.308.327 8.632 6.24Z"/><path fill="#FF8300" d="M14.67 11.256c-1.48 1.136-3.363 2.918-4.811 5.438 0 0-2.911-7.273-2.164-11.435.63-.078 3.604-.094 6.974 5.997ZM7.694 5.26l-.124.023.124-.023Z"/><path fill="#fff" d="M36.027 20.731s-2.49.156-2.18-1.789c.312-1.945 2.258-2.178 2.803-2.1.544.078 2.724.856 2.335 2.49-.39 1.633-.934 1.322-1.246 1.4-.311.077-1.712 0-1.712 0Zm-18.369 0s-2.49.156-2.18-1.789c.312-1.945 2.258-2.178 2.803-2.1.545.078 2.724.856 2.335 2.49-.39 1.633-.934 1.322-1.246 1.4-.311.077-1.712 0-1.712 0Z"/></svg>