<svg xmlns="http://www.w3.org/2000/svg" width="50" height="50" fill="none"><circle cx="25" cy="25" r="25" fill="#000"/><g clip-path="url(#a)"><path fill="url(#b)" d="M15.386 22.138h.018l.31.108.29.108.31.09.29.126.31.108.291.108.31.108.29.108.291.108.292.108.309.108.29.126.31.09.291.108.31.108.29.126.31.108.29.09.292.108.31.126.308.108V20.212H14.986l-.291.143-.691.36-.71.379-.71.342-.672.36-.71.378-.71.342-.69.378-.71.36-.691.342-.692.378-.636.324L7 34.613l.71.486.69.486.692.468.71.504.69.486.71.486.31.234.4-.504.673-.9.072-.09-.072-.054-.673-.486-.71-.486-.71-.486-.69-.486-.71-.504-.182-.108.055-8.353.127-.072.71-.342.69-.342.71-.342.71-.342.673-.36.71-.342.709-.324.69-.36.692-.342Z"/><path fill="url(#c)" d="m27.429 41.814-.583.234-.654.27-.655.252-.655.27-.291.108-.346-.162-.655-.342-.655-.306-.636-.342-.655-.324-.655-.306-.655-.342-.655-.324-.655-.325-.655-.323-.654-.342-.619-.307-.655-.324-.073-.036v-8.425h-1.891v9.578l.654.305.655.325.655.342.655.306.619.342.654.324.655.324.655.324.655.324.655.324.655.324.655.342.636.306.655.342.655.306.255.144.382-.18.655-.234.655-.27.654-.27.637-.252.655-.252-.655-1.62-.054-.108Z"/><path fill="url(#d)" d="m39.053 30.113.036 3.96-.164.144-1.11.756-1.11.792-1.109.792-1.11.774-1.11.774-1.09.792-1.11.775-.655.468-.455-.343-1.091-.846-1.11-.828-1.11-.846-1.091-.828-.2-.144V32.04l.2-.18 1.091-1.152 1.11-1.134 1.11-1.153 1.091-1.134 1.073-1.116H17.915l1.11 1.152 1.09 1.134 1.11 1.134 1.11 1.153 1.091 1.134.164.162v5.166l.946.738 1.128.846 1.091.828 1.11.847 1.11.828 1.091.846.4.306.71-.504 1.11-.756 1.09-.792 1.11-.793 1.11-.756 1.11-.792 1.11-.792 1.11-.756 1.109-.792.91-.666.181-4.86-1.091-.037-.982-.035Z"/><path fill="url(#e)" d="M8.8 20.896h.128l.018-5.293.71-.45.891-.522.873-.522.874-.54.873-.522.891-.54.855-.522.891-.522.874-.54.891-.54h.018l.837.486.891.486.873.504.874.486.873.486.873.486.873.504.855.486.037-.072.873-1.566-.873-.504-.892-.486-.873-.486-.873-.486-.873-.505-.873-.486-.874-.486-.891-.504-.855-.486-.036-.018-.855.504-.874.54-.89.54-.856.54-.891.523-.873.522-.874.54-.873.522-.891.54-.855.522-.891.522-.837.522-.037 6.319h.874l.89.018Z"/><path fill="url(#f)" d="m43 16.053-.455-.36-.455-.36-.454-.378-.455-.36-.455-.36-.473-.36-.455-.36-.454-.36-.473-.378-.346-.252-.127.144-.455.558-.455.576-.127.144.127.126.455.378.455.378.473.378.473.378.454.396.455.378.473.378.218.18.019 8.515-.237.162-.473.288-.455.288-.454.288-.473.288-.473.288-.455.288-.455.288-.455.288-.454.288-.455.288-.473.288-.455.288-.455.288-.455.288-.473.288-.454.288.454.72.473.72.073.127.382-.234.455-.27.455-.288.473-.27.455-.306.454-.27.455-.288.455-.27.455-.289.473-.27.473-.306.454-.27.455-.288.473-.27.455-.288.455-.27.454-.306.455-.27.455-.288V16.053Z"/><path fill="url(#g)" d="M27.992 21.13v3.672l.146-.054.618-.234.619-.252.6-.234.619-.252.618-.252.6-.234.619-.252.619-.234.6-.252.618-.234.6-.252V10.923l-.69-.432-.71-.396-.71-.397-.69-.432-.71-.396-.71-.396-.69-.414-.71-.414-.692-.414-.71-.396-.709-.414-.69-.414-.692-.396-.71-.396L24.663 5l-.327.18-.71.378-.709.36-.673.396-.71.378-.709.36-.71.396.71.396.71.396.436.27.273-.144.673-.36.71-.378.709-.36.273-.144.436.252.71.396.691.396.691.414.71.414.71.396.69.414.71.415.691.396.71.396.71.432.69.396.237.126v8.208h-4.966"/><path fill="url(#h)" d="m27.992 24.802 6.877-2.736-6.877-1.89"/><path fill="url(#i)" d="M21.698 24.802v-4.555l-6.294 1.855 6.294 2.682"/></g><defs><linearGradient id="b" x1="14.345" x2="14.345" y1="20.217" y2="37.756" gradientUnits="userSpaceOnUse"><stop stop-color="#F6E93D"/><stop offset=".13" stop-color="#F8E330"/><stop offset=".35" stop-color="#F7C730"/><stop offset=".64" stop-color="#F59C2E"/><stop offset=".98" stop-color="#EB5E2C"/><stop offset="1" stop-color="#EB5C2C"/></linearGradient><linearGradient id="c" x1="21.31" x2="21.31" y1="30.426" y2="44.998" gradientUnits="userSpaceOnUse"><stop stop-color="#F6E93D"/><stop offset=".13" stop-color="#F8E330"/><stop offset=".35" stop-color="#F7C730"/><stop offset=".64" stop-color="#F59C2E"/><stop offset=".98" stop-color="#EB5E2C"/><stop offset="1" stop-color="#EB5C2C"/></linearGradient><linearGradient id="d" x1="29.52" x2="29.52" y1="26.168" y2="42.449" gradientUnits="userSpaceOnUse"><stop stop-color="#F6E93D"/><stop offset=".13" stop-color="#F8E330"/><stop offset=".35" stop-color="#F7C730"/><stop offset=".64" stop-color="#F59C2E"/><stop offset=".98" stop-color="#EB5E2C"/><stop offset="1" stop-color="#EB5C2C"/></linearGradient><linearGradient id="e" x1="16.24" x2="16.24" y1="8.228" y2="20.897" gradientUnits="userSpaceOnUse"><stop stop-color="#F6E93D"/><stop offset=".13" stop-color="#F8E330"/><stop offset=".35" stop-color="#F7C730"/><stop offset=".64" stop-color="#F59C2E"/><stop offset=".98" stop-color="#EB5E2C"/><stop offset="1" stop-color="#EB5C2C"/></linearGradient><linearGradient id="f" x1="38.187" x2="38.187" y1="12.521" y2="31.77" gradientUnits="userSpaceOnUse"><stop stop-color="#F6E93D"/><stop offset=".13" stop-color="#F8E330"/><stop offset=".35" stop-color="#F7C730"/><stop offset=".64" stop-color="#F59C2E"/><stop offset=".98" stop-color="#EB5E2C"/><stop offset="1" stop-color="#EB5C2C"/></linearGradient><linearGradient id="g" x1="27.49" x2="27.49" y1="5" y2="24.807" gradientUnits="userSpaceOnUse"><stop stop-color="#F6E93D"/><stop offset=".13" stop-color="#F8E330"/><stop offset=".35" stop-color="#F7C730"/><stop offset=".64" stop-color="#F59C2E"/><stop offset=".98" stop-color="#EB5E2C"/><stop offset="1" stop-color="#EB5C2C"/></linearGradient><linearGradient id="h" x1="31.423" x2="31.423" y1="20.188" y2="24.813" gradientUnits="userSpaceOnUse"><stop stop-color="#F6E93D"/><stop offset=".13" stop-color="#F8E330"/><stop offset=".35" stop-color="#F7C730"/><stop offset=".64" stop-color="#F59C2E"/><stop offset=".98" stop-color="#EB5E2C"/><stop offset="1" stop-color="#EB5C2C"/></linearGradient><linearGradient id="i" x1="18.475" x2="19.933" y1="23.658" y2="19.613" gradientUnits="userSpaceOnUse"><stop stop-color="#F6E93D"/><stop offset=".13" stop-color="#F8E330"/><stop offset=".35" stop-color="#F7C730"/><stop offset=".64" stop-color="#F59C2E"/><stop offset=".98" stop-color="#EB5E2C"/><stop offset="1" stop-color="#EB5C2C"/></linearGradient><clipPath id="a"><path fill="#fff" d="M7 5h36v40H7z"/></clipPath></defs></svg>