<svg width="340" height="340" viewBox="0 0 340 340" fill="none" xmlns="http://www.w3.org/2000/svg">
    <g clip-path="url(#clip0_16182_86679)">
        <path fill-rule="evenodd" clip-rule="evenodd" d="M135.776 35.4257C158.634 20.1522 185.508 12 213 12C249.865 12 285.22 26.6446 311.288 52.7121C337.355 78.7797 352 114.135 352 151C352 178.492 343.848 205.366 328.574 228.224C313.301 251.083 291.592 268.899 266.193 279.419C240.794 289.94 212.846 292.692 185.882 287.329C158.919 281.966 134.152 268.727 114.712 249.288C95.2727 229.848 82.0343 205.081 76.6709 178.118C71.3076 151.154 74.0602 123.206 84.5808 97.807C95.1014 72.4081 112.917 50.6992 135.776 35.4257ZM205.979 104.265C204.117 106.127 203.071 108.652 203.071 111.286V131.143C203.071 133.776 204.117 136.301 205.979 138.163C207.841 140.025 210.367 141.071 213 141.071C215.633 141.071 218.159 140.025 220.021 138.163C221.883 136.301 222.929 133.776 222.929 131.143V111.286C222.929 108.652 221.883 106.127 220.021 104.265C218.159 102.403 215.633 101.357 213 101.357C210.367 101.357 207.841 102.403 205.979 104.265ZM173.286 160.929H193.143C195.776 160.929 198.301 159.883 200.163 158.021C202.025 156.159 203.071 153.633 203.071 151C203.071 148.367 202.025 145.841 200.163 143.979C198.301 142.117 195.776 141.071 193.143 141.071H173.286C170.653 141.071 168.127 142.117 166.265 143.979C164.403 145.841 163.357 148.367 163.357 151C163.357 153.633 164.403 156.159 166.265 158.021C168.127 159.883 170.653 160.929 173.286 160.929ZM220.021 197.735C221.883 195.873 222.929 193.347 222.929 190.714V170.857C222.929 168.224 221.883 165.699 220.021 163.837C218.159 161.975 215.633 160.929 213 160.929C210.367 160.929 207.841 161.975 205.979 163.837C204.117 165.699 203.071 168.224 203.071 170.857V190.714C203.071 193.347 204.117 195.873 205.979 197.735C207.841 199.597 210.367 200.643 213 200.643C215.633 200.643 218.159 199.597 220.021 197.735ZM232.857 160.929H252.714C255.348 160.929 257.873 159.883 259.735 158.021C261.597 156.159 262.643 153.633 262.643 151C262.643 148.367 261.597 145.841 259.735 143.979C257.873 142.117 255.348 141.071 252.714 141.071H232.857C230.224 141.071 227.699 142.117 225.837 143.979C223.975 145.841 222.929 148.367 222.929 151C222.929 153.633 223.975 156.159 225.837 158.021C227.699 159.883 230.224 160.929 232.857 160.929Z" fill="url(#paint0_linear_16182_86679)"/>
        <path fill-rule="evenodd" clip-rule="evenodd" d="M152 332C230.424 332 294 268.424 294 190C294 111.576 230.424 48 152 48C73.5756 48 10 111.576 10 190C10 268.424 73.5756 332 152 332ZM152 316.222C221.711 316.222 278.222 259.711 278.222 190C278.222 120.289 221.711 63.7778 152 63.7778C82.2894 63.7778 25.7778 120.289 25.7778 190C25.7778 259.711 82.2894 316.222 152 316.222ZM144.476 119.436C144.874 119.624 145.283 119.818 145.707 120.019L145.703 120.021C145.54 120.379 145.382 120.726 145.228 121.065C144.959 121.66 144.699 122.232 144.433 122.803C139.931 132.488 135.426 142.174 130.922 151.859C130.262 153.278 129.603 154.697 128.943 156.116C125.375 163.793 121.807 171.471 118.206 179.133C117.98 179.616 117.425 180.083 116.918 180.272C112.98 181.741 109.034 183.184 105.088 184.628C102.818 185.458 100.549 186.288 98.2813 187.123C95.2071 188.254 93.1296 190.977 93.0083 193.955C92.8665 197.429 94.5393 200.308 97.5436 201.709C102.003 203.787 106.462 205.863 110.922 207.938C115.377 210.011 119.831 212.084 124.285 214.16C125.412 214.686 126.536 215.222 127.665 215.76C128.165 215.999 128.666 216.238 129.169 216.477C129.14 216.557 129.117 216.626 129.097 216.686C129.061 216.794 129.033 216.876 128.997 216.953C128.03 219.035 127.064 221.117 126.098 223.198C123.72 228.32 121.342 233.442 118.966 238.565C118.35 239.895 117.733 241.225 117.116 242.555C113.829 249.641 110.542 256.728 107.292 263.832C106.953 264.57 106.783 265.509 106.887 266.308C107.15 268.324 108.671 269.752 110.506 269.966C112.541 270.206 114.213 269.166 115.146 267.141C116.963 263.2 118.791 259.263 120.62 255.327L121.276 253.913C125.497 244.817 129.72 235.722 133.945 226.629C134.579 225.265 135.217 223.904 135.854 222.547C136.213 221.783 136.571 221.02 136.927 220.259C137.01 220.279 137.077 220.292 137.133 220.303C137.222 220.32 137.284 220.333 137.34 220.358L140.093 221.647C149.38 225.996 158.665 230.344 167.948 234.701C169.522 235.439 171.133 235.972 172.894 235.673C178.221 234.767 181.022 229.942 179.176 224.829C178.328 222.481 177.473 220.135 176.618 217.789C175.246 214.027 173.875 210.264 172.531 206.492C172.325 205.912 172.276 205.103 172.518 204.565C174.07 201.126 175.666 197.708 177.262 194.29C177.882 192.963 178.502 191.637 179.119 190.309C182.943 182.075 186.767 173.841 190.59 165.607C192.865 160.706 195.14 155.806 197.416 150.906C197.982 149.688 198.552 148.471 199.13 147.238C199.417 146.626 199.706 146.01 199.997 145.389C200.42 145.589 200.832 145.786 201.237 145.98C202.077 146.383 202.886 146.77 203.702 147.14C206.121 148.24 208.576 147.345 209.622 145.001C210.607 142.795 209.614 140.41 207.265 139.312C203.196 137.408 199.126 135.504 195.057 133.599C190.035 131.249 185.013 128.899 179.99 126.55C177.606 125.435 175.223 124.32 172.839 123.205C163.748 118.952 154.658 114.699 145.563 110.457C143.254 109.38 140.747 110.27 139.744 112.457C138.725 114.677 139.66 117.132 141.947 118.232C142.771 118.628 143.598 119.02 144.476 119.436Z" fill="url(#paint1_linear_16182_86679)"/>
    </g>
    <defs>
        <linearGradient id="paint0_linear_16182_86679" x1="567.422" y1="-112.715" x2="155.611" y2="235.136" gradientUnits="userSpaceOnUse">
            <stop stop-color="#4D5F5D"/>
            <stop offset="1" stop-color="#262B28"/>
        </linearGradient>
        <linearGradient id="paint1_linear_16182_86679" x1="330.12" y1="1.93563" x2="93.8719" y2="277.098" gradientUnits="userSpaceOnUse">
            <stop stop-color="#4D5F5D"/>
            <stop offset="1" stop-color="#2C2F2D"/>
        </linearGradient>
        <clipPath id="clip0_16182_86679">
            <rect width="340" height="340" fill="white"/>
        </clipPath>
    </defs>
</svg>
