<svg width="112" height="112" viewBox="0 0 112 112" fill="none" xmlns="http://www.w3.org/2000/svg">
<path fill-rule="evenodd" clip-rule="evenodd" d="M12.5747 27.2535H27.3013V18.9839C27.3013 17.5408 27.7881 16.3521 28.7876 15.3322C29.7856 14.3138 30.9279 13.8359 32.2978 13.8359H45.4466C46.8166 13.8359 47.9589 14.3138 48.9569 15.3322C49.9564 16.3521 50.4432 17.5408 50.4432 18.9839V27.2535H65.1698C66.5398 27.2535 67.682 27.7313 68.6801 28.7498C69.6796 29.7697 70.1664 30.9583 70.1664 32.4015V69.2997C70.1664 70.7429 69.6796 71.9315 68.6801 72.9514C67.682 73.9699 66.5398 74.4477 65.1698 74.4477H12.5747C11.2047 74.4477 10.0624 73.9699 9.06442 72.9514C8.06492 71.9315 7.57812 70.7429 7.57812 69.2997V32.4015C7.57812 30.9583 8.06492 29.7697 9.06442 28.7498C10.0624 27.7313 11.2047 27.2535 12.5747 27.2535ZM33.3497 17.4231C31.8974 17.4231 30.72 18.5878 30.72 20.0244V27.2535H47.0245V20.0244C47.0245 18.5878 45.8471 17.4231 44.3947 17.4231H33.3497Z" fill="url(#paint0_linear_18558_198640)"/>
<path d="M45.6044 52.5342C43.6907 52.5342 42.1394 54.0855 42.1394 55.9991C42.1394 57.9128 43.6907 59.4641 45.6044 59.4641H66.3939C68.3075 59.4641 69.8588 57.9128 69.8588 55.9991C69.8588 54.0855 68.3075 52.5342 66.3939 52.5342H45.6044Z" fill="url(#paint1_linear_18558_198640)"/>
<path fill-rule="evenodd" clip-rule="evenodd" d="M102.776 55.9991C102.776 81.8331 81.8331 102.776 55.9991 102.776C30.1652 102.776 9.22266 81.8331 9.22266 55.9991C9.22266 30.1652 30.1652 9.22266 55.9991 9.22266C81.8331 9.22266 102.776 30.1652 102.776 55.9991ZM97.5782 55.9991C97.5782 78.9626 78.9626 97.5782 55.9991 97.5782C33.0356 97.5782 14.42 78.9626 14.42 55.9991C14.42 33.0356 33.0356 14.42 55.9991 14.42C78.9626 14.42 97.5782 33.0356 97.5782 55.9991Z" fill="url(#paint2_linear_18558_198640)"/>
<defs>
<linearGradient id="paint0_linear_18558_198640" x1="78.8222" y1="8.67749" x2="29.1887" y2="84.1371" gradientUnits="userSpaceOnUse">
<stop stop-color="#4A4A58"/>
<stop offset="1" stop-color="#21202A"/>
</linearGradient>
<linearGradient id="paint1_linear_18558_198640" x1="102.776" y1="9.22266" x2="46.4253" y2="102.351" gradientUnits="userSpaceOnUse">
<stop stop-color="#635F78"/>
<stop offset="1" stop-color="#29273C"/>
</linearGradient>
<linearGradient id="paint2_linear_18558_198640" x1="102.776" y1="9.22266" x2="46.4253" y2="102.351" gradientUnits="userSpaceOnUse">
<stop stop-color="#635F78"/>
<stop offset="1" stop-color="#29273C"/>
</linearGradient>
</defs>
</svg>
