<svg width="340" height="340" viewBox="0 0 340 340" fill="none" xmlns="http://www.w3.org/2000/svg">
    <g clip-path="url(#clip0_15812_128668)">
        <path fill-rule="evenodd" clip-rule="evenodd" d="M135.776 35.4257C158.634 20.1522 185.508 12 213 12C249.865 12 285.22 26.6446 311.288 52.7121C337.355 78.7797 352 114.135 352 151C352 178.492 343.848 205.366 328.574 228.224C313.301 251.083 291.592 268.899 266.193 279.419C240.794 289.94 212.846 292.692 185.882 287.329C158.919 281.966 134.152 268.727 114.712 249.288C95.2727 229.848 82.0343 205.081 76.6709 178.118C71.3076 151.154 74.0602 123.206 84.5808 97.807C95.1014 72.4081 112.917 50.6992 135.776 35.4257ZM205.979 104.265C204.117 106.127 203.071 108.652 203.071 111.286V131.143C203.071 133.776 204.117 136.301 205.979 138.163C207.841 140.025 210.367 141.071 213 141.071C215.633 141.071 218.159 140.025 220.021 138.163C221.883 136.301 222.929 133.776 222.929 131.143V111.286C222.929 108.652 221.883 106.127 220.021 104.265C218.159 102.403 215.633 101.357 213 101.357C210.367 101.357 207.841 102.403 205.979 104.265ZM173.286 160.929H193.143C195.776 160.929 198.301 159.883 200.163 158.021C202.025 156.159 203.071 153.633 203.071 151C203.071 148.367 202.025 145.841 200.163 143.979C198.301 142.117 195.776 141.071 193.143 141.071H173.286C170.653 141.071 168.127 142.117 166.265 143.979C164.403 145.841 163.357 148.367 163.357 151C163.357 153.633 164.403 156.159 166.265 158.021C168.127 159.883 170.653 160.929 173.286 160.929ZM220.021 197.735C221.883 195.873 222.929 193.347 222.929 190.714V170.857C222.929 168.224 221.883 165.699 220.021 163.837C218.159 161.975 215.633 160.929 213 160.929C210.367 160.929 207.841 161.975 205.979 163.837C204.117 165.699 203.071 168.224 203.071 170.857V190.714C203.071 193.347 204.117 195.873 205.979 197.735C207.841 199.597 210.367 200.643 213 200.643C215.633 200.643 218.159 199.597 220.021 197.735ZM232.857 160.929H252.714C255.348 160.929 257.873 159.883 259.735 158.021C261.597 156.159 262.643 153.633 262.643 151C262.643 148.367 261.597 145.841 259.735 143.979C257.873 142.117 255.348 141.071 252.714 141.071H232.857C230.224 141.071 227.699 142.117 225.837 143.979C223.975 145.841 222.929 148.367 222.929 151C222.929 153.633 223.975 156.159 225.837 158.021C227.699 159.883 230.224 160.929 232.857 160.929Z" fill="url(#paint0_linear_15812_128668)"/>
        <path d="M120.444 179.481C114.635 179.481 109.926 184.191 109.926 190C109.926 195.809 114.635 200.519 120.444 200.519H183.556C189.365 200.519 194.074 195.809 194.074 190C194.074 184.191 189.365 179.481 183.556 179.481H120.444Z" fill="url(#paint1_linear_15812_128668)"/>
        <path fill-rule="evenodd" clip-rule="evenodd" d="M294 190C294 268.424 230.424 332 152 332C73.5756 332 10 268.424 10 190C10 111.576 73.5756 48 152 48C230.424 48 294 111.576 294 190ZM278.222 190C278.222 259.711 221.711 316.222 152 316.222C82.2894 316.222 25.7778 259.711 25.7778 190C25.7778 120.289 82.2894 63.7778 152 63.7778C221.711 63.7778 278.222 120.289 278.222 190Z" fill="url(#paint2_linear_15812_128668)"/>
    </g>
    <defs>
        <linearGradient id="paint0_linear_15812_128668" x1="567.422" y1="-112.715" x2="155.611" y2="235.136" gradientUnits="userSpaceOnUse">
            <stop stop-color="#4D5F5D"/>
            <stop offset="1" stop-color="#262B28"/>
        </linearGradient>
        <linearGradient id="paint1_linear_15812_128668" x1="330.12" y1="1.93563" x2="93.8719" y2="277.098" gradientUnits="userSpaceOnUse">
            <stop stop-color="#4D5F5D"/>
            <stop offset="1" stop-color="#2C2F2D"/>
        </linearGradient>
        <linearGradient id="paint2_linear_15812_128668" x1="330.12" y1="1.93563" x2="93.8719" y2="277.098" gradientUnits="userSpaceOnUse">
            <stop stop-color="#4D5F5D"/>
            <stop offset="1" stop-color="#2C2F2D"/>
        </linearGradient>
        <clipPath id="clip0_15812_128668">
            <rect width="340" height="340" fill="white"/>
        </clipPath>
    </defs>
</svg>
