<svg width="340" height="340" viewBox="0 0 340 340" fill="none" xmlns="http://www.w3.org/2000/svg">
    <g clip-path="url(#clip0_18474_292566)">
        <path fill-rule="evenodd" clip-rule="evenodd" d="M38.1681 82.7319H82.874V57.6277C82.874 53.2469 84.3517 49.6384 87.3859 46.5422C90.4156 43.4506 93.8831 42 98.042 42H137.958C142.117 42 145.584 43.4506 148.614 46.5422C151.648 49.6384 153.126 53.2469 153.126 57.6277V82.7319H197.832C201.991 82.7319 205.458 84.1824 208.488 87.2741C211.522 90.3703 213 93.9787 213 98.3596V210.372C213 214.753 211.522 218.362 208.488 221.458C205.458 224.549 201.991 226 197.832 226H38.1681C34.0092 226 30.5417 224.549 27.512 221.458C24.4778 218.362 23 214.753 23 210.372V98.3596C23 93.9787 24.4778 90.3703 27.512 87.2741C30.5417 84.1824 34.0092 82.7319 38.1681 82.7319ZM101.235 52.8895C96.8263 52.8895 93.2521 56.4251 93.2521 60.7865V82.7319H142.748V60.7865C142.748 56.4251 139.174 52.8895 134.765 52.8895H101.235Z" fill="url(#paint0_linear_18474_292566)"/>
        <path d="M336.88 320.35L240.506 223.556L245.891 216.57C264.31 192.698 274.023 164.052 274.023 133.848C274.023 58.3631 212.575 -3 137.037 -3C61.4979 -3 0 58.3631 0 133.848C0 209.333 61.4476 270.646 137.037 270.646C165.622 270.646 193.2 261.751 216.652 244.915L223.597 239.939L320.323 336.733C322.537 338.894 325.406 340 328.878 340C335.622 340 340 335.427 340 328.341C340 325.225 338.893 322.41 336.88 320.35ZM137.037 259.288C67.7383 259.288 11.3736 203.001 11.3736 133.848C11.3736 64.6954 67.7383 8.35795 137.037 8.35795C206.335 8.35795 262.65 64.6451 262.65 133.848C262.65 203.051 206.285 259.288 137.037 259.288Z" fill="url(#paint1_linear_18474_292566)"/>
    </g>
    <defs>
        <linearGradient id="paint0_linear_18474_292566" x1="239.277" y1="26.3404" x2="88.6036" y2="255.414" gradientUnits="userSpaceOnUse">
            <stop stop-color="#4A4A58"/>
            <stop offset="1" stop-color="#21202A"/>
        </linearGradient>
        <linearGradient id="paint1_linear_18474_292566" x1="340" y1="-2.99999" x2="132.561" y2="336.827" gradientUnits="userSpaceOnUse">
            <stop stop-color="#635F78"/>
            <stop offset="1" stop-color="#29273C"/>
        </linearGradient>
        <clipPath id="clip0_18474_292566">
            <rect width="340" height="340" fill="white"/>
        </clipPath>
    </defs>
</svg>
