<svg width="340" height="340" viewBox="0 0 340 340" fill="none" xmlns="http://www.w3.org/2000/svg">
<g clip-path="url(#clip0_13338_286032)">
<path fill-rule="evenodd" clip-rule="evenodd" d="M38.1681 82.7319H82.874V57.6277C82.874 53.2469 84.3517 49.6384 87.3859 46.5422C90.4156 43.4506 93.8831 42 98.042 42H137.958C142.117 42 145.584 43.4506 148.614 46.5422C151.648 49.6384 153.126 53.2469 153.126 57.6277V82.7319H197.832C201.991 82.7319 205.458 84.1824 208.488 87.2741C211.522 90.3703 213 93.9787 213 98.3596V210.372C213 214.753 211.522 218.362 208.488 221.458C205.458 224.549 201.991 226 197.832 226H38.1681C34.0092 226 30.5417 224.549 27.512 221.458C24.4778 218.362 23 214.753 23 210.372V98.3596C23 93.9787 24.4778 90.3703 27.512 87.2741C30.5417 84.1824 34.0092 82.7319 38.1681 82.7319ZM101.235 52.8895C96.8263 52.8895 93.2521 56.4251 93.2521 60.7865V82.7319H142.748V60.7865C142.748 56.4251 139.174 52.8895 134.765 52.8895H101.235Z" fill="url(#paint0_linear_13338_286032)"/>
<path d="M371.559 320.23L265.264 212.995L271.203 205.256C291.519 178.809 302.231 147.073 302.231 113.61C302.231 29.9824 234.458 -38 151.143 -38C67.8286 -38 0 29.9824 0 113.61C0 197.238 67.7731 265.165 151.143 265.165C182.671 265.165 213.088 255.31 238.954 236.658L246.614 231.146L353.297 338.381C355.739 340.775 358.903 342 362.733 342C370.171 342 375 336.933 375 329.083C375 325.631 373.779 322.513 371.559 320.23ZM151.143 252.582C74.7114 252.582 12.5444 190.223 12.5444 113.61C12.5444 36.9978 74.7114 -25.4168 151.143 -25.4168C227.576 -25.4168 289.687 36.9421 289.687 113.61C289.687 190.278 227.52 252.582 151.143 252.582Z" fill="url(#paint1_linear_13338_286032)"/>
</g>
<defs>
<linearGradient id="paint0_linear_13338_286032" x1="360.231" y1="-40.5455" x2="86.3368" y2="198.354" gradientUnits="userSpaceOnUse">
<stop stop-color="#4D5F5D"/>
<stop offset="1" stop-color="#262B28"/>
</linearGradient>
<linearGradient id="paint1_linear_13338_286032" x1="422.693" y1="-99.6354" x2="105.98" y2="264.392" gradientUnits="userSpaceOnUse">
<stop stop-color="#4D5F5D"/>
<stop offset="1" stop-color="#2C2F2D"/>
</linearGradient>
<clipPath id="clip0_13338_286032">
<rect width="340" height="340" fill="white"/>
</clipPath>
</defs>
</svg>
