<svg width="340" height="340" viewBox="0 0 340 340" fill="none" xmlns="http://www.w3.org/2000/svg">
<g clip-path="url(#clip0_21013_25372)">
<path d="M121 17.1034C121 0.477772 134.432 -13 151.001 -13H253.941C260.488 -13 266.774 -10.423 271.448 -5.82275L345.506 67.0675C350.299 71.7852 353 78.2393 353 84.9765V247.897C353 264.522 339.568 278 322.999 278H151.001C134.432 278 121 264.522 121 247.897V17.1034Z" fill="url(#paint0_linear_21013_25372)"/>
<path fill-rule="evenodd" clip-rule="evenodd" d="M49.0695 314.953C55.1159 320.984 62.3844 324 70.875 324H256.125C264.616 324 271.884 320.984 277.93 314.953C283.977 308.921 287 301.67 287 293.2V121.105C287 116.998 286.228 113.084 284.684 109.363C283.141 105.641 280.954 102.368 278.123 99.545L203.252 24.855C200.421 22.0317 197.141 19.85 193.41 18.31C189.679 16.77 185.756 16 181.639 16H70.875C62.3844 16 55.1159 19.0158 49.0695 25.0475C43.0232 31.0792 40 38.33 40 46.8V120.833C40 135.197 58.7812 135.197 58.7812 120.833V34.4873H178.938V108.4C178.938 112.763 180.417 116.421 183.376 119.373C186.335 122.324 190.001 123.8 194.375 123.8H267.927V305.602H58.4226V279.09C58.4226 265.191 40 264.921 40 279.09V293.2C40 301.67 43.0232 308.921 49.0695 314.953ZM52.4068 187.105H133.487L122.631 176.275C120.149 173.8 118.96 170.912 119.064 167.611C119.167 164.311 120.356 161.423 122.631 158.948C125.112 156.472 128.007 155.183 131.315 155.08C134.624 154.977 137.519 156.163 140 158.638L172.258 190.818C173.499 192.055 174.377 193.396 174.894 194.84C175.411 196.284 175.67 197.831 175.67 199.481C175.67 201.132 175.411 202.679 174.894 204.123C174.377 205.567 173.499 206.907 172.258 208.145L140 240.324C137.519 242.8 134.624 243.986 131.315 243.883C128.007 243.78 125.112 242.594 122.631 240.324C121.39 239.087 120.459 237.746 119.839 236.302C119.219 234.858 118.857 233.363 118.753 231.816C118.65 230.268 118.909 228.721 119.529 227.174C120.149 225.627 121.08 224.235 122.32 222.997L133.487 211.858H52.4068C48.8916 211.858 45.9449 210.672 43.567 208.3C41.189 205.928 40 202.988 40 199.481C40 195.975 41.189 193.035 43.567 190.663C45.9449 188.291 48.8916 187.105 52.4068 187.105Z" fill="url(#paint1_linear_21013_25372)"/>
</g>
<defs>
<linearGradient id="paint0_linear_21013_25372" x1="385.085" y1="-37.7659" x2="128.871" y2="262.981" gradientUnits="userSpaceOnUse">
<stop stop-color="#2E2F2F"/>
<stop offset="1" stop-color="#262626"/>
</linearGradient>
<linearGradient id="paint1_linear_21013_25372" x1="318.414" y1="-33.9571" x2="59.8195" y2="207.581" gradientUnits="userSpaceOnUse">
<stop stop-color="#555555"/>
<stop offset="1" stop-color="#292A2A"/>
</linearGradient>
<clipPath id="clip0_21013_25372">
<rect width="340" height="340" fill="white"/>
</clipPath>
</defs>
</svg>
