<svg width="340" height="340" viewBox="0 0 340 340" fill="none" xmlns="http://www.w3.org/2000/svg">
<g clip-path="url(#clip0_21073_64726)">
<path fill-rule="evenodd" clip-rule="evenodd" d="M308.5 -95C384.669 -95 449 -65.7796 449 -31.2V0.699989C449 35.2796 384.669 64.5 308.5 64.5C232.331 64.5 168 35.2796 168 0.699989V-31.2C168 -65.7796 232.331 -95 308.5 -95ZM168 112.35C168 146.93 232.331 176.15 308.5 176.15C384.669 176.15 449 146.93 449 112.35V160.2C449 194.78 384.669 224 308.5 224C232.331 224 168 194.78 168 160.2V112.35ZM308.5 96.3909C384.669 96.3909 449 67.1705 449 32.5909V80.4409C449 115.021 384.669 144.241 308.5 144.241C232.331 144.241 168 115.021 168 80.4409V32.5909C168 67.1705 232.331 96.3909 308.5 96.3909Z" fill="url(#paint0_linear_21073_64726)"/>
<path d="M371.559 320.23L265.264 212.995L271.203 205.256C291.519 178.809 302.231 147.073 302.231 113.61C302.231 29.9824 234.458 -38 151.143 -38C67.8286 -38 0 29.9824 0 113.61C0 197.238 67.7731 265.165 151.143 265.165C182.671 265.165 213.088 255.31 238.954 236.658L246.614 231.146L353.297 338.381C355.739 340.775 358.903 342 362.733 342C370.171 342 375 336.933 375 329.083C375 325.631 373.779 322.513 371.559 320.23ZM151.143 252.582C74.7114 252.582 12.5444 190.223 12.5444 113.61C12.5444 36.9978 74.7114 -25.4168 151.143 -25.4168C227.576 -25.4168 289.687 36.9421 289.687 113.61C289.687 190.278 227.52 252.582 151.143 252.582Z" fill="url(#paint1_linear_21073_64726)"/>
</g>
<defs>
<linearGradient id="paint0_linear_21073_64726" x1="666.747" y1="-238.109" x2="207.661" y2="103.481" gradientUnits="userSpaceOnUse">
<stop stop-color="#4D5F5D"/>
<stop offset="1" stop-color="#262B28"/>
</linearGradient>
<linearGradient id="paint1_linear_21073_64726" x1="422.693" y1="-99.6354" x2="105.98" y2="264.392" gradientUnits="userSpaceOnUse">
<stop stop-color="#4D5F5D"/>
<stop offset="1" stop-color="#2C2F2D"/>
</linearGradient>
<clipPath id="clip0_21073_64726">
<rect width="340" height="340" fill="white"/>
</clipPath>
</defs>
</svg>
