<svg width="24" height="24" viewBox="0 0 24 24" fill="none" xmlns="http://www.w3.org/2000/svg">
<path d="M11.7129 23C9.84622 23 8.12956 22.575 6.56289 21.725C4.99622 20.875 3.71289 19.7417 2.71289 18.325L2.71289 21L0.712889 21L0.712889 15L6.71289 15L6.71289 17L4.23789 17C5.03789 18.2 6.09206 19.1667 7.40039 19.9C8.70872 20.6333 10.1462 21 11.7129 21C12.9629 21 14.1337 20.7625 15.2254 20.2875C16.3171 19.8125 17.2671 19.1708 18.0754 18.3625C18.8837 17.5542 19.5254 16.6042 20.0004 15.5125C20.4754 14.4208 20.7129 13.25 20.7129 12L22.7129 12C22.7129 13.5167 22.4254 14.9417 21.8504 16.275C21.2754 17.6083 20.4879 18.775 19.4879 19.775C18.4879 20.775 17.3212 21.5625 15.9879 22.1375C14.6546 22.7125 13.2296 23 11.7129 23ZM10.8129 19L10.8129 17.7C10.0296 17.5167 9.39206 17.1792 8.90039 16.6875C8.40872 16.1958 8.04622 15.55 7.81289 14.75L9.46289 14.1C9.66289 14.7833 9.97539 15.2958 10.4004 15.6375C10.8254 15.9792 11.3129 16.15 11.8629 16.15C12.4129 16.15 12.8837 16.0208 13.2754 15.7625C13.6671 15.5042 13.8629 15.1 13.8629 14.55C13.8629 14.0667 13.6587 13.675 13.2504 13.375C12.8421 13.075 12.1129 12.7333 11.0629 12.35C10.0796 12 9.35872 11.5833 8.90039 11.1C8.44206 10.6167 8.21289 9.98333 8.21289 9.2C8.21289 8.51667 8.45039 7.89583 8.92539 7.3375C9.40039 6.77917 10.0462 6.41667 10.8629 6.25L10.8629 5L12.6129 5L12.6129 6.25C13.2129 6.3 13.7587 6.54167 14.2504 6.975C14.7421 7.40833 15.0796 7.91667 15.2629 8.5L13.6629 9.15C13.5296 8.76667 13.3129 8.44583 13.0129 8.1875C12.7129 7.92917 12.2962 7.8 11.7629 7.8C11.1796 7.8 10.7337 7.925 10.4254 8.175C10.1171 8.425 9.96289 8.76667 9.96289 9.2C9.96289 9.63333 10.1546 9.975 10.5379 10.225C10.9212 10.475 11.6129 10.7667 12.6129 11.1C13.8129 11.5333 14.6129 12.0417 15.0129 12.625C15.4129 13.2083 15.6129 13.85 15.6129 14.55C15.6129 15.0333 15.5296 15.4583 15.3629 15.825C15.1962 16.1917 14.9754 16.5042 14.7004 16.7625C14.4254 17.0208 14.1046 17.2292 13.7379 17.3875C13.3712 17.5458 12.9796 17.6667 12.5629 17.75L12.5629 19L10.8129 19ZM0.71289 12C0.71289 10.4833 1.00039 9.05833 1.57539 7.725C2.15039 6.39167 2.93789 5.225 3.93789 4.225C4.93789 3.225 6.10456 2.4375 7.43789 1.8625C8.77122 1.2875 10.1962 1 11.7129 1C13.5796 1 15.2962 1.425 16.8629 2.275C18.4296 3.125 19.7129 4.25834 20.7129 5.675L20.7129 3L22.7129 3L22.7129 9L16.7129 9L16.7129 7L19.1879 7C18.3879 5.8 17.3337 4.83333 16.0254 4.1C14.7171 3.36667 13.2796 3 11.7129 3C10.4629 3 9.29206 3.2375 8.20039 3.7125C7.10872 4.1875 6.15872 4.82917 5.35039 5.6375C4.54206 6.44583 3.90039 7.39583 3.42539 8.4875C2.95039 9.57917 2.71289 10.75 2.71289 12L0.71289 12Z" fill="#798180"/>
</svg>
