<svg width="340" height="340" viewBox="0 0 340 340" fill="none" xmlns="http://www.w3.org/2000/svg">
<g clip-path="url(#clip0_21073_23434)">
<path fill-rule="evenodd" clip-rule="evenodd" d="M308.5 -95C384.669 -95 449 -65.7796 449 -31.2V0.699989C449 35.2796 384.669 64.5 308.5 64.5C232.331 64.5 168 35.2796 168 0.699989V-31.2C168 -65.7796 232.331 -95 308.5 -95ZM168 112.35C168 146.93 232.331 176.15 308.5 176.15C384.669 176.15 449 146.93 449 112.35V160.2C449 194.78 384.669 224 308.5 224C232.331 224 168 194.78 168 160.2V112.35ZM308.5 96.3909C384.669 96.3909 449 67.1705 449 32.5909V80.4409C449 115.021 384.669 144.241 308.5 144.241C232.331 144.241 168 115.021 168 80.4409V32.5909C168 67.1705 232.331 96.3909 308.5 96.3909Z" fill="url(#paint0_linear_21073_23434)"/>
<path fill-rule="evenodd" clip-rule="evenodd" d="M137.958 291.206C212.85 291.206 273.561 230.494 273.561 155.603C273.561 80.7115 212.85 20 137.958 20C63.067 20 2.35547 80.7115 2.35547 155.603C2.35547 230.494 63.067 291.206 137.958 291.206ZM137.958 276.139C204.529 276.139 258.494 222.173 258.494 155.603C258.494 89.0328 204.529 35.067 137.958 35.067C71.3882 35.067 17.4225 89.0328 17.4225 155.603C17.4225 222.173 71.3882 276.139 137.958 276.139ZM139.591 64.6017C121.755 64.6017 104.319 69.8908 89.4881 79.8003C74.6575 89.7098 63.0984 103.795 56.2726 120.273C49.4468 136.752 47.6609 154.885 51.1407 172.379C54.6204 189.873 63.2096 205.942 75.822 218.555C88.4344 231.167 104.504 239.756 121.997 243.236C139.491 246.716 157.624 244.93 174.103 238.104C190.582 231.278 204.667 219.719 214.576 204.889C224.486 190.058 229.775 172.622 229.775 154.785C229.775 130.867 220.273 107.929 203.361 91.0158C186.448 74.1031 163.51 64.6017 139.591 64.6017ZM133.15 129.018C133.15 127.31 133.828 125.672 135.036 124.464C136.244 123.255 137.883 122.577 139.591 122.577C141.3 122.577 142.938 123.255 144.146 124.464C145.354 125.672 146.033 127.31 146.033 129.018V141.902C146.033 143.61 145.354 145.249 144.146 146.457C142.938 147.665 141.3 148.344 139.591 148.344C137.883 148.344 136.244 147.665 135.036 146.457C133.828 145.249 133.15 143.61 133.15 141.902V129.018ZM126.708 161.227H113.825C112.116 161.227 110.478 160.548 109.27 159.34C108.062 158.132 107.383 156.494 107.383 154.785C107.383 153.077 108.062 151.438 109.27 150.23C110.478 149.022 112.116 148.344 113.825 148.344H126.708C128.416 148.344 130.055 149.022 131.263 150.23C132.471 151.438 133.15 153.077 133.15 154.785C133.15 156.494 132.471 158.132 131.263 159.34C130.055 160.548 128.416 161.227 126.708 161.227ZM146.033 180.552C146.033 182.26 145.354 183.899 144.146 185.107C142.938 186.315 141.3 186.994 139.591 186.994C137.883 186.994 136.244 186.315 135.036 185.107C133.828 183.899 133.15 182.26 133.15 180.552V167.669C133.15 165.96 133.828 164.322 135.036 163.114C136.244 161.906 137.883 161.227 139.591 161.227C141.3 161.227 142.938 161.906 144.146 163.114C145.354 164.322 146.033 165.96 146.033 167.669V180.552ZM165.358 161.227H152.475C150.766 161.227 149.128 160.548 147.92 159.34C146.712 158.132 146.033 156.494 146.033 154.785C146.033 153.077 146.712 151.438 147.92 150.23C149.128 149.022 150.766 148.344 152.475 148.344H165.358C167.067 148.344 168.705 149.022 169.913 150.23C171.121 151.438 171.8 153.077 171.8 154.785C171.8 156.494 171.121 158.132 169.913 159.34C168.705 160.548 167.067 161.227 165.358 161.227Z" fill="url(#paint1_linear_21073_23434)"/>
</g>
<defs>
<linearGradient id="paint0_linear_21073_23434" x1="666.747" y1="-238.109" x2="207.661" y2="103.481" gradientUnits="userSpaceOnUse">
<stop stop-color="#4D5F5D"/>
<stop offset="1" stop-color="#262B28"/>
</linearGradient>
<linearGradient id="paint1_linear_21073_23434" x1="308.054" y1="-23.9892" x2="82.4489" y2="238.777" gradientUnits="userSpaceOnUse">
<stop stop-color="#4D5F5D"/>
<stop offset="1" stop-color="#2C2F2D"/>
</linearGradient>
<clipPath id="clip0_21073_23434">
<rect width="340" height="340" fill="white"/>
</clipPath>
</defs>
</svg>
