<svg width="180" height="122" viewBox="0 0 180 122" fill="none" xmlns="http://www.w3.org/2000/svg">
<g clip-path="url(#clip0_15175_76028)">
<path d="M140.918 6.75362L113.857 -9.01012L86.7968 6.75362L113.857 22.8093L140.918 6.75362ZM118.176 30.3992V56.0883L145.236 40.3246V14.6355L118.176 30.3992ZM109.539 30.3992L82.4786 14.6355V40.3246L109.539 56.0883V30.3992ZM117.024 73.3117H116.16V64.846C116.16 63.6783 115.297 62.5106 113.857 62.5106C112.418 62.5106 111.554 63.3864 111.554 64.846V73.3117H110.691C106.373 73.3117 102.342 76.8147 102.342 81.7774V88.1997C102.342 92.5785 105.797 96.6654 110.691 96.6654H117.024C121.342 96.6654 125.373 93.1623 125.373 88.1997V81.7774C125.373 77.1067 121.63 73.3117 117.024 73.3117ZM173.448 57.5479H172.585V46.4549C172.585 45.2872 171.721 44.1196 170.282 44.1196H162.221C161.357 40.6165 158.191 38.2811 154.16 38.2811C149.842 38.2811 145.812 41.7842 145.812 46.7468C145.812 51.1257 149.266 55.2126 154.16 55.2126C157.903 55.2126 160.782 52.5853 162.221 49.3741H167.979V58.1318H167.115C162.797 58.1318 158.766 61.6348 158.766 66.5975V73.0198C158.766 77.3986 162.221 81.4855 167.115 81.4855H173.448C177.766 81.4855 181.797 77.9824 181.797 73.0198V66.5975C181.797 61.051 178.054 57.5479 173.448 57.5479ZM110.691 -23.6062H111.554V-15.1405C111.554 -13.9728 112.418 -12.8051 113.857 -12.8051C115.297 -12.8051 116.16 -13.6809 116.16 -15.1405V-23.6062H117.024C121.342 -23.6062 125.373 -27.1092 125.373 -32.0719V-38.2023C125.373 -42.5811 121.918 -46.668 117.024 -46.668H110.691C106.373 -46.668 102.342 -43.1649 102.342 -38.2023V-31.78C102.342 -27.4012 106.085 -23.6062 110.691 -23.6062ZM173.448 -30.9042H167.115C162.797 -30.9042 158.766 -27.4012 158.766 -22.4385V-16.0162C158.766 -11.6374 162.221 -7.55052 167.115 -7.55052H168.266V1.20712H162.509C161.645 -2.29594 158.479 -4.63131 154.448 -4.63131C150.13 -4.63131 146.1 -1.12825 146.1 3.83441C146.1 8.21323 149.554 12.3001 154.448 12.3001C158.191 12.3001 161.069 9.67284 162.509 6.46171H170.569C171.721 6.46171 172.873 5.58594 172.873 4.12633V-6.96667H173.736C178.054 -6.96667 182.085 -10.4697 182.085 -15.4324V-22.4385C181.797 -27.4012 178.054 -30.9042 173.448 -30.9042ZM73.2665 38.2811C69.524 38.2811 66.6452 40.9084 65.2058 44.1196H57.4331C56.2816 44.1196 55.1301 44.9953 55.1301 46.4549V57.5479H54.2665C49.9483 57.5479 45.918 61.051 45.918 66.0136V72.4359C45.918 76.8147 49.3725 80.9016 54.2665 80.9016H60.5998C64.918 80.9016 68.9483 77.3986 68.9483 72.4359V66.0136C68.9483 61.6348 65.4937 57.5479 60.5998 57.5479H59.4483V48.7903H65.2058C66.0695 52.2934 69.2361 54.6287 73.2665 54.6287C77.5846 54.6287 81.6149 51.1257 81.6149 46.163C81.6149 42.0761 77.5846 38.2811 73.2665 38.2811ZM73.2665 -5.21515C69.524 -5.21515 66.6452 -2.58785 65.2058 0.62328H59.4483V-8.13436H60.3119C64.6301 -8.13436 68.6604 -11.6374 68.6604 -16.6001V-22.4385C68.6604 -26.8173 65.2058 -30.9042 60.3119 -30.9042H54.2665C49.6604 -30.9042 45.918 -27.4012 45.918 -22.4385V-16.0162C45.918 -11.6374 49.3725 -7.55052 54.2665 -7.55052H55.1301V3.5425C55.1301 4.71018 55.9937 5.87786 57.4331 5.87786H65.4937C66.3574 9.38092 69.524 11.7163 73.5543 11.7163C77.8725 11.7163 81.9028 8.21323 81.9028 3.25057C81.6149 -1.42017 77.5846 -5.21515 73.2665 -5.21515Z" fill="url(#paint0_linear_15175_76028)"/>
</g>
<defs>
<linearGradient id="paint0_linear_15175_76028" x1="200.916" y1="-58.8665" x2="79.9662" y2="110.308" gradientUnits="userSpaceOnUse">
<stop stop-color="#384B49"/>
<stop offset="1" stop-color="#293939"/>
</linearGradient>
<clipPath id="clip0_15175_76028">
<rect width="180" height="122" fill="white"/>
</clipPath>
</defs>
</svg>
