<svg width="520" height="212" viewBox="0 0 520 212" fill="none" xmlns="http://www.w3.org/2000/svg">
<path d="M0 12C0 5.37259 5.37258 0 12 0H508C514.627 0 520 5.37258 520 12V200C520 206.627 514.627 212 508 212H12C5.3726 212 0 206.627 0 200V12Z" fill="#272727"/>
<g clip-path="url(#clip0_2064_2856)">
<path d="M407.696 170.223C403.085 170.223 399.138 168.582 395.855 165.298C392.571 162.015 390.93 158.068 390.93 153.457V36.0954C390.93 31.4847 392.571 27.5377 395.855 24.2544C399.138 20.971 403.085 19.3293 407.696 19.3293H492.993C495.228 19.3293 497.359 19.7485 499.385 20.5868C501.411 21.4251 503.192 22.6127 504.729 24.1496L537.004 56.4241C538.54 57.961 539.728 59.7424 540.566 61.7683C541.405 63.7942 541.824 65.9249 541.824 68.1604V153.457C541.824 158.068 540.182 162.015 536.899 165.298C533.615 168.582 529.668 170.223 525.058 170.223H407.696ZM491.526 36.0954V61.2444C491.526 63.6196 492.329 65.6105 493.936 67.2173C495.543 68.824 497.534 69.6274 499.909 69.6274H525.058L491.526 36.0954ZM499.909 136.691C502.284 136.691 504.275 135.888 505.882 134.281C507.488 132.675 508.292 130.684 508.292 128.308C508.292 125.933 507.488 123.942 505.882 122.336C504.275 120.729 502.284 119.925 499.909 119.925H432.845C430.47 119.925 428.479 120.729 426.872 122.336C425.265 123.942 424.462 125.933 424.462 128.308C424.462 130.684 425.265 132.675 426.872 134.281C428.479 135.888 430.47 136.691 432.845 136.691H499.909ZM457.994 69.6274C460.369 69.6274 462.36 68.824 463.967 67.2173C465.573 65.6105 466.377 63.6196 466.377 61.2444C466.377 58.8692 465.573 56.8782 463.967 55.2715C462.36 53.6647 460.369 52.8614 457.994 52.8614H432.845C430.47 52.8614 428.479 53.6647 426.872 55.2715C425.265 56.8782 424.462 58.8692 424.462 61.2444C424.462 63.6196 425.265 65.6105 426.872 67.2173C428.479 68.824 430.47 69.6274 432.845 69.6274H457.994ZM499.909 103.159C502.284 103.159 504.275 102.356 505.882 100.749C507.488 99.1426 508.292 97.1516 508.292 94.7764C508.292 92.4012 507.488 90.4103 505.882 88.8035C504.275 87.1968 502.284 86.3934 499.909 86.3934H432.845C430.47 86.3934 428.479 87.1968 426.872 88.8035C425.265 90.4103 424.462 92.4012 424.462 94.7764C424.462 97.1516 425.265 99.1426 426.872 100.749C428.479 102.356 430.47 103.159 432.845 103.159H499.909Z" fill="url(#paint0_linear_2064_2856)"/>
<path d="M342.406 193.294C337.221 193.294 332.892 191.558 329.42 188.085C325.947 184.613 324.211 180.284 324.211 175.1V31.2888C324.211 26.1043 325.947 21.7757 329.42 18.3031C332.892 14.8305 337.221 13.0942 342.406 13.0942H447.037C449.462 13.0942 451.82 13.5851 454.11 14.5668C456.398 15.5485 458.358 16.855 459.989 18.4862L499.019 57.5164C500.65 59.1475 501.957 61.1072 502.938 63.3954C503.92 65.6854 504.411 68.043 504.411 70.4682V175.1C504.411 180.284 502.675 184.613 499.202 188.085C495.729 191.558 491.401 193.294 486.216 193.294H342.406ZM342.406 182.032H486.216C488.238 182.032 489.899 181.382 491.2 180.083C492.499 178.783 493.148 177.121 493.148 175.1V69.4067H457.196C454.581 69.4067 452.411 68.5442 450.686 66.8192C448.961 65.0941 448.098 62.9242 448.098 60.3095V24.3567H342.406C340.384 24.3567 338.723 25.0062 337.422 26.3051C336.123 27.606 335.473 29.2672 335.473 31.2888V175.1C335.473 177.121 336.123 178.783 337.422 180.083C338.723 181.382 340.384 182.032 342.406 182.032ZM459.361 148.244C460.964 148.244 462.303 147.706 463.379 146.631C464.454 145.555 464.992 144.216 464.992 142.613C464.992 141.01 464.454 139.671 463.379 138.595C462.303 137.52 460.964 136.982 459.361 136.982H369.261C367.658 136.982 366.319 137.52 365.243 138.595C364.167 139.671 363.63 141.01 363.63 142.613C363.63 144.216 364.167 145.555 365.243 146.631C366.319 147.706 367.658 148.244 369.261 148.244H459.361ZM408.68 69.4067C410.283 69.4067 411.622 68.869 412.698 67.7934C413.773 66.7178 414.311 65.3785 414.311 63.7755C414.311 62.1725 413.773 60.8332 412.698 59.7576C411.622 58.682 410.283 58.1442 408.68 58.1442H369.261C367.658 58.1442 366.319 58.682 365.243 59.7576C364.167 60.8332 363.63 62.1725 363.63 63.7755C363.63 65.3785 364.167 66.7178 365.243 67.7934C366.319 68.869 367.658 69.4067 369.261 69.4067H408.68ZM459.361 108.825C460.964 108.825 462.303 108.288 463.379 107.212C464.454 106.137 464.992 104.797 464.992 103.194C464.992 101.591 464.454 100.252 463.379 99.1763C462.303 98.1008 460.964 97.563 459.361 97.563H369.261C367.658 97.563 366.319 98.1008 365.243 99.1763C364.167 100.252 363.63 101.591 363.63 103.194C363.63 104.797 364.167 106.137 365.243 107.212C366.319 108.288 367.658 108.825 369.261 108.825H459.361Z" fill="url(#paint1_linear_2064_2856)"/>
</g>
<path d="M158.241 112V100.8H161.521C162.641 100.8 163.601 101.003 164.401 101.408C165.201 101.813 165.814 102.416 166.241 103.216C166.667 104.005 166.881 104.987 166.881 106.16V106.48C166.881 107.675 166.662 108.683 166.225 109.504C165.787 110.325 165.153 110.949 164.321 111.376C163.499 111.792 162.513 112 161.361 112H158.241ZM159.745 110.688H161.201C162.043 110.688 162.769 110.544 163.377 110.256C163.985 109.968 164.454 109.515 164.785 108.896C165.115 108.277 165.281 107.472 165.281 106.48V106.16C165.281 105.2 165.121 104.427 164.801 103.84C164.481 103.243 164.027 102.805 163.441 102.528C162.854 102.251 162.161 102.112 161.361 102.112H159.745V110.688ZM171.54 112.16C170.921 112.16 170.393 112.048 169.956 111.824C169.529 111.589 169.204 111.275 168.98 110.88C168.756 110.475 168.644 110.021 168.644 109.52C168.644 108.677 168.889 108.069 169.38 107.696C169.881 107.323 170.596 107.136 171.524 107.136H174.276V106.56C174.276 105.835 174.11 105.333 173.78 105.056C173.46 104.779 172.974 104.64 172.324 104.64C171.716 104.64 171.273 104.757 170.996 104.992C170.718 105.216 170.564 105.472 170.532 105.76H169.124C169.156 105.301 169.31 104.896 169.588 104.544C169.865 104.181 170.244 103.893 170.724 103.68C171.204 103.467 171.764 103.36 172.404 103.36C173.076 103.36 173.657 103.467 174.148 103.68C174.638 103.883 175.017 104.208 175.284 104.656C175.55 105.093 175.684 105.675 175.684 106.4V109.84C175.684 110.288 175.684 110.683 175.684 111.024C175.694 111.355 175.721 111.68 175.764 112H174.532C174.5 111.755 174.478 111.525 174.468 111.312C174.457 111.088 174.452 110.837 174.452 110.56C174.228 111.008 173.865 111.387 173.364 111.696C172.862 112.005 172.254 112.16 171.54 112.16ZM171.844 110.88C172.292 110.88 172.697 110.8 173.06 110.64C173.433 110.48 173.726 110.245 173.94 109.936C174.164 109.627 174.276 109.248 174.276 108.8V108.224H171.764C171.241 108.224 170.83 108.331 170.532 108.544C170.233 108.747 170.084 109.072 170.084 109.52C170.084 109.915 170.222 110.24 170.5 110.496C170.788 110.752 171.236 110.88 171.844 110.88ZM181.134 112.08C180.537 112.08 180.046 111.989 179.662 111.808C179.289 111.627 179.012 111.355 178.83 110.992C178.66 110.619 178.574 110.155 178.574 109.6V104.768H177.294V103.52H178.574V101.6H179.982V103.52H182.254V104.768H179.982V109.44C179.982 109.92 180.084 110.267 180.286 110.48C180.489 110.693 180.878 110.8 181.454 110.8C181.774 110.8 182.094 110.784 182.414 110.752V112C182.212 112.021 182.009 112.037 181.806 112.048C181.604 112.069 181.38 112.08 181.134 112.08ZM186.837 112.16C186.218 112.16 185.69 112.048 185.253 111.824C184.826 111.589 184.501 111.275 184.277 110.88C184.053 110.475 183.941 110.021 183.941 109.52C183.941 108.677 184.186 108.069 184.677 107.696C185.178 107.323 185.893 107.136 186.821 107.136H189.573V106.56C189.573 105.835 189.407 105.333 189.077 105.056C188.757 104.779 188.271 104.64 187.621 104.64C187.013 104.64 186.57 104.757 186.293 104.992C186.015 105.216 185.861 105.472 185.829 105.76H184.421C184.453 105.301 184.607 104.896 184.885 104.544C185.162 104.181 185.541 103.893 186.021 103.68C186.501 103.467 187.061 103.36 187.701 103.36C188.373 103.36 188.954 103.467 189.445 103.68C189.935 103.883 190.314 104.208 190.581 104.656C190.847 105.093 190.981 105.675 190.981 106.4V109.84C190.981 110.288 190.981 110.683 190.981 111.024C190.991 111.355 191.018 111.68 191.061 112H189.829C189.797 111.755 189.775 111.525 189.765 111.312C189.754 111.088 189.749 110.837 189.749 110.56C189.525 111.008 189.162 111.387 188.661 111.696C188.159 112.005 187.551 112.16 186.837 112.16ZM187.141 110.88C187.589 110.88 187.994 110.8 188.357 110.64C188.73 110.48 189.023 110.245 189.237 109.936C189.461 109.627 189.573 109.248 189.573 108.8V108.224H187.061C186.538 108.224 186.127 108.331 185.829 108.544C185.53 108.747 185.381 109.072 185.381 109.52C185.381 109.915 185.519 110.24 185.797 110.496C186.085 110.752 186.533 110.88 187.141 110.88ZM198.988 112L196.668 103.52H198.204L199.836 110.08L202.044 103.52H203.292L205.58 110.08L207.196 103.52H208.668L206.348 112H204.94L202.636 105.44L200.396 112H198.988ZM210.581 112V103.52H211.989V112H210.581ZM211.285 102.4C211.007 102.4 210.778 102.309 210.597 102.128C210.415 101.947 210.325 101.717 210.325 101.44C210.325 101.163 210.415 100.933 210.597 100.752C210.778 100.571 211.007 100.48 211.285 100.48C211.562 100.48 211.791 100.571 211.973 100.752C212.154 100.933 212.245 101.163 212.245 101.44C212.245 101.717 212.154 101.947 211.973 102.128C211.791 102.309 211.562 102.4 211.285 102.4ZM217.262 112.08C216.675 112.08 216.195 111.989 215.822 111.808C215.459 111.616 215.193 111.323 215.022 110.928C214.862 110.523 214.782 110 214.782 109.36V100.8H216.19V109.36C216.19 109.915 216.281 110.293 216.462 110.496C216.643 110.699 216.963 110.8 217.422 110.8C217.539 110.8 217.641 110.8 217.726 110.8C217.811 110.789 217.897 110.779 217.982 110.768V112.016C217.929 112.027 217.854 112.037 217.758 112.048C217.673 112.059 217.582 112.064 217.486 112.064C217.401 112.075 217.326 112.08 217.262 112.08ZM222.387 112.08C221.8 112.08 221.32 111.989 220.947 111.808C220.584 111.616 220.318 111.323 220.147 110.928C219.987 110.523 219.907 110 219.907 109.36V100.8H221.315V109.36C221.315 109.915 221.406 110.293 221.587 110.496C221.768 110.699 222.088 110.8 222.547 110.8C222.664 110.8 222.766 110.8 222.851 110.8C222.936 110.789 223.022 110.779 223.107 110.768V112.016C223.054 112.027 222.979 112.037 222.883 112.048C222.798 112.059 222.707 112.064 222.611 112.064C222.526 112.075 222.451 112.08 222.387 112.08ZM233.272 112.16C232.547 112.16 231.917 112 231.384 111.68C230.851 111.349 230.477 110.923 230.264 110.4V112H228.952V100.8H230.36V105.04C230.605 104.517 230.979 104.107 231.48 103.808C231.992 103.509 232.589 103.36 233.272 103.36C234.328 103.36 235.176 103.712 235.816 104.416C236.467 105.109 236.792 106.144 236.792 107.52V107.84C236.792 108.8 236.643 109.6 236.344 110.24C236.056 110.88 235.645 111.36 235.112 111.68C234.589 112 233.976 112.16 233.272 112.16ZM232.952 110.912C233.645 110.912 234.221 110.651 234.68 110.128C235.149 109.605 235.384 108.843 235.384 107.84V107.52C235.384 106.592 235.149 105.877 234.68 105.376C234.221 104.864 233.645 104.608 232.952 104.608C232.44 104.608 231.987 104.715 231.592 104.928C231.208 105.141 230.904 105.435 230.68 105.808C230.467 106.171 230.36 106.581 230.36 107.04V108.32C230.36 108.832 230.467 109.285 230.68 109.68C230.904 110.064 231.208 110.368 231.592 110.592C231.987 110.805 232.44 110.912 232.952 110.912ZM242.316 112.16C241.601 112.16 240.929 112.005 240.3 111.696C239.681 111.387 239.18 110.912 238.796 110.272C238.422 109.632 238.236 108.821 238.236 107.84V107.52C238.236 106.581 238.417 105.808 238.78 105.2C239.142 104.581 239.622 104.123 240.22 103.824C240.817 103.515 241.462 103.36 242.156 103.36C243.404 103.36 244.369 103.701 245.052 104.384C245.734 105.067 246.076 106.032 246.076 107.28V108.176H239.644C239.644 108.837 239.777 109.365 240.044 109.76C240.321 110.155 240.662 110.443 241.068 110.624C241.484 110.795 241.9 110.88 242.316 110.88C242.956 110.88 243.446 110.773 243.788 110.56C244.14 110.347 244.39 110.053 244.54 109.68H245.916C245.745 110.491 245.324 111.109 244.652 111.536C243.99 111.952 243.212 112.16 242.316 112.16ZM242.236 104.64C241.798 104.64 241.382 104.725 240.988 104.896C240.593 105.056 240.268 105.312 240.012 105.664C239.766 106.016 239.644 106.469 239.644 107.024H244.748C244.737 106.437 244.614 105.973 244.38 105.632C244.156 105.28 243.857 105.029 243.484 104.88C243.11 104.72 242.694 104.64 242.236 104.64ZM255.037 112.16C254.344 112.16 253.73 112 253.197 111.68C252.664 111.36 252.248 110.88 251.949 110.24C251.661 109.6 251.517 108.8 251.517 107.84V107.52C251.517 106.624 251.666 105.867 251.965 105.248C252.274 104.629 252.69 104.16 253.213 103.84C253.746 103.52 254.354 103.36 255.037 103.36C255.72 103.36 256.312 103.509 256.813 103.808C257.325 104.107 257.704 104.517 257.949 105.04V100.8H259.357V112H258.045V110.4C257.832 110.923 257.458 111.349 256.925 111.68C256.392 112 255.762 112.16 255.037 112.16ZM255.357 110.912C255.869 110.912 256.317 110.805 256.701 110.592C257.096 110.368 257.4 110.064 257.613 109.68C257.837 109.285 257.949 108.832 257.949 108.32V107.04C257.949 106.581 257.837 106.171 257.613 105.808C257.4 105.435 257.096 105.141 256.701 104.928C256.317 104.715 255.869 104.608 255.357 104.608C254.674 104.608 254.098 104.864 253.629 105.376C253.16 105.877 252.925 106.592 252.925 107.52V107.84C252.925 108.843 253.16 109.605 253.629 110.128C254.098 110.651 254.674 110.912 255.357 110.912ZM262.081 112V103.52H263.489V112H262.081ZM262.785 102.4C262.507 102.4 262.278 102.309 262.097 102.128C261.915 101.947 261.825 101.717 261.825 101.44C261.825 101.163 261.915 100.933 262.097 100.752C262.278 100.571 262.507 100.48 262.785 100.48C263.062 100.48 263.291 100.571 263.473 100.752C263.654 100.933 263.745 101.163 263.745 101.44C263.745 101.717 263.654 101.947 263.473 102.128C263.291 102.309 263.062 102.4 262.785 102.4ZM269.162 112.16C268.597 112.16 268.106 112.096 267.69 111.968C267.274 111.829 266.927 111.648 266.65 111.424C266.373 111.2 266.149 110.939 265.978 110.64C265.818 110.331 265.706 110.011 265.642 109.68H267.05C267.125 110.021 267.322 110.32 267.642 110.576C267.973 110.821 268.479 110.944 269.162 110.944C269.951 110.944 270.501 110.821 270.81 110.576C271.119 110.32 271.274 110.021 271.274 109.68C271.274 109.445 271.205 109.243 271.066 109.072C270.938 108.891 270.703 108.736 270.362 108.608C270.031 108.48 269.557 108.373 268.938 108.288C268.469 108.224 268.047 108.133 267.674 108.016C267.301 107.888 266.981 107.723 266.714 107.52C266.447 107.317 266.239 107.072 266.09 106.784C265.951 106.496 265.882 106.155 265.882 105.76C265.882 105.333 266.005 104.939 266.25 104.576C266.495 104.213 266.863 103.92 267.354 103.696C267.845 103.472 268.447 103.36 269.162 103.36C269.834 103.36 270.389 103.477 270.826 103.712C271.274 103.936 271.621 104.235 271.866 104.608C272.111 104.981 272.277 105.392 272.362 105.84H270.954C270.869 105.467 270.687 105.163 270.41 104.928C270.133 104.693 269.717 104.576 269.162 104.576C268.469 104.576 267.983 104.693 267.706 104.928C267.429 105.152 267.29 105.429 267.29 105.76C267.29 106.144 267.439 106.432 267.738 106.624C268.047 106.816 268.607 106.965 269.418 107.072C269.941 107.136 270.405 107.232 270.81 107.36C271.215 107.477 271.557 107.643 271.834 107.856C272.111 108.059 272.319 108.309 272.458 108.608C272.607 108.907 272.682 109.264 272.682 109.68C272.682 110.128 272.554 110.539 272.298 110.912C272.042 111.285 271.653 111.589 271.13 111.824C270.618 112.048 269.962 112.16 269.162 112.16ZM274.686 115.2V103.52H275.998V105.12C276.286 104.555 276.686 104.123 277.198 103.824C277.721 103.515 278.324 103.36 279.006 103.36C280.073 103.36 280.926 103.712 281.566 104.416C282.206 105.109 282.526 106.144 282.526 107.52V107.84C282.526 108.8 282.377 109.6 282.078 110.24C281.79 110.88 281.38 111.36 280.846 111.68C280.324 112 279.71 112.16 279.006 112.16C278.281 112.16 277.673 112 277.182 111.68C276.702 111.36 276.34 110.96 276.094 110.48V115.2H274.686ZM278.686 110.912C279.38 110.912 279.956 110.651 280.414 110.128C280.884 109.605 281.118 108.843 281.118 107.84V107.52C281.118 106.592 280.884 105.877 280.414 105.376C279.956 104.864 279.38 104.608 278.686 104.608C278.174 104.608 277.721 104.715 277.326 104.928C276.942 105.141 276.638 105.435 276.414 105.808C276.201 106.171 276.094 106.581 276.094 107.04V108.32C276.094 108.832 276.201 109.285 276.414 109.68C276.638 110.064 276.942 110.368 277.326 110.592C277.721 110.805 278.174 110.912 278.686 110.912ZM287.09 112.08C286.503 112.08 286.023 111.989 285.65 111.808C285.287 111.616 285.021 111.323 284.85 110.928C284.69 110.523 284.61 110 284.61 109.36V100.8H286.018V109.36C286.018 109.915 286.109 110.293 286.29 110.496C286.471 110.699 286.791 110.8 287.25 110.8C287.367 110.8 287.469 110.8 287.554 110.8C287.639 110.789 287.725 110.779 287.81 110.768V112.016C287.757 112.027 287.682 112.037 287.586 112.048C287.501 112.059 287.41 112.064 287.314 112.064C287.229 112.075 287.154 112.08 287.09 112.08ZM292.071 112.16C291.452 112.16 290.924 112.048 290.487 111.824C290.06 111.589 289.735 111.275 289.511 110.88C289.287 110.475 289.175 110.021 289.175 109.52C289.175 108.677 289.42 108.069 289.911 107.696C290.412 107.323 291.127 107.136 292.055 107.136H294.807V106.56C294.807 105.835 294.642 105.333 294.311 105.056C293.991 104.779 293.506 104.64 292.855 104.64C292.247 104.64 291.804 104.757 291.527 104.992C291.25 105.216 291.095 105.472 291.063 105.76H289.655C289.687 105.301 289.842 104.896 290.119 104.544C290.396 104.181 290.775 103.893 291.255 103.68C291.735 103.467 292.295 103.36 292.935 103.36C293.607 103.36 294.188 103.467 294.679 103.68C295.17 103.883 295.548 104.208 295.815 104.656C296.082 105.093 296.215 105.675 296.215 106.4V109.84C296.215 110.288 296.215 110.683 296.215 111.024C296.226 111.355 296.252 111.68 296.295 112H295.063C295.031 111.755 295.01 111.525 294.999 111.312C294.988 111.088 294.983 110.837 294.983 110.56C294.759 111.008 294.396 111.387 293.895 111.696C293.394 112.005 292.786 112.16 292.071 112.16ZM292.375 110.88C292.823 110.88 293.228 110.8 293.591 110.64C293.964 110.48 294.258 110.245 294.471 109.936C294.695 109.627 294.807 109.248 294.807 108.8V108.224H292.295C291.772 108.224 291.362 108.331 291.063 108.544C290.764 108.747 290.615 109.072 290.615 109.52C290.615 109.915 290.754 110.24 291.031 110.496C291.319 110.752 291.767 110.88 292.375 110.88ZM299.509 115.36C299.349 115.36 299.189 115.344 299.029 115.312V114.032C299.189 114.064 299.349 114.08 299.509 114.08C299.723 114.08 299.899 114.027 300.037 113.92C300.187 113.824 300.336 113.627 300.485 113.328C300.635 113.029 300.816 112.587 301.029 112L297.429 103.52H298.997L301.749 110.4L304.245 103.52H305.749L302.549 112C302.251 112.8 301.963 113.445 301.685 113.936C301.419 114.427 301.115 114.784 300.773 115.008C300.443 115.243 300.021 115.36 299.509 115.36ZM310.55 112.16C309.835 112.16 309.163 112.005 308.534 111.696C307.915 111.387 307.414 110.912 307.03 110.272C306.657 109.632 306.47 108.821 306.47 107.84V107.52C306.47 106.581 306.651 105.808 307.014 105.2C307.377 104.581 307.857 104.123 308.454 103.824C309.051 103.515 309.697 103.36 310.39 103.36C311.638 103.36 312.603 103.701 313.286 104.384C313.969 105.067 314.31 106.032 314.31 107.28V108.176H307.878C307.878 108.837 308.011 109.365 308.278 109.76C308.555 110.155 308.897 110.443 309.302 110.624C309.718 110.795 310.134 110.88 310.55 110.88C311.19 110.88 311.681 110.773 312.022 110.56C312.374 110.347 312.625 110.053 312.774 109.68H314.15C313.979 110.491 313.558 111.109 312.886 111.536C312.225 111.952 311.446 112.16 310.55 112.16ZM310.47 104.64C310.033 104.64 309.617 104.725 309.222 104.896C308.827 105.056 308.502 105.312 308.246 105.664C308.001 106.016 307.878 106.469 307.878 107.024H312.982C312.971 106.437 312.849 105.973 312.614 105.632C312.39 105.28 312.091 105.029 311.718 104.88C311.345 104.72 310.929 104.64 310.47 104.64ZM319.271 112.16C318.578 112.16 317.965 112 317.431 111.68C316.898 111.36 316.482 110.88 316.183 110.24C315.895 109.6 315.751 108.8 315.751 107.84V107.52C315.751 106.624 315.901 105.867 316.199 105.248C316.509 104.629 316.925 104.16 317.447 103.84C317.981 103.52 318.589 103.36 319.271 103.36C319.954 103.36 320.546 103.509 321.047 103.808C321.559 104.107 321.938 104.517 322.183 105.04V100.8H323.591V112H322.279V110.4C322.066 110.923 321.693 111.349 321.159 111.68C320.626 112 319.997 112.16 319.271 112.16ZM319.591 110.912C320.103 110.912 320.551 110.805 320.935 110.592C321.33 110.368 321.634 110.064 321.847 109.68C322.071 109.285 322.183 108.832 322.183 108.32V107.04C322.183 106.581 322.071 106.171 321.847 105.808C321.634 105.435 321.33 105.141 320.935 104.928C320.551 104.715 320.103 104.608 319.591 104.608C318.909 104.608 318.333 104.864 317.863 105.376C317.394 105.877 317.159 106.592 317.159 107.52V107.84C317.159 108.843 317.394 109.605 317.863 110.128C318.333 110.651 318.909 110.912 319.591 110.912ZM330.155 112V100.8H331.563V105.04C331.712 104.741 331.915 104.464 332.171 104.208C332.427 103.952 332.736 103.749 333.099 103.6C333.472 103.44 333.894 103.36 334.363 103.36C335.43 103.36 336.219 103.648 336.731 104.224C337.254 104.789 337.515 105.621 337.515 106.72V112H336.107V107.04C336.107 106.251 335.942 105.653 335.611 105.248C335.28 104.843 334.726 104.64 333.947 104.64C333.392 104.64 332.939 104.757 332.587 104.992C332.235 105.227 331.974 105.525 331.803 105.888C331.643 106.251 331.563 106.635 331.563 107.04V112H330.155ZM343.519 112.16C342.804 112.16 342.132 112.005 341.503 111.696C340.884 111.387 340.383 110.912 339.999 110.272C339.625 109.632 339.439 108.821 339.439 107.84V107.52C339.439 106.581 339.62 105.808 339.983 105.2C340.345 104.581 340.825 104.123 341.423 103.824C342.02 103.515 342.665 103.36 343.359 103.36C344.607 103.36 345.572 103.701 346.255 104.384C346.937 105.067 347.279 106.032 347.279 107.28V108.176H340.847C340.847 108.837 340.98 109.365 341.247 109.76C341.524 110.155 341.865 110.443 342.271 110.624C342.687 110.795 343.103 110.88 343.519 110.88C344.159 110.88 344.649 110.773 344.991 110.56C345.343 110.347 345.593 110.053 345.743 109.68H347.119C346.948 110.491 346.527 111.109 345.855 111.536C345.193 111.952 344.415 112.16 343.519 112.16ZM343.439 104.64C343.001 104.64 342.585 104.725 342.191 104.896C341.796 105.056 341.471 105.312 341.215 105.664C340.969 106.016 340.847 106.469 340.847 107.024H345.951C345.94 106.437 345.817 105.973 345.583 105.632C345.359 105.28 345.06 105.029 344.687 104.88C344.313 104.72 343.897 104.64 343.439 104.64ZM349.28 112V103.52H350.592V105.12C350.72 104.779 350.896 104.48 351.12 104.224C351.344 103.957 351.616 103.749 351.936 103.6C352.267 103.44 352.635 103.36 353.04 103.36C353.253 103.36 353.424 103.371 353.552 103.392C353.691 103.413 353.813 103.44 353.92 103.472V104.784C353.781 104.731 353.643 104.693 353.504 104.672C353.376 104.651 353.195 104.64 352.96 104.64C352.533 104.64 352.149 104.741 351.808 104.944C351.467 105.147 351.195 105.429 350.992 105.792C350.789 106.144 350.688 106.56 350.688 107.04V112H349.28ZM358.878 112.16C358.163 112.16 357.491 112.005 356.862 111.696C356.243 111.387 355.742 110.912 355.358 110.272C354.985 109.632 354.798 108.821 354.798 107.84V107.52C354.798 106.581 354.979 105.808 355.342 105.2C355.705 104.581 356.185 104.123 356.782 103.824C357.379 103.515 358.025 103.36 358.718 103.36C359.966 103.36 360.931 103.701 361.614 104.384C362.297 105.067 362.638 106.032 362.638 107.28V108.176H356.206C356.206 108.837 356.339 109.365 356.606 109.76C356.883 110.155 357.225 110.443 357.63 110.624C358.046 110.795 358.462 110.88 358.878 110.88C359.518 110.88 360.009 110.773 360.35 110.56C360.702 110.347 360.953 110.053 361.102 109.68H362.478C362.307 110.491 361.886 111.109 361.214 111.536C360.553 111.952 359.774 112.16 358.878 112.16ZM358.798 104.64C358.361 104.64 357.945 104.725 357.55 104.896C357.155 105.056 356.83 105.312 356.574 105.664C356.329 106.016 356.206 106.469 356.206 107.024H361.31C361.299 106.437 361.177 105.973 360.942 105.632C360.718 105.28 360.419 105.029 360.046 104.88C359.673 104.72 359.257 104.64 358.798 104.64Z" fill="#A2AAA9"/>
<defs>
<linearGradient id="paint0_linear_2064_2856" x1="658.752" y1="-48.3643" x2="435.227" y2="140.444" gradientUnits="userSpaceOnUse">
<stop stop-color="#4D5F5D"/>
<stop offset="1" stop-color="#262B28"/>
</linearGradient>
<linearGradient id="paint1_linear_2064_2856" x1="527.329" y1="-16.1339" x2="377.428" y2="158.458" gradientUnits="userSpaceOnUse">
<stop stop-color="#4D5F5D"/>
<stop offset="1" stop-color="#2C2F2D"/>
</linearGradient>
<clipPath id="clip0_2064_2856">
<rect width="212" height="212" fill="white" transform="translate(308)"/>
</clipPath>
</defs>
</svg>
