<svg width="180" height="120" viewBox="0 0 180 120" fill="none" xmlns="http://www.w3.org/2000/svg">
<g clip-path="url(#clip0_21073_56348)">
<path opacity="0.3" fill-rule="evenodd" clip-rule="evenodd" d="M139.633 34.9492C165.926 34.9492 188.133 45.0252 188.133 56.9492V67.9492C188.133 79.8732 165.926 89.9492 139.633 89.9492C113.34 89.9492 91.1328 79.8732 91.1328 67.9492V56.9492C91.1328 45.0252 113.34 34.9492 139.633 34.9492ZM91.1328 106.449C91.1328 118.373 113.34 128.449 139.633 128.449C165.926 128.449 188.133 118.373 188.133 106.449V122.949C188.133 134.873 165.926 144.949 139.633 144.949C113.34 144.949 91.1328 134.873 91.1328 122.949V106.449ZM139.633 100.946C165.926 100.946 188.133 90.8701 188.133 78.9461V95.4461C188.133 107.37 165.926 117.446 139.633 117.446C113.34 117.446 91.1328 107.37 91.1328 95.4461V78.9461C91.1328 90.8701 113.34 100.946 139.633 100.946Z" fill="url(#paint0_linear_21073_56348)"/>
<path fill-rule="evenodd" clip-rule="evenodd" d="M78 110C105.614 110 128 87.6142 128 60C128 32.3858 105.614 10 78 10C50.3858 10 28 32.3858 28 60C28 87.6142 50.3858 110 78 110ZM78 104.444C102.546 104.444 122.444 84.546 122.444 60C122.444 35.454 102.546 15.5556 78 15.5556C53.454 15.5556 33.5556 35.454 33.5556 60C33.5556 84.546 53.454 104.444 78 104.444ZM78.6021 26.4457C72.0253 26.4457 65.5962 28.3959 60.1279 32.0498C54.6595 35.7037 50.3974 40.897 47.8805 46.9732C45.3637 53.0494 44.7052 59.7354 45.9883 66.1858C47.2713 72.6362 50.4383 78.5613 55.0888 83.2118C59.7393 87.8623 65.6644 91.0293 72.1148 92.3124C78.5652 93.5954 85.2513 92.9369 91.3274 90.4201C97.4036 87.9033 102.597 83.6412 106.251 78.1728C109.905 72.7044 111.855 66.2753 111.855 59.6985C111.855 50.8793 108.352 42.4213 102.115 36.1852C95.8793 29.9491 87.4213 26.4457 78.6021 26.4457ZM76.2269 50.1977C76.2269 49.5678 76.4772 48.9636 76.9226 48.5182C77.368 48.0727 77.9722 47.8225 78.6021 47.8225C79.2321 47.8225 79.8362 48.0727 80.2816 48.5182C80.7271 48.9636 80.9773 49.5678 80.9773 50.1977V54.9481C80.9773 55.578 80.7271 56.1822 80.2816 56.6276C79.8362 57.0731 79.2321 57.3233 78.6021 57.3233C77.9722 57.3233 77.368 57.0731 76.9226 56.6276C76.4772 56.1822 76.2269 55.578 76.2269 54.9481V50.1977ZM73.8517 62.0737H69.1013C68.4714 62.0737 67.8672 61.8235 67.4218 61.378C66.9764 60.9326 66.7261 60.3284 66.7261 59.6985C66.7261 59.0686 66.9764 58.4644 67.4218 58.019C67.8672 57.5735 68.4714 57.3233 69.1013 57.3233H73.8517C74.4817 57.3233 75.0858 57.5735 75.5312 58.019C75.9767 58.4644 76.2269 59.0686 76.2269 59.6985C76.2269 60.3284 75.9767 60.9326 75.5312 61.378C75.0858 61.8235 74.4817 62.0737 73.8517 62.0737ZM80.9773 69.1993C80.9773 69.8292 80.7271 70.4334 80.2816 70.8788C79.8362 71.3243 79.2321 71.5745 78.6021 71.5745C77.9722 71.5745 77.368 71.3243 76.9226 70.8788C76.4772 70.4334 76.2269 69.8292 76.2269 69.1993V64.4489C76.2269 63.819 76.4772 63.2148 76.9226 62.7694C77.368 62.3239 77.9722 62.0737 78.6021 62.0737C79.2321 62.0737 79.8362 62.3239 80.2816 62.7694C80.7271 63.2148 80.9773 63.819 80.9773 64.4489V69.1993ZM88.1029 62.0737H83.3525C82.7226 62.0737 82.1184 61.8235 81.673 61.378C81.2276 60.9326 80.9773 60.3284 80.9773 59.6985C80.9773 59.0686 81.2276 58.4644 81.673 58.019C82.1184 57.5735 82.7226 57.3233 83.3525 57.3233H88.1029C88.7329 57.3233 89.337 57.5735 89.7825 58.019C90.2279 58.4644 90.4781 59.0686 90.4781 59.6985C90.4781 60.3284 90.2279 60.9326 89.7825 61.378C89.337 61.8235 88.7329 62.0737 88.1029 62.0737Z" fill="url(#paint1_linear_21073_56348)"/>
</g>
<defs>
<linearGradient id="paint0_linear_21073_56348" x1="222.461" y1="20.2204" x2="117.147" y2="98.6648" gradientUnits="userSpaceOnUse">
<stop stop-color="#2A2A2A"/>
<stop offset="1" stop-color="#303030"/>
</linearGradient>
<linearGradient id="paint1_linear_21073_56348" x1="163.39" y1="-3.38984" x2="64.8731" y2="79.8262" gradientUnits="userSpaceOnUse">
<stop stop-color="#1F1F1F"/>
<stop offset="1" stop-color="#2F2F2F"/>
</linearGradient>
<clipPath id="clip0_21073_56348">
<rect width="180" height="120" fill="white"/>
</clipPath>
</defs>
</svg>
