<svg width="680" height="120" viewBox="0 0 680 120" fill="none" xmlns="http://www.w3.org/2000/svg">
<g style="mix-blend-mode:screen" opacity="0.1" clip-path="url(#clip0_21013_11518)">
<path d="M146.222 -4.96411L47.4459 -61.8139C46.8583 -62.1185 46.3854 -62.0522 45.6235 -61.5928L45.6463 -61.613L38.6136 -57.5653C38.154 -57.2462 38.0279 -56.7634 38 -56.5404V57.0576L38.0051 57.0266C37.9835 57.7956 38.1737 58.2101 38.7841 58.593L46.1414 62.8278C46.6713 63.0559 46.9584 63.0218 47.468 62.7412L146.282 5.93057C146.813 5.59378 146.997 5.16601 146.999 4.34205V-3.73386C146.981 -3.97713 146.806 -4.65702 146.222 -4.96411ZM105.088 -9.09969L121.825 0.533783L105.086 10.1672L105.088 -9.09969ZM54.9629 19.6566L71.6658 29.2642L54.9629 38.8774V19.6566ZM71.6665 -28.3357L54.9768 -18.7167V-37.9407L71.6665 -28.3357ZM55.5606 0.466171L88.1121 -18.2687V19.2011L55.5606 0.466171Z" fill="#0C422F"/>
<path d="M79.9137 24.5176L71.702 29.285L46.7194 14.9145L46.644 62.9611C46.4513 62.9649 46.3379 62.9131 46.1414 62.8278L38.7841 58.5936C38.1737 58.2113 37.9835 57.7962 38.0051 57.0272L38 57.0582V0.395382L79.9137 24.5176ZM146.785 -4.343L105.085 19.6054L105.088 -9.13066L96.8302 -13.8526L96.8157 34.3551L146.282 5.93055C146.814 5.59377 146.997 5.16599 147 4.3414V-3.73388C146.98 -3.99989 146.896 -4.15281 146.785 -4.343ZM47.4459 -61.8139C46.8583 -62.1185 46.3854 -62.0522 45.6235 -61.5928L45.6463 -61.613L38.6136 -57.5653C38.4241 -57.4294 38.2814 -57.2828 38.1813 -57.1103L79.9156 -33.0905L54.9584 -18.706L54.9768 -9.23555L96.8905 -33.3571L47.4459 -61.8139Z" fill="#1C8B63"/>
<path d="M146.833 -4.3625L105.085 19.5986L105.086 10.1604L130.082 -4.22539L88.1685 -28.3463L96.886 -33.364L146.221 -4.97036C146.515 -4.78838 146.711 -4.59503 146.833 -4.3625ZM38.1819 -57.1172C38.0881 -56.9548 38.0279 -56.7703 38 -56.5472V0.387886L46.7188 5.42767V-42.7017L71.7229 -28.3413L79.9162 -33.098L38.1819 -57.1172ZM54.9039 48.4333L54.9622 19.6498L46.7188 14.9076L46.6491 62.9947C46.8836 62.9909 47.1283 62.9182 47.4091 62.7811L96.8182 34.3464V24.311L54.9039 48.4333Z" fill="#95B1A4"/>
<path d="M739.222 83.0359L640.446 26.1861C639.858 25.8815 639.385 25.9478 638.623 26.4072L638.646 26.387L631.614 30.4347C631.154 30.7538 631.028 31.2366 631 31.4596V145.058L631.005 145.027C630.984 145.796 631.174 146.21 631.784 146.593L639.141 150.828C639.671 151.056 639.958 151.022 640.468 150.741L739.282 93.9306C739.813 93.5938 739.997 93.166 739.999 92.342V84.2661C739.981 84.0229 739.806 83.343 739.222 83.0359ZM698.088 78.9003L714.825 88.5338L698.086 98.1672L698.088 78.9003ZM647.963 107.657L664.666 117.264L647.963 126.877V107.657ZM664.666 59.6643L647.977 69.2833V50.0593L664.666 59.6643ZM648.561 88.4662L681.112 69.7313V107.201L648.561 88.4662Z" fill="#0C422F"/>
<path d="M672.914 112.518L664.702 117.285L639.719 102.914L639.644 150.961C639.451 150.965 639.338 150.913 639.141 150.828L631.784 146.594C631.174 146.211 630.984 145.796 631.005 145.027L631 145.058V88.3954L672.914 112.518ZM739.785 83.657L698.085 107.605L698.088 78.8693L689.83 74.1474L689.816 122.355L739.282 93.9305C739.814 93.5938 739.997 93.166 740 92.3414V84.2661C739.98 84.0001 739.896 83.8472 739.785 83.657ZM640.446 26.1861C639.858 25.8815 639.385 25.9478 638.623 26.4072L638.646 26.387L631.614 30.4347C631.424 30.5706 631.281 30.7172 631.181 30.8897L672.916 54.9095L647.958 69.294L647.977 78.7644L689.89 54.6429L640.446 26.1861Z" fill="#1C8B63"/>
<path d="M739.833 83.6375L698.085 107.599L698.086 98.1604L723.082 83.7746L681.168 59.6537L689.886 54.636L739.221 83.0296C739.515 83.2116 739.711 83.405 739.833 83.6375ZM631.182 30.8828C631.088 31.0452 631.028 31.2297 631 31.4528V88.3879L639.719 93.4277V45.2983L664.723 59.6587L672.916 54.902L631.182 30.8828ZM647.904 136.433L647.962 107.65L639.719 102.908L639.649 150.995C639.884 150.991 640.128 150.918 640.409 150.781L689.818 122.346V112.311L647.904 136.433Z" fill="#95B1A4"/>
<path d="M509.53 -3.1198L398.607 -66.7916C397.948 -67.1327 397.417 -67.0584 396.561 -66.5439L396.587 -66.5666L388.689 -62.0331C388.173 -61.6757 388.031 -61.135 388 -60.8852V66.3445L388.006 66.3098C387.981 67.1711 388.195 67.6353 388.881 68.0642L397.143 72.8071C397.738 73.0626 398.06 73.0244 398.632 72.7102L509.598 9.08224C510.194 8.70504 510.401 8.22592 510.404 7.30309V-1.74193C510.383 -2.01439 510.187 -2.77586 509.53 -3.1198ZM463.338 -7.75165L482.134 3.03783L463.336 13.8273L463.338 -7.75165ZM407.049 24.4554L425.806 35.2159L407.049 45.9827V24.4554ZM425.807 -29.2959L407.065 -18.5227V-40.0536L425.807 -29.2959ZM407.72 2.96211L444.275 -18.021V23.9452L407.72 2.96211Z" fill="#0C422F"/>
<path d="M435.068 29.8997L425.846 35.2392L397.792 19.1442L397.707 72.9564C397.491 72.9607 397.363 72.9026 397.143 72.8071L388.881 68.0648C388.195 67.6367 387.981 67.1717 388.006 66.3105L388 66.3452V2.88283L435.068 29.8997ZM510.163 -2.42416L463.335 24.3981L463.338 -7.78634L454.065 -13.0749L454.049 40.9178L509.599 9.08222C510.195 8.70502 510.402 8.22591 510.404 7.30237V-1.74194C510.382 -2.03988 510.288 -2.21114 510.163 -2.42416ZM398.607 -66.7916C397.948 -67.1327 397.417 -67.0584 396.561 -66.5439L396.587 -66.5666L388.689 -62.0331C388.476 -61.8809 388.316 -61.7168 388.204 -61.5236L435.07 -34.6213L407.044 -18.5107L407.065 -7.90382L454.133 -34.92L398.607 -66.7916Z" fill="#1C8B63"/>
<path d="M510.217 -2.446L463.335 24.3904L463.336 13.8196L491.405 -2.29243L444.338 -29.3079L454.128 -34.9277L509.53 -3.1268C509.86 -2.92299 510.08 -2.70644 510.217 -2.446ZM388.204 -61.5312C388.099 -61.3494 388.031 -61.1427 388 -60.8929V2.87444L397.791 8.51898V-45.386L425.87 -29.3022L435.071 -34.6297L388.204 -61.5312ZM406.983 56.6852L407.048 24.4477L397.791 19.1365L397.713 72.994C397.976 72.9898 398.251 72.9084 398.566 72.7548L454.051 40.9079V29.6684L406.983 56.6852Z" fill="#95B1A4"/>
<path d="M349.857 101.501L204.865 18.2724C204.003 17.8265 203.309 17.9236 202.19 18.5962L202.224 18.5666L191.901 24.4925C191.226 24.9596 191.041 25.6664 191 25.9929V192.3L191.007 192.255C190.976 193.381 191.255 193.988 192.151 194.548L202.951 200.748C203.728 201.082 204.15 201.032 204.898 200.621L349.946 117.45C350.726 116.957 350.995 116.331 350.999 115.125V103.302C350.972 102.945 350.715 101.95 349.857 101.501ZM289.478 95.4461L314.046 109.549L289.475 123.653L289.478 95.4461ZM215.9 137.545L240.418 151.611L215.9 165.685V137.545ZM240.419 67.2846L215.92 81.3667V53.2228L240.419 67.2846ZM216.777 109.45L264.559 82.0226V136.878L216.777 109.45Z" fill="#0C422F"/>
<path d="M252.525 144.662L240.471 151.641L203.799 130.603L203.688 200.943C203.406 200.949 203.239 200.873 202.951 200.748L192.151 194.549C191.255 193.989 190.976 193.382 191.007 192.256L191 192.301V109.347L252.525 144.662ZM350.685 102.41L289.473 137.47L289.478 95.4007L277.356 88.4878L277.335 159.064L349.947 117.45C350.726 116.957 350.996 116.331 351 115.124V103.302C350.97 102.912 350.847 102.688 350.685 102.41ZM204.865 18.2724C204.003 17.8265 203.309 17.9236 202.19 18.5962L202.224 18.5666L191.901 24.4925C191.622 24.6913 191.413 24.906 191.266 25.1585L252.527 60.3235L215.893 81.3824L215.92 95.2472L277.445 59.9332L204.865 18.2724Z" fill="#1C8B63"/>
<path d="M350.755 102.381L289.473 137.46L289.475 123.643L326.166 102.582L264.642 67.269L277.438 59.9231L349.856 101.491C350.288 101.758 350.576 102.041 350.755 102.381ZM191.267 25.1484C191.129 25.3862 191.041 25.6563 191 25.9828V109.336L203.798 116.714V46.2526L240.501 67.2764L252.528 60.3126L191.267 25.1484ZM215.813 179.674L215.899 137.535L203.798 130.593L203.696 200.992C204.04 200.987 204.399 200.88 204.812 200.68L277.339 159.051V144.359L215.813 179.674Z" fill="#95B1A4"/>
</g>
<defs>
<clipPath id="clip0_21013_11518">
<rect width="680" height="120" fill="white"/>
</clipPath>
</defs>
</svg>
