<svg width="340" height="340" viewBox="0 0 340 340" fill="none" xmlns="http://www.w3.org/2000/svg">
<g clip-path="url(#clip0_21013_23598)">
<path d="M147.58 240C141.22 240 135.867 237.853 131.52 233.558C127.173 229.264 125 223.974 125 217.691V34.3094C125 28.0256 127.173 22.7364 131.52 18.4417C135.867 14.1472 141.22 12 147.58 12H332.968C339.328 12 344.682 14.1472 349.029 18.4417C353.375 22.7364 355.549 28.0256 355.549 34.3094V56.1721H264.323C253.201 56.1721 244.324 59.4488 237.691 66.0023C231.058 72.5555 227.742 81.3258 227.742 92.3132V159.687C227.742 170.674 231.058 179.445 237.691 185.998C244.324 192.551 253.201 195.828 264.323 195.828H355.549V217.691C355.549 223.974 353.375 229.264 349.029 233.558C344.682 237.853 339.328 240 332.968 240H147.58ZM264.323 182.442C257.69 182.442 252.193 180.288 247.832 175.98C243.471 171.671 241.29 166.24 241.29 159.687V92.3132C241.29 85.7597 243.471 80.3287 247.832 76.0203C252.193 71.7118 257.69 69.5576 264.323 69.5576H346.968C353.601 69.5576 359.098 71.7118 363.459 76.0203C367.82 80.3287 370 85.7597 370 92.3132V159.687C370 166.24 367.82 171.671 363.459 175.98C359.098 180.288 353.601 182.442 346.968 182.442H264.323ZM298.419 147.528C304.629 147.528 309.813 145.474 313.972 141.366C318.13 137.257 320.21 132.135 320.21 126C320.21 119.865 318.13 114.743 313.972 110.634C309.813 106.526 304.629 104.472 298.419 104.472C292.21 104.472 287.026 106.526 282.867 110.634C278.708 114.743 276.629 119.865 276.629 126C276.629 132.135 278.708 137.257 282.867 141.366C287.026 145.474 292.21 147.528 298.419 147.528Z" fill="url(#paint0_linear_21013_23598)"/>
<path d="M43.2673 256.116V288.792V75.2078V256.116ZM52.7786 303C46.1899 303 40.5795 300.694 35.9476 296.081C31.3159 291.469 29 285.882 29 279.321V84.6792C29 78.1182 31.3159 72.5313 35.9476 67.9188C40.5795 63.3063 46.1899 61 52.7786 61H248.003C254.592 61 260.202 63.3063 264.834 67.9188C269.466 72.5313 271.782 78.1182 271.782 84.6792V130.676H257.514V84.6792C257.514 81.9167 256.622 79.6475 254.839 77.8716C253.056 76.0957 250.777 75.2078 248.003 75.2078H52.7786C50.0045 75.2078 47.7257 76.0957 45.9423 77.8716C44.159 79.6475 43.2673 81.9167 43.2673 84.6792V279.321C43.2673 282.083 44.159 284.352 45.9423 286.128C47.7257 287.904 50.0045 288.792 52.7786 288.792H248.003C250.777 288.792 253.056 287.904 254.839 286.128C256.622 284.352 257.514 282.083 257.514 279.321V233.324H271.782V279.321C271.782 285.882 269.466 291.469 264.834 296.081C260.202 300.694 254.592 303 248.003 303H52.7786ZM175.708 241.908C168.956 241.908 163.226 239.56 158.52 234.862C153.814 230.165 151.461 224.477 151.461 217.797V146.229C151.461 139.511 153.818 133.808 158.533 129.122C163.248 124.435 168.957 122.092 175.663 122.092H262.753C269.505 122.092 275.235 124.44 279.941 129.138C284.647 133.835 287 139.523 287 146.203V217.771C287 224.489 284.643 230.192 279.928 234.878C275.213 239.565 269.503 241.908 262.798 241.908H175.708ZM263.221 227.7C265.995 227.7 268.274 226.812 270.058 225.037C271.841 223.261 272.733 220.991 272.733 218.229V145.771C272.733 143.009 271.841 140.739 270.058 138.963C268.274 137.188 265.995 136.3 263.221 136.3H175.239C172.465 136.3 170.187 137.188 168.403 138.963C166.62 140.739 165.728 143.009 165.728 145.771V218.229C165.728 220.991 166.62 223.261 168.403 225.037C170.187 226.812 172.465 227.7 175.239 227.7H263.221ZM211.598 204.85C218.024 204.85 223.459 202.645 227.902 198.235C232.346 193.825 234.568 188.421 234.568 182.023C234.568 175.624 232.354 170.212 227.925 165.787C223.496 161.362 218.069 159.15 211.644 159.15C205.219 159.15 199.784 161.355 195.34 165.765C190.897 170.175 188.675 175.579 188.675 181.977C188.675 188.376 190.889 193.788 195.318 198.213C199.746 202.638 205.173 204.85 211.598 204.85Z" fill="url(#paint1_linear_21013_23598)"/>
</g>
<defs>
<linearGradient id="paint0_linear_21013_23598" x1="559.851" y1="-90.2846" x2="218.885" y2="219.199" gradientUnits="userSpaceOnUse">
<stop stop-color="#4D5F5D"/>
<stop offset="1" stop-color="#262B28"/>
</linearGradient>
<linearGradient id="paint1_linear_21013_23598" x1="319.813" y1="21.748" x2="120.84" y2="268.818" gradientUnits="userSpaceOnUse">
<stop stop-color="#4D5F5D"/>
<stop offset="1" stop-color="#2C2F2D"/>
</linearGradient>
<clipPath id="clip0_21013_23598">
<rect width="340" height="340" fill="white"/>
</clipPath>
</defs>
</svg>
