<svg width="340" height="340" viewBox="0 0 340 340" fill="none" xmlns="http://www.w3.org/2000/svg">
<g clip-path="url(#clip0_21013_14899)">
<path d="M489.31 170H130.69C114.845 170 102 182.852 102 198.706V263.294C102 279.148 114.845 292 130.69 292H489.31C505.155 292 518 279.148 518 263.294V198.706C518 182.852 505.155 170 489.31 170Z" fill="url(#paint0_linear_21013_14899)"/>
<path d="M149.286 225.357L107.047 183.118C104.959 181.03 102.48 179.938 99.6085 179.842C96.7378 179.746 94.121 180.879 91.7583 183.241C89.4778 185.604 88.3171 188.132 88.2757 190.824C88.2348 193.516 89.3955 196.044 91.7583 198.406L147.885 254.533C149.753 256.401 151.662 257.713 153.613 258.469C155.563 259.224 157.692 259.602 160 259.602C162.308 259.602 164.437 259.224 166.387 258.469C168.338 257.713 170.247 256.401 172.115 254.533L228.242 198.406C230.33 196.319 231.422 193.86 231.518 191.03C231.614 188.201 230.522 185.604 228.242 183.241C225.879 180.879 223.331 179.677 220.598 179.636C217.864 179.595 215.316 180.755 212.953 183.118L170.714 225.357V50.7141C170.714 47.6645 169.691 45.1166 167.644 43.0703C165.598 41.0236 163.05 40 160 40C156.95 40 154.402 41.0236 152.356 43.0703C150.309 45.1166 149.286 47.6645 149.286 50.7141V225.357ZM10 264.176V305.385C10 315.247 13.3036 323.482 19.9109 330.089C26.5181 336.696 34.7526 340 44.6153 340H275.385C285.247 340 293.482 336.696 300.089 330.089C306.696 323.482 310 315.247 310 305.385V264.176C310 261.126 308.976 258.578 306.93 256.531C304.883 254.485 302.336 253.462 299.286 253.462C296.236 253.462 293.688 254.485 291.642 256.531C289.595 258.578 288.571 261.126 288.571 264.176V305.385C288.571 308.681 287.198 311.703 284.451 314.451C281.703 317.198 278.681 318.571 275.385 318.571H44.6153C41.319 318.571 38.2967 317.198 35.5491 314.451C32.8021 311.703 31.4288 308.681 31.4288 305.385V264.176C31.4288 261.126 30.4052 258.578 28.3584 256.531C26.3117 254.485 23.7638 253.462 20.7141 253.462C17.6645 253.462 15.1166 254.485 13.0703 256.531C11.0236 258.578 10 261.126 10 264.176Z" fill="url(#paint1_linear_21013_14899)"/>
</g>
<defs>
<linearGradient id="paint0_linear_21013_14899" x1="575.532" y1="159.617" x2="533.843" y2="368.91" gradientUnits="userSpaceOnUse">
<stop stop-color="#2E2F2F"/>
<stop offset="1" stop-color="#262626"/>
</linearGradient>
<linearGradient id="paint1_linear_21013_14899" x1="348.154" y1="-8.65955" x2="98.5971" y2="282.005" gradientUnits="userSpaceOnUse">
<stop stop-color="#555555"/>
<stop offset="1" stop-color="#292A2A"/>
</linearGradient>
<clipPath id="clip0_21013_14899">
<rect width="340" height="340" fill="white"/>
</clipPath>
</defs>
</svg>
