<svg width="36" height="24" viewBox="0 0 36 24" fill="none" xmlns="http://www.w3.org/2000/svg">
<g clip-path="url(#clip0_13053_298818)">
<path fill-rule="evenodd" clip-rule="evenodd" d="M18.6665 -6.47204C21.1332 -8.12027 24.0333 -9 27 -9C30.9783 -9 34.7936 -7.41965 37.6066 -4.6066C40.4196 -1.79356 42 2.02175 42 6C42 8.96672 41.1203 11.8668 39.472 14.3335C37.8238 16.8003 35.4811 18.7229 32.7403 19.8582C29.9994 20.9935 26.9834 21.2906 24.0737 20.7118C21.1639 20.133 18.4912 18.7044 16.3934 16.6066C14.2956 14.5088 12.867 11.8361 12.2882 8.92635C11.7094 6.01664 12.0065 3.00064 13.1418 0.259747C14.2771 -2.48114 16.1997 -4.82382 18.6665 -6.47204ZM19.857 16.6903C21.9713 18.1031 24.4571 18.8571 27 18.8571C30.4099 18.8571 33.6802 17.5026 36.0914 15.0914C38.5026 12.6802 39.8571 9.40992 39.8571 6C39.8571 3.4571 39.1031 0.971299 37.6903 -1.14305C36.2776 -3.25739 34.2696 -4.90533 31.9202 -5.87845C29.5709 -6.85158 26.9857 -7.10619 24.4917 -6.6101C21.9977 -6.114 19.7067 -4.88948 17.9086 -3.09137C16.1105 -1.29327 14.886 0.997653 14.3899 3.49169C13.8938 5.98574 14.1484 8.57088 15.1216 10.9202C16.0947 13.2695 17.7426 15.2776 19.857 16.6903ZM21.0475 -2.9086C22.8094 -4.0859 24.8809 -4.71429 27 -4.71429C29.8416 -4.71429 32.5668 -3.58546 34.5761 -1.57615C36.5855 0.433173 37.7143 3.15839 37.7143 6C37.7143 8.11908 37.0859 10.1906 35.9086 11.9525C34.7313 13.7145 33.058 15.0878 31.1002 15.8987C29.1424 16.7096 26.9881 16.9218 24.9097 16.5084C22.8314 16.095 20.9223 15.0746 19.4239 13.5761C17.9254 12.0777 16.905 10.1686 16.4916 8.09025C16.0782 6.01188 16.2904 3.8576 17.1013 1.89982C17.9122 -0.0579612 19.2855 -1.7313 21.0475 -2.9086ZM26.2424 0.95667C26.0415 1.1576 25.9286 1.43012 25.9286 1.71428V3.85714C25.9286 4.1413 26.0415 4.41382 26.2424 4.61475C26.4433 4.81569 26.7158 4.92857 27 4.92857C27.2842 4.92857 27.5567 4.81569 27.7576 4.61475C27.9585 4.41382 28.0714 4.1413 28.0714 3.85714V1.71428C28.0714 1.43012 27.9585 1.1576 27.7576 0.95667C27.5567 0.755738 27.2842 0.642856 27 0.642856C26.7158 0.642856 26.4433 0.755738 26.2424 0.95667ZM22.7143 7.07143H24.8571C25.1413 7.07143 25.4138 6.95855 25.6148 6.75761C25.8157 6.55668 25.9286 6.28416 25.9286 6C25.9286 5.71584 25.8157 5.44332 25.6148 5.24238C25.4138 5.04145 25.1413 4.92857 24.8571 4.92857H22.7143C22.4301 4.92857 22.1576 5.04145 21.9567 5.24238C21.7557 5.44332 21.6429 5.71584 21.6429 6C21.6429 6.28416 21.7557 6.55668 21.9567 6.75761C22.1576 6.95855 22.4301 7.07143 22.7143 7.07143ZM27.7576 11.0433C27.9585 10.8424 28.0714 10.5699 28.0714 10.2857V8.14285C28.0714 7.85869 27.9585 7.58617 27.7576 7.38524C27.5567 7.18431 27.2842 7.07143 27 7.07143C26.7158 7.07143 26.4433 7.18431 26.2424 7.38524C26.0415 7.58617 25.9286 7.85869 25.9286 8.14285V10.2857C25.9286 10.5699 26.0415 10.8424 26.2424 11.0433C26.4433 11.2443 26.7158 11.3571 27 11.3571C27.2842 11.3571 27.5567 11.2443 27.7576 11.0433ZM29.1429 7.07143H31.2857C31.5699 7.07143 31.8424 6.95855 32.0433 6.75761C32.2443 6.55668 32.3571 6.28416 32.3571 6C32.3571 5.71584 32.2443 5.44332 32.0433 5.24238C31.8424 5.04145 31.5699 4.92857 31.2857 4.92857H29.1429C28.8587 4.92857 28.5862 5.04145 28.3852 5.24238C28.1843 5.44332 28.0714 5.71584 28.0714 6C28.0714 6.28416 28.1843 6.55668 28.3852 6.75761C28.5862 6.95855 28.8587 7.07143 29.1429 7.07143Z" fill="#2E2F2F"/>
</g>
<defs>
<clipPath id="clip0_13053_298818">
<rect width="36" height="24" fill="white"/>
</clipPath>
</defs>
</svg>
