<svg width="36" height="24" viewBox="0 0 36 24" fill="none" xmlns="http://www.w3.org/2000/svg">
<g clip-path="url(#clip0_13053_296612)">
<path fill-rule="evenodd" clip-rule="evenodd" d="M29.8379 9.80833C29.9764 9.93611 30.1481 10 30.3529 10C30.5578 10 30.7294 9.93611 30.868 9.80833C31.0065 9.68056 31.0758 9.52222 31.0758 9.33333V8.6C31.8228 8.5 32.4493 8.24444 32.9553 7.83333C33.4613 7.42222 33.7143 6.82222 33.7143 6.03333C33.7143 5.4 33.5004 4.84167 33.0727 4.35833C32.645 3.875 32.0155 3.52222 31.1842 3.3C30.2927 3.06667 29.6662 2.84444 29.3048 2.63333C28.9433 2.42222 28.7626 2.13333 28.7626 1.76667C28.7626 1.44444 28.9012 1.175 29.1783 0.958333C29.4554 0.741667 29.859 0.633333 30.3891 0.633333C30.7023 0.633333 30.9644 0.675 31.1752 0.758333C31.386 0.841667 31.5698 0.961111 31.7264 1.11667C31.883 1.27222 32.0517 1.38056 32.2324 1.44167C32.4131 1.50278 32.5878 1.5 32.7565 1.43333C32.9613 1.35556 33.0968 1.22778 33.1631 1.05C33.2294 0.872222 33.2083 0.711111 33.0998 0.566667C32.883 0.266667 32.6059 0.0138889 32.2685 -0.191667C31.9312 -0.397222 31.5336 -0.533333 31.0758 -0.6V-1.33333C31.0758 -1.52222 31.0065 -1.68056 30.868 -1.80833C30.7294 -1.93611 30.5578 -2 30.3529 -2C30.1481 -2 29.9764 -1.93611 29.8379 -1.80833C29.6993 -1.68056 29.6301 -1.52222 29.6301 -1.33333V-0.6C29.1 -0.544444 28.5819 -0.316667 28.0759 0.0833334C27.5699 0.483333 27.3169 1.04444 27.3169 1.76667C27.3169 2.36667 27.5096 2.875 27.8952 3.29167C28.2807 3.70833 28.9915 4.06667 30.0276 4.36667C30.9915 4.65556 31.6059 4.91389 31.871 5.14167C32.136 5.36944 32.2685 5.67778 32.2685 6.06667C32.2685 6.5 32.0969 6.81944 31.7535 7.025C31.4101 7.23056 30.9915 7.33333 30.4975 7.33333C30.0397 7.33333 29.6542 7.24722 29.3409 7.075C29.0277 6.90278 28.7686 6.65 28.5638 6.31667C28.4675 6.15 28.3289 6.03056 28.1482 5.95833C27.9675 5.88611 27.7928 5.88333 27.6241 5.95C27.4193 6.02778 27.2777 6.15278 27.1994 6.325C27.1211 6.49722 27.1241 6.66111 27.2085 6.81667C27.4615 7.31667 27.7928 7.70556 28.2024 7.98333C28.612 8.26111 29.0879 8.45556 29.6301 8.56667V9.33333C29.6301 9.52222 29.6993 9.68056 29.8379 9.80833ZM28.2518 21.8773C27.9871 21.8864 27.7544 21.8636 27.5536 21.8091L20.5714 19.8455L20.5714 10L22.3238 10C22.4516 10 22.5794 10.0136 22.7071 10.0409C22.8349 10.0682 22.9627 10.1 23.0905 10.1364L30.675 12.9455C30.9306 13.0364 31.1359 13.2 31.2911 13.4364C31.4462 13.6727 31.5238 13.9182 31.5238 14.1727C31.5238 14.5545 31.3915 14.8636 31.1268 15.1C30.8621 15.3364 30.5563 15.4545 30.2095 15.4545L27.3345 15.4545C27.2433 15.4545 27.1748 15.45 27.1292 15.4409C27.0835 15.4318 27.0242 15.4091 26.9512 15.3727L25.719 14.9091C25.573 14.8545 25.427 14.8636 25.281 14.9364C25.1349 15.0091 25.0437 15.1091 25.0071 15.2364C24.9706 15.3818 24.9798 15.5182 25.0345 15.6455C25.0893 15.7727 25.1897 15.8636 25.3357 15.9182L26.9512 16.4909C26.9877 16.5091 27.0425 16.5227 27.1155 16.5318C27.1885 16.5409 27.2524 16.5455 27.3071 16.5455L34.8095 16.5455C35.3937 16.5455 35.9048 16.7545 36.3429 17.1727C36.781 17.5909 37 18.1091 37 18.7273L28.9226 21.7545C28.7401 21.8273 28.5165 21.8682 28.2518 21.8773ZM14.6435 21.3591C14.2145 20.9318 14 20.4182 14 19.8182L14 12.1818C14 11.5818 14.2145 11.0682 14.6435 10.6409C15.0724 10.2136 15.5881 10 16.1905 10C16.7929 10 17.3085 10.2136 17.7375 10.6409C18.1665 11.0682 18.381 11.5818 18.381 12.1818L18.381 19.8182C18.381 20.4182 18.1665 20.9318 17.7375 21.3591C17.3085 21.7864 16.7929 22 16.1905 22C15.5881 22 15.0724 21.7864 14.6435 21.3591Z" fill="#2E2F2F"/>
</g>
<defs>
<clipPath id="clip0_13053_296612">
<rect width="36" height="24" fill="white"/>
</clipPath>
</defs>
</svg>
