<svg width="36" height="24" viewBox="0 0 36 24" fill="none" xmlns="http://www.w3.org/2000/svg">
<g clip-path="url(#clip0_13007_191287)">
<path fill-rule="evenodd" clip-rule="evenodd" d="M16.0205 20.4072C16.4717 20.876 17.014 21.1104 17.6476 21.1104H26.2869C26.6709 21.1104 26.9588 20.9857 27.1508 20.7364C27.3428 20.487 27.4388 20.2128 27.4388 19.9136C27.4388 19.6144 27.3428 19.3401 27.1508 19.0908C26.9588 18.8415 26.6709 18.7168 26.2869 18.7168H17.6476V5.65191H31.4705V5.9511C31.4705 6.35003 31.5905 6.64923 31.8305 6.84869C32.0704 7.04815 32.3344 7.14789 32.6224 7.14789C32.9104 7.14789 33.1744 7.04815 33.4143 6.84869C33.6543 6.64923 33.7743 6.35003 33.7743 5.9511V5.65191C33.7743 4.99368 33.5487 4.43019 33.0976 3.96145C32.6464 3.49271 32.104 3.25834 31.4705 3.25834H30.3186V0.864775C30.3186 -0.790775 29.757 -2.20198 28.6339 -3.36885C27.5108 -4.53571 26.1525 -5.11914 24.559 -5.11914C22.9656 -5.11914 21.6073 -4.53571 20.4841 -3.36885C19.361 -2.20198 18.7995 -0.790775 18.7995 0.864775V3.25834H17.6476C17.014 3.25834 16.4717 3.49271 16.0205 3.96145C15.5693 4.43019 15.3438 4.99368 15.3438 5.65191V18.7168C15.3438 19.375 15.5693 19.9385 16.0205 20.4072ZM28.0148 3.25834H21.1033V0.864775C21.1033 -0.132544 21.4393 -0.980266 22.1112 -1.67839C22.7832 -2.37651 23.5991 -2.72557 24.559 -2.72557C25.519 -2.72557 26.3349 -2.37651 27.0068 -1.67839C27.6788 -0.980266 28.0148 -0.132544 28.0148 0.864775V3.25834Z" fill="#2E2F2F"/>
<path d="M36.0714 12.4459C35.2628 12.8441 34.2044 13.0432 32.896 13.0432C31.5877 13.0432 30.5292 12.8441 29.7207 12.4459C28.9121 12.0477 28.5078 11.5967 28.5078 11.0929C28.5078 10.5809 28.9121 10.1279 29.7207 9.73377C30.5292 9.33964 31.5877 9.14258 32.896 9.14258C34.2044 9.14258 35.2628 9.33964 36.0714 9.73377C36.8799 10.1279 37.2842 10.5809 37.2842 11.0929C37.2842 11.5967 36.8799 12.0477 36.0714 12.4459Z" fill="#2E2F2F"/>
<path d="M34.2612 14.1585C33.7574 14.2276 33.3023 14.2622 32.896 14.2622C32.4978 14.2622 32.0448 14.2276 31.5369 14.1585C31.029 14.0895 30.5495 13.9798 30.0985 13.8294C29.6475 13.6791 29.2697 13.4881 28.9649 13.2565C28.6602 13.0249 28.5078 12.7507 28.5078 12.4337V13.6527C28.5078 13.9696 28.6602 14.2439 28.9649 14.4755C29.2697 14.7071 29.6475 14.898 30.0985 15.0484C30.5495 15.1987 31.029 15.3084 31.5369 15.3775C32.0448 15.4466 32.4978 15.4811 32.896 15.4811C33.3023 15.4811 33.7574 15.4466 34.2612 15.3775C34.7651 15.3084 35.2425 15.2007 35.6935 15.0545C36.1445 14.9082 36.5224 14.7193 36.8271 14.4877C37.1319 14.2561 37.2842 13.9777 37.2842 13.6527V12.4337C37.2842 12.7588 37.1319 13.0371 36.8271 13.2687C36.5224 13.5003 36.1445 13.6892 35.6935 13.8355C35.2425 13.9818 34.7651 14.0895 34.2612 14.1585Z" fill="#2E2F2F"/>
<path d="M34.2612 16.5964C33.7574 16.6655 33.3023 16.7 32.896 16.7C32.4978 16.7 32.0448 16.6655 31.5369 16.5964C31.029 16.5274 30.5495 16.4177 30.0985 16.2673C29.6475 16.117 29.2697 15.926 28.9649 15.6944C28.6602 15.4628 28.5078 15.1885 28.5078 14.8716V16.0906C28.5078 16.4075 28.6602 16.6818 28.9649 16.9134C29.2697 17.145 29.6475 17.3359 30.0985 17.4863C30.5495 17.6366 31.029 17.7463 31.5369 17.8154C32.0448 17.8844 32.4978 17.919 32.896 17.919C33.3023 17.919 33.7574 17.8844 34.2612 17.8154C34.7651 17.7463 35.2425 17.6386 35.6935 17.4924C36.1445 17.3461 36.5224 17.1571 36.8271 16.9255C37.1319 16.6939 37.2842 16.4156 37.2842 16.0906V14.8716C37.2842 15.1967 37.1319 15.475 36.8271 15.7066C36.5224 15.9382 36.1445 16.1271 35.6935 16.2734C35.2425 16.4197 34.7651 16.5274 34.2612 16.5964Z" fill="#2E2F2F"/>
</g>
<defs>
<clipPath id="clip0_13007_191287">
<rect width="36" height="24" fill="white"/>
</clipPath>
</defs>
</svg>
