<svg width="36" height="24" viewBox="0 0 36 24" fill="none" xmlns="http://www.w3.org/2000/svg">
<g clip-path="url(#clip0_6839_218540)">
<path d="M30.5201 7.12654C29.4964 7.63066 28.1564 7.88272 26.5 7.88272C24.8436 7.88272 23.5036 7.63066 22.4799 7.12654C21.4563 6.62243 20.9444 6.05144 20.9444 5.41358C20.9444 4.76543 21.4563 4.19187 22.4799 3.6929C23.5036 3.19393 24.8436 2.94444 26.5 2.94444C28.1564 2.94444 29.4964 3.19393 30.5201 3.6929C31.5437 4.19187 32.0556 4.76543 32.0556 5.41358C32.0556 6.05144 31.5437 6.62243 30.5201 7.12654Z" fill="#2E2F2F"/>
<path d="M28.2284 9.29475C27.5905 9.3822 27.0144 9.42593 26.5 9.42593C25.9959 9.42593 25.4223 9.3822 24.7793 9.29475C24.1363 9.2073 23.5293 9.06842 22.9583 8.87809C22.3873 8.68776 21.909 8.44599 21.5231 8.15278C21.1373 7.85957 20.9444 7.51235 20.9444 7.11111V8.65432C20.9444 9.05556 21.1373 9.40278 21.5231 9.69599C21.909 9.9892 22.3873 10.231 22.9583 10.4213C23.5293 10.6116 24.1363 10.7505 24.7793 10.838C25.4223 10.9254 25.9959 10.9691 26.5 10.9691C27.0144 10.9691 27.5905 10.9254 28.2284 10.838C28.8663 10.7505 29.4707 10.6142 30.0417 10.429C30.6127 10.2438 31.091 10.0046 31.4769 9.71142C31.8627 9.41821 32.0556 9.06584 32.0556 8.65432V7.11111C32.0556 7.52263 31.8627 7.875 31.4769 8.16821C31.091 8.46142 30.6127 8.70062 30.0417 8.8858C29.4707 9.07099 28.8663 9.2073 28.2284 9.29475Z" fill="#2E2F2F"/>
<path d="M28.2284 12.3812C27.5905 12.4686 27.0144 12.5123 26.5 12.5123C25.9959 12.5123 25.4223 12.4686 24.7793 12.3812C24.1363 12.2937 23.5293 12.1548 22.9583 11.9645C22.3873 11.7742 21.909 11.5324 21.5231 11.2392C21.1373 10.946 20.9444 10.5988 20.9444 10.1975V11.7407C20.9444 12.142 21.1373 12.4892 21.5231 12.7824C21.909 13.0756 22.3873 13.3174 22.9583 13.5077C23.5293 13.698 24.1363 13.8369 24.7793 13.9244C25.4223 14.0118 25.9959 14.0556 26.5 14.0556C27.0144 14.0556 27.5905 14.0118 28.2284 13.9244C28.8663 13.8369 29.4707 13.7006 30.0417 13.5154C30.6127 13.3302 31.091 13.091 31.4769 12.7978C31.8627 12.5046 32.0556 12.1523 32.0556 11.7407V10.1975C32.0556 10.6091 31.8627 10.9614 31.4769 11.2546C31.091 11.5478 30.6127 11.787 30.0417 11.9722C29.4707 12.1574 28.8663 12.2937 28.2284 12.3812Z" fill="#2E2F2F"/>
<path fill-rule="evenodd" clip-rule="evenodd" d="M21.3785 20.7917C21.7141 20.9306 22.0671 21 22.4375 21H30.5625C30.9329 21 31.2859 20.9306 31.6215 20.7917C31.9572 20.6528 32.2523 20.456 32.5069 20.2014L38.2014 14.5069C38.456 14.2523 38.6528 13.9572 38.7917 13.6215C38.9306 13.2859 39 12.9329 39 12.5625V4.4375C39 4.06713 38.9306 3.71412 38.7917 3.37847C38.6528 3.04282 38.456 2.74769 38.2014 2.49306L32.5069 -3.20139C32.2523 -3.45602 31.9572 -3.65278 31.6215 -3.79167C31.2859 -3.93056 30.9329 -4 30.5625 -4H22.4375C22.0671 -4 21.7141 -3.93056 21.3785 -3.79167C21.0428 -3.65278 20.7477 -3.45602 20.4931 -3.20139L14.7986 2.49306C14.544 2.74769 14.3472 3.04282 14.2083 3.37847C14.0694 3.71412 14 4.06713 14 4.4375V12.5625C14 12.9329 14.0694 13.2859 14.2083 13.6215C14.3472 13.9572 14.544 14.2523 14.7986 14.5069L20.4931 20.2014C20.7477 20.456 21.0428 20.6528 21.3785 20.7917ZM30.5278 18.2222H22.4722L16.7778 12.5278V4.47222L22.4722 -1.22222H30.5278L36.2222 4.47222V12.5278L30.5278 18.2222Z" fill="#2E2F2F"/>
</g>
<defs>
<clipPath id="clip0_6839_218540">
<rect width="36" height="24" fill="white"/>
</clipPath>
</defs>
</svg>
