<svg width="36" height="24" viewBox="0 0 36 24" fill="none" xmlns="http://www.w3.org/2000/svg">
<g clip-path="url(#clip0_6671_274146)">
<path d="M16.5 18.7143C15.8125 18.7143 15.224 18.4625 14.7344 17.9589C14.2448 17.4554 14 16.85 14 16.1429V-1.85714C14 -2.56429 14.2448 -3.16964 14.7344 -3.67321C15.224 -4.17679 15.8125 -4.42857 16.5 -4.42857H17.75V-5.71429C17.75 -6.07857 17.8698 -6.38393 18.1094 -6.63036C18.349 -6.87679 18.6458 -7 19 -7C19.3542 -7 19.651 -6.87679 19.8906 -6.63036C20.1302 -6.38393 20.25 -6.07857 20.25 -5.71429V-4.42857H30.25V-5.71429C30.25 -6.07857 30.3698 -6.38393 30.6094 -6.63036C30.849 -6.87679 31.1458 -7 31.5 -7C31.8542 -7 32.151 -6.87679 32.3906 -6.63036C32.6302 -6.38393 32.75 -6.07857 32.75 -5.71429V-4.42857H34C34.6875 -4.42857 35.276 -4.17679 35.7656 -3.67321C36.2552 -3.16964 36.5 -2.56429 36.5 -1.85714V4.15357C36.5 4.51786 36.3802 4.82321 36.1406 5.06964C35.901 5.31607 35.6042 5.43929 35.25 5.43929C34.8958 5.43929 34.599 5.31607 34.3594 5.06964C34.1198 4.82321 34 4.51786 34 4.15357V3.28571H16.5V16.1429H23.75C24.1042 16.1429 24.401 16.2661 24.6406 16.5125C24.8802 16.7589 25 17.0643 25 17.4286C25 17.7929 24.8802 18.0982 24.6406 18.3446C24.401 18.5911 24.1042 18.7143 23.75 18.7143H16.5ZM32.75 20C31.0208 20 29.5469 19.3732 28.3281 18.1196C27.1094 16.8661 26.5 15.35 26.5 13.5714C26.5 11.7929 27.1094 10.2768 28.3281 9.02322C29.5469 7.76964 31.0208 7.14286 32.75 7.14286C34.4792 7.14286 35.9531 7.76964 37.1719 9.02322C38.3906 10.2768 39 11.7929 39 13.5714C39 15.35 38.3906 16.8661 37.1719 18.1196C35.9531 19.3732 34.4792 20 32.75 20ZM33.375 13.3143V10.3571C33.375 10.1857 33.3125 10.0357 33.1875 9.90714C33.0625 9.77857 32.9167 9.71429 32.75 9.71429C32.5833 9.71429 32.4375 9.77857 32.3125 9.90714C32.1875 10.0357 32.125 10.1857 32.125 10.3571V13.2821C32.125 13.4536 32.1562 13.6196 32.2188 13.7804C32.2812 13.9411 32.375 14.0857 32.5 14.2143L34.4062 16.175C34.5312 16.3036 34.6771 16.3679 34.8438 16.3679C35.0104 16.3679 35.1562 16.3036 35.2812 16.175C35.4062 16.0464 35.4688 15.8964 35.4688 15.725C35.4688 15.5536 35.4062 15.4036 35.2812 15.275L33.375 13.3143Z" fill="#2E2F2F"/>
</g>
<defs>
<clipPath id="clip0_6671_274146">
<rect width="36" height="24" fill="white"/>
</clipPath>
</defs>
</svg>
