<svg width="36" height="24" viewBox="0 0 36 24" fill="none" xmlns="http://www.w3.org/2000/svg">
<g clip-path="url(#clip0_13053_298464)">
<path fill-rule="evenodd" clip-rule="evenodd" d="M33.934 19.9286H35C35.2652 19.9286 35.5196 20.0377 35.7071 20.2319C35.8946 20.4262 36 20.6896 36 20.9643C36 21.239 35.8946 21.5024 35.7071 21.6966C35.5196 21.8909 35.2652 22 35 22L17 22C16.7348 22 16.4804 21.8909 16.2929 21.6966C16.1054 21.5024 16 21.239 16 20.9643C16 20.6896 16.1054 20.4262 16.2929 20.2319C16.4804 20.0377 16.7348 19.9286 17 19.9286H18.066V14.6816C18.0672 13.2158 18.4469 11.7769 19.1656 10.5142C19.8844 9.25144 20.9162 8.21076 22.154 7.5C20.9162 6.78924 19.8844 5.74856 19.1656 4.48581C18.4469 3.22307 18.0672 1.78421 18.066 0.318356V-4.92857H17C16.7348 -4.92857 16.4804 -5.03769 16.2929 -5.23193C16.1054 -5.42616 16 -5.6896 16 -5.96429C16 -6.23897 16.1054 -6.50241 16.2929 -6.69665C16.4804 -6.89088 16.7348 -7 17 -7L35 -7C35.2652 -7 35.5196 -6.89088 35.7071 -6.69665C35.8946 -6.50241 36 -6.23897 36 -5.96429C36 -5.6896 35.8946 -5.42616 35.7071 -5.23193C35.5196 -5.03769 35.2652 -4.92857 35 -4.92857H33.934V0.318356C33.9328 1.78421 33.5531 3.22307 32.8344 4.48581C32.1156 5.74856 31.0838 6.78924 29.846 7.5C31.0838 8.21076 32.1156 9.25144 32.8344 10.5142C33.5531 11.7769 33.9328 13.2158 33.934 14.6816V19.9286ZM31.934 -4.92857L20.066 -4.92857V-0.785715L31.934 -0.785715V-4.92857ZM28.673 15.6076L31.934 18.6412L31.934 14.6816C31.934 11.2928 29.272 8.53571 26 8.53571C22.728 8.53571 20.066 11.2928 20.067 14.6816V18.6422L23.327 15.6076C24.0603 14.9228 25.0127 14.5439 26 14.5439C26.9873 14.5439 27.9397 14.9228 28.673 15.6076Z" fill="#2E2F2F"/>
</g>
<defs>
<clipPath id="clip0_13053_298464">
<rect width="36" height="24" fill="white"/>
</clipPath>
</defs>
</svg>
