<svg width="36" height="24" viewBox="0 0 36 24" fill="none" xmlns="http://www.w3.org/2000/svg">
<g clip-path="url(#clip0_6846_235800)">
<path fill-rule="evenodd" clip-rule="evenodd" d="M21.243 6.64022L22.8591 8.16975C23.0817 8.38034 23.3364 8.42744 23.6233 8.31106C23.9102 8.19469 24.0537 7.98687 24.0537 7.68761V-2.66997C24.0537 -3.03573 23.9161 -3.34884 23.6409 -3.6093C23.3657 -3.86977 23.0348 -4 22.6483 -4H11.4054C11.0189 -4 10.688 -3.86977 10.4128 -3.6093C10.1376 -3.34884 10 -3.03573 10 -2.66997V5.31019C10 5.67595 10.1376 5.98906 10.4128 6.24952C10.688 6.50998 11.0189 6.64022 11.4054 6.64022H21.243ZM19.291 4.66811L17.0282 2.52666L14.7655 4.66811C14.6224 4.80349 14.4404 4.87118 14.2193 4.87118C13.9982 4.87118 13.8162 4.80349 13.6731 4.66811C13.5301 4.53273 13.4585 4.36043 13.4585 4.15121C13.4585 3.94199 13.5301 3.76968 13.6731 3.63431L15.9359 1.49286L13.6731 -0.648593C13.5301 -0.783972 13.4585 -0.956273 13.4585 -1.16549C13.4585 -1.37472 13.5301 -1.54702 13.6731 -1.6824C13.8162 -1.81778 13.9982 -1.88546 14.2193 -1.88546C14.4404 -1.88546 14.6224 -1.81778 14.7655 -1.6824L17.0282 0.459053L19.291 -1.6824C19.434 -1.81778 19.6161 -1.88546 19.8372 -1.88546C20.0582 -1.88546 20.2403 -1.81778 20.3834 -1.6824C20.5264 -1.54702 20.5979 -1.37472 20.5979 -1.16549C20.5979 -0.956273 20.5264 -0.783972 20.3834 -0.648593L18.1206 1.49286L20.3834 3.63431C20.5264 3.76968 20.5979 3.94199 20.5979 4.15121C20.5979 4.36043 20.5264 4.53273 20.3834 4.66811C20.2403 4.80349 20.0582 4.87118 19.8372 4.87118C19.6161 4.87118 19.434 4.80349 19.291 4.66811Z" fill="#2E2F2F"/>
<path d="M32.7299 12.2094C33.5028 12.2094 34.1645 12.0376 34.7149 11.694C35.2654 11.3504 35.5406 10.8129 35.5406 10.0814C35.5406 9.43853 35.2537 8.91761 34.6798 8.5186C34.1059 8.11959 33.0812 7.66516 31.6056 7.15532C30.2236 6.68981 29.2106 6.13563 28.5664 5.49279C27.9223 4.84994 27.6003 4.00759 27.6003 2.96573C27.6003 2.05688 27.934 1.23116 28.6016 0.488558C29.2691 -0.25404 30.1768 -0.736176 31.3245 -0.957847V-1.45661C31.3245 -1.76695 31.4475 -2.03849 31.6934 -2.27125C31.9393 -2.504 32.2263 -2.62038 32.5542 -2.62038C32.8821 -2.62038 33.169 -2.504 33.415 -2.27125C33.6609 -2.03849 33.7839 -1.76695 33.7839 -1.45661V-0.957847C34.4631 -0.913512 35.0897 -0.697382 35.6636 -0.309458C36.2374 0.0784672 36.7 0.549518 37.0514 1.1037C37.2153 1.34753 37.227 1.608 37.0865 1.88509C36.946 2.16218 36.7117 2.35614 36.3838 2.46697C36.0793 2.57781 35.7748 2.58889 35.4703 2.50022C35.1658 2.41156 34.9199 2.2453 34.7325 2.00146C34.4983 1.73546 34.2055 1.51933 33.8542 1.35308C33.5028 1.18682 33.0812 1.1037 32.5893 1.1037C31.7695 1.1037 31.143 1.26995 30.7096 1.60246C30.2763 1.93496 30.0597 2.38939 30.0597 2.96573C30.0597 3.54208 30.329 3.99651 30.8677 4.32901C31.4065 4.66152 32.3785 5.04944 33.7839 5.49279C35.4703 6.06913 36.5946 6.74523 37.1568 7.52108C37.7189 8.29692 38 9.15036 38 10.0814C38 10.7242 37.8829 11.2895 37.6487 11.7772C37.4144 12.2648 37.1041 12.6805 36.7176 13.0241C36.3311 13.3677 35.8802 13.6447 35.3649 13.8553C34.8496 14.0659 34.2992 14.2266 33.7136 14.3375V14.8362C33.7136 15.1466 33.5906 15.4181 33.3447 15.6509C33.0988 15.8836 32.8118 16 32.4839 16C32.156 16 31.8691 15.8836 31.6231 15.6509C31.3772 15.4181 31.2542 15.1466 31.2542 14.8362V14.271C30.3641 14.0936 29.6029 13.7611 28.9705 13.2734C28.3381 12.7858 27.8345 12.1651 27.4597 11.4114C27.3192 11.1011 27.325 10.8018 27.4773 10.5136C27.6295 10.2255 27.8696 10.026 28.1975 9.91512C28.502 9.80429 28.8065 9.80983 29.111 9.93175C29.4155 10.0537 29.6498 10.2476 29.8137 10.5136C30.1416 11.09 30.5574 11.5167 31.061 11.7938C31.5646 12.0709 32.1209 12.2094 32.7299 12.2094Z" fill="#2E2F2F"/>
</g>
<defs>
<clipPath id="clip0_6846_235800">
<rect width="36" height="24" fill="white"/>
</clipPath>
</defs>
</svg>
