<svg width="36" height="24" viewBox="0 0 36 24" fill="none" xmlns="http://www.w3.org/2000/svg">
<g clip-path="url(#clip0_6919_311540)">
<path fill-rule="evenodd" clip-rule="evenodd" d="M18.861 2.81732C18.3579 4.91194 16.2594 6.20032 14.1738 5.695C12.0883 5.18968 10.8055 3.08201 11.3086 0.987388C11.8118 -1.10723 13.9103 -2.39562 15.9958 -1.8903C18.0814 -1.38498 19.3642 0.722693 18.861 2.81732ZM9.19248 6.92902C8.67398 6.80338 8.15224 7.1237 8.02716 7.64446C7.90207 8.16522 8.221 8.68923 8.7395 8.81486L20.2181 11.5961L16.823 17.2963C16.1323 18.4979 16.9956 20 18.3773 20H25.4032C26.7846 20 27.6482 18.4979 26.9575 17.2963L23.9929 12.5107L36.2509 15.4808C36.7694 15.6064 37.2911 15.2861 37.4162 14.7653C37.5413 14.2446 37.2223 13.7206 36.7038 13.5949L9.19248 6.92902ZM33.2036 10.4266C35.2891 10.9319 37.3876 9.6435 37.8908 7.54888C38.3939 5.45426 37.1111 3.34659 35.0256 2.84126C32.94 2.33594 30.8415 3.62433 30.3384 5.71895C29.8352 7.81357 31.118 9.92124 33.2036 10.4266Z" fill="#2E2F2F"/>
</g>
<defs>
<clipPath id="clip0_6919_311540">
<rect width="36" height="24" fill="white"/>
</clipPath>
</defs>
</svg>
