<svg width="36" height="24" viewBox="0 0 36 24" fill="none" xmlns="http://www.w3.org/2000/svg">
<g clip-path="url(#clip0_12989_323280)">
<path d="M29.2992 0.528905C29.6959 0.528905 30.0284 0.394739 30.2967 0.126406C30.5651 -0.141928 30.6992 -0.474428 30.6992 -0.871094C30.6992 -1.26776 30.5651 -1.60026 30.2967 -1.86859C30.0284 -2.13693 29.6959 -2.27109 29.2992 -2.27109L15.2992 -2.27109C14.9026 -2.27109 14.5701 -2.13693 14.3017 -1.86859C14.0334 -1.60026 13.8992 -1.26776 13.8992 -0.871094C13.8992 -0.474428 14.0334 -0.141928 14.3017 0.126406C14.5701 0.394739 14.9026 0.528905 15.2992 0.528905L29.2992 0.528905ZM30.6992 20.1289C28.7626 20.1289 27.1117 19.4464 25.7467 18.0814C24.3817 16.7164 23.6992 15.0656 23.6992 13.1289C23.6992 11.1922 24.3817 9.54141 25.7467 8.17641C27.1117 6.81141 28.7626 6.1289 30.6992 6.1289C32.6359 6.1289 34.2867 6.81141 35.6517 8.17641C37.0167 9.54141 37.6992 11.1922 37.6992 13.1289C37.6992 15.0656 37.0167 16.7164 35.6517 18.0814C34.2867 19.4464 32.6359 20.1289 30.6992 20.1289ZM9.69922 18.5539L9.69922 -5.07109C9.69922 -5.84109 9.97339 -6.50026 10.5217 -7.04859C11.0701 -7.59693 11.7292 -7.87109 12.4992 -7.87109L32.0992 -7.87109C32.8692 -7.87109 33.5284 -7.59693 34.0767 -7.04859C34.6251 -6.50026 34.8992 -5.84109 34.8992 -5.07109V2.62891C34.8992 3.02557 34.7359 3.34641 34.4092 3.59141C34.0826 3.83641 33.7209 3.90057 33.3242 3.7839C32.6709 3.62057 32.0059 3.5039 31.3292 3.4339C30.6526 3.3639 29.9759 3.32891 29.2992 3.32891L15.2992 3.32891C14.9026 3.32891 14.5701 3.46307 14.3017 3.73141C14.0334 3.99974 13.8992 4.33224 13.8992 4.7289C13.8992 5.12557 14.0334 5.45807 14.3017 5.72641C14.5701 5.99474 14.9026 6.1289 15.2992 6.1289L23.8392 6.1289C23.4426 6.52557 23.0751 6.95724 22.7367 7.4239C22.3984 7.89057 22.1009 8.39224 21.8442 8.9289H15.2992C14.9026 8.9289 14.5701 9.06307 14.3017 9.33141C14.0334 9.59974 13.8992 9.93224 13.8992 10.3289C13.8992 10.7256 14.0334 11.0581 14.3017 11.3264C14.5701 11.5947 14.9026 11.7289 15.2992 11.7289H21.0042C20.9576 11.9622 20.9284 12.1897 20.9167 12.4114C20.9051 12.6331 20.8992 12.8722 20.8992 13.1289C20.8992 13.7356 20.9576 14.3306 21.0742 14.9139C21.1909 15.4972 21.3426 16.0806 21.5292 16.6639C21.6459 16.9206 21.5992 17.1247 21.3892 17.2764C21.1792 17.4281 20.9809 17.4106 20.7942 17.2239L20.6892 17.1189C20.5492 16.9789 20.3859 16.9089 20.1992 16.9089C20.0126 16.9089 19.8492 16.9789 19.7092 17.1189L18.5892 18.2389C18.4492 18.3789 18.2859 18.4489 18.0992 18.4489C17.9126 18.4489 17.7492 18.3789 17.6092 18.2389L16.4892 17.1189C16.3492 16.9789 16.1859 16.9089 15.9992 16.9089C15.8126 16.9089 15.6492 16.9789 15.5092 17.1189L14.3892 18.2389C14.2492 18.3789 14.0859 18.4489 13.8992 18.4489C13.7126 18.4489 13.5492 18.3789 13.4092 18.2389L12.2892 17.1189C12.1492 16.9789 11.9859 16.9089 11.7992 16.9089C11.6126 16.9089 11.4492 16.9789 11.3092 17.1189L10.1892 18.2389L9.69922 18.5539Z" fill="#2E2F2F"/>
</g>
<defs>
<clipPath id="clip0_12989_323280">
<rect width="36" height="24" fill="white"/>
</clipPath>
</defs>
</svg>
