<svg width="36" height="24" viewBox="0 0 36 24" fill="none" xmlns="http://www.w3.org/2000/svg">
<g clip-path="url(#clip0_12411_384848)">
<path fill-rule="evenodd" clip-rule="evenodd" d="M24.9476 -3.05689C26.2035 -3.68189 27.6172 -4.03453 29.0489 -4.10572C29.502 -4.1134 29.9551 -4.12107 30.3693 -4.061C29.9797 -4.24223 29.537 -4.40915 29.1086 -4.52264C27.6214 -4.98044 26.0266 -5.09431 24.4498 -4.92674C22.82 -4.74486 21.203 -4.19425 19.7439 -3.37127C18.2316 -2.53398 16.872 -1.33704 15.7958 0.0697724C15.6262 0.287305 15.3271 0.339326 15.0916 0.202443L13.8129 -0.540633C13.5773 -0.677516 13.3456 -0.586387 13.2731 -0.538202C13.2005 -0.490017 12.983 -0.345464 13.0011 -0.0640275L13.0189 8.97825C13.0369 9.25969 13.2194 9.41088 13.2867 9.44999C13.3877 9.50866 13.5753 9.57256 13.8265 9.44756L21.582 4.92241C21.6066 4.90042 21.6299 4.88086 21.6514 4.86271C21.7104 4.81313 21.7568 4.77402 21.7853 4.72443C21.8436 4.62282 21.8682 4.50166 21.854 4.44824C21.8592 4.36094 21.8217 4.11338 21.5862 3.97649L20.3074 3.23342C20.1055 3.11609 20.0008 2.82941 20.0837 2.60664C20.4504 1.4198 21.0385 0.316411 21.8426 -0.61622C22.6857 -1.61659 23.7448 -2.44621 24.9476 -3.05689ZM25.3838 20.3376C26.4006 20.7792 27.487 21 28.643 21C29.7991 21 30.8855 20.7792 31.9022 20.3376C32.919 19.896 33.8035 19.2967 34.5556 18.5397C35.3077 17.7827 35.9031 16.8925 36.3419 15.8691C36.7806 14.8457 37 13.7522 37 12.5886C37 11.4251 36.7806 10.3316 36.3419 9.30822C35.9031 8.28483 35.3077 7.39463 34.5556 6.63761C33.8035 5.88059 32.919 5.28128 31.9022 4.83968C30.8855 4.39808 29.7991 4.17729 28.643 4.17729C27.487 4.17729 26.4006 4.39808 25.3838 4.83968C24.367 5.28128 23.4826 5.88059 22.7305 6.63761C21.9783 7.39463 21.3829 8.28483 20.9442 9.30822C20.5054 10.3316 20.286 11.4251 20.286 12.5886C20.286 13.7522 20.5054 14.8457 20.9442 15.8691C21.3829 16.8925 21.9783 17.7827 22.7305 18.5397C23.4826 19.2967 24.367 19.896 25.3838 20.3376ZM29.134 18.2558C28.9877 18.403 28.8171 18.4766 28.6221 18.4766C28.4271 18.4766 28.2565 18.403 28.1103 18.2558C27.964 18.1086 27.8909 17.9369 27.8909 17.7406V17.3831C27.3616 17.271 26.909 17.0642 26.5329 16.7628C26.1568 16.4614 25.8574 16.0723 25.6345 15.5957C25.5509 15.4135 25.5544 15.2242 25.645 15.0279C25.7355 14.8317 25.8783 14.6985 26.0733 14.6284C26.2543 14.5583 26.4354 14.5583 26.6165 14.6284C26.7975 14.6985 26.9438 14.8317 27.0552 15.0279C27.2502 15.3784 27.4939 15.6413 27.7864 15.8165C28.0789 15.9917 28.4062 16.0794 28.7684 16.0794C29.228 16.0794 29.6215 15.9707 29.9488 15.7534C30.2761 15.5361 30.4398 15.1962 30.4398 14.7335C30.4398 14.327 30.2691 13.9975 29.9279 13.7452C29.5867 13.4929 28.9773 13.2055 28.0998 12.883C27.278 12.5886 26.6757 12.2382 26.2926 11.8316C25.9096 11.4251 25.7181 10.8924 25.7181 10.2335C25.7181 9.65869 25.9131 9.13999 26.3031 8.67736C26.6931 8.21474 27.2363 7.90632 27.9327 7.75211V7.43669C27.9327 7.24042 28.0058 7.06869 28.152 6.92149C28.2983 6.77429 28.4689 6.70069 28.6639 6.70069C28.8589 6.70069 29.0295 6.77429 29.1758 6.92149C29.322 7.06869 29.3952 7.24042 29.3952 7.43669V7.75211C29.7712 7.78015 30.1229 7.90632 30.4502 8.13063C30.7775 8.35493 31.0526 8.6283 31.2755 8.95073C31.3869 9.11896 31.4043 9.30471 31.3277 9.50799C31.2511 9.71126 31.1083 9.85495 30.8994 9.93907C30.7462 10.0092 30.5825 10.0127 30.4084 9.94958C30.2343 9.8865 30.0776 9.77084 29.9384 9.60261C29.7991 9.43439 29.625 9.30121 29.416 9.20307C29.2071 9.10494 28.9634 9.05587 28.6848 9.05587C28.1973 9.05587 27.8247 9.16102 27.5671 9.3713C27.3094 9.58158 27.1806 9.86897 27.1806 10.2335C27.1806 10.598 27.3407 10.8853 27.6611 11.0956C27.9814 11.3059 28.5595 11.5512 29.3952 11.8316C30.398 12.1961 31.0665 12.6237 31.4008 13.1144C31.7351 13.605 31.9022 14.1447 31.9022 14.7335C31.9022 15.5607 31.6515 16.1845 31.1501 16.6051C30.6487 17.0256 30.0498 17.299 29.3534 17.4252V17.7406C29.3534 17.9369 29.2802 18.1086 29.134 18.2558Z" fill="#2E2F2F"/>
</g>
<defs>
<clipPath id="clip0_12411_384848">
<rect width="36" height="24" fill="white"/>
</clipPath>
</defs>
</svg>
