<svg width="36" height="24" viewBox="0 0 36 24" fill="none" xmlns="http://www.w3.org/2000/svg">
<g clip-path="url(#clip0_7256_267700)">
<path fill-rule="evenodd" clip-rule="evenodd" d="M21.2581 -5H36.7419C37.3398 -4.99663 37.9121 -4.75918 38.3349 -4.33915C38.7576 -3.91912 38.9966 -3.35041 39 -2.75641V17.7564C38.9966 18.3504 38.7576 18.9191 38.3349 19.3391C37.9121 19.7592 37.3398 19.9966 36.7419 20H21.2581C20.6602 19.9966 20.0879 19.7592 19.6651 19.3391C19.2424 18.9191 19.0034 18.3504 19 17.7564V-2.75641C19.0034 -3.35041 19.2424 -3.91912 19.6651 -4.33915C20.0879 -4.75918 20.6602 -4.99663 21.2581 -5ZM23.8387 16.1538H34.1613C34.4179 16.1538 34.6641 16.0525 34.8456 15.8722C35.0271 15.6919 35.129 15.4473 35.129 15.1923C35.129 14.9373 35.0271 14.6927 34.8456 14.5124C34.6641 14.3321 34.4179 14.2308 34.1613 14.2308H23.8387C23.582 14.2308 23.3359 14.3321 23.1544 14.5124C22.9729 14.6927 22.871 14.9373 22.871 15.1923C22.871 15.4473 22.9729 15.6919 23.1544 15.8722C23.3359 16.0525 23.582 16.1538 23.8387 16.1538ZM23.8387 12.3077H34.1613C34.4179 12.3077 34.6641 12.2064 34.8456 12.0261C35.0271 11.8457 35.129 11.6012 35.129 11.3462C35.129 11.0911 35.0271 10.8466 34.8456 10.6662C34.6641 10.4859 34.4179 10.3846 34.1613 10.3846H23.8387C23.582 10.3846 23.3359 10.4859 23.1544 10.6662C22.9729 10.8466 22.871 11.0911 22.871 11.3462C22.871 11.6012 22.9729 11.8457 23.1544 12.0261C23.3359 12.2064 23.582 12.3077 23.8387 12.3077ZM29.4107 8.48109C29.2589 8.62297 29.0818 8.69391 28.8794 8.69391C28.677 8.69391 28.4999 8.62297 28.348 8.48109C28.1962 8.33922 28.1203 8.17369 28.1203 7.98452V7.63997C27.5709 7.53187 27.1011 7.33257 26.7107 7.04206C26.3203 6.75155 26.0095 6.37659 25.7782 5.91717C25.6914 5.74152 25.6951 5.5591 25.789 5.36994C25.883 5.18077 26.0312 5.0524 26.2336 4.98484C26.4216 4.91728 26.6095 4.91728 26.7975 4.98484C26.9854 5.0524 27.1372 5.18077 27.2529 5.36994C27.4553 5.70774 27.7083 5.96109 28.0119 6.12999C28.3155 6.29889 28.6553 6.38334 29.0312 6.38334C29.5083 6.38334 29.9167 6.27862 30.2565 6.06919C30.5962 5.85975 30.7661 5.53208 30.7661 5.08618C30.7661 4.69433 30.589 4.3768 30.2348 4.13358C29.8806 3.89036 29.248 3.61336 28.3372 3.30258C27.4842 3.01883 26.8589 2.68103 26.4613 2.28918C26.0637 1.89733 25.8649 1.38387 25.8649 0.748797C25.8649 0.194802 26.0673 -0.305145 26.4722 -0.751045C26.877 -1.19694 27.4408 -1.49421 28.1637 -1.64284V-1.94687C28.1637 -2.13603 28.2396 -2.30156 28.3914 -2.44343C28.5432 -2.58531 28.7203 -2.65625 28.9227 -2.65625C29.1252 -2.65625 29.3023 -2.58531 29.4541 -2.44343C29.6059 -2.30156 29.6818 -2.13603 29.6818 -1.94687V-1.64284C30.0721 -1.61582 30.4372 -1.49421 30.777 -1.27802C31.1167 -1.06182 31.4022 -0.798337 31.6336 -0.487559C31.7492 -0.325414 31.7673 -0.146379 31.6878 0.0495467C31.6083 0.245473 31.4601 0.383971 31.2432 0.465044C31.0842 0.532604 30.9143 0.535982 30.7336 0.475178C30.5529 0.414373 30.3902 0.302899 30.2456 0.140754C30.1011 -0.0213915 29.9203 -0.149757 29.7035 -0.244341C29.4866 -0.338926 29.2336 -0.386218 28.9444 -0.386218C28.4384 -0.386218 28.0517 -0.284877 27.7842 -0.0821958C27.5167 0.120485 27.383 0.397483 27.383 0.748797C27.383 1.10011 27.5493 1.37711 27.8818 1.57979C28.2143 1.78247 28.8143 2.01893 29.6818 2.28918C30.7227 2.64049 31.4167 3.05261 31.7637 3.52553C32.1107 3.99846 32.2842 4.51867 32.2842 5.08618C32.2842 5.88339 32.0239 6.48468 31.5035 6.89004C30.983 7.29541 30.3613 7.55889 29.6384 7.6805V7.98452C29.6384 8.17369 29.5625 8.33922 29.4107 8.48109Z" fill="#2E2F2F"/>
</g>
<defs>
<clipPath id="clip0_7256_267700">
<rect width="36" height="24" fill="white"/>
</clipPath>
</defs>
</svg>
