<svg width="36" height="24" viewBox="0 0 36 24" fill="none" xmlns="http://www.w3.org/2000/svg">
<g clip-path="url(#clip0_13053_298683)">
<path fill-rule="evenodd" clip-rule="evenodd" d="M27.5 21C34.4036 21 40 15.4036 40 8.5C40 1.59644 34.4036 -4 27.5 -4C20.5964 -4 15 1.59644 15 8.5C15 15.4036 20.5964 21 27.5 21ZM27.4968 10.251L31.1218 13.876C31.351 14.1051 31.6426 14.2197 31.9968 14.2197C32.351 14.2197 32.6426 14.1051 32.8718 13.876C33.101 13.6468 33.2155 13.3551 33.2155 13.001C33.2155 12.6468 33.101 12.3551 32.8718 12.126L29.2468 8.50098L32.8718 4.87598C33.101 4.64681 33.2155 4.35514 33.2155 4.00098C33.2155 3.64681 33.101 3.35514 32.8718 3.12598C32.6426 2.89681 32.351 2.78223 31.9968 2.78223C31.6426 2.78223 31.351 2.89681 31.1218 3.12598L27.4968 6.75098L23.8718 3.12598C23.6426 2.89681 23.351 2.78223 22.9968 2.78223C22.6426 2.78223 22.351 2.89681 22.1218 3.12598C21.8926 3.35514 21.778 3.64681 21.778 4.00098C21.778 4.35514 21.8926 4.64681 22.1218 4.87598L25.7468 8.50098L22.1218 12.126C21.8926 12.3551 21.778 12.6468 21.778 13.001C21.778 13.3551 21.8926 13.6468 22.1218 13.876C22.351 14.1051 22.6426 14.2197 22.9968 14.2197C23.351 14.2197 23.6426 14.1051 23.8718 13.876L27.4968 10.251Z" fill="#2E2F2F"/>
</g>
<defs>
<clipPath id="clip0_13053_298683">
<rect width="36" height="24" fill="white"/>
</clipPath>
</defs>
</svg>
