<svg width="36" height="24" viewBox="0 0 36 24" fill="none" xmlns="http://www.w3.org/2000/svg">
<g clip-path="url(#clip0_13053_298263)">
<path d="M30.6944 12.8C29.8 12.8 29.044 12.4858 28.4264 11.8575C27.8088 11.2292 27.5 10.46 27.5 9.55C27.5 8.64 27.8088 7.87083 28.4264 7.2425C29.044 6.61417 29.8 6.3 30.6944 6.3C31.5889 6.3 32.3449 6.61417 32.9625 7.2425C33.5801 7.87083 33.8889 8.64 33.8889 9.55C33.8889 10.46 33.5801 11.2292 32.9625 11.8575C32.3449 12.4858 31.5889 12.8 30.6944 12.8ZM18.5556 18C17.8528 18 17.2512 17.7454 16.7507 17.2363C16.2502 16.7271 16 16.115 16 15.4V-2.8C16 -3.515 16.2502 -4.12708 16.7507 -4.63625C17.2512 -5.14542 17.8528 -5.4 18.5556 -5.4H19.8333V-8H22.3889V-5.4H32.6111V-8H35.1667V-5.4H36.4444C37.1472 -5.4 37.7488 -5.14542 38.2493 -4.63625C38.7498 -4.12708 39 -3.515 39 -2.8V15.4C39 16.115 38.7498 16.7271 38.2493 17.2363C37.7488 17.7454 37.1472 18 36.4444 18H18.5556ZM18.5556 15.4H36.4444V2.4H18.5556V15.4Z" fill="#2E2F2F"/>
</g>
<defs>
<clipPath id="clip0_13053_298263">
<rect width="36" height="24" fill="white"/>
</clipPath>
</defs>
</svg>
