<svg width="36" height="24" viewBox="0 0 36 24" fill="none" xmlns="http://www.w3.org/2000/svg">
<g clip-path="url(#clip0_6857_272614)">
<path fill-rule="evenodd" clip-rule="evenodd" d="M28.6154 5.72083C26.4966 6.72176 23.9237 7.22222 20.8968 7.22222C17.8699 7.22222 15.2971 6.72176 13.1782 5.72083C11.0594 4.71991 10 3.51667 10 2.11111C10 0.705556 11.0594 -0.497685 13.1782 -1.49861C15.2971 -2.49954 17.8699 -3 20.8968 -3C23.9237 -3 26.4966 -2.49954 28.6154 -1.49861C30.7343 -0.497685 31.7937 0.705556 31.7937 2.11111C31.7937 3.51667 30.7343 4.71991 28.6154 5.72083ZM20.8968 20C23.9994 20 25.0355 19.0742 24.9102 18.0554C24.7476 16.7341 23.4696 16.7347 21.4979 16.7357H21.4979C20.4411 16.7362 19.1848 16.7369 17.7943 16.534C16.5532 16.353 15.3576 16.0602 14.2074 15.6556C13.0572 15.2509 12.0684 14.7238 11.241 14.0743C10.4137 13.4248 10 12.6315 10 11.6944V14.8889C10 15.8259 10.4137 16.6192 11.241 17.2688C12.0684 17.9183 13.0572 18.4454 14.2074 18.85C15.3576 19.2546 16.5532 19.5475 17.7943 19.7285C19.0353 19.9095 20.0695 20 20.8968 20ZM20.8968 13.6412C20.0695 13.6412 19.0353 13.5507 17.7943 13.3697C16.5532 13.1887 15.3576 12.8959 14.2074 12.4913C13.0572 12.0866 12.0684 11.5595 11.241 10.91C10.4137 10.2605 10 9.46718 10 8.53014V5.33569C10 6.27273 10.4137 7.06602 11.241 7.71556C12.0684 8.36509 13.0572 8.89218 14.2074 9.29681C15.3576 9.70144 16.5532 9.99426 17.7943 10.1753C19.1848 10.3781 20.4411 10.3775 21.4979 10.3769H21.4979C23.4696 10.376 24.7476 10.3753 24.9102 11.6966C25.0355 12.7154 23.9994 13.6412 20.8968 13.6412ZM27.6804 12.7091C28.1513 13.206 28.7198 13.4545 29.386 13.4545C30.0521 13.4545 30.6207 13.206 31.0916 12.7091C31.5625 12.2121 31.7979 11.6121 31.7979 10.9091C31.7979 10.2061 31.5625 9.60606 31.0916 9.10909C30.6207 8.61213 30.0521 8.36365 29.386 8.36365C28.7198 8.36365 28.1513 8.61213 27.6804 9.10909C27.2095 9.60606 26.9741 10.2061 26.9741 10.9091C26.9741 11.6121 27.2095 12.2121 27.6804 12.7091ZM30.1182 11.6818C29.9172 11.8939 29.6731 12 29.386 12C29.0989 12 28.8548 11.8939 28.6538 11.6818C28.4528 11.4697 28.3523 11.2121 28.3523 10.9091C28.3523 10.606 28.4528 10.3485 28.6538 10.1364C28.8548 9.92424 29.0989 9.81818 29.386 9.81818C29.6731 9.81818 29.9172 9.92424 30.1182 10.1364C30.3192 10.3485 30.4197 10.606 30.4197 10.9091C30.4197 11.2121 30.3192 11.4697 30.1182 11.6818ZM33.8825 19.2544C34.3534 19.7514 34.9219 19.9999 35.5881 19.9999C36.2542 19.9999 36.8228 19.7514 37.2937 19.2544C37.7645 18.7575 38 18.1575 38 17.4544C38 16.7514 37.7645 16.1514 37.2937 15.6545C36.8228 15.1575 36.2542 14.909 35.5881 14.909C34.9219 14.909 34.3534 15.1575 33.8825 15.6545C33.4116 16.1514 33.1762 16.7514 33.1762 17.4544C33.1762 18.1575 33.4116 18.7575 33.8825 19.2544ZM36.3203 18.2272C36.1193 18.4393 35.8752 18.5453 35.5881 18.5453C35.3009 18.5453 35.0569 18.4393 34.8559 18.2272C34.6549 18.015 34.5544 17.7575 34.5544 17.4544C34.5544 17.1514 34.6549 16.8938 34.8559 16.6817C35.0569 16.4696 35.3009 16.3636 35.5881 16.3636C35.8752 16.3636 36.1193 16.4696 36.3203 16.6817C36.5213 16.8938 36.6218 17.1514 36.6218 17.4544C36.6218 17.7575 36.5213 18.015 36.3203 18.2272ZM27.267 18.9817C27.267 19.1878 27.3301 19.3575 27.4565 19.4908C27.5828 19.6241 27.7436 19.6908 27.9388 19.6908C28.1341 19.6908 28.2949 19.6241 28.4212 19.4908L37.5176 9.8909C37.644 9.75757 37.7071 9.58788 37.7071 9.38182C37.7071 9.17576 37.644 9.00607 37.5176 8.87273C37.3913 8.7394 37.2305 8.67274 37.0352 8.67274C36.84 8.67274 36.6792 8.7394 36.5528 8.87273L27.4565 18.4726C27.3301 18.6059 27.267 18.7756 27.267 18.9817Z" fill="#2E2F2F"/>
</g>
<defs>
<clipPath id="clip0_6857_272614">
<rect width="36" height="24" fill="white"/>
</clipPath>
</defs>
</svg>
