<svg width="36" height="24" viewBox="0 0 36 24" fill="none" xmlns="http://www.w3.org/2000/svg">
<g clip-path="url(#clip0_6369_116595)">
<path d="M16.7 18.6523C15.9575 18.6523 15.3219 18.388 14.7931 17.8592C14.2644 17.3305 14 16.6948 14 15.9523V-2.94766C14 -3.69016 14.2644 -4.32578 14.7931 -4.85453C15.3219 -5.38328 15.9575 -5.64766 16.7 -5.64766H18.05V-6.99766C18.05 -7.38016 18.1794 -7.70078 18.4381 -7.95953C18.6969 -8.21828 19.0175 -8.34766 19.4 -8.34766C19.7825 -8.34766 20.1031 -8.21828 20.3619 -7.95953C20.6206 -7.70078 20.75 -7.38016 20.75 -6.99766V-5.64766H31.55V-6.99766C31.55 -7.38016 31.6794 -7.70078 31.9381 -7.95953C32.1969 -8.21828 32.5175 -8.34766 32.9 -8.34766C33.2825 -8.34766 33.6031 -8.21828 33.8619 -7.95953C34.1206 -7.70078 34.25 -7.38016 34.25 -6.99766V-5.64766H35.6C36.3425 -5.64766 36.9781 -5.38328 37.5069 -4.85453C38.0356 -4.32578 38.3 -3.69016 38.3 -2.94766V15.9523C38.3 16.6948 38.0356 17.3305 37.5069 17.8592C36.9781 18.388 36.3425 18.6523 35.6 18.6523H16.7ZM16.7 15.9523H35.6V2.45234H16.7V15.9523ZM26.15 7.85234C25.7675 7.85234 25.4469 7.72297 25.1881 7.46422C24.9294 7.20547 24.8 6.88484 24.8 6.50234C24.8 6.11984 24.9294 5.79922 25.1881 5.54047C25.4469 5.28172 25.7675 5.15234 26.15 5.15234C26.5325 5.15234 26.8531 5.28172 27.1119 5.54047C27.3706 5.79922 27.5 6.11984 27.5 6.50234C27.5 6.88484 27.3706 7.20547 27.1119 7.46422C26.8531 7.72297 26.5325 7.85234 26.15 7.85234ZM20.75 7.85234C20.3675 7.85234 20.0469 7.72297 19.7881 7.46422C19.5294 7.20547 19.4 6.88484 19.4 6.50234C19.4 6.11984 19.5294 5.79922 19.7881 5.54047C20.0469 5.28172 20.3675 5.15234 20.75 5.15234C21.1325 5.15234 21.4531 5.28172 21.7119 5.54047C21.9706 5.79922 22.1 6.11984 22.1 6.50234C22.1 6.88484 21.9706 7.20547 21.7119 7.46422C21.4531 7.72297 21.1325 7.85234 20.75 7.85234ZM31.55 7.85234C31.1675 7.85234 30.8469 7.72297 30.5881 7.46422C30.3294 7.20547 30.2 6.88484 30.2 6.50234C30.2 6.11984 30.3294 5.79922 30.5881 5.54047C30.8469 5.28172 31.1675 5.15234 31.55 5.15234C31.9325 5.15234 32.2531 5.28172 32.5119 5.54047C32.7706 5.79922 32.9 6.11984 32.9 6.50234C32.9 6.88484 32.7706 7.20547 32.5119 7.46422C32.2531 7.72297 31.9325 7.85234 31.55 7.85234ZM26.15 13.2523C25.7675 13.2523 25.4469 13.123 25.1881 12.8642C24.9294 12.6055 24.8 12.2848 24.8 11.9023C24.8 11.5198 24.9294 11.1992 25.1881 10.9405C25.4469 10.6817 25.7675 10.5523 26.15 10.5523C26.5325 10.5523 26.8531 10.6817 27.1119 10.9405C27.3706 11.1992 27.5 11.5198 27.5 11.9023C27.5 12.2848 27.3706 12.6055 27.1119 12.8642C26.8531 13.123 26.5325 13.2523 26.15 13.2523ZM20.75 13.2523C20.3675 13.2523 20.0469 13.123 19.7881 12.8642C19.5294 12.6055 19.4 12.2848 19.4 11.9023C19.4 11.5198 19.5294 11.1992 19.7881 10.9405C20.0469 10.6817 20.3675 10.5523 20.75 10.5523C21.1325 10.5523 21.4531 10.6817 21.7119 10.9405C21.9706 11.1992 22.1 11.5198 22.1 11.9023C22.1 12.2848 21.9706 12.6055 21.7119 12.8642C21.4531 13.123 21.1325 13.2523 20.75 13.2523ZM31.55 13.2523C31.1675 13.2523 30.8469 13.123 30.5881 12.8642C30.3294 12.6055 30.2 12.2848 30.2 11.9023C30.2 11.5198 30.3294 11.1992 30.5881 10.9405C30.8469 10.6817 31.1675 10.5523 31.55 10.5523C31.9325 10.5523 32.2531 10.6817 32.5119 10.9405C32.7706 11.1992 32.9 11.5198 32.9 11.9023C32.9 12.2848 32.7706 12.6055 32.5119 12.8642C32.2531 13.123 31.9325 13.2523 31.55 13.2523Z" fill="#2E2F2F"/>
</g>
<defs>
<clipPath id="clip0_6369_116595">
<rect width="36" height="24" fill="white"/>
</clipPath>
</defs>
</svg>
