<svg width="36" height="24" viewBox="0 0 36 24" fill="none" xmlns="http://www.w3.org/2000/svg">
<g clip-path="url(#clip0_12321_434203)">
<path fill-rule="evenodd" clip-rule="evenodd" d="M33.349 -0.268595C33.0916 -0.47496 32.7428 -0.590727 32.379 -0.590727H31.2151V-2.44801C31.2151 -2.59566 31.1442 -2.73491 31.0155 -2.83893C30.8868 -2.94128 30.7115 -3 30.5306 -3C30.3496 -3 30.1743 -2.94128 30.0456 -2.83893C29.9169 -2.73491 29.8441 -2.59566 29.8441 -2.44801V-0.590727H28.6821C28.3184 -0.590727 27.9696 -0.47496 27.7122 -0.268595C27.4547 -0.060552 27.3093 0.219635 27.3093 0.511566V13.8465C27.3111 14.1384 27.4566 14.4186 27.7122 14.6249C27.9696 14.8313 28.3184 14.9488 28.6821 14.9488H29.8441V16.8044C29.8441 16.9503 29.9169 17.0896 30.0456 17.1936C30.1743 17.2976 30.3478 17.3547 30.5306 17.3547C30.7134 17.3547 30.8868 17.2976 31.0155 17.1936C31.1442 17.0896 31.2151 16.9503 31.2151 16.8044V14.9488H32.379C32.7409 14.9488 33.0897 14.8313 33.3471 14.6249C33.6045 14.4186 33.7481 14.1384 33.75 13.8465V0.511566C33.75 0.219635 33.6064 -0.060552 33.349 -0.268595ZM33.3769 13.8465C33.3751 14.036 33.2818 14.2273 33.099 14.375C32.9144 14.5243 32.6551 14.6132 32.3772 14.6132H30.8421V16.8044C30.8421 16.848 30.8215 16.9 30.7656 16.9436C30.7096 16.9889 30.6257 17.0191 30.5306 17.0191C30.4354 17.0191 30.3496 16.9889 30.2937 16.9436C30.2377 16.9 30.2172 16.848 30.2172 16.8044V14.6132H28.6821C28.4042 14.6132 28.1468 14.5243 27.9602 14.375C27.7774 14.2273 27.6842 14.036 27.6823 13.8465V0.511566C27.6823 0.320301 27.7774 0.129036 27.9602 -0.0186079C28.1449 -0.166251 28.4042 -0.255173 28.6821 -0.255173H30.2172V-2.44801C30.2172 -2.49331 30.2377 -2.54365 30.2937 -2.58895C30.3496 -2.63425 30.4336 -2.66445 30.5306 -2.66445C30.6276 -2.66445 30.7096 -2.63425 30.7656 -2.58895C30.8215 -2.54365 30.8421 -2.49331 30.8421 -2.44801V-0.255173H32.379C32.6551 -0.255173 32.9144 -0.166251 33.099 -0.0186079C33.2837 0.129036 33.3769 0.320301 33.3769 0.511566V13.8465Z" fill="#2E2F2F"/>
<path fill-rule="evenodd" clip-rule="evenodd" d="M24.3621 7.25283C24.1047 7.04479 23.7559 6.92903 23.3941 6.92903H22.2339V5.07174C22.2339 4.92577 22.1611 4.78652 22.0324 4.6825C21.9037 4.57847 21.7284 4.52143 21.5475 4.52143C21.3665 4.52143 21.1912 4.57847 21.0625 4.6825C20.9338 4.78652 20.8611 4.92577 20.8611 5.07174V6.92903H19.7027C19.339 6.92903 18.9902 7.04479 18.7328 7.25116C18.4754 7.45752 18.3318 7.73771 18.3318 8.03132V21.3662C18.3318 21.6581 18.4754 21.9383 18.7328 22.1464C18.9902 22.3527 19.339 22.4685 19.7027 22.4685H20.8611V24.3241C20.8611 24.4701 20.9338 24.611 21.0625 24.7134C21.1912 24.8174 21.3647 24.8761 21.5475 24.8761C21.7303 24.8761 21.9037 24.8174 22.0324 24.7134C22.1611 24.611 22.2339 24.4701 22.2339 24.3241V22.4685H23.3941C23.7559 22.4668 24.1047 22.3511 24.3621 22.1447C24.6196 21.9383 24.765 21.6581 24.765 21.3662V8.03132C24.765 7.73939 24.6196 7.4592 24.3621 7.25283ZM24.392 21.3662C24.392 21.5558 24.2969 21.7471 24.1141 21.8947C23.9294 22.0424 23.6701 22.133 23.3922 22.133H21.8608V24.3241C21.8608 24.3677 21.8385 24.4197 21.7844 24.4634C21.7265 24.5087 21.6426 24.5405 21.5475 24.5405C21.4523 24.5405 21.3665 24.5087 21.3106 24.4634C21.2565 24.4197 21.2341 24.3677 21.2341 24.3241V22.133H19.7027C19.4248 22.133 19.1674 22.044 18.9827 21.8947C18.7981 21.7487 18.7048 21.5558 18.7048 21.3662V8.03132C18.7048 7.84005 18.7981 7.64879 18.9827 7.50114C19.1674 7.3535 19.4248 7.26458 19.7027 7.26458H21.2341V5.07174C21.2341 5.02812 21.2565 4.9761 21.3106 4.93248C21.3665 4.88718 21.4523 4.85698 21.5475 4.85698C21.6426 4.85698 21.7265 4.88718 21.7844 4.93248C21.8385 4.9761 21.8608 5.02812 21.8608 5.07174V7.26458H23.3922C23.6701 7.26458 23.9294 7.3535 24.1141 7.50282C24.2969 7.65046 24.392 7.84173 24.392 8.03132V21.3662Z" fill="#2E2F2F"/>
<path fill-rule="evenodd" clip-rule="evenodd" d="M15.3791 3.40907C15.1217 3.2027 14.7729 3.08526 14.4091 3.08526H13.2508V1.23133C13.2508 1.08536 13.1781 0.94443 13.0493 0.842086C12.9206 0.738065 12.7472 0.681021 12.5644 0.681021C12.3816 0.681021 12.2081 0.738065 12.0794 0.842086C11.9507 0.94443 11.878 1.08536 11.878 1.23133V3.08526H10.7178C10.3541 3.08694 10.0071 3.2027 9.74971 3.40907C9.4923 3.61711 9.34868 3.89562 9.34681 4.18923V17.5241C9.34681 17.8161 9.49044 18.0962 9.74784 18.3026C10.0052 18.5107 10.3541 18.6264 10.7178 18.6264H11.878V20.4837C11.878 20.6297 11.9507 20.7706 12.0794 20.8729C12.2081 20.977 12.3835 21.0357 12.5644 21.0357C12.7453 21.0357 12.9206 20.977 13.0493 20.8729C13.1781 20.7706 13.2508 20.6297 13.2508 20.4837V18.6264H14.4091C14.5882 18.6264 14.7673 18.5979 14.9333 18.5425C15.1011 18.4872 15.2522 18.4066 15.3791 18.3043C15.5078 18.2019 15.6085 18.0795 15.6775 17.9469C15.7465 17.8127 15.7801 17.6684 15.7801 17.5241V4.18923C15.7801 3.89562 15.6365 3.61544 15.3791 3.40907ZM15.407 17.5241C15.407 17.6198 15.3847 17.7154 15.338 17.806C15.2914 17.8966 15.2224 17.9805 15.131 18.0543C15.0396 18.1281 14.9295 18.1868 14.8046 18.2288C14.6815 18.2691 14.5472 18.2909 14.4091 18.2909H12.8777V20.4837C12.8777 20.529 12.8554 20.5793 12.8013 20.623C12.7453 20.6683 12.6595 20.7001 12.5644 20.7001C12.4693 20.7001 12.3853 20.6683 12.3275 20.623C12.2734 20.5793 12.251 20.529 12.251 20.4837V18.2909H10.7178C10.4417 18.2909 10.1824 18.2019 9.99779 18.0526C9.81313 17.905 9.71986 17.7137 9.71986 17.5241V4.18923C9.71986 3.99797 9.81499 3.8067 9.99779 3.66074C10.1824 3.51141 10.4417 3.42249 10.7196 3.42081H12.251V1.23133C12.251 1.18771 12.2734 1.1357 12.3275 1.09207C12.3853 1.04677 12.4693 1.01657 12.5644 1.01657C12.6595 1.01657 12.7453 1.04677 12.8013 1.09207C12.8554 1.1357 12.8777 1.18771 12.8777 1.23133V3.42081H14.4091C14.687 3.42081 14.9445 3.50974 15.1291 3.65906C15.3138 3.8067 15.407 3.99797 15.407 4.18923V17.5241Z" fill="#2E2F2F"/>
<path fill-rule="evenodd" clip-rule="evenodd" d="M6.3997 10.246C6.1423 10.0396 5.79349 9.92216 5.42977 9.92216H4.26771V8.06655C4.26771 7.92059 4.19497 7.78133 4.06626 7.67731C3.93756 7.57329 3.76409 7.51624 3.5813 7.51624C3.3985 7.51624 3.22503 7.57329 3.09633 7.67731C2.96762 7.78133 2.89675 7.92059 2.89675 8.06655V9.92216H1.73282C1.37096 9.92216 1.02216 10.0396 0.764753 10.246C0.507348 10.4523 0.363725 10.7325 0.36186 11.0245V24.3593C0.36186 24.6513 0.505483 24.9315 0.762889 25.1395C1.02029 25.3459 1.3691 25.4616 1.73282 25.4616H2.89675V27.3189C2.89675 27.4666 2.96762 27.6058 3.09633 27.7098C3.22503 27.8122 3.40037 27.8709 3.5813 27.8709C3.76223 27.8709 3.93756 27.8122 4.06626 27.7098C4.19497 27.6058 4.26771 27.4666 4.26771 27.3189V25.4616H5.42977C5.79349 25.4616 6.1423 25.3459 6.3997 25.1395C6.65711 24.9315 6.8026 24.6513 6.8026 24.3593V11.0245C6.80073 10.7325 6.65524 10.4523 6.3997 10.246ZM6.42955 24.3593C6.42955 24.5506 6.33442 24.7419 6.15162 24.8895C5.96696 25.0372 5.70769 25.1261 5.42977 25.1261H3.89466V27.3189C3.89466 27.3642 3.87414 27.4146 3.81818 27.4599C3.76223 27.5052 3.67829 27.5354 3.5813 27.5354C3.4843 27.5354 3.40223 27.5052 3.34627 27.4599C3.29032 27.4146 3.2698 27.3642 3.2698 27.3189V25.1261H1.73282C1.45676 25.1261 1.19749 25.0372 1.01283 24.8895C0.828172 24.7419 0.734911 24.5506 0.734911 24.3593V11.0245C0.736777 10.8349 0.830038 10.6436 1.01283 10.496C1.19749 10.3466 1.45677 10.2577 1.73469 10.2577H3.2698V8.06655C3.2698 8.02293 3.29032 7.97092 3.34627 7.9273C3.40223 7.882 3.48617 7.8518 3.5813 7.8518C3.67642 7.8518 3.76223 7.882 3.81818 7.9273C3.87414 7.97092 3.89466 8.02293 3.89466 8.06655V10.2577H5.42977C5.70769 10.2577 5.9651 10.3466 6.15162 10.496C6.33442 10.6436 6.42768 10.8349 6.42955 11.0245V24.3593Z" fill="#2E2F2F"/>
<path fill-rule="evenodd" clip-rule="evenodd" d="M-0.839368 1.92592C-1.09677 1.71956 -1.44371 1.60379 -1.80744 1.60379H-2.96763V-0.25014C-2.96763 -0.396106 -3.03851 -0.53536 -3.16721 -0.639382C-3.29591 -0.741726 -3.46938 -0.800447 -3.65031 -0.800447C-3.83124 -0.800447 -4.00658 -0.741726 -4.13528 -0.639382C-4.26398 -0.53536 -4.33486 -0.396106 -4.33486 -0.25014V1.60379H-5.49506C-5.85878 1.60379 -6.20572 1.71956 -6.46313 1.92592C-6.72053 2.13229 -6.86416 2.41248 -6.86416 2.70273V16.0074C-6.86229 16.2994 -6.71866 16.5779 -6.46126 16.7842C-6.20572 16.9906 -5.85878 17.1064 -5.49506 17.108H-4.33486V18.9586C-4.33486 19.1046 -4.26398 19.2438 -4.13528 19.3462C-4.00658 19.4502 -3.83311 19.5072 -3.65031 19.5072C-3.46752 19.5072 -3.29591 19.4502 -3.16721 19.3462C-3.03851 19.2438 -2.96763 19.1046 -2.96763 18.9586V17.108H-1.80744C-1.44371 17.108 -1.09678 16.9906 -0.841235 16.7842C-0.583829 16.5779 -0.440203 16.2994 -0.438338 16.0074V2.70273C-0.438338 2.41248 -0.583827 2.13229 -0.839368 1.92592ZM-0.81139 16.0074C-0.813255 16.197 -0.906516 16.3883 -1.08931 16.5342C-1.27397 16.6819 -1.53138 16.7708 -1.80744 16.7725H-3.34068V18.9586C-3.34068 19.0022 -3.3612 19.0526 -3.41529 19.0962C-3.47125 19.1415 -3.55705 19.1717 -3.65031 19.1717C-3.74358 19.1717 -3.83124 19.1415 -3.8872 19.0962C-3.94129 19.0526 -3.96181 19.0022 -3.96181 18.9586V16.7725H-5.49506C-5.77111 16.7725 -6.02852 16.6819 -6.21318 16.5342C-6.39597 16.3883 -6.48924 16.197 -6.4911 16.0074V2.70273C-6.4911 2.51314 -6.39784 2.32356 -6.21505 2.17591C-6.03039 2.02827 -5.77298 1.93935 -5.49506 1.93935H-3.96181V-0.25014C-3.96181 -0.293762 -3.94129 -0.344095 -3.8872 -0.389394C-3.83124 -0.433016 -3.74731 -0.464894 -3.65031 -0.464894C-3.55332 -0.464894 -3.47125 -0.433016 -3.41529 -0.389394C-3.3612 -0.344095 -3.34068 -0.293762 -3.34068 -0.25014V1.93935H-1.80744C-1.53138 1.93935 -1.27211 2.02827 -1.08745 2.17591C-0.904652 2.32356 -0.81139 2.51314 -0.81139 2.70273V16.0074Z" fill="#2E2F2F"/>
<path fill-rule="evenodd" clip-rule="evenodd" d="M-9.80567 9.4289C-10.0612 9.22253 -10.4081 9.10677 -10.7719 9.10509H-11.9283V7.25283C-11.9283 7.10687 -12.0011 6.96761 -12.1298 6.86527C-12.2585 6.76125 -12.432 6.7042 -12.6129 6.7042C-12.7938 6.7042 -12.9691 6.76125 -13.0979 6.86527C-13.2247 6.96761 -13.2974 7.10687 -13.2974 7.25283V9.10509H-14.452C-14.8158 9.10509 -15.1646 9.22086 -15.4201 9.42722C-15.6775 9.63359 -15.8211 9.91377 -15.8211 10.2057V23.5104C-15.8211 23.8006 -15.6775 24.0808 -15.4201 24.2872C-15.1646 24.4936 -14.8158 24.6093 -14.452 24.6093H-13.2974V26.4616C-13.2974 26.6076 -13.2247 26.7468 -13.0979 26.8492C-12.9691 26.9532 -12.7957 27.0119 -12.6129 27.0119C-12.4301 27.0119 -12.2585 26.9532 -12.1298 26.8492C-12.0011 26.7468 -11.9283 26.6076 -11.9283 26.4616V24.6093H-10.7719C-10.4081 24.6093 -10.0612 24.4936 -9.80567 24.2872C-9.54826 24.0808 -9.40277 23.8006 -9.40277 23.5104V10.2057C-9.40277 9.91377 -9.54826 9.63526 -9.80567 9.4289ZM-9.77582 23.5087C-9.77582 23.6983 -9.87095 23.8896 -10.0537 24.0372C-10.2384 24.1849 -10.4958 24.2738 -10.7719 24.2738H-12.3014V26.4616C-12.3014 26.5052 -12.3238 26.5555 -12.3779 26.5992C-12.4338 26.6445 -12.5178 26.6763 -12.6129 26.6763C-12.708 26.6763 -12.7919 26.6445 -12.8479 26.5992C-12.9039 26.5555 -12.9244 26.5052 -12.9244 26.4616V24.2738H-14.452C-14.73 24.2738 -14.9874 24.1849 -15.172 24.0372C-15.3548 23.8896 -15.4481 23.7 -15.4481 23.5104V10.2057C-15.4481 10.0161 -15.3548 9.82485 -15.172 9.67721C-14.9874 9.52956 -14.73 9.44064 -14.452 9.44064H-12.9244V7.25283C-12.9244 7.20921 -12.9039 7.15888 -12.8479 7.11526C-12.7919 7.06996 -12.708 7.03976 -12.6129 7.03976C-12.5178 7.03976 -12.4338 7.06996 -12.3779 7.11526C-12.3238 7.15888 -12.3014 7.20921 -12.3014 7.25283V9.44064H-10.7719C-10.4958 9.44064 -10.2365 9.53124 -10.0537 9.67889C-9.87095 9.82485 -9.77582 10.0161 -9.77582 10.2057V23.5087Z" fill="#2E2F2F"/>
<path fill-rule="evenodd" clip-rule="evenodd" d="M-18.7682 5.59352C-19.0238 5.38716 -19.3726 5.27139 -19.7344 5.27139H-20.8909V3.42249C-20.8909 3.27653 -20.9618 3.13559 -21.0905 3.03325C-21.2192 2.92923 -21.3927 2.87218 -21.5736 2.87218C-21.7545 2.87218 -21.9299 2.92923 -22.0586 3.03325C-22.1873 3.13559 -22.2581 3.27653 -22.2581 3.42249V5.27139H-23.4165C-23.7783 5.27307 -24.1271 5.38884 -24.3827 5.5952C-24.6401 5.80157 -24.7837 6.08008 -24.7856 6.37201V19.6767C-24.7856 19.9686 -24.6401 20.2471 -24.3845 20.4535C-24.1271 20.6599 -23.7802 20.7756 -23.4165 20.7756H-22.2581V22.6296C-22.2581 22.7755 -22.1873 22.9148 -22.0586 23.0188C-21.9299 23.1212 -21.7564 23.1799 -21.5736 23.1799C-21.3908 23.1799 -21.2192 23.1212 -21.0905 23.0188C-20.9618 22.9148 -20.8909 22.7755 -20.8909 22.6296V20.7756H-19.7344C-19.5554 20.7756 -19.3763 20.7488 -19.2103 20.6934C-19.0443 20.6381 -18.8932 20.5575 -18.7664 20.4552C-18.6395 20.3528 -18.5388 20.232 -18.4698 20.0978C-18.4008 19.9636 -18.3653 19.821 -18.3672 19.6767V6.37201C-18.3672 6.08008 -18.5108 5.79989 -18.7682 5.59352ZM-18.7403 19.6784C-18.7403 19.7723 -18.7626 19.868 -18.8074 19.9569C-18.854 20.0475 -18.9231 20.1314 -19.0145 20.2052C-19.1059 20.2773 -19.2159 20.3377 -19.339 20.378C-19.464 20.4199 -19.5983 20.4418 -19.7344 20.4401H-21.264V22.6296C-21.264 22.6732 -21.2845 22.7252 -21.3386 22.7688C-21.3945 22.8141 -21.4785 22.8443 -21.5736 22.8443C-21.6687 22.8443 -21.7545 22.8141 -21.8105 22.7688C-21.8646 22.7252 -21.8851 22.6732 -21.8851 22.6296V20.4401H-23.4165C-23.6925 20.4401 -23.9518 20.3512 -24.1365 20.2035C-24.3192 20.0576 -24.4125 19.8663 -24.4125 19.6767V6.37201C-24.4106 6.18242 -24.3174 5.99283 -24.1346 5.84519C-23.9499 5.69754 -23.6925 5.60862 -23.4165 5.60694H-21.8851V3.42249C-21.8851 3.37719 -21.8646 3.32686 -21.8105 3.28324C-21.7545 3.23794 -21.6706 3.20774 -21.5736 3.20774C-21.4766 3.20774 -21.3945 3.23794 -21.3386 3.28324C-21.2845 3.32686 -21.264 3.37719 -21.264 3.42249V5.60694H-19.7344C-19.4584 5.60694 -19.201 5.69587 -19.0163 5.84351C-18.8335 5.99115 -18.7403 6.18242 -18.7403 6.37201V19.6784Z" fill="#2E2F2F"/>
<path fill-rule="evenodd" clip-rule="evenodd" d="M-27.7252 12.4153C-27.9826 12.209 -28.3296 12.0932 -28.6914 12.0915H-29.8516V10.2409C-29.8516 10.0966 -29.9244 9.95572 -30.0531 9.85337C-30.1818 9.74935 -30.3552 9.69231 -30.5362 9.69231C-30.7171 9.69231 -30.8924 9.74935 -31.0211 9.85337C-31.148 9.95572 -31.2207 10.0966 -31.2207 10.2409V12.0915H-32.3809C-32.7428 12.0932 -33.0897 12.209 -33.3471 12.4153C-33.6026 12.6217 -33.7481 12.9002 -33.75 13.1921V26.4968C-33.75 26.7888 -33.6045 27.0673 -33.349 27.2736C-33.0916 27.48 -32.7428 27.5958 -32.3809 27.5958H-31.2207V29.4497C-31.2207 29.5957 -31.148 29.7349 -31.0211 29.8389C-30.8924 29.9413 -30.7171 30 -30.5362 30C-30.3552 30 -30.1818 29.9413 -30.0531 29.8389C-29.9244 29.7349 -29.8516 29.5957 -29.8516 29.4497V27.5958H-28.6914C-28.3296 27.5958 -27.9808 27.48 -27.7252 27.2736C-27.4678 27.0673 -27.3242 26.7888 -27.3242 26.4968V13.1921C-27.3242 12.9002 -27.4697 12.6217 -27.7252 12.4153ZM-27.6972 26.4968C-27.6972 26.6864 -27.7905 26.876 -27.9733 27.0236C-28.158 27.1713 -28.4154 27.2602 -28.6914 27.2602H-30.2247V29.4497C-30.2247 29.4933 -30.247 29.5453 -30.3011 29.5889C-30.3571 29.6342 -30.441 29.6644 -30.5362 29.6644C-30.6313 29.6644 -30.7152 29.6342 -30.7712 29.5889C-30.8271 29.5453 -30.8477 29.4933 -30.8477 29.4497V27.2602H-32.3809C-32.657 27.2602 -32.9162 27.1713 -33.099 27.0236C-33.2818 26.876 -33.3769 26.6864 -33.3769 26.4968V13.1921C-33.3751 13.0025 -33.2818 12.813 -33.099 12.6653C-32.9144 12.5177 -32.657 12.4287 -32.3809 12.4271H-30.8477V10.2409C-30.8477 10.1973 -30.8271 10.147 -30.7712 10.1034C-30.7152 10.0581 -30.6313 10.0279 -30.5362 10.0279C-30.441 10.0279 -30.3571 10.0581 -30.3011 10.1034C-30.247 10.147 -30.2247 10.1973 -30.2247 10.2409V12.4271H-28.6933C-28.4154 12.4287 -28.158 12.5177 -27.9752 12.6653C-27.7924 12.813 -27.6972 13.0025 -27.6972 13.1921V26.4968Z" fill="#2E2F2F"/>
</g>
<defs>
<clipPath id="clip0_12321_434203">
<rect width="36" height="24" fill="white"/>
</clipPath>
</defs>
</svg>
