<svg width="108" height="24" viewBox="0 0 108 24" fill="none" xmlns="http://www.w3.org/2000/svg">
<g clip-path="url(#clip0_12321_432451)">
<path fill-rule="evenodd" clip-rule="evenodd" d="M107.358 -12.1414C106.947 -12.5085 106.388 -12.7144 105.806 -12.7144H103.944V-16.0181C103.944 -16.2808 103.831 -16.5285 103.625 -16.7135C103.419 -16.8955 103.138 -17 102.849 -17C102.559 -17 102.279 -16.8955 102.073 -16.7135C101.867 -16.5285 101.751 -16.2808 101.751 -16.0181V-12.7144H99.8913C99.3094 -12.7144 98.7513 -12.5085 98.3395 -12.1414C97.9276 -11.7713 97.6948 -11.2729 97.6948 -10.7536V12.9665C97.6978 13.4858 97.9306 13.9842 98.3395 14.3513C98.7513 14.7184 99.3094 14.9273 99.8913 14.9273H101.751V18.228C101.751 18.4877 101.867 18.7354 102.073 18.9204C102.279 19.1054 102.556 19.2069 102.849 19.2069C103.141 19.2069 103.419 19.1054 103.625 18.9204C103.831 18.7354 103.944 18.4877 103.944 18.228V14.9273H105.806C106.385 14.9273 106.944 14.7184 107.355 14.3513C107.767 13.9842 107.997 13.4858 108 12.9665V-10.7536C108 -11.2729 107.77 -11.7713 107.358 -12.1414ZM107.403 12.9665C107.4 13.3037 107.251 13.644 106.958 13.9066C106.663 14.1722 106.248 14.3304 105.803 14.3304H103.347V18.228C103.347 18.3056 103.314 18.3981 103.225 18.4757C103.135 18.5563 103.001 18.61 102.849 18.61C102.697 18.61 102.559 18.5563 102.47 18.4757C102.38 18.3981 102.348 18.3056 102.348 18.228V14.3304H99.8913C99.4467 14.3304 99.0348 14.1722 98.7364 13.9066C98.4439 13.644 98.2947 13.3037 98.2917 12.9665V-10.7536C98.2917 -11.0938 98.4439 -11.4341 98.7364 -11.6967C99.0318 -11.9593 99.4467 -12.1175 99.8913 -12.1175H102.348V-16.0181C102.348 -16.0987 102.38 -16.1882 102.47 -16.2688C102.559 -16.3494 102.694 -16.4031 102.849 -16.4031C103.004 -16.4031 103.135 -16.3494 103.225 -16.2688C103.314 -16.1882 103.347 -16.0987 103.347 -16.0181V-12.1175H105.806C106.248 -12.1175 106.663 -11.9593 106.958 -11.6967C107.254 -11.4341 107.403 -11.0938 107.403 -10.7536V12.9665Z" fill="#2E2F2F"/>
<path fill-rule="evenodd" clip-rule="evenodd" d="M92.9794 1.23776C92.5676 0.867691 92.0095 0.661766 91.4305 0.661766H89.5742V-2.64198C89.5742 -2.90162 89.4578 -3.14933 89.2519 -3.33436C89.046 -3.5194 88.7654 -3.62087 88.476 -3.62087C88.1865 -3.62087 87.9059 -3.5194 87.7 -3.33436C87.4941 -3.14933 87.3777 -2.90162 87.3777 -2.64198V0.661766H85.5244C84.9424 0.661766 84.3843 0.86769 83.9725 1.23477C83.5606 1.60186 83.3308 2.10025 83.3308 2.62253V26.3427C83.3308 26.8619 83.5606 27.3603 83.9725 27.7304C84.3843 28.0975 84.9424 28.3034 85.5244 28.3034H87.3777V31.6042C87.3777 31.8638 87.4941 32.1145 87.7 32.2966C87.9059 32.4816 88.1835 32.586 88.476 32.586C88.7684 32.586 89.046 32.4816 89.2519 32.2966C89.4578 32.1145 89.5742 31.8638 89.5742 31.6042V28.3034H91.4305C92.0095 28.3004 92.5676 28.0945 92.9794 27.7274C93.3913 27.3603 93.6241 26.8619 93.6241 26.3427V2.62253C93.6241 2.10324 93.3913 1.60484 92.9794 1.23776ZM93.0272 26.3427C93.0272 26.6799 92.875 27.0201 92.5825 27.2827C92.2871 27.5454 91.8722 27.7065 91.4275 27.7065H88.9773V31.6042C88.9773 31.6818 88.9415 31.7743 88.855 31.8519C88.7625 31.9325 88.6282 31.9892 88.476 31.9892C88.3238 31.9892 88.1865 31.9325 88.0969 31.8519C88.0104 31.7743 87.9746 31.6818 87.9746 31.6042V27.7065H85.5244C85.0797 27.7065 84.6678 27.5484 84.3724 27.2827C84.0769 27.0231 83.9277 26.6799 83.9277 26.3427V2.62253C83.9277 2.2823 84.0769 1.94208 84.3724 1.67945C84.6678 1.41682 85.0797 1.25865 85.5244 1.25865H87.9746V-2.64198C87.9746 -2.71958 88.0104 -2.81209 88.0969 -2.88969C88.1865 -2.97027 88.3238 -3.02399 88.476 -3.02399C88.6282 -3.02399 88.7625 -2.97027 88.855 -2.88969C88.9415 -2.81209 88.9773 -2.71958 88.9773 -2.64198V1.25865H91.4275C91.8722 1.25865 92.2871 1.41682 92.5825 1.68244C92.875 1.94506 93.0272 2.28529 93.0272 2.62253V26.3427Z" fill="#2E2F2F"/>
<path fill-rule="evenodd" clip-rule="evenodd" d="M78.6065 -5.59954C78.1947 -5.96662 77.6366 -6.17553 77.0546 -6.17553H75.2013V-9.47331C75.2013 -9.73295 75.0849 -9.98364 74.879 -10.1657C74.673 -10.3507 74.3955 -10.4522 74.103 -10.4522C73.8105 -10.4522 73.533 -10.3507 73.3271 -10.1657C73.1211 -9.98364 73.0048 -9.73295 73.0048 -9.47331V-6.17553H71.1484C70.5665 -6.17254 70.0114 -5.96662 69.5995 -5.59954C69.1877 -5.22947 68.9579 -4.73406 68.9549 -4.21178V19.5083C68.9549 20.0276 69.1847 20.526 69.5965 20.8931C70.0084 21.2632 70.5665 21.4691 71.1484 21.4691H73.0048V24.7729C73.0048 25.0325 73.1211 25.2832 73.3271 25.4652C73.533 25.6503 73.8135 25.7547 74.103 25.7547C74.3925 25.7547 74.673 25.6503 74.879 25.4652C75.0849 25.2832 75.2013 25.0325 75.2013 24.7729V21.4691H77.0546C77.3411 21.4691 77.6276 21.4184 77.8932 21.3199C78.1618 21.2214 78.4036 21.0781 78.6065 20.8961C78.8124 20.714 78.9736 20.4962 79.084 20.2604C79.1944 20.0217 79.2482 19.765 79.2482 19.5083V-4.21178C79.2482 -4.73406 79.0184 -5.23245 78.6065 -5.59954ZM78.6513 19.5083C78.6513 19.6785 78.6155 19.8486 78.5408 20.0097C78.4662 20.1709 78.3558 20.3201 78.2096 20.4514C78.0633 20.5827 77.8873 20.6872 77.6873 20.7618C77.4903 20.8334 77.2755 20.8722 77.0546 20.8722H74.6044V24.7729C74.6044 24.8534 74.5686 24.943 74.482 25.0206C74.3925 25.1011 74.2552 25.1578 74.103 25.1578C73.9508 25.1578 73.8165 25.1011 73.724 25.0206C73.6374 24.943 73.6016 24.8534 73.6016 24.7729V20.8722H71.1484C70.7068 20.8722 70.2919 20.714 69.9965 20.4484C69.701 20.1858 69.5518 19.8456 69.5518 19.5083V-4.21178C69.5518 -4.55201 69.704 -4.89223 69.9965 -5.15187C70.2919 -5.41749 70.7068 -5.57566 71.1514 -5.57864H73.6016V-9.47331C73.6016 -9.5509 73.6374 -9.64342 73.724 -9.72101C73.8165 -9.80159 73.9508 -9.85531 74.103 -9.85531C74.2552 -9.85531 74.3925 -9.80159 74.482 -9.72101C74.5686 -9.64342 74.6044 -9.5509 74.6044 -9.47331V-5.57864H77.0546C77.4993 -5.57864 77.9111 -5.42047 78.2066 -5.15486C78.502 -4.89223 78.6513 -4.55201 78.6513 -4.21178V19.5083Z" fill="#2E2F2F"/>
<path fill-rule="evenodd" clip-rule="evenodd" d="M64.2395 6.56195C63.8277 6.19487 63.2696 5.98596 62.6876 5.98596H60.8283V2.6852C60.8283 2.42555 60.7119 2.17785 60.506 1.99281C60.3001 1.80778 60.0225 1.70631 59.7301 1.70631C59.4376 1.70631 59.1601 1.80778 58.9541 1.99281C58.7482 2.17785 58.6348 2.42555 58.6348 2.6852V5.98596H56.7725C56.1935 5.98596 55.6355 6.19487 55.2236 6.56195C54.8118 6.92904 54.582 7.42743 54.579 7.94672V31.6669C54.579 32.1861 54.8088 32.6845 55.2206 33.0546C55.6325 33.4217 56.1906 33.6276 56.7725 33.6276H58.6348V36.9314C58.6348 37.194 58.7482 37.4417 58.9541 37.6267C59.1601 37.8088 59.4406 37.9132 59.7301 37.9132C60.0196 37.9132 60.3001 37.8088 60.506 37.6267C60.7119 37.4417 60.8283 37.194 60.8283 36.9314V33.6276H62.6876C63.2696 33.6276 63.8277 33.4217 64.2395 33.0546C64.6514 32.6845 64.8842 32.1861 64.8842 31.6669V7.94672C64.8812 7.42743 64.6484 6.92904 64.2395 6.56195ZM64.2873 31.6669C64.2873 32.0071 64.1351 32.3473 63.8426 32.6099C63.5471 32.8726 63.1323 33.0307 62.6876 33.0307H60.2315V36.9314C60.2315 37.0119 60.1986 37.1015 60.1091 37.182C60.0196 37.2626 59.8853 37.3163 59.7301 37.3163C59.5749 37.3163 59.4436 37.2626 59.354 37.182C59.2645 37.1015 59.2317 37.0119 59.2317 36.9314V33.0307H56.7725C56.3308 33.0307 55.916 32.8726 55.6205 32.6099C55.3251 32.3473 55.1759 32.0071 55.1759 31.6669V7.94672C55.1788 7.60948 55.3281 7.26926 55.6205 7.00663C55.916 6.74102 56.3308 6.58284 56.7755 6.58284H59.2317V2.6852C59.2317 2.6076 59.2645 2.51509 59.354 2.43749C59.4436 2.35691 59.5779 2.30319 59.7301 2.30319C59.8823 2.30319 60.0196 2.35691 60.1091 2.43749C60.1986 2.51509 60.2315 2.6076 60.2315 2.6852V6.58284H62.6876C63.1323 6.58284 63.5442 6.74102 63.8426 7.00663C64.1351 7.26926 64.2843 7.60948 64.2873 7.94672V31.6669Z" fill="#2E2F2F"/>
<path fill-rule="evenodd" clip-rule="evenodd" d="M52.657 -8.23776C52.2452 -8.60484 51.6901 -8.81077 51.1081 -8.81077H49.2518V-12.1085C49.2518 -12.3682 49.1384 -12.6159 48.9325 -12.8009C48.7265 -12.983 48.449 -13.0874 48.1595 -13.0874C47.87 -13.0874 47.5895 -12.983 47.3836 -12.8009C47.1776 -12.6159 47.0642 -12.3682 47.0642 -12.1085V-8.81077H45.2079C44.626 -8.81077 44.0708 -8.60484 43.659 -8.23776C43.2472 -7.87068 43.0174 -7.37228 43.0174 -6.85597V16.8104C43.0203 17.3297 43.2501 17.8251 43.662 18.1922C44.0709 18.5593 44.626 18.7652 45.2079 18.7682H47.0642V22.06C47.0642 22.3197 47.1776 22.5674 47.3836 22.7494C47.5895 22.9345 47.867 23.0359 48.1595 23.0359C48.452 23.0359 48.7265 22.9345 48.9325 22.7494C49.1384 22.5674 49.2518 22.3197 49.2518 22.06V18.7682H51.1081C51.6901 18.7682 52.2452 18.5593 52.654 18.1922C53.0659 17.8251 53.2957 17.3297 53.2987 16.8104V-6.85597C53.2987 -7.37228 53.0659 -7.87068 52.657 -8.23776ZM52.7018 16.8104C52.6988 17.1477 52.5496 17.4879 52.2571 17.7475C51.9616 18.0102 51.5498 18.1683 51.1081 18.1713H48.6549V22.06C48.6549 22.1376 48.6221 22.2271 48.5355 22.3047C48.446 22.3853 48.3087 22.439 48.1595 22.439C48.0103 22.439 47.87 22.3853 47.7805 22.3047C47.6939 22.2271 47.6611 22.1376 47.6611 22.06V18.1713H45.2079C44.7662 18.1713 44.3544 18.0102 44.0589 17.7475C43.7664 17.4879 43.6172 17.1477 43.6142 16.8104V-6.85597C43.6142 -7.19321 43.7635 -7.53045 44.0559 -7.79308C44.3514 -8.05571 44.7632 -8.21388 45.2079 -8.21388H47.6611V-12.1085C47.6611 -12.1861 47.6939 -12.2757 47.7805 -12.3563C47.87 -12.4338 48.0043 -12.4905 48.1595 -12.4905C48.3147 -12.4905 48.446 -12.4338 48.5355 -12.3563C48.6221 -12.2757 48.6549 -12.1861 48.6549 -12.1085V-8.21388H51.1081C51.5498 -8.21388 51.9646 -8.05571 52.2601 -7.79308C52.5526 -7.53045 52.7018 -7.19321 52.7018 -6.85597V16.8104Z" fill="#2E2F2F"/>
<path fill-rule="evenodd" clip-rule="evenodd" d="M38.3109 5.10854C37.9021 4.74146 37.347 4.53554 36.765 4.53255H34.9147V1.23776C34.9147 0.978114 34.7983 0.730407 34.5924 0.548358C34.3864 0.363324 34.1089 0.261855 33.8194 0.261855C33.5299 0.261855 33.2494 0.363324 33.0434 0.548358C32.8405 0.730407 32.7241 0.978114 32.7241 1.23776V4.53255H30.8768C30.2948 4.53255 29.7367 4.73848 29.3278 5.10556C28.916 5.47264 28.6862 5.97104 28.6862 6.49033V30.1567C28.6862 30.673 28.916 31.1714 29.3278 31.5385C29.7367 31.9056 30.2948 32.1115 30.8768 32.1115H32.7241V35.4063C32.7241 35.666 32.8405 35.9137 33.0434 36.0957C33.2494 36.2808 33.5269 36.3852 33.8194 36.3852C34.1119 36.3852 34.3864 36.2808 34.5924 36.0957C34.7983 35.9137 34.9147 35.666 34.9147 35.4063V32.1115H36.765C37.347 32.1115 37.9021 31.9056 38.3109 31.5385C38.7228 31.1714 38.9556 30.673 38.9556 30.1567V6.49033C38.9556 5.97104 38.7228 5.47563 38.3109 5.10854ZM38.3587 30.1538C38.3587 30.491 38.2065 30.8312 37.914 31.0938C37.6185 31.3565 37.2067 31.5146 36.765 31.5146H34.3178V35.4063C34.3178 35.4839 34.282 35.5734 34.1954 35.651C34.1059 35.7316 33.9716 35.7883 33.8194 35.7883C33.6672 35.7883 33.5329 35.7316 33.4434 35.651C33.3538 35.5734 33.321 35.4839 33.321 35.4063V31.5146H30.8768C30.4321 31.5146 30.0202 31.3565 29.7248 31.0938C29.4323 30.8312 29.2831 30.494 29.2831 30.1567V6.49033C29.2831 6.15309 29.4323 5.81287 29.7248 5.55024C30.0202 5.28761 30.4321 5.12944 30.8768 5.12944H33.321V1.23776C33.321 1.16016 33.3538 1.07063 33.4434 0.993036C33.5329 0.912457 33.6672 0.858738 33.8194 0.858738C33.9716 0.858738 34.1059 0.912457 34.1954 0.993036C34.282 1.07063 34.3178 1.16016 34.3178 1.23776V5.12944H36.765C37.2067 5.12944 37.6215 5.29059 37.914 5.55322C38.2065 5.81287 38.3587 6.15309 38.3587 6.49033V30.1538Z" fill="#2E2F2F"/>
<path fill-rule="evenodd" clip-rule="evenodd" d="M23.9708 -1.71383C23.562 -2.08091 23.0039 -2.28684 22.4249 -2.28684H20.5746V-5.57566C20.5746 -5.8353 20.4611 -6.086 20.2552 -6.26805C20.0493 -6.45308 19.7717 -6.55455 19.4823 -6.55455C19.1928 -6.55455 18.9122 -6.45308 18.7063 -6.26805C18.5004 -6.086 18.387 -5.8353 18.387 -5.57566V-2.28684H16.5337C15.9547 -2.28385 15.3966 -2.07793 14.9877 -1.71084C14.5759 -1.34376 14.3461 -0.848347 14.3431 -0.329059V23.3374C14.3431 23.8566 14.5759 24.352 14.9847 24.7191C15.3966 25.0862 15.9517 25.2921 16.5337 25.2921H18.387V28.5899C18.387 28.8496 18.5004 29.0973 18.7063 29.2823C18.9122 29.4644 19.1898 29.5688 19.4823 29.5688C19.7747 29.5688 20.0493 29.4644 20.2552 29.2823C20.4611 29.0973 20.5746 28.8496 20.5746 28.5899V25.2921H22.4249C22.7114 25.2921 22.9979 25.2444 23.2635 25.1459C23.5291 25.0474 23.7709 24.9042 23.9738 24.7221C24.1767 24.5401 24.3379 24.3252 24.4483 24.0864C24.5587 23.8477 24.6155 23.594 24.6125 23.3374V-0.329059C24.6125 -0.848347 24.3827 -1.34674 23.9708 -1.71383ZM24.0156 23.3403C24.0156 23.5075 23.9798 23.6776 23.9081 23.8357C23.8335 23.9969 23.7231 24.1461 23.5769 24.2774C23.4306 24.4058 23.2546 24.5132 23.0576 24.5848C22.8576 24.6594 22.6428 24.6982 22.4249 24.6953H19.9777V28.5899C19.9777 28.6675 19.9448 28.76 19.8583 28.8376C19.7688 28.9182 19.6345 28.9719 19.4823 28.9719C19.3301 28.9719 19.1928 28.9182 19.1032 28.8376C19.0167 28.76 18.9839 28.6675 18.9839 28.5899V24.6953H16.5337C16.092 24.6953 15.6771 24.5371 15.3817 24.2745C15.0892 24.0148 14.94 23.6746 14.94 23.3374V-0.329059C14.943 -0.666298 15.0922 -1.00354 15.3847 -1.26617C15.6801 -1.52879 16.092 -1.68697 16.5337 -1.68995H18.9839V-5.57566C18.9839 -5.65624 19.0167 -5.74577 19.1032 -5.82337C19.1928 -5.90395 19.3271 -5.95767 19.4823 -5.95767C19.6374 -5.95767 19.7688 -5.90395 19.8583 -5.82337C19.9448 -5.74577 19.9777 -5.65624 19.9777 -5.57566V-1.68995H22.4249C22.8666 -1.68995 23.2784 -1.53178 23.5739 -1.26915C23.8664 -1.00652 24.0156 -0.666298 24.0156 -0.329059V23.3403Z" fill="#2E2F2F"/>
<path fill-rule="evenodd" clip-rule="evenodd" d="M9.63966 10.4208C9.22781 10.0537 8.67271 9.84779 8.09373 9.84481H6.23743V6.553C6.23743 6.29634 6.12103 6.04565 5.91511 5.8636C5.70919 5.67857 5.43163 5.5771 5.14215 5.5771C4.85266 5.5771 4.57212 5.67857 4.3662 5.8636C4.16326 6.04565 4.04687 6.29634 4.04687 6.553V9.84481H2.19056C1.61158 9.84779 1.05648 10.0537 0.644634 10.4208C0.235769 10.7879 0.00298441 11.2833 0 11.8026V35.469C0 35.9883 0.232784 36.4837 0.641649 36.8508C1.0535 37.2179 1.61158 37.4238 2.19056 37.4238H4.04687V40.7216C4.04687 40.9812 4.16326 41.2289 4.3662 41.4139C4.57212 41.596 4.85266 41.7005 5.14215 41.7005C5.43163 41.7005 5.70919 41.596 5.91511 41.4139C6.12103 41.2289 6.23743 40.9812 6.23743 40.7216V37.4238H8.09373C8.67271 37.4238 9.23079 37.2179 9.63966 36.8508C10.0515 36.4837 10.2813 35.9883 10.2813 35.469V11.8026C10.2813 11.2833 10.0485 10.7879 9.63966 10.4208ZM9.68443 35.469C9.68443 35.8062 9.5352 36.1435 9.24273 36.4061C8.94728 36.6687 8.53543 36.8269 8.09373 36.8269H5.64054V40.7216C5.64054 40.7992 5.60473 40.8917 5.51818 40.9693C5.42865 41.0499 5.29435 41.1036 5.14215 41.1036C4.98994 41.1036 4.85564 41.0499 4.76611 40.9693C4.67658 40.8917 4.64375 40.7992 4.64375 40.7216V36.8269H2.19056C1.74887 36.8269 1.33403 36.6687 1.04156 36.4061C0.749088 36.1435 0.596883 35.8062 0.596883 35.469V11.8026C0.599867 11.4653 0.749088 11.1281 1.04156 10.8655C1.33702 10.6029 1.74887 10.4447 2.19056 10.4417H4.64375V6.553C4.64375 6.47541 4.67658 6.38587 4.76611 6.30828C4.85564 6.2277 4.98994 6.17398 5.14215 6.17398C5.29435 6.17398 5.42865 6.2277 5.51818 6.30828C5.60473 6.38587 5.64054 6.47541 5.64054 6.553V10.4417H8.09075C8.53543 10.4447 8.94727 10.6029 9.23975 10.8655C9.53222 11.1281 9.68443 11.4653 9.68443 11.8026V35.469Z" fill="#2E2F2F"/>
</g>
<defs>
<clipPath id="clip0_12321_432451">
<rect width="108" height="24" fill="white"/>
</clipPath>
</defs>
</svg>
