<svg width="36" height="24" viewBox="0 0 36 24" fill="none" xmlns="http://www.w3.org/2000/svg">
<g clip-path="url(#clip0_12411_384852)">
<path d="M13.0988 4.72H12.1587V3.038C12.1587 2.90539 12.1003 2.77821 11.9962 2.68445C11.8922 2.59068 11.7511 2.538 11.604 2.538C11.4569 2.538 11.3159 2.59068 11.2119 2.68445C11.1078 2.77821 11.0494 2.90539 11.0494 3.038V4.72H10.1093C9.81535 4.72079 9.53371 4.8264 9.32587 5.01377C9.11803 5.20113 9.00088 5.45503 9 5.72V17.815C9 18.0802 9.11687 18.3346 9.3249 18.5221C9.53293 18.7096 9.81508 18.815 10.1093 18.815H11.0494V20.5C11.0494 20.6326 11.1078 20.7598 11.2119 20.8536C11.3159 20.9473 11.4569 21 11.604 21C11.7511 21 11.8922 20.9473 11.9962 20.8536C12.1003 20.7598 12.1587 20.6326 12.1587 20.5V18.815H13.0988C13.393 18.815 13.6752 18.7096 13.8832 18.5221C14.0912 18.3346 14.2081 18.0802 14.2081 17.815V5.72C14.2072 5.45503 14.0901 5.20113 13.8822 5.01377C13.6744 4.8264 13.3927 4.72079 13.0988 4.72ZM20.3591 -1.48H19.4228V-3.162C19.4228 -3.29461 19.3644 -3.42179 19.2604 -3.51555C19.1564 -3.60932 19.0153 -3.662 18.8682 -3.662C18.7211 -3.662 18.58 -3.60932 18.476 -3.51555C18.372 -3.42179 18.3136 -3.29461 18.3136 -3.162V-1.48H17.3751C17.0812 -1.47921 16.7995 -1.3736 16.5917 -1.18623C16.3838 -0.998868 16.2667 -0.744973 16.2658 -0.48V11.615C16.2658 11.8802 16.3827 12.1346 16.5907 12.3221C16.7988 12.5096 17.0809 12.615 17.3751 12.615H18.3136V14.3C18.3136 14.4326 18.372 14.5598 18.476 14.6536C18.58 14.7473 18.7211 14.8 18.8682 14.8C19.0153 14.8 19.1564 14.7473 19.2604 14.6536C19.3644 14.5598 19.4228 14.4326 19.4228 14.3V12.615H20.3591C20.5049 12.6155 20.6494 12.5899 20.7842 12.5398C20.919 12.4897 21.0415 12.4161 21.1446 12.3231C21.2477 12.2302 21.3294 12.1198 21.385 11.9982C21.4405 11.8767 21.4689 11.7465 21.4684 11.615V-0.48C21.4684 -0.745216 21.3515 -0.999571 21.1435 -1.18711C20.9354 -1.37464 20.6533 -1.48 20.3591 -1.48ZM27.6249 2.005H26.6864V0.321499C26.6864 0.188891 26.628 0.0617148 26.524 -0.0320534C26.42 -0.125822 26.2789 -0.178501 26.1318 -0.178501C25.9847 -0.178501 25.8436 -0.125822 25.7396 -0.0320534C25.6356 0.0617148 25.5772 0.188891 25.5772 0.321499V2.005H24.6409C24.3467 2.005 24.0646 2.11036 23.8565 2.29789C23.6485 2.48543 23.5316 2.73978 23.5316 3.005V15.1C23.5316 15.3652 23.6485 15.6196 23.8565 15.8071C24.0646 15.9946 24.3467 16.1 24.6409 16.1H25.5772V17.783C25.5772 17.9156 25.6356 18.0428 25.7396 18.1366C25.8436 18.2303 25.9847 18.283 26.1318 18.283C26.2789 18.283 26.42 18.2303 26.524 18.1366C26.628 18.0428 26.6864 17.9156 26.6864 17.783V16.1H27.6249C27.9188 16.0992 28.2005 15.9936 28.4083 15.8062C28.6162 15.6189 28.7333 15.365 28.7342 15.1V3.005C28.7333 2.74003 28.6162 2.48613 28.4083 2.29877C28.2005 2.1114 27.9188 2.00579 27.6249 2.005ZM34.8907 -4.815H33.9506V-6.5C33.9506 -6.63261 33.8922 -6.75979 33.7881 -6.85355C33.6841 -6.94732 33.5431 -7 33.396 -7C33.2489 -7 33.1078 -6.94732 33.0038 -6.85355C32.8997 -6.75979 32.8413 -6.63261 32.8413 -6.5V-4.815H31.9012C31.607 -4.815 31.3248 -4.70964 31.1168 -4.52211C30.9088 -4.33457 30.7919 -4.08022 30.7919 -3.815V8.28C30.7928 8.54497 30.9099 8.79887 31.1178 8.98623C31.3256 9.1736 31.6073 9.27921 31.9012 9.28H32.8413V10.962C32.8413 11.0946 32.8997 11.2218 33.0038 11.3156C33.1078 11.4093 33.2489 11.462 33.396 11.462C33.5431 11.462 33.6841 11.4093 33.7881 11.3156C33.8922 11.2218 33.9506 11.0946 33.9506 10.962V9.28H34.8907C35.1846 9.27921 35.4663 9.1736 35.6741 8.98623C35.882 8.79887 35.9991 8.54497 36 8.28V-3.815C36 -4.08022 35.8831 -4.33457 35.6751 -4.52211C35.4671 -4.70964 35.1849 -4.815 34.8907 -4.815Z" fill="#2E2F2F"/>
</g>
<defs>
<clipPath id="clip0_12411_384852">
<rect width="36" height="24" fill="white"/>
</clipPath>
</defs>
</svg>
