<svg width="120" height="80" viewBox="0 0 120 80" fill="none" xmlns="http://www.w3.org/2000/svg">
<g clip-path="url(#clip0_801_29387)">
<path d="M55.666 62.1743C53.191 62.1743 51.0723 61.2931 49.3098 59.5306C47.5473 57.7681 46.666 55.6493 46.666 53.1743V-9.82568C46.666 -12.3007 47.5473 -14.4194 49.3098 -16.1819C51.0723 -17.9444 53.191 -18.8257 55.666 -18.8257H60.166V-23.3257C60.166 -24.6007 60.5973 -25.6694 61.4598 -26.5319C62.3223 -27.3944 63.391 -27.8257 64.666 -27.8257C65.941 -27.8257 67.0098 -27.3944 67.8723 -26.5319C68.7348 -25.6694 69.166 -24.6007 69.166 -23.3257V-18.8257H105.166V-23.3257C105.166 -24.6007 105.597 -25.6694 106.46 -26.5319C107.322 -27.3944 108.391 -27.8257 109.666 -27.8257C110.941 -27.8257 112.01 -27.3944 112.872 -26.5319C113.735 -25.6694 114.166 -24.6007 114.166 -23.3257V-18.8257H118.666C121.141 -18.8257 123.26 -17.9444 125.022 -16.1819C126.785 -14.4194 127.666 -12.3007 127.666 -9.82568V53.1743C127.666 55.6493 126.785 57.7681 125.022 59.5306C123.26 61.2931 121.141 62.1743 118.666 62.1743H55.666ZM55.666 53.1743H118.666V8.17432H55.666V53.1743ZM87.166 26.1743C85.891 26.1743 84.8223 25.7431 83.9598 24.8806C83.0973 24.0181 82.666 22.9493 82.666 21.6743C82.666 20.3993 83.0973 19.3306 83.9598 18.4681C84.8223 17.6056 85.891 17.1743 87.166 17.1743C88.441 17.1743 89.5098 17.6056 90.3723 18.4681C91.2348 19.3306 91.666 20.3993 91.666 21.6743C91.666 22.9493 91.2348 24.0181 90.3723 24.8806C89.5098 25.7431 88.441 26.1743 87.166 26.1743ZM69.166 26.1743C67.891 26.1743 66.8223 25.7431 65.9598 24.8806C65.0973 24.0181 64.666 22.9493 64.666 21.6743C64.666 20.3993 65.0973 19.3306 65.9598 18.4681C66.8223 17.6056 67.891 17.1743 69.166 17.1743C70.441 17.1743 71.5098 17.6056 72.3723 18.4681C73.2348 19.3306 73.666 20.3993 73.666 21.6743C73.666 22.9493 73.2348 24.0181 72.3723 24.8806C71.5098 25.7431 70.441 26.1743 69.166 26.1743ZM105.166 26.1743C103.891 26.1743 102.822 25.7431 101.96 24.8806C101.097 24.0181 100.666 22.9493 100.666 21.6743C100.666 20.3993 101.097 19.3306 101.96 18.4681C102.822 17.6056 103.891 17.1743 105.166 17.1743C106.441 17.1743 107.51 17.6056 108.372 18.4681C109.235 19.3306 109.666 20.3993 109.666 21.6743C109.666 22.9493 109.235 24.0181 108.372 24.8806C107.51 25.7431 106.441 26.1743 105.166 26.1743ZM87.166 44.1743C85.891 44.1743 84.8223 43.7431 83.9598 42.8806C83.0973 42.0181 82.666 40.9493 82.666 39.6743C82.666 38.3993 83.0973 37.3306 83.9598 36.4681C84.8223 35.6056 85.891 35.1743 87.166 35.1743C88.441 35.1743 89.5098 35.6056 90.3723 36.4681C91.2348 37.3306 91.666 38.3993 91.666 39.6743C91.666 40.9493 91.2348 42.0181 90.3723 42.8806C89.5098 43.7431 88.441 44.1743 87.166 44.1743ZM69.166 44.1743C67.891 44.1743 66.8223 43.7431 65.9598 42.8806C65.0973 42.0181 64.666 40.9493 64.666 39.6743C64.666 38.3993 65.0973 37.3306 65.9598 36.4681C66.8223 35.6056 67.891 35.1743 69.166 35.1743C70.441 35.1743 71.5098 35.6056 72.3723 36.4681C73.2348 37.3306 73.666 38.3993 73.666 39.6743C73.666 40.9493 73.2348 42.0181 72.3723 42.8806C71.5098 43.7431 70.441 44.1743 69.166 44.1743ZM105.166 44.1743C103.891 44.1743 102.822 43.7431 101.96 42.8806C101.097 42.0181 100.666 40.9493 100.666 39.6743C100.666 38.3993 101.097 37.3306 101.96 36.4681C102.822 35.6056 103.891 35.1743 105.166 35.1743C106.441 35.1743 107.51 35.6056 108.372 36.4681C109.235 37.3306 109.666 38.3993 109.666 39.6743C109.666 40.9493 109.235 42.0181 108.372 42.8806C107.51 43.7431 106.441 44.1743 105.166 44.1743Z" fill="#2E2F2F"/>
</g>
<defs>
<clipPath id="clip0_801_29387">
<rect width="120" height="80" fill="white"/>
</clipPath>
</defs>
</svg>
