<svg width="36" height="24" viewBox="0 0 36 24" fill="none" xmlns="http://www.w3.org/2000/svg">
<g clip-path="url(#clip0_6813_146377)">
<path d="M20.0312 7.0625C18.6417 7.0625 17.4557 6.57135 16.4734 5.58906C15.4911 4.60677 15 3.42083 15 2.03125C15 0.641666 15.4911 -0.544271 16.4734 -1.52656C17.4557 -2.50885 18.6417 -3 20.0312 -3C21.4208 -3 22.6068 -2.50885 23.5891 -1.52656C24.5714 -0.544271 25.0625 0.641666 25.0625 2.03125C25.0625 3.42083 24.5714 4.60677 23.5891 5.58906C22.6068 6.57135 21.4208 7.0625 20.0312 7.0625ZM20.0312 4.1875C20.6302 4.1875 21.1393 3.97786 21.5586 3.55859C21.9779 3.13932 22.1875 2.63021 22.1875 2.03125C22.1875 1.43229 21.9779 0.923177 21.5586 0.503906C21.1393 0.084635 20.6302 -0.125 20.0312 -0.125C19.4323 -0.125 18.9232 0.084635 18.5039 0.503906C18.0846 0.923177 17.875 1.43229 17.875 2.03125C17.875 2.63021 18.0846 3.13932 18.5039 3.55859C18.9232 3.97786 19.4323 4.1875 20.0312 4.1875ZM32.9687 20C31.5792 20 30.3932 19.5089 29.4109 18.5266C28.4286 17.5443 27.9375 16.3583 27.9375 14.9687C27.9375 13.5792 28.4286 12.3932 29.4109 11.4109C30.3932 10.4286 31.5792 9.9375 32.9687 9.9375C34.3583 9.9375 35.5443 10.4286 36.5266 11.4109C37.5089 12.3932 38 13.5792 38 14.9687C38 16.3583 37.5089 17.5443 36.5266 18.5266C35.5443 19.5089 34.3583 20 32.9687 20ZM32.9687 17.125C33.5677 17.125 34.0768 16.9154 34.4961 16.4961C34.9154 16.0768 35.125 15.5677 35.125 14.9687C35.125 14.3698 34.9154 13.8607 34.4961 13.4414C34.0768 13.0221 33.5677 12.8125 32.9687 12.8125C32.3698 12.8125 31.8607 13.0221 31.4414 13.4414C31.0221 13.8607 30.8125 14.3698 30.8125 14.9687C30.8125 15.5677 31.0221 16.0768 31.4414 16.4961C31.8607 16.9154 32.3698 17.125 32.9687 17.125ZM16.0062 18.9937C15.7427 18.7302 15.6109 18.3948 15.6109 17.9875C15.6109 17.5802 15.7427 17.2448 16.0062 16.9812L34.9812 -1.99375C35.2448 -2.25729 35.5802 -2.38906 35.9875 -2.38906C36.3948 -2.38906 36.7302 -2.25729 36.9937 -1.99375C37.2573 -1.73021 37.3891 -1.39479 37.3891 -0.9875C37.3891 -0.580209 37.2573 -0.244792 36.9937 0.0187496L18.0187 18.9937C17.7552 19.2573 17.4198 19.3891 17.0125 19.3891C16.6052 19.3891 16.2698 19.2573 16.0062 18.9937Z" fill="#2E2F2F"/>
</g>
<defs>
<clipPath id="clip0_6813_146377">
<rect width="36" height="24" fill="white"/>
</clipPath>
</defs>
</svg>
