<svg width="36" height="24" viewBox="0 0 36 24" fill="none" xmlns="http://www.w3.org/2000/svg">
<g clip-path="url(#clip0_13377_283931)">
<path d="M4.4999 19.5248C4.15275 19.1793 3.9864 18.7689 4.00087 18.2937C4.01533 17.8186 4.18168 17.4226 4.4999 17.1058L13.656 7.86177C14.3214 7.19942 15.1459 6.86825 16.1295 6.86825C17.1131 6.86825 17.9375 7.19942 18.6029 7.86177L23.0725 12.3542L32.0984 3.45572H29.3212C28.8294 3.45572 28.4172 3.29014 28.0845 2.95896C27.7518 2.62779 27.5855 2.21742 27.5855 1.72786C27.5855 1.2383 27.7518 0.827934 28.0845 0.49676C28.4172 0.165587 28.8294 0 29.3212 0H36.2642C36.756 0 37.1683 0.165587 37.501 0.49676C37.8337 0.827934 38 1.2383 38 1.72786V8.63931C38 9.12887 37.8337 9.53924 37.501 9.87041C37.1683 10.2016 36.756 10.3672 36.2642 10.3672C35.7724 10.3672 35.3602 10.2016 35.0275 9.87041C34.6948 9.53924 34.5285 9.12887 34.5285 8.63931V5.87473L25.5459 14.8164C24.8806 15.4788 24.0561 15.8099 23.0725 15.8099C22.0889 15.8099 21.2644 15.4788 20.599 14.8164L16.1295 10.3672L6.92996 19.5248C6.61173 19.8416 6.20673 20 5.71493 20C5.22313 20 4.81812 19.8416 4.4999 19.5248Z" fill="#2E2F2F"/>
</g>
<defs>
<clipPath id="clip0_13377_283931">
<rect width="36" height="24" fill="white"/>
</clipPath>
</defs>
</svg>
