<svg width="36" height="24" viewBox="0 0 36 24" fill="none" xmlns="http://www.w3.org/2000/svg">
<g clip-path="url(#clip0_15838_400431)">
<path fill-rule="evenodd" clip-rule="evenodd" d="M20.5193 15.8183C25.5005 15.8183 29.5385 11.8296 29.5385 6.90917C29.5385 1.98877 25.5005 -2 20.5193 -2C15.5381 -2 11.5 1.98877 11.5 6.90917C11.5 11.8296 15.5381 15.8183 20.5193 15.8183ZM28.1709 15.5166C30.5892 13.4173 32.1155 10.3394 32.1155 6.90931C32.1155 6.37372 32.0783 5.84671 32.0063 5.33068C36.216 5.71238 39.5 7.42172 39.5 9.40101V11.4759C39.5 13.725 35.2595 15.6256 30.2386 15.6256C29.5306 15.6256 28.8382 15.5878 28.1709 15.5166ZM21.7571 18.2995C23.1674 18.1516 24.5022 17.7541 25.7153 17.1525C27.0621 17.4998 28.6093 17.6999 30.2386 17.6999C35.2595 17.6999 39.5 15.7993 39.5 13.5502V16.6625C39.5 18.9116 35.2595 20.8122 30.2386 20.8122C26.5067 20.8122 23.2059 19.7622 21.7571 18.2995ZM30.2386 22.8877C25.2178 22.8877 20.9773 20.9871 20.9773 18.7379L20.9773 21.8502C20.9773 24.0994 25.2178 26 30.2386 26C35.2595 26 39.5 24.0994 39.5 21.8502V18.7379C39.5 20.9871 35.2595 22.8877 30.2386 22.8877ZM19.48 2.48055C19.48 2.18351 19.598 1.89863 19.808 1.68859C20.0181 1.47855 20.303 1.36055 20.6 1.36055C20.897 1.36055 21.1819 1.47855 21.392 1.68859C21.602 1.89863 21.72 2.18351 21.72 2.48055V4.72055C21.72 5.01759 21.602 5.30246 21.392 5.5125C21.1819 5.72255 20.897 5.84055 20.6 5.84055C20.303 5.84055 20.0181 5.72255 19.808 5.5125C19.598 5.30246 19.48 5.01759 19.48 4.72055V2.48055ZM18.36 8.08055H16.12C15.823 8.08055 15.5381 7.96255 15.328 7.75251C15.118 7.54247 15 7.25759 15 6.96055C15 6.66351 15.118 6.37863 15.328 6.16859C15.5381 5.95855 15.823 5.84055 16.12 5.84055H18.36C18.657 5.84055 18.9419 5.95855 19.152 6.16859C19.362 6.37863 19.48 6.66351 19.48 6.96055C19.48 7.25759 19.362 7.54247 19.152 7.75251C18.9419 7.96255 18.657 8.08055 18.36 8.08055ZM21.72 11.4405C21.72 11.7376 21.602 12.0225 21.392 12.2325C21.1819 12.4426 20.897 12.5605 20.6 12.5605C20.303 12.5605 20.0181 12.4426 19.808 12.2325C19.598 12.0225 19.48 11.7376 19.48 11.4405V9.20055C19.48 8.9035 19.598 8.61863 19.808 8.40859C20.0181 8.19854 20.303 8.08055 20.6 8.08055C20.897 8.08055 21.1819 8.19854 21.392 8.40859C21.602 8.61863 21.72 8.9035 21.72 9.20055V11.4405ZM25.08 8.08055H22.84C22.543 8.08055 22.2581 7.96255 22.048 7.75251C21.838 7.54247 21.72 7.25759 21.72 6.96055C21.72 6.66351 21.838 6.37863 22.048 6.16859C22.2581 5.95855 22.543 5.84055 22.84 5.84055H25.08C25.377 5.84055 25.6619 5.95855 25.872 6.16859C26.082 6.37863 26.2 6.66351 26.2 6.96055C26.2 7.25759 26.082 7.54247 25.872 7.75251C25.6619 7.96255 25.377 8.08055 25.08 8.08055Z" fill="#2E2F2F"/>
</g>
<defs>
<clipPath id="clip0_15838_400431">
<rect width="36" height="24" fill="white"/>
</clipPath>
</defs>
</svg>
