<svg width="36" height="24" viewBox="0 0 36 24" fill="none" xmlns="http://www.w3.org/2000/svg">
<g clip-path="url(#clip0_13007_191302)">
<path d="M13.2416 9.40483C12.7254 8.94933 13.091 8.1705 13.8211 8.1705L35.6063 8.1705C36.0589 8.1705 36.4258 8.49422 36.4258 8.89355V12.2678C36.4258 12.6671 36.0589 12.9909 35.6063 12.9909L26.3194 12.9909C25.8669 12.9909 25.5 13.3146 25.5 13.7139L25.5 18.4758C25.5 19.12 24.6174 19.4426 24.1011 18.9871L13.2416 9.40483ZM24.6806 -1.47024C25.1331 -1.47024 25.5 -1.79396 25.5 -2.1933V-6.95518C25.5 -7.59936 26.3826 -7.92196 26.8989 -7.46646L37.7584 2.1158C38.2746 2.5713 37.909 3.35013 37.1789 3.35013L15.3937 3.35013C14.9411 3.35013 14.5742 3.02641 14.5742 2.62707L14.5742 -0.747185C14.5742 -1.14652 14.9411 -1.47024 15.3937 -1.47024L24.6806 -1.47024Z" fill="#2E2F2F"/>
</g>
<defs>
<clipPath id="clip0_13007_191302">
<rect width="36" height="24" fill="white"/>
</clipPath>
</defs>
</svg>
