<svg width="36" height="24" viewBox="0 0 36 24" fill="none" xmlns="http://www.w3.org/2000/svg">
<g clip-path="url(#clip0_13141_186736)">
<path d="M26.5 21C24.7708 21 23.1458 20.6719 21.625 20.0156C20.1042 19.3594 18.7812 18.4687 17.6562 17.3437C16.5312 16.2187 15.6406 14.8958 14.9844 13.375C14.3281 11.8542 14 10.2292 14 8.5C14 6.77083 14.3281 5.14583 14.9844 3.625C15.6406 2.10417 16.5312 0.78125 17.6562 -0.34375C18.7812 -1.46875 20.1042 -2.35938 21.625 -3.01563C23.1458 -3.67188 24.7708 -4 26.5 -4C28.2292 -4 29.8542 -3.67188 31.375 -3.01563C32.8958 -2.35938 34.2188 -1.46875 35.3438 -0.34375C36.4688 0.78125 37.3594 2.10417 38.0156 3.625C38.6719 5.14583 39 6.77083 39 8.5C39 10.2292 38.6719 11.8542 38.0156 13.375C37.3594 14.8958 36.4688 16.2187 35.3438 17.3437C34.2188 18.4687 32.8958 19.3594 31.375 20.0156C29.8542 20.6719 28.2292 21 26.5 21ZM26.5 18.5C27.625 18.5 28.7083 18.3177 29.75 17.9531C30.7917 17.5885 31.75 17.0625 32.625 16.375L18.625 2.375C17.9375 3.25 17.4115 4.20833 17.0469 5.25C16.6823 6.29167 16.5 7.375 16.5 8.5C16.5 11.2917 17.4688 13.6562 19.4062 15.5937C21.3438 17.5312 23.7083 18.5 26.5 18.5ZM34.375 14.625C35.0625 13.75 35.5885 12.7917 35.9531 11.75C36.3177 10.7083 36.5 9.625 36.5 8.5C36.5 5.70833 35.5312 3.34375 33.5938 1.40625C31.6562 -0.53125 29.2917 -1.5 26.5 -1.5C25.375 -1.5 24.2917 -1.31771 23.25 -0.953125C22.2083 -0.588542 21.25 -0.0625002 20.375 0.625L34.375 14.625Z" fill="#2E2F2F"/>
</g>
<defs>
<clipPath id="clip0_13141_186736">
<rect width="36" height="24" fill="white"/>
</clipPath>
</defs>
</svg>
