<svg width="340" height="340" viewBox="0 0 340 340" fill="none" xmlns="http://www.w3.org/2000/svg">
<g clip-path="url(#clip0_13789_43690)">
<path d="M145.428 224C138.827 224 132.966 221.851 127.845 217.553C122.723 213.254 119.594 207.825 118.456 201.265L96.2343 69.0789C95.5056 64.7449 96.4765 60.9864 99.1468 57.8034C101.817 54.6205 105.358 53.029 109.77 53.029H350.23C354.642 53.029 358.183 54.6205 360.853 57.8034C363.523 60.9864 364.494 64.7449 363.766 69.0789L341.544 201.265C340.406 207.825 337.276 213.254 332.155 217.553C327.034 221.851 321.173 224 314.572 224H145.428ZM193.428 126.692H266.572C268.385 126.692 269.905 126.08 271.132 124.857C272.359 123.634 272.972 122.118 272.972 120.31C272.972 118.502 272.359 116.992 271.132 115.779C269.905 114.566 268.385 113.96 266.572 113.96H193.428C191.615 113.96 190.095 114.572 188.868 115.795C187.641 117.018 187.028 118.534 187.028 120.342C187.028 122.15 187.641 123.661 188.868 124.873C190.095 126.086 191.615 126.692 193.428 126.692ZM120.284 25.7464C118.471 25.7464 116.951 25.1348 115.724 23.9116C114.498 22.6885 113.884 21.1728 113.884 19.3645C113.884 17.5563 114.498 16.0459 115.724 14.8333C116.951 13.6208 118.471 13.0145 120.284 13.0145H339.716C341.529 13.0145 343.049 13.6261 344.276 14.8492C345.502 16.0724 346.116 17.5881 346.116 19.3963C346.116 21.2046 345.502 22.715 344.276 23.9275C343.049 25.1401 341.529 25.7464 339.716 25.7464H120.284ZM156.856 -14.2681C155.043 -14.2681 153.523 -14.8797 152.296 -16.1029C151.07 -17.326 150.456 -18.8417 150.456 -20.65C150.456 -22.4582 151.07 -23.9686 152.296 -25.1812C153.523 -26.3937 155.043 -27 156.856 -27H303.144C304.957 -27 306.477 -26.3884 307.704 -25.1653C308.93 -23.9421 309.544 -22.4264 309.544 -20.6182C309.544 -18.8099 308.93 -17.2995 307.704 -16.087C306.477 -14.8744 304.957 -14.2681 303.144 -14.2681H156.856Z" fill="url(#paint0_linear_13789_43690)"/>
<path d="M371.559 320.23L265.264 212.995L271.203 205.256C291.519 178.809 302.231 147.073 302.231 113.61C302.231 29.9824 234.458 -38 151.143 -38C67.8286 -38 0 29.9824 0 113.61C0 197.238 67.7731 265.165 151.143 265.165C182.671 265.165 213.088 255.31 238.954 236.658L246.614 231.146L353.297 338.381C355.739 340.775 358.903 342 362.733 342C370.171 342 375 336.933 375 329.083C375 325.631 373.779 322.513 371.559 320.23ZM151.143 252.582C74.7114 252.582 12.5444 190.223 12.5444 113.61C12.5444 36.9978 74.7114 -25.4168 151.143 -25.4168C227.576 -25.4168 289.687 36.9421 289.687 113.61C289.687 190.278 227.52 252.582 151.143 252.582Z" fill="url(#paint1_linear_13789_43690)"/>
</g>
<defs>
<linearGradient id="paint0_linear_13789_43690" x1="571.673" y1="-139.603" x2="196.551" y2="198.719" gradientUnits="userSpaceOnUse">
<stop stop-color="#4D5F5D"/>
<stop offset="1" stop-color="#262B28"/>
</linearGradient>
<linearGradient id="paint1_linear_13789_43690" x1="422.693" y1="-99.6354" x2="105.98" y2="264.392" gradientUnits="userSpaceOnUse">
<stop stop-color="#4D5F5D"/>
<stop offset="1" stop-color="#2C2F2D"/>
</linearGradient>
<clipPath id="clip0_13789_43690">
<rect width="340" height="340" fill="white"/>
</clipPath>
</defs>
</svg>
