<svg width="80" height="80" viewBox="0 0 80 80" fill="none" xmlns="http://www.w3.org/2000/svg">
    <path d="M65.3333 51C64.5778 51 63.9444 50.7459 63.4333 50.2378C62.9222 49.7297 62.6667 49.1001 62.6667 48.349V43.0471H57.3333C56.5778 43.0471 55.9444 42.7931 55.4333 42.285C54.9222 41.7769 54.6667 41.1473 54.6667 40.3962C54.6667 39.6451 54.9222 39.0155 55.4333 38.5074C55.9444 37.9993 56.5778 37.7452 57.3333 37.7452H62.6667V32.4433C62.6667 31.6922 62.9222 31.0626 63.4333 30.5545C63.9444 30.0464 64.5778 29.7923 65.3333 29.7923C66.0889 29.7923 66.7222 30.0464 67.2333 30.5545C67.7444 31.0626 68 31.6922 68 32.4433V37.7452H73.3333C74.0889 37.7452 74.7222 37.9993 75.2333 38.5074C75.7444 39.0155 76 39.6451 76 40.3962C76 41.1473 75.7444 41.7769 75.2333 42.285C74.7222 42.7931 74.0889 43.0471 73.3333 43.0471H68V48.349C68 49.1001 67.7444 49.7297 67.2333 50.2378C66.7222 50.7459 66.0889 51 65.3333 51ZM41.3333 43.1134C40.5778 43.1134 39.9444 42.8593 39.4333 42.3512C38.9222 41.8431 38.6667 41.2135 38.6667 40.4624C38.6667 39.7113 38.9222 39.0817 39.4333 38.5736C39.9444 38.0655 40.5778 37.8115 41.3333 37.8115H48C48.7556 37.8115 49.3889 38.0655 49.9 38.5736C50.4111 39.0817 50.6667 39.7113 50.6667 40.4624C50.6667 41.2135 50.4111 41.8431 49.9 42.3512C49.3889 42.8593 48.7556 43.1134 48 43.1134H41.3333ZM41.3333 32.5096C40.5778 32.5096 39.9444 32.2555 39.4333 31.7474C38.9222 31.2393 38.6667 30.6097 38.6667 29.8586C38.6667 29.1075 38.9222 28.4779 39.4333 27.9698C39.9444 27.4617 40.5778 27.2077 41.3333 27.2077H56.3328C57.0883 27.2077 57.7217 27.4617 58.2328 27.9698C58.7439 28.4779 58.9994 29.1075 58.9994 29.8586C58.9994 30.6097 58.7439 31.2393 58.2328 31.7474C57.7217 32.2555 57.0883 32.5096 56.3328 32.5096H41.3333ZM41.3333 21.9057C40.5778 21.9057 39.9444 21.6517 39.4333 21.1436C38.9222 20.6355 38.6667 20.0059 38.6667 19.2548C38.6667 18.5037 38.9222 17.8741 39.4333 17.366C39.9444 16.8579 40.5778 16.6038 41.3333 16.6038H68C68.7556 16.6038 69.3889 16.8579 69.9 17.366C70.4111 17.8741 70.6667 18.5037 70.6667 19.2548C70.6667 20.0059 70.4111 20.6355 69.9 21.1436C69.3889 21.6517 68.7556 21.9057 68 21.9057H41.3333ZM41.3333 11.3019C40.5778 11.3019 39.9444 11.0479 39.4333 10.5398C38.9222 10.0317 38.6667 9.40206 38.6667 8.65096C38.6667 7.89985 38.9222 7.27025 39.4333 6.76215C39.9444 6.25405 40.5778 6 41.3333 6H68C68.7556 6 69.3889 6.25405 69.9 6.76215C70.4111 7.27025 70.6667 7.89985 70.6667 8.65096C70.6667 9.40206 70.4111 10.0317 69.9 10.5398C69.3889 11.0479 68.7556 11.3019 68 11.3019H41.3333ZM30.6667 11.3019C29.9111 11.3019 29.2778 11.0479 28.7667 10.5398C28.2556 10.0317 28 9.40206 28 8.65096C28 7.89985 28.2556 7.27025 28.7667 6.76215C29.2778 6.25405 29.9111 6 30.6667 6C31.4222 6 32.0556 6.25405 32.5667 6.76215C33.0778 7.27025 33.3333 7.89985 33.3333 8.65096C33.3333 9.40206 33.0778 10.0317 32.5667 10.5398C32.0556 11.0479 31.4222 11.3019 30.6667 11.3019ZM30.6667 21.9057C29.9111 21.9057 29.2778 21.6517 28.7667 21.1436C28.2556 20.6355 28 20.0059 28 19.2548C28 18.5037 28.2556 17.8741 28.7667 17.366C29.2778 16.8579 29.9111 16.6038 30.6667 16.6038C31.4222 16.6038 32.0556 16.8579 32.5667 17.366C33.0778 17.8741 33.3333 18.5037 33.3333 19.2548C33.3333 20.0059 33.0778 20.6355 32.5667 21.1436C32.0556 21.6517 31.4222 21.9057 30.6667 21.9057ZM30.6667 32.5096C29.9111 32.5096 29.2778 32.2555 28.7667 31.7474C28.2556 31.2393 28 30.6097 28 29.8586C28 29.1075 28.2556 28.4779 28.7667 27.9698C29.2778 27.4617 29.9111 27.2077 30.6667 27.2077C31.4222 27.2077 32.0556 27.4617 32.5667 27.9698C33.0778 28.4779 33.3333 29.1075 33.3333 29.8586C33.3333 30.6097 33.0778 31.2393 32.5667 31.7474C32.0556 32.2555 31.4222 32.5096 30.6667 32.5096ZM30.6667 43.1134C29.9111 43.1134 29.2778 42.8593 28.7667 42.3512C28.2556 41.8431 28 41.2135 28 40.4624C28 39.7113 28.2556 39.0817 28.7667 38.5736C29.2778 38.0655 29.9111 37.8115 30.6667 37.8115C31.4222 37.8115 32.0556 38.0655 32.5667 38.5736C33.0778 39.0817 33.3333 39.7113 33.3333 40.4624C33.3333 41.2135 33.0778 41.8431 32.5667 42.3512C32.0556 42.8593 31.4222 43.1134 30.6667 43.1134Z" fill="url(#paint0_linear_9757_344542)"/>
    <path d="M77.5983 71.9341L57.6878 51.9092L58.8003 50.464C62.6056 45.5254 64.6123 39.5991 64.6123 33.3504C64.6123 17.7339 51.9174 5.03906 36.3113 5.03906C20.7053 5.03906 8 17.7339 8 33.3504C8 48.9669 20.6949 61.6513 36.3113 61.6513C42.2169 61.6513 47.9145 59.8111 52.7596 56.328L54.1944 55.2987L74.1776 75.3235C74.6351 75.7706 75.2277 75.9994 75.9451 75.9994C77.3383 75.9994 78.2429 75.0532 78.2429 73.5872C78.2429 72.9426 78.0142 72.3604 77.5983 71.9341ZM36.3113 59.3016C21.9945 59.3016 10.3497 47.6568 10.3497 33.3504C10.3497 19.044 21.9945 7.38881 36.3113 7.38881C50.6282 7.38881 62.2625 19.0336 62.2625 33.3504C62.2625 47.6672 50.6178 59.3016 36.3113 59.3016Z" fill="url(#paint1_linear_9757_344542)"/>
    <defs>
        <linearGradient id="paint0_linear_9757_344542" x1="82.6383" y1="2.17021" x2="46.2755" y2="59.2774" gradientUnits="userSpaceOnUse">
            <stop stop-color="#3F4F47"/>
            <stop offset="1" stop-color="#283931"/>
        </linearGradient>
        <linearGradient id="paint1_linear_9757_344542" x1="78.2429" y1="5.03907" x2="35.3007" y2="75.2904" gradientUnits="userSpaceOnUse">
            <stop stop-color="#60977E"/>
            <stop offset="1" stop-color="#244033"/>
        </linearGradient>
    </defs>
</svg>
