<svg width="340" height="340" viewBox="0 0 340 340" fill="none" xmlns="http://www.w3.org/2000/svg">
<g clip-path="url(#clip0_12932_202084)">
<path d="M159.889 273C152.494 273 146.164 270.367 140.899 265.101C135.633 259.836 133 253.506 133 246.111V57.8889C133 50.4944 135.633 44.1644 140.899 38.8986C146.164 33.6329 152.494 31 159.889 31H296.686C300.271 31 303.688 31.6722 306.938 33.0167C310.187 34.3611 313.044 36.2657 315.508 38.7306L367.269 90.4917C369.734 92.9565 371.639 95.8134 372.983 99.0625C374.328 102.312 375 105.729 375 109.314V246.111C375 253.506 372.367 259.836 367.101 265.101C361.836 270.367 355.506 273 348.111 273H159.889ZM294.333 57.8889V98.2222C294.333 102.031 295.622 105.225 298.199 107.801C300.775 110.378 303.969 111.667 307.778 111.667H348.111L294.333 57.8889ZM307.778 219.222C311.587 219.222 314.78 217.934 317.357 215.357C319.934 212.78 321.222 209.587 321.222 205.778C321.222 201.969 319.934 198.775 317.357 196.199C314.78 193.622 311.587 192.333 307.778 192.333H200.222C196.413 192.333 193.22 193.622 190.643 196.199C188.066 198.775 186.778 201.969 186.778 205.778C186.778 209.587 188.066 212.78 190.643 215.357C193.22 217.934 196.413 219.222 200.222 219.222H307.778ZM240.556 111.667C244.365 111.667 247.558 110.378 250.135 107.801C252.712 105.225 254 102.031 254 98.2222C254 94.413 252.712 91.2199 250.135 88.6431C247.558 86.0662 244.365 84.7778 240.556 84.7778H200.222C196.413 84.7778 193.22 86.0662 190.643 88.6431C188.066 91.2199 186.778 94.413 186.778 98.2222C186.778 102.031 188.066 105.225 190.643 107.801C193.22 110.378 196.413 111.667 200.222 111.667H240.556ZM307.778 165.444C311.587 165.444 314.78 164.156 317.357 161.579C319.934 159.002 321.222 155.809 321.222 152C321.222 148.191 319.934 144.998 317.357 142.421C314.78 139.844 311.587 138.556 307.778 138.556H200.222C196.413 138.556 193.22 139.844 190.643 142.421C188.066 144.998 186.778 148.191 186.778 152C186.778 155.809 188.066 159.002 190.643 161.579C193.22 164.156 196.413 165.444 200.222 165.444H307.778Z" fill="url(#paint0_linear_12932_202084)"/>
<path d="M371.559 320.23L265.264 212.995L271.203 205.256C291.519 178.809 302.231 147.073 302.231 113.61C302.231 29.9824 234.458 -38 151.143 -38C67.8286 -38 0 29.9824 0 113.61C0 197.238 67.7731 265.165 151.143 265.165C182.671 265.165 213.088 255.31 238.954 236.658L246.614 231.146L353.297 338.381C355.739 340.775 358.903 342 362.733 342C370.171 342 375 336.933 375 329.083C375 325.631 373.779 322.513 371.559 320.23ZM151.143 252.582C74.7114 252.582 12.5444 190.223 12.5444 113.61C12.5444 36.9978 74.7114 -25.4168 151.143 -25.4168C227.576 -25.4168 289.687 36.9421 289.687 113.61C289.687 190.278 227.52 252.582 151.143 252.582Z" fill="url(#paint1_linear_12932_202084)"/>
</g>
<defs>
<linearGradient id="paint0_linear_12932_202084" x1="562.526" y1="-77.5652" x2="204.043" y2="225.24" gradientUnits="userSpaceOnUse">
<stop stop-color="#4D5F5D"/>
<stop offset="1" stop-color="#262B28"/>
</linearGradient>
<linearGradient id="paint1_linear_12932_202084" x1="422.693" y1="-99.6354" x2="105.98" y2="264.392" gradientUnits="userSpaceOnUse">
<stop stop-color="#4D5F5D"/>
<stop offset="1" stop-color="#2C2F2D"/>
</linearGradient>
<clipPath id="clip0_12932_202084">
<rect width="340" height="340" fill="white"/>
</clipPath>
</defs>
</svg>
