<svg width="340" height="340" viewBox="0 0 340 340" fill="none" xmlns="http://www.w3.org/2000/svg">
<g clip-path="url(#clip0_3533_37631)">
<path d="M219.506 271C215.774 271 212.539 269.767 209.802 267.3C207.064 264.833 205.447 261.75 204.949 258.05L200.47 223.64C197.236 222.407 194.187 220.927 191.326 219.2C188.464 217.473 185.665 215.623 182.928 213.65L150.455 226.97C146.971 228.45 143.487 228.635 140.004 227.525C136.52 226.415 133.783 224.257 131.792 221.05L104.172 173.32C102.181 170.113 101.559 166.66 102.305 162.96C103.052 159.26 104.918 156.3 107.904 154.08L135.898 132.99C135.649 131.263 135.525 129.598 135.525 127.995V118.005C135.525 116.402 135.649 114.737 135.898 113.01L107.904 91.92C104.918 89.7 103.052 86.74 102.305 83.04C101.559 79.34 102.181 75.8867 104.172 72.68L131.792 24.95C133.783 21.7433 136.52 19.585 140.004 18.475C143.487 17.365 146.971 17.55 150.455 19.03L182.928 32.35C185.665 30.3767 188.526 28.5267 191.512 26.8C194.498 25.0733 197.484 23.5933 200.47 22.36L204.949 -12.05C205.447 -15.75 207.064 -18.8333 209.802 -21.3C212.539 -23.7667 215.774 -25 219.506 -25H275.494C279.226 -25 282.461 -23.7667 285.198 -21.3C287.936 -18.8333 289.553 -15.75 290.051 -12.05L294.53 22.36C297.764 23.5933 300.813 25.0733 303.674 26.8C306.536 28.5267 309.335 30.3767 312.072 32.35L344.545 19.03C348.029 17.55 351.513 17.365 354.996 18.475C358.48 19.585 361.217 21.7433 363.208 24.95L390.828 72.68C392.819 75.8867 393.441 79.34 392.695 83.04C391.948 86.74 390.082 89.7 387.096 91.92L359.102 113.01C359.351 114.737 359.475 116.402 359.475 118.005V127.995C359.475 129.598 359.226 131.263 358.729 132.99L386.723 154.08C389.709 156.3 391.575 159.26 392.321 162.96C393.068 166.66 392.446 170.113 390.455 173.32L362.835 220.68C360.844 223.887 358.044 226.107 354.436 227.34C350.828 228.573 347.282 228.45 343.799 226.97L312.072 213.65C309.335 215.623 306.474 217.473 303.488 219.2C300.502 220.927 297.516 222.407 294.53 223.64L290.051 258.05C289.553 261.75 287.936 264.833 285.198 267.3C282.461 269.767 279.226 271 275.494 271H219.506ZM248.247 174.8C262.679 174.8 274.996 169.743 285.198 159.63C295.401 149.517 300.502 137.307 300.502 123C300.502 108.693 295.401 96.4833 285.198 86.37C274.996 76.2567 262.679 71.2 248.247 71.2C233.565 71.2 221.186 76.2567 211.108 86.37C201.03 96.4833 195.991 108.693 195.991 123C195.991 137.307 201.03 149.517 211.108 159.63C221.186 169.743 233.565 174.8 248.247 174.8Z" fill="url(#paint0_linear_3533_37631)"/>
<path fill-rule="evenodd" clip-rule="evenodd" d="M73.1091 51.9313C96.4609 36.3282 123.915 28 152 28C189.661 28 225.779 42.9607 252.409 69.5908C279.039 96.221 294 132.339 294 170C294 198.085 285.672 225.539 270.069 248.891C254.466 272.243 232.288 290.443 206.341 301.191C180.394 311.938 151.843 314.751 124.297 309.271C96.7519 303.792 71.4499 290.268 51.5909 270.409C31.7318 250.55 18.2077 225.248 12.7286 197.703C7.24945 170.158 10.0615 141.606 20.8092 115.659C31.5568 89.7118 49.7573 67.5345 73.1091 51.9313ZM84.3792 271.202C104.395 284.576 127.927 291.714 152 291.714C184.281 291.714 215.239 278.891 238.065 256.065C260.891 233.239 273.714 202.281 273.714 170C273.714 145.927 266.576 122.395 253.202 102.379C239.828 82.3634 220.818 66.7629 198.578 57.5507C176.338 48.3384 151.865 45.928 128.255 50.6244C104.645 55.3208 82.9571 66.9129 65.9351 83.935C48.913 100.957 37.3209 122.644 32.6245 146.255C27.9281 169.865 30.3385 194.338 39.5507 216.578C48.763 238.818 64.3634 257.828 84.3792 271.202ZM95.6493 85.6652C112.329 74.5201 131.939 68.5714 152 68.5714C178.901 68.5714 204.699 79.2576 223.721 98.2792C242.742 117.301 253.429 143.099 253.429 170C253.429 190.061 247.48 209.671 236.335 226.351C225.19 243.031 209.349 256.031 190.815 263.708C172.281 271.385 151.888 273.393 132.212 269.48C112.537 265.566 94.4642 255.906 80.2792 241.721C66.0942 227.536 56.434 209.463 52.5204 189.788C48.6067 170.112 50.6154 149.719 58.2923 131.185C65.9691 112.651 78.9695 96.8103 95.6493 85.6652ZM144.828 122.256C142.926 124.159 141.857 126.739 141.857 129.429V149.714C141.857 152.404 142.926 154.984 144.828 156.886C146.73 158.788 149.31 159.857 152 159.857C154.69 159.857 157.27 158.788 159.172 156.886C161.074 154.984 162.143 152.404 162.143 149.714V129.429C162.143 126.739 161.074 124.159 159.172 122.256C157.27 120.354 154.69 119.286 152 119.286C149.31 119.286 146.73 120.354 144.828 122.256ZM111.429 180.143H131.714C134.404 180.143 136.984 179.074 138.886 177.172C140.789 175.27 141.857 172.69 141.857 170C141.857 167.31 140.789 164.73 138.886 162.828C136.984 160.926 134.404 159.857 131.714 159.857H111.429C108.739 159.857 106.159 160.926 104.257 162.828C102.354 164.73 101.286 167.31 101.286 170C101.286 172.69 102.354 175.27 104.257 177.172C106.159 179.074 108.739 180.143 111.429 180.143ZM159.172 217.743C161.074 215.841 162.143 213.261 162.143 210.571V190.286C162.143 187.596 161.074 185.016 159.172 183.114C157.27 181.211 154.69 180.143 152 180.143C149.31 180.143 146.73 181.211 144.828 183.114C142.926 185.016 141.857 187.596 141.857 190.286V210.571C141.857 213.261 142.926 215.841 144.828 217.743C146.73 219.646 149.31 220.714 152 220.714C154.69 220.714 157.27 219.646 159.172 217.743ZM172.286 180.143H192.571C195.261 180.143 197.841 179.074 199.744 177.172C201.646 175.27 202.714 172.69 202.714 170C202.714 167.31 201.646 164.73 199.744 162.828C197.841 160.926 195.261 159.857 192.571 159.857H172.286C169.596 159.857 167.016 160.926 165.114 162.828C163.211 164.73 162.143 167.31 162.143 170C162.143 172.69 163.211 175.27 165.114 177.172C167.016 179.074 169.596 180.143 172.286 180.143Z" fill="url(#paint1_linear_3533_37631)"/>
</g>
<defs>
<linearGradient id="paint0_linear_3533_37631" x1="618.496" y1="-157.791" x2="181.33" y2="205.24" gradientUnits="userSpaceOnUse">
<stop stop-color="#4D5F5D"/>
<stop offset="1" stop-color="#262B28"/>
</linearGradient>
<linearGradient id="paint1_linear_3533_37631" x1="330.12" y1="-18.0644" x2="93.8719" y2="257.098" gradientUnits="userSpaceOnUse">
<stop stop-color="#4D5F5D"/>
<stop offset="1" stop-color="#2C2F2D"/>
</linearGradient>
<clipPath id="clip0_3533_37631">
<rect width="340" height="340" fill="white"/>
</clipPath>
</defs>
</svg>
