<svg width="340" height="340" viewBox="0 0 340 340" fill="none" xmlns="http://www.w3.org/2000/svg">
<g clip-path="url(#clip0_9298_259293)">
<path d="M159.889 279C152.494 279 146.164 276.4 140.899 271.199C135.633 265.999 133 259.747 133 252.444V66.5556C133 59.2528 135.633 53.0012 140.899 47.8007C146.164 42.6002 152.494 40 159.889 40H348.111C355.506 40 361.836 42.6002 367.101 47.8007C372.367 53.0012 375 59.2528 375 66.5556V252.444C375 259.747 372.367 265.999 367.101 271.199C361.836 276.4 355.506 279 348.111 279H159.889ZM254 66.5556V147.882C254 150.537 255.12 152.474 257.361 153.691C259.602 154.908 261.843 154.853 264.083 153.525L280.553 143.567C282.794 142.239 285.146 141.575 287.611 141.575C290.076 141.575 292.429 142.239 294.669 143.567L311.139 153.525C313.38 154.853 315.62 154.908 317.861 153.691C320.102 152.474 321.222 150.537 321.222 147.882V66.5556H254Z" fill="url(#paint0_linear_9298_259293)"/>
<path d="M371.559 320.23L265.264 212.995L271.203 205.256C291.519 178.809 302.231 147.073 302.231 113.61C302.231 29.9824 234.458 -38 151.143 -38C67.8286 -38 0 29.9824 0 113.61C0 197.238 67.7731 265.165 151.143 265.165C182.671 265.165 213.088 255.31 238.954 236.658L246.614 231.146L353.297 338.381C355.739 340.775 358.903 342 362.733 342C370.171 342 375 336.933 375 329.083C375 325.631 373.779 322.513 371.559 320.23ZM151.143 252.582C74.7114 252.582 12.5444 190.223 12.5444 113.61C12.5444 36.9978 74.7114 -25.4168 151.143 -25.4168C227.576 -25.4168 289.687 36.9421 289.687 113.61C289.687 190.278 227.52 252.582 151.143 252.582Z" fill="url(#paint1_linear_9298_259293)"/>
</g>
<defs>
<linearGradient id="paint0_linear_9298_259293" x1="562.526" y1="-67.2194" x2="207.775" y2="236.196" gradientUnits="userSpaceOnUse">
<stop stop-color="#4D5F5D"/>
<stop offset="1" stop-color="#262B28"/>
</linearGradient>
<linearGradient id="paint1_linear_9298_259293" x1="422.693" y1="-99.6354" x2="105.98" y2="264.392" gradientUnits="userSpaceOnUse">
<stop stop-color="#4D5F5D"/>
<stop offset="1" stop-color="#2C2F2D"/>
</linearGradient>
<clipPath id="clip0_9298_259293">
<rect width="340" height="340" fill="white"/>
</clipPath>
</defs>
</svg>
