<svg width="340" height="340" viewBox="0 0 340 340" fill="none" xmlns="http://www.w3.org/2000/svg">
<g clip-path="url(#clip0_4938_175922)">
<path d="M201.75 273C193.569 273 186.565 270.062 180.739 264.188C174.913 258.312 172 251.25 172 243V93C172 84.75 174.913 77.6875 180.739 71.8125C186.565 65.9375 193.569 63 201.75 63H216.625V33C216.625 12.25 223.877 -5.4375 238.38 -20.0625C252.883 -34.6875 270.423 -42 291 -42C311.577 -42 329.117 -34.6875 343.62 -20.0625C358.123 -5.4375 365.375 12.25 365.375 33V63H380.25C388.431 63 395.435 65.9375 401.261 71.8125C407.087 77.6875 410 84.75 410 93V243C410 251.25 407.087 258.312 401.261 264.188C395.435 270.062 388.431 273 380.25 273H201.75ZM246.375 63H335.625V33C335.625 20.5 331.286 9.875 322.609 1.125C313.932 -7.625 303.396 -12 291 -12C278.604 -12 268.068 -7.625 259.391 1.125C250.714 9.875 246.375 20.5 246.375 33V63Z" fill="url(#paint0_linear_4938_175922)"/>
<path d="M103.156 304.5C95.4133 304.5 88.7848 301.726 83.2709 296.177C77.757 290.628 75 283.958 75 276.167V134.5C75 126.708 77.757 120.038 83.2709 114.49C88.7848 108.941 95.4133 106.167 103.156 106.167H117.234V77.8333C117.234 58.2361 124.097 41.5312 137.824 27.7188C151.55 13.9062 168.15 7 187.625 7C207.1 7 223.7 13.9062 237.426 27.7188C251.153 41.5312 258.016 58.2361 258.016 77.8333V106.167H272.094C279.837 106.167 286.465 108.941 291.979 114.49C297.493 120.038 300.25 126.708 300.25 134.5V276.167C300.25 283.958 297.493 290.628 291.979 296.177C286.465 301.726 279.837 304.5 272.094 304.5H103.156ZM145.391 106.167H229.859V77.8333C229.859 66.0278 225.753 55.9931 217.541 47.7292C209.329 39.4653 199.357 35.3333 187.625 35.3333C175.893 35.3333 165.921 39.4653 157.709 47.7292C149.497 55.9931 145.391 66.0278 145.391 77.8333V106.167Z" fill="url(#paint1_linear_4938_175922)"/>
</g>
<defs>
<linearGradient id="paint0_linear_4938_175922" x1="442.915" y1="-68.8085" x2="163.588" y2="241.922" gradientUnits="userSpaceOnUse">
<stop stop-color="#2E2F2F"/>
<stop offset="1" stop-color="#262626"/>
</linearGradient>
<linearGradient id="paint1_linear_4938_175922" x1="328.898" y1="-41.2541" x2="80.5031" y2="177.795" gradientUnits="userSpaceOnUse">
<stop stop-color="#555555"/>
<stop offset="1" stop-color="#292A2A"/>
</linearGradient>
<clipPath id="clip0_4938_175922">
<rect width="340" height="340" fill="white"/>
</clipPath>
</defs>
</svg>
