<svg width="340" height="340" viewBox="0 0 340 340" fill="none" xmlns="http://www.w3.org/2000/svg">
<g clip-path="url(#clip0_12177_385553)">
<path fill-rule="evenodd" clip-rule="evenodd" d="M198.831 128.445C200.295 129.835 202.108 130.53 204.272 130.53C206.436 130.53 208.25 129.835 209.714 128.445C211.178 127.055 211.91 125.333 211.91 123.278V115.301C219.801 114.214 226.42 111.434 231.767 106.962C237.113 102.49 239.786 95.9637 239.786 87.3826C239.786 80.4935 237.526 74.4202 233.008 69.1628C228.489 63.9053 221.838 60.068 213.055 57.6507C203.636 55.1127 197.017 52.6954 193.198 50.3991C189.38 48.1027 187.47 44.9603 187.47 40.9719C187.47 37.4669 188.934 34.5361 191.862 32.1793C194.789 29.8225 199.054 28.6441 204.654 28.6441C207.964 28.6441 210.732 29.0973 212.96 30.0038C215.187 30.9102 217.128 32.2095 218.783 33.9015C220.438 35.5936 222.22 36.772 224.129 37.4367C226.039 38.1015 227.884 38.0712 229.666 37.3461C231.83 36.5 233.262 35.1101 233.962 33.1764C234.662 31.2426 234.44 29.4901 233.294 27.9189C231.003 24.6557 228.075 21.9061 224.511 19.6701C220.947 17.4342 216.747 15.9537 211.91 15.2285V7.25167C211.91 5.19703 211.178 3.47476 209.714 2.08485C208.25 0.694951 206.436 0 204.272 0C202.108 0 200.295 0.694951 198.831 2.08485C197.367 3.47476 196.635 5.19703 196.635 7.25167V15.2285C191.034 15.8328 185.561 18.3105 180.215 22.6615C174.869 27.0125 172.196 33.1159 172.196 40.9719C172.196 47.4984 174.232 53.0278 178.306 57.5601C182.379 62.0924 189.889 65.9902 200.836 69.2534C211.019 72.3958 217.51 75.2058 220.311 77.6835C223.111 80.1611 224.511 83.515 224.511 87.7452C224.511 92.4587 222.697 95.9335 219.07 98.1694C215.442 100.405 211.019 101.523 205.8 101.523C200.963 101.523 196.89 100.587 193.58 98.7133C190.271 96.84 187.534 94.0904 185.37 90.4645C184.352 88.6516 182.888 87.3524 180.979 86.5668C179.069 85.7812 177.224 85.751 175.442 86.4761C173.278 87.3221 171.782 88.6818 170.955 90.5552C170.127 92.4285 170.159 94.2112 171.05 95.9033C173.723 101.342 177.224 105.572 181.551 108.594C185.879 111.615 190.907 113.73 196.635 114.939V123.278C196.635 125.333 197.367 127.055 198.831 128.445ZM150.573 227.665C147.777 227.764 145.318 227.517 143.196 226.923L69.4286 205.564V98.47H87.9429C89.2929 98.47 90.6429 98.6183 91.9929 98.915C93.3429 99.2116 94.6929 99.5577 96.0429 99.9533L176.175 130.509C178.875 131.498 181.045 133.278 182.684 135.849C184.323 138.42 185.143 141.09 185.143 143.859C185.143 148.012 183.745 151.374 180.948 153.945C178.152 156.516 174.921 157.802 171.257 157.802H140.882C139.918 157.802 139.195 157.752 138.713 157.653C138.23 157.555 137.604 157.307 136.832 156.912L123.814 151.869C122.271 151.275 120.729 151.374 119.186 152.165C117.643 152.956 116.679 154.044 116.293 155.429C115.907 157.011 116.004 158.494 116.582 159.878C117.161 161.263 118.221 162.252 119.764 162.845L136.832 169.075C137.218 169.273 137.796 169.421 138.568 169.52C139.339 169.619 140.014 169.668 140.593 169.668H219.857C226.029 169.668 231.429 171.943 236.057 176.491C240.686 181.04 243 186.677 243 193.401L157.661 226.33C155.732 227.121 153.37 227.566 150.573 227.665ZM6.79822 222.029C2.26607 217.381 0 211.794 0 205.267V122.203C0 115.676 2.26607 110.089 6.79822 105.441C11.3304 100.794 16.7786 98.47 23.1429 98.47C29.5071 98.47 34.9554 100.794 39.4875 105.441C44.0196 110.089 46.2857 115.676 46.2857 122.203V205.267C46.2857 211.794 44.0196 217.381 39.4875 222.029C34.9554 226.676 29.5071 229 23.1429 229C16.7786 229 11.3304 226.676 6.79822 222.029Z" fill="url(#paint0_linear_12177_385553)"/>
<path d="M371.559 320.23L265.264 212.995L271.203 205.256C291.519 178.809 302.231 147.073 302.231 113.61C302.231 29.9824 234.458 -38 151.143 -38C67.8286 -38 0 29.9824 0 113.61C0 197.238 67.7731 265.165 151.143 265.165C182.671 265.165 213.088 255.31 238.954 236.658L246.614 231.146L353.297 338.381C355.739 340.775 358.903 342 362.733 342C370.171 342 375 336.933 375 329.083C375 325.631 373.779 322.513 371.559 320.23ZM151.143 252.582C74.7114 252.582 12.5444 190.223 12.5444 113.61C12.5444 36.9978 74.7114 -25.4168 151.143 -25.4168C227.576 -25.4168 289.687 36.9421 289.687 113.61C289.687 190.278 227.52 252.582 151.143 252.582Z" fill="url(#paint1_linear_12177_385553)"/>
</g>
<defs>
<linearGradient id="paint0_linear_12177_385553" x1="431.301" y1="-102.733" x2="89.2821" y2="203.827" gradientUnits="userSpaceOnUse">
<stop stop-color="#4D5F5D"/>
<stop offset="1" stop-color="#262B28"/>
</linearGradient>
<linearGradient id="paint1_linear_12177_385553" x1="422.693" y1="-99.6354" x2="105.98" y2="264.392" gradientUnits="userSpaceOnUse">
<stop stop-color="#4D5F5D"/>
<stop offset="1" stop-color="#2C2F2D"/>
</linearGradient>
<clipPath id="clip0_12177_385553">
<rect width="340" height="340" fill="white"/>
</clipPath>
</defs>
</svg>
