<svg width="340" height="340" viewBox="0 0 340 340" fill="none" xmlns="http://www.w3.org/2000/svg">
<g clip-path="url(#clip0_1894_39280)">
<circle cx="216" cy="151" r="139" fill="url(#paint0_linear_1894_39280)"/>
<path d="M114.533 198.77C112.19 198.77 111.017 201.603 112.674 203.259L147.523 238.108C149.179 239.765 152.012 238.592 152.012 236.249V218.931C152.012 217.479 153.189 216.301 154.641 216.301H184.444C185.896 216.301 187.073 215.124 187.073 213.672V201.4C187.073 199.948 185.896 198.77 184.444 198.77H114.533Z" fill="url(#paint1_linear_1894_39280)"/>
<path d="M152.012 161.079C152.012 162.531 150.834 163.709 149.382 163.709H119.58C118.127 163.709 116.95 164.886 116.95 166.338V178.61C116.95 180.062 118.127 181.239 119.58 181.239H189.49C191.833 181.239 193.006 178.407 191.35 176.75L156.501 141.901C154.844 140.245 152.012 141.418 152.012 143.761V161.079Z" fill="url(#paint2_linear_1894_39280)"/>
<path fill-rule="evenodd" clip-rule="evenodd" d="M294 190C294 268.424 230.424 332 152 332C73.5756 332 10 268.424 10 190C10 111.576 73.5756 48 152 48C230.424 48 294 111.576 294 190ZM278.222 190C278.222 259.711 221.711 316.222 152 316.222C82.2894 316.222 25.7778 259.711 25.7778 190C25.7778 120.289 82.2894 63.7778 152 63.7778C221.711 63.7778 278.222 120.289 278.222 190Z" fill="url(#paint3_linear_1894_39280)"/>
</g>
<defs>
<linearGradient id="paint0_linear_1894_39280" x1="570.422" y1="-112.715" x2="158.611" y2="235.136" gradientUnits="userSpaceOnUse">
<stop stop-color="#4D5F5D"/>
<stop offset="1" stop-color="#262B28"/>
</linearGradient>
<linearGradient id="paint1_linear_1894_39280" x1="330.12" y1="1.93563" x2="93.8719" y2="277.098" gradientUnits="userSpaceOnUse">
<stop stop-color="#4D5F5D"/>
<stop offset="1" stop-color="#2C2F2D"/>
</linearGradient>
<linearGradient id="paint2_linear_1894_39280" x1="330.12" y1="1.93563" x2="93.8719" y2="277.098" gradientUnits="userSpaceOnUse">
<stop stop-color="#4D5F5D"/>
<stop offset="1" stop-color="#2C2F2D"/>
</linearGradient>
<linearGradient id="paint3_linear_1894_39280" x1="330.12" y1="1.93563" x2="93.8719" y2="277.098" gradientUnits="userSpaceOnUse">
<stop stop-color="#4D5F5D"/>
<stop offset="1" stop-color="#2C2F2D"/>
</linearGradient>
<clipPath id="clip0_1894_39280">
<rect width="340" height="340" fill="white"/>
</clipPath>
</defs>
</svg>
