<svg width="340" height="340" viewBox="0 0 340 340" fill="none" xmlns="http://www.w3.org/2000/svg">
<g clip-path="url(#clip0_8885_313848)">
<path d="M108.668 68.43H97.7344V46.9845C97.7344 45.2937 97.0548 43.6722 95.8451 42.4767C94.6355 41.2811 92.9948 40.6095 91.2841 40.6095C89.5734 40.6095 87.9327 41.2811 86.7231 42.4767C85.5134 43.6722 84.8338 45.2937 84.8338 46.9845V68.43H73.9006C70.4823 68.4401 67.2069 69.7866 64.7898 72.1755C62.3727 74.5644 61.0102 77.8016 61 81.18V235.391C61 238.773 62.3592 242.016 64.7785 244.407C67.1978 246.798 70.4791 248.141 73.9006 248.141H84.8338V269.625C84.8338 271.316 85.5134 272.937 86.7231 274.133C87.9327 275.328 89.5734 276 91.2841 276C92.9948 276 94.6355 275.328 95.8451 274.133C97.0548 272.937 97.7344 271.316 97.7344 269.625V248.141H108.668C112.089 248.141 115.37 246.798 117.79 244.407C120.209 242.016 121.568 238.773 121.568 235.391V81.18C121.558 77.8016 120.196 74.5644 117.778 72.1755C115.361 69.7866 112.086 68.4401 108.668 68.43ZM193.102 -10.62H182.214V-32.0655C182.214 -33.7563 181.534 -35.3778 180.325 -36.5733C179.115 -37.7689 177.474 -38.4405 175.764 -38.4405C174.053 -38.4405 172.412 -37.7689 171.202 -36.5733C169.993 -35.3778 169.313 -33.7563 169.313 -32.0655V-10.62H158.399C154.981 -10.6099 151.706 -9.26337 149.289 -6.87447C146.871 -4.48556 145.509 -1.2484 145.499 2.13V156.341C145.499 159.723 146.858 162.966 149.277 165.357C151.697 167.748 154.978 169.091 158.399 169.091H169.313V190.575C169.313 192.266 169.993 193.887 171.202 195.083C172.412 196.278 174.053 196.95 175.764 196.95C177.474 196.95 179.115 196.278 180.325 195.083C181.534 193.887 182.214 192.266 182.214 190.575V169.091H193.102C194.798 169.097 196.478 168.771 198.046 168.133C199.614 167.494 201.038 166.555 202.237 165.37C203.436 164.185 204.386 162.777 205.033 161.227C205.679 159.678 206.008 158.017 206.002 156.341V2.13C206.002 -1.2515 204.643 -4.49452 202.224 -6.88561C199.805 -9.2767 196.523 -10.62 193.102 -10.62ZM277.601 33.8138H266.687V12.3491C266.687 10.6584 266.007 9.03687 264.798 7.84132C263.588 6.64578 261.947 5.97412 260.236 5.97412C258.526 5.97412 256.885 6.64578 255.675 7.84132C254.466 9.03687 253.786 10.6584 253.786 12.3491V33.8138H242.898C239.477 33.8138 236.195 35.1571 233.776 37.5481C231.357 39.9392 229.998 43.1822 229.998 46.5638V200.775C229.998 204.157 231.357 207.4 233.776 209.791C236.195 212.182 239.477 213.525 242.898 213.525H253.786V234.983C253.786 236.674 254.466 238.296 255.675 239.491C256.885 240.687 258.526 241.358 260.236 241.358C261.947 241.358 263.588 240.687 264.798 239.491C266.007 238.296 266.687 236.674 266.687 234.983V213.525H277.601C281.019 213.515 284.294 212.168 286.711 209.779C289.129 207.391 290.491 204.153 290.501 200.775V46.5638C290.491 43.1853 289.129 39.9482 286.711 37.5593C284.294 35.1704 281.019 33.8238 277.601 33.8138ZM362.099 -53.1413H351.166V-74.625C351.166 -76.3158 350.487 -77.9373 349.277 -79.1328C348.067 -80.3283 346.427 -81 344.716 -81C343.005 -81 341.365 -80.3283 340.155 -79.1328C338.945 -77.9373 338.266 -76.3158 338.266 -74.625V-53.1413H327.332C323.911 -53.1413 320.63 -51.7979 318.21 -49.4069C315.791 -47.0158 314.432 -43.7728 314.432 -40.3913V113.82C314.442 117.198 315.804 120.436 318.222 122.824C320.639 125.213 323.914 126.56 327.332 126.57H338.266V148.016C338.266 149.706 338.945 151.328 340.155 152.523C341.365 153.719 343.005 154.391 344.716 154.391C346.427 154.391 348.067 153.719 349.277 152.523C350.487 151.328 351.166 149.706 351.166 148.016V126.57H362.099C365.518 126.56 368.793 125.213 371.21 122.824C373.627 120.436 374.99 117.198 375 113.82V-40.3913C375 -43.7728 373.641 -47.0158 371.221 -49.4069C368.802 -51.7979 365.521 -53.1413 362.099 -53.1413Z" fill="url(#paint0_linear_8885_313848)"/>
<path d="M371.559 320.23L265.264 212.995L271.203 205.256C291.519 178.809 302.231 147.073 302.231 113.61C302.231 29.9824 234.458 -38 151.143 -38C67.8286 -38 0 29.9824 0 113.61C0 197.238 67.7731 265.165 151.143 265.165C182.671 265.165 213.088 255.31 238.954 236.658L246.614 231.146L353.297 338.381C355.739 340.775 358.903 342 362.733 342C370.171 342 375 336.933 375 329.083C375 325.631 373.779 322.513 371.559 320.23ZM151.143 252.582C74.7114 252.582 12.5444 190.223 12.5444 113.61C12.5444 36.9978 74.7114 -25.4168 151.143 -25.4168C227.576 -25.4168 289.687 36.9421 289.687 113.61C289.687 190.278 227.52 252.582 151.143 252.582Z" fill="url(#paint1_linear_8885_313848)"/>
</g>
<defs>
<linearGradient id="paint0_linear_8885_313848" x1="618.319" y1="-241.156" x2="104.769" y2="140.384" gradientUnits="userSpaceOnUse">
<stop stop-color="#4D5F5D"/>
<stop offset="1" stop-color="#262B28"/>
</linearGradient>
<linearGradient id="paint1_linear_8885_313848" x1="422.693" y1="-99.6354" x2="105.98" y2="264.392" gradientUnits="userSpaceOnUse">
<stop stop-color="#4D5F5D"/>
<stop offset="1" stop-color="#2C2F2D"/>
</linearGradient>
<clipPath id="clip0_8885_313848">
<rect width="340" height="340" fill="white"/>
</clipPath>
</defs>
</svg>
