<svg width="340" height="340" viewBox="0 0 340 340" fill="none" xmlns="http://www.w3.org/2000/svg">
<g clip-path="url(#clip0_8520_264632)">
<path fill-rule="evenodd" clip-rule="evenodd" d="M153.775 -57.4229C182.554 -76.7071 216.388 -87 251 -87C297.413 -87 341.925 -68.5099 374.744 -35.5973C407.563 -2.68462 426 41.9545 426 88.5C426 123.211 415.736 157.142 396.507 186.003C377.278 214.863 349.947 237.358 317.97 250.641C285.993 263.924 250.806 267.399 216.859 260.628C182.913 253.856 151.731 237.141 127.256 212.597C102.782 188.053 86.1151 156.782 79.3627 122.738C72.6102 88.6946 76.0758 53.4075 89.3212 21.339C102.566 -10.7294 124.997 -38.1387 153.775 -57.4229ZM167.665 213.577C192.332 230.106 221.333 238.929 251 238.929C290.783 238.929 328.936 223.08 357.066 194.869C385.197 166.658 401 128.396 401 88.5C401 58.748 392.203 29.6642 375.72 4.92635C359.238 -19.8115 335.811 -39.0923 308.403 -50.4779C280.994 -61.8635 250.834 -64.8425 221.737 -59.0381C192.639 -53.2338 165.912 -38.9069 144.934 -17.8691C123.956 3.16873 109.67 29.9725 103.882 59.1528C98.0945 88.3331 101.065 118.579 112.418 146.066C123.771 173.554 142.997 197.047 167.665 213.577ZM181.554 -15.7307C202.11 -29.5051 226.277 -36.8572 251 -36.8572C284.152 -36.8572 315.946 -23.6499 339.388 -0.1409C362.83 23.3681 376 55.2532 376 88.5C376 113.293 368.669 137.53 354.934 158.145C341.199 178.76 321.676 194.827 298.835 204.315C275.995 213.803 250.861 216.285 226.614 211.448C202.366 206.611 180.093 194.672 162.612 177.141C145.13 159.609 133.225 137.273 128.402 112.956C123.579 88.639 126.054 63.4339 135.515 40.5279C144.976 17.6218 160.998 -1.95625 181.554 -15.7307ZM242.161 29.493C239.817 31.8439 238.5 35.0324 238.5 38.3571V63.4285C238.5 66.7532 239.817 69.9417 242.161 72.2926C244.505 74.6435 247.685 75.9643 251 75.9643C254.315 75.9643 257.495 74.6435 259.839 72.2926C262.183 69.9417 263.5 66.7532 263.5 63.4285V38.3571C263.5 35.0324 262.183 31.8439 259.839 29.493C257.495 27.1421 254.315 25.8214 251 25.8214C247.685 25.8214 244.505 27.1421 242.161 29.493ZM201 101.036H226C229.315 101.036 232.495 99.715 234.839 97.3641C237.183 95.0132 238.5 91.8246 238.5 88.5C238.5 85.1753 237.183 81.9868 234.839 79.6359C232.495 77.285 229.315 75.9643 226 75.9643H201C197.685 75.9643 194.505 77.285 192.161 79.6359C189.817 81.9868 188.5 85.1753 188.5 88.5C188.5 91.8246 189.817 95.0132 192.161 97.3641C194.505 99.715 197.685 101.036 201 101.036ZM259.839 147.507C262.183 145.156 263.5 141.967 263.5 138.643V113.571C263.5 110.247 262.183 107.058 259.839 104.707C257.495 102.356 254.315 101.036 251 101.036C247.685 101.036 244.505 102.356 242.161 104.707C239.817 107.058 238.5 110.247 238.5 113.571V138.643C238.5 141.967 239.817 145.156 242.161 147.507C244.505 149.858 247.685 151.179 251 151.179C254.315 151.179 257.495 149.858 259.839 147.507ZM276 101.036H301C304.315 101.036 307.495 99.715 309.839 97.3641C312.183 95.0132 313.5 91.8246 313.5 88.5C313.5 85.1753 312.183 81.9868 309.839 79.6359C307.495 77.285 304.315 75.9643 301 75.9643H276C272.685 75.9643 269.505 77.285 267.161 79.6359C264.817 81.9868 263.5 85.1753 263.5 88.5C263.5 91.8246 264.817 95.0132 267.161 97.3641C269.505 99.715 272.685 101.036 276 101.036Z" fill="url(#paint0_linear_8520_264632)"/>
<path d="M106.143 90.879C94.3357 101.408 85.1696 113.744 78.6446 127.887C72.1196 142.029 68.8571 156.946 68.8571 172.637C68.8571 191.425 73.3625 209.026 82.3732 225.439C91.3839 241.853 103.968 255.014 120.125 264.925C123.025 266.783 125.045 269.312 126.184 272.512C127.323 275.712 127.064 278.861 125.407 281.957C123.75 285.054 121.368 287.171 118.261 288.306C115.154 289.442 112.15 289.184 109.25 287.532C88.95 275.351 73 259.092 61.4 238.756C49.8 218.419 44 196.38 44 172.637C44 153.849 47.7286 136.042 55.1857 119.216C62.6429 102.389 73.2071 87.5757 86.8786 74.7752H56.4286C52.9071 74.7752 49.9554 73.588 47.5732 71.2137C45.1911 68.8394 44 65.8974 44 62.3876C44 58.8778 45.1911 55.9357 47.5732 53.5614C49.9554 51.1871 52.9071 50 56.4286 50L118.571 50C122.093 50 125.045 51.1871 127.427 53.5614C129.809 55.9357 131 58.8778 131 62.3876V124.325C131 127.835 129.809 130.777 127.427 133.152C125.045 135.526 122.093 136.713 118.571 136.713C115.05 136.713 112.098 135.526 109.716 133.152C107.334 130.777 106.143 127.835 106.143 124.325V90.879Z" fill="url(#paint1_linear_8520_264632)"/>
</g>
<defs>
<linearGradient id="paint0_linear_8520_264632" x1="697.215" y1="-244.464" x2="177.517" y2="193.267" gradientUnits="userSpaceOnUse">
<stop stop-color="#4D5F5D"/>
<stop offset="1" stop-color="#262B28"/>
</linearGradient>
<linearGradient id="paint1_linear_8520_264632" x1="142.065" y1="11.2346" x2="-2.49796" y2="72.5259" gradientUnits="userSpaceOnUse">
<stop stop-color="#4D5F5D"/>
<stop offset="1" stop-color="#2C2F2D"/>
</linearGradient>
<clipPath id="clip0_8520_264632">
<rect width="340" height="340" fill="white"/>
</clipPath>
</defs>
</svg>
