<svg width="340" height="340" viewBox="0 0 340 340" fill="none" xmlns="http://www.w3.org/2000/svg">
<g clip-path="url(#clip0_4597_109838)">
<circle cx="216" cy="131" r="139" fill="url(#paint0_linear_4597_109838)"/>
<path d="M183.352 175.618L163.073 155.339V211.518C163.073 214.624 162.022 217.227 159.921 219.328C157.82 221.429 155.217 222.48 152.111 222.48C149.005 222.48 146.401 221.429 144.3 219.328C142.199 217.227 141.149 214.624 141.149 211.518V155.339L120.596 176.166C118.403 178.358 115.8 179.455 112.785 179.455C109.771 179.455 107.167 178.358 104.975 176.166C102.783 173.974 101.641 171.37 101.549 168.356C101.458 165.341 102.509 162.738 104.701 160.545L144.437 120.535C146.447 118.525 149.005 117.52 152.111 117.52C155.217 117.52 157.774 118.525 159.784 120.535L198.972 159.723C201.165 161.916 202.307 164.565 202.398 167.671C202.489 170.776 201.439 173.426 199.246 175.618C197.054 177.81 194.405 178.906 191.299 178.906C188.193 178.906 185.544 177.81 183.352 175.618Z" fill="url(#paint1_linear_4597_109838)"/>
<path fill-rule="evenodd" clip-rule="evenodd" d="M294 170C294 248.424 230.424 312 152 312C73.5756 312 10 248.424 10 170C10 91.5756 73.5756 28 152 28C230.424 28 294 91.5756 294 170ZM278.222 170C278.222 239.711 221.711 296.222 152 296.222C82.2894 296.222 25.7778 239.711 25.7778 170C25.7778 100.289 82.2894 43.7778 152 43.7778C221.711 43.7778 278.222 100.289 278.222 170Z" fill="url(#paint2_linear_4597_109838)"/>
</g>
<defs>
<linearGradient id="paint0_linear_4597_109838" x1="570.422" y1="-132.715" x2="158.611" y2="215.136" gradientUnits="userSpaceOnUse">
<stop stop-color="#4D5F5D"/>
<stop offset="1" stop-color="#262B28"/>
</linearGradient>
<linearGradient id="paint1_linear_4597_109838" x1="330.12" y1="-18.0644" x2="93.8719" y2="257.098" gradientUnits="userSpaceOnUse">
<stop stop-color="#4D5F5D"/>
<stop offset="1" stop-color="#2C2F2D"/>
</linearGradient>
<linearGradient id="paint2_linear_4597_109838" x1="330.12" y1="-18.0644" x2="93.8719" y2="257.098" gradientUnits="userSpaceOnUse">
<stop stop-color="#4D5F5D"/>
<stop offset="1" stop-color="#2C2F2D"/>
</linearGradient>
<clipPath id="clip0_4597_109838">
<rect width="340" height="340" fill="white"/>
</clipPath>
</defs>
</svg>
