<svg width="340" height="340" viewBox="0 0 340 340" fill="none" xmlns="http://www.w3.org/2000/svg">
<g clip-path="url(#clip0_4352_44302)">
<path d="M58.5875 273C55.3044 273 52.5523 271.898 50.3314 269.694C48.1105 267.49 47 264.758 47 261.5V100.5C47 97.2417 48.1105 94.5104 50.3314 92.3063C52.5523 90.1021 55.3044 89 58.5875 89H112.662C115.946 89 118.698 90.1021 120.919 92.3063C123.14 94.5104 124.25 97.2417 124.25 100.5V261.5C124.25 264.758 123.14 267.49 120.919 269.694C118.698 271.898 115.946 273 112.662 273H58.5875ZM174.462 273C171.179 273 168.427 271.898 166.206 269.694C163.985 267.49 162.875 264.758 162.875 261.5V8.5C162.875 5.24167 163.985 2.51042 166.206 0.30625C168.427 -1.89792 171.179 -3 174.462 -3H228.537C231.821 -3 234.573 -1.89792 236.794 0.30625C239.015 2.51042 240.125 5.24167 240.125 8.5V261.5C240.125 264.758 239.015 267.49 236.794 269.694C234.573 271.898 231.821 273 228.537 273H174.462ZM290.337 273C287.054 273 284.302 271.898 282.081 269.694C279.86 267.49 278.75 264.758 278.75 261.5V131.167C278.75 127.908 279.86 125.177 282.081 122.973C284.302 120.769 287.054 119.667 290.337 119.667H344.413C347.696 119.667 350.448 120.769 352.669 122.973C354.89 125.177 356 127.908 356 131.167V261.5C356 264.758 354.89 267.49 352.669 269.694C350.448 271.898 347.696 273 344.413 273H290.337Z" fill="url(#paint0_linear_4352_44302)"/>
<path d="M43.7625 305C40.7131 305 38.157 303.978 36.0942 301.933C34.0314 299.889 33 297.356 33 294.333V145C33 141.978 34.0314 139.444 36.0942 137.4C38.157 135.356 40.7131 134.333 43.7625 134.333H93.9875C97.0369 134.333 99.593 135.356 101.656 137.4C103.719 139.444 104.75 141.978 104.75 145V294.333C104.75 297.356 103.719 299.889 101.656 301.933C99.593 303.978 97.0369 305 93.9875 305H43.7625ZM151.387 305C148.338 305 145.782 303.978 143.719 301.933C141.656 299.889 140.625 297.356 140.625 294.333V59.6667C140.625 56.6444 141.656 54.1111 143.719 52.0667C145.782 50.0222 148.338 49 151.387 49H201.612C204.662 49 207.218 50.0222 209.281 52.0667C211.344 54.1111 212.375 56.6444 212.375 59.6667V294.333C212.375 297.356 211.344 299.889 209.281 301.933C207.218 303.978 204.662 305 201.612 305H151.387ZM259.012 305C255.963 305 253.407 303.978 251.344 301.933C249.281 299.889 248.25 297.356 248.25 294.333V173.444C248.25 170.422 249.281 167.889 251.344 165.844C253.407 163.8 255.963 162.778 259.012 162.778H309.237C312.287 162.778 314.843 163.8 316.906 165.844C318.969 167.889 320 170.422 320 173.444V294.333C320 297.356 318.969 299.889 316.906 301.933C314.843 303.978 312.287 305 309.237 305H259.012Z" fill="url(#paint1_linear_4352_44302)"/>
</g>
<defs>
<linearGradient id="paint0_linear_4352_44302" x1="398.734" y1="-26.4893" x2="180.436" y2="333.346" gradientUnits="userSpaceOnUse">
<stop stop-color="#2E2F2F"/>
<stop offset="1" stop-color="#262626"/>
</linearGradient>
<linearGradient id="paint1_linear_4352_44302" x1="356.501" y1="7.47719" x2="148.511" y2="279.062" gradientUnits="userSpaceOnUse">
<stop stop-color="#555555"/>
<stop offset="1" stop-color="#292A2A"/>
</linearGradient>
<clipPath id="clip0_4352_44302">
<rect width="340" height="340" fill="white"/>
</clipPath>
</defs>
</svg>
