<svg width="340" height="340" viewBox="0 0 340 340" fill="none" xmlns="http://www.w3.org/2000/svg">
<g clip-path="url(#clip0_6712_211175)">
<path fill-rule="evenodd" clip-rule="evenodd" d="M114.987 138C112.244 138 109.945 137.127 108.09 135.381C106.235 133.634 105.307 131.47 105.307 128.889V118.411C98.0468 116.893 91.6741 114.235 86.1886 110.439C80.7032 106.643 76.2664 101.328 72.8784 94.4944C71.749 92.3685 71.7087 90.1287 72.7574 87.775C73.8061 85.4213 75.7018 83.713 78.4445 82.65C80.7032 81.7389 83.0426 81.7769 85.4626 82.7639C87.8827 83.7509 89.738 85.3833 91.0287 87.6611C93.7714 92.2167 97.2401 95.6713 101.435 98.025C105.63 100.379 110.792 101.556 116.923 101.556C123.538 101.556 129.144 100.151 133.743 97.3417C138.341 94.5324 140.64 90.1667 140.64 84.2444C140.64 78.9296 138.865 74.7157 135.316 71.6028C131.766 68.4898 123.538 64.9593 110.631 61.0111C96.7562 56.9111 87.2373 52.0139 82.0746 46.3194C76.9118 40.625 74.3304 33.6778 74.3304 25.4778C74.3304 15.6074 77.7185 7.93889 84.4946 2.47222C91.2707 -2.99445 98.2082 -6.10741 105.307 -6.86667V-16.8889C105.307 -19.4704 106.235 -21.6343 108.09 -23.3806C109.945 -25.1269 112.244 -26 114.987 -26C117.73 -26 120.029 -25.1269 121.884 -23.3806C123.74 -21.6343 124.667 -19.4704 124.667 -16.8889V-6.86667C130.798 -5.95556 136.122 -4.09537 140.64 -1.28611C145.157 1.52315 148.868 4.97778 151.772 9.07778C153.224 11.0519 153.506 13.2537 152.619 15.6833C151.732 18.113 149.916 19.8593 147.174 20.9222C144.915 21.8333 142.576 21.8713 140.156 21.0361C137.736 20.2009 135.477 18.7204 133.38 16.5944C131.282 14.4685 128.822 12.8361 125.998 11.6972C123.175 10.5583 119.666 9.98889 115.471 9.98889C108.372 9.98889 102.968 11.4694 99.2569 14.4306C95.5461 17.3917 93.6908 21.0741 93.6908 25.4778C93.6908 30.4889 96.1108 34.437 100.951 37.3222C105.791 40.2074 114.181 43.2444 126.119 46.4333C137.252 49.4704 145.681 54.2917 151.409 60.8972C157.136 67.5028 160 75.1333 160 83.7889C160 94.5704 156.612 102.77 149.836 108.389C143.06 114.007 134.67 117.5 124.667 118.867V128.889C124.667 131.47 123.74 133.634 121.884 135.381C120.029 137.127 117.73 138 114.987 138ZM187.821 264.598C185.36 265.284 182.506 265.57 179.261 265.456C176.015 265.341 173.274 264.827 171.036 263.911L72 225.818C72 218.039 74.6857 211.519 80.0572 206.257C85.4286 200.995 91.6952 198.364 98.8571 198.364H190.843C191.514 198.364 192.298 198.306 193.193 198.192C194.088 198.078 194.76 197.906 195.207 197.677L215.014 190.47C216.805 189.784 218.036 188.64 218.707 187.039C219.379 185.437 219.49 183.721 219.043 181.891C218.595 180.289 217.476 179.031 215.686 178.116C213.895 177.201 212.105 177.086 210.314 177.773L195.207 183.607C194.312 184.064 193.585 184.35 193.025 184.465C192.465 184.579 191.626 184.636 190.507 184.636H155.257C151.005 184.636 147.256 183.149 144.011 180.175C140.765 177.201 139.143 173.311 139.143 168.507C139.143 165.304 140.094 162.215 141.996 159.241C143.899 156.267 146.417 154.208 149.55 153.064L242.543 117.716C244.11 117.258 245.676 116.858 247.243 116.515C248.81 116.172 250.376 116 251.943 116H273.429V239.889L187.821 264.598ZM354 239.545C354 247.095 351.37 253.559 346.111 258.935C340.851 264.312 334.529 267 327.143 267C319.757 267 313.435 264.312 308.175 258.935C302.915 253.559 300.286 247.095 300.286 239.545V143.455C300.286 135.905 302.915 129.441 308.175 124.065C313.435 118.688 319.757 116 327.143 116C334.529 116 340.851 118.688 346.111 124.065C351.37 129.441 354 135.905 354 143.455V239.545Z" fill="url(#paint0_linear_6712_211175)"/>
<path d="M63.9759 234.587C72.0723 226.935 81.8554 223.024 93.494 223.024H127.229C132.289 223.024 136.337 218.943 136.337 214.012C136.337 205.509 138.699 198.027 143.422 191.055C148.145 184.083 154.048 179.322 161.639 176.601L260.651 139.7C261.831 139.19 263.349 138.85 265.036 138.51C266.217 138.17 267.566 138 268.916 138H363.373C370.289 138 376.024 140.551 380.747 145.312C385.639 150.243 388 156.025 388 162.997V282.031C388 288.833 385.639 294.614 380.747 299.546C376.024 304.477 370.289 306.858 363.373 306.858H329.639C324.41 306.858 319.518 305.157 314.289 301.586C309.398 298.185 306.193 293.934 304.675 288.663C303.494 284.752 299.783 282.201 295.904 282.201C295.06 282.201 294.386 282.201 293.542 282.541L185.084 313.15C182.892 313.66 180.361 314 177.831 314C175.47 314 173.446 313.66 171.253 312.81L65.494 279.65C60.4337 277.95 56.5542 275.739 54.5301 273.358C52.8434 271.658 52 268.767 52 265.026C52 252.102 55.8795 242.24 63.9759 234.587ZM320.53 282.031C320.53 286.962 324.747 291.043 329.639 291.043H363.373C368.434 291.043 372.482 286.962 372.482 282.031V162.997C372.482 157.896 368.434 153.814 363.373 153.814H329.639C324.747 153.814 320.53 157.896 320.53 162.997V282.031ZM69.8795 260.775C70.8916 263.326 73.0843 265.196 75.6144 266.046L175.976 297.505C175.976 297.505 177.831 297.845 178.675 297.845C179.518 297.845 180.361 297.845 181.036 297.675L298.265 265.366C302.313 264.176 305.012 260.605 305.012 256.524V162.997C305.012 157.896 300.964 153.814 295.904 153.814H268.916C267.904 153.814 266.892 153.985 265.88 154.325L167.205 190.885C162.819 192.245 159.108 195.476 156.072 200.068C153.373 204.319 151.855 209.08 151.855 214.012C151.855 218.943 156.072 223.024 160.964 223.024H165.687C176.651 222.854 185.084 222.174 191.494 221.324C198.072 220.473 203.976 219.113 209.036 217.583L227.084 211.631C227.084 211.631 228.771 211.121 229.614 211.121C230.626 211.121 231.807 211.461 232.988 212.141C234.843 213.161 236.024 214.522 236.699 216.732C237.373 219.113 237.205 220.984 236.193 223.194C235.349 225.235 234.169 226.255 232.145 226.935L207.855 235.098C203.639 236.458 199.59 237.478 195.711 237.988C191.663 238.499 185.928 238.839 178.675 238.839H93.494C88.2651 238.839 83.5422 240.199 79.3253 243.09C75.4458 245.811 72.5783 249.042 70.3856 252.783C69.0361 255.333 68.8675 258.224 69.8795 260.775Z" fill="url(#paint1_linear_6712_211175)"/>
</g>
<defs>
<linearGradient id="paint0_linear_6712_211175" x1="-146.522" y1="-157.445" x2="284.435" y2="192.913" gradientUnits="userSpaceOnUse">
<stop stop-color="#4D5F5D"/>
<stop offset="1" stop-color="#262B28"/>
</linearGradient>
<linearGradient id="paint1_linear_6712_211175" x1="9.26706" y1="109.453" x2="120.076" y2="355.843" gradientUnits="userSpaceOnUse">
<stop stop-color="#4D5F5D"/>
<stop offset="1" stop-color="#2C2F2D"/>
</linearGradient>
<clipPath id="clip0_6712_211175">
<rect width="340" height="340" fill="white"/>
</clipPath>
</defs>
</svg>
