<svg width="340" height="340" viewBox="0 0 340 340" fill="none" xmlns="http://www.w3.org/2000/svg">
<g clip-path="url(#clip0_12635_292287)">
<path fill-rule="evenodd" clip-rule="evenodd" d="M135.776 15.4257C158.634 0.152207 185.508 -8 213 -8C249.865 -8 285.22 6.6446 311.288 32.7121C337.355 58.7797 352 94.1349 352 131C352 158.492 343.848 185.366 328.574 208.224C313.301 231.083 291.592 248.899 266.193 259.419C240.794 269.94 212.846 272.692 185.882 267.329C158.919 261.966 134.152 248.727 114.712 229.288C95.2727 209.848 82.0343 185.081 76.6709 158.118C71.3076 131.154 74.0602 103.206 84.5808 77.807C95.1014 52.4081 112.917 30.6992 135.776 15.4257ZM205.979 84.2651C204.117 86.1271 203.071 88.6525 203.071 91.2857V111.143C203.071 113.776 204.117 116.301 205.979 118.163C207.841 120.025 210.367 121.071 213 121.071C215.633 121.071 218.159 120.025 220.021 118.163C221.883 116.301 222.929 113.776 222.929 111.143V91.2857C222.929 88.6525 221.883 86.1271 220.021 84.2651C218.159 82.4032 215.633 81.3571 213 81.3571C210.367 81.3571 207.841 82.4032 205.979 84.2651ZM173.286 140.929H193.143C195.776 140.929 198.301 139.883 200.163 138.021C202.025 136.159 203.071 133.633 203.071 131C203.071 128.367 202.025 125.841 200.163 123.979C198.301 122.117 195.776 121.071 193.143 121.071H173.286C170.653 121.071 168.127 122.117 166.265 123.979C164.403 125.841 163.357 128.367 163.357 131C163.357 133.633 164.403 136.159 166.265 138.021C168.127 139.883 170.653 140.929 173.286 140.929ZM220.021 177.735C221.883 175.873 222.929 173.347 222.929 170.714V150.857C222.929 148.224 221.883 145.699 220.021 143.837C218.159 141.975 215.633 140.929 213 140.929C210.367 140.929 207.841 141.975 205.979 143.837C204.117 145.699 203.071 148.224 203.071 150.857V170.714C203.071 173.347 204.117 175.873 205.979 177.735C207.841 179.597 210.367 180.643 213 180.643C215.633 180.643 218.159 179.597 220.021 177.735ZM232.857 140.929H252.714C255.348 140.929 257.873 139.883 259.735 138.021C261.597 136.159 262.643 133.633 262.643 131C262.643 128.367 261.597 125.841 259.735 123.979C257.873 122.117 255.348 121.071 252.714 121.071H232.857C230.224 121.071 227.699 122.117 225.837 123.979C223.975 125.841 222.929 128.367 222.929 131C222.929 133.633 223.975 136.159 225.837 138.021C227.699 139.883 230.224 140.929 232.857 140.929Z" fill="url(#paint0_linear_12635_292287)"/>
<path d="M120.444 159.944C114.635 159.944 109.926 164.67 109.926 170.5C109.926 176.33 114.635 181.056 120.444 181.056H183.556C189.365 181.056 194.074 176.33 194.074 170.5C194.074 164.67 189.365 159.944 183.556 159.944H120.444Z" fill="url(#paint1_linear_12635_292287)"/>
<path fill-rule="evenodd" clip-rule="evenodd" d="M294 170.5C294 249.201 230.424 313 152 313C73.5756 313 10 249.201 10 170.5C10 91.7994 73.5756 28 152 28C230.424 28 294 91.7994 294 170.5ZM278.222 170.5C278.222 240.456 221.711 297.167 152 297.167C82.2894 297.167 25.7778 240.456 25.7778 170.5C25.7778 100.544 82.2894 43.8333 152 43.8333C221.711 43.8333 278.222 100.544 278.222 170.5Z" fill="url(#paint2_linear_12635_292287)"/>
</g>
<defs>
<linearGradient id="paint0_linear_12635_292287" x1="567.422" y1="-132.715" x2="155.611" y2="215.136" gradientUnits="userSpaceOnUse">
<stop stop-color="#4D5F5D"/>
<stop offset="1" stop-color="#262B28"/>
</linearGradient>
<linearGradient id="paint1_linear_12635_292287" x1="330.12" y1="-18.2266" x2="92.9153" y2="257.08" gradientUnits="userSpaceOnUse">
<stop stop-color="#4D5F5D"/>
<stop offset="1" stop-color="#2C2F2D"/>
</linearGradient>
<linearGradient id="paint2_linear_12635_292287" x1="330.12" y1="-18.2266" x2="92.9153" y2="257.08" gradientUnits="userSpaceOnUse">
<stop stop-color="#4D5F5D"/>
<stop offset="1" stop-color="#2C2F2D"/>
</linearGradient>
<clipPath id="clip0_12635_292287">
<rect width="340" height="340" fill="white"/>
</clipPath>
</defs>
</svg>
