<svg width="340" height="340" viewBox="0 0 340 340" fill="none" xmlns="http://www.w3.org/2000/svg">
<g clip-path="url(#clip0_8533_297214)">
<path d="M112.007 82.22H100.308V59.513C100.308 57.7228 99.5809 56.0059 98.2865 54.74C96.9921 53.4742 95.2365 52.763 93.4059 52.763C91.5753 52.763 89.8197 53.4742 88.5253 54.74C87.2309 56.0059 86.5037 57.7228 86.5037 59.513V82.22H74.8044C71.1466 82.2307 67.6418 83.6564 65.0553 86.1859C62.4688 88.7153 61.0109 92.1429 61 95.72V259.003C61 262.583 62.4544 266.017 65.0432 268.548C67.6321 271.08 71.1433 272.503 74.8044 272.503H86.5037V295.25C86.5037 297.04 87.2309 298.757 88.5253 300.023C89.8197 301.289 91.5753 302 93.4059 302C95.2365 302 96.9921 301.289 98.2865 300.023C99.5809 298.757 100.308 297.04 100.308 295.25V272.503H112.007C115.669 272.503 119.18 271.08 121.769 268.548C124.357 266.017 125.812 262.583 125.812 259.003V95.72C125.801 92.1429 124.343 88.7153 121.757 86.1859C119.17 83.6564 115.665 82.2307 112.007 82.22ZM202.357 -1.48H190.706V-24.187C190.706 -25.9772 189.979 -27.6941 188.685 -28.96C187.39 -30.2258 185.635 -30.937 183.804 -30.937C181.974 -30.937 180.218 -30.2258 178.924 -28.96C177.629 -27.6941 176.902 -25.9772 176.902 -24.187V-1.48H165.224C161.566 -1.46931 158.061 -0.0435715 155.474 2.48586C152.888 5.01529 151.43 8.44287 151.419 12.02V175.302C151.419 178.883 152.873 182.317 155.462 184.848C158.051 187.38 161.562 188.802 165.224 188.802H176.902V211.55C176.902 213.34 177.629 215.057 178.924 216.323C180.218 217.589 181.974 218.3 183.804 218.3C185.635 218.3 187.39 217.589 188.685 216.323C189.979 215.057 190.706 213.34 190.706 211.55V188.802H202.357C204.172 188.809 205.97 188.464 207.648 187.788C209.325 187.111 210.85 186.117 212.133 184.862C213.416 183.608 214.433 182.117 215.124 180.476C215.816 178.835 216.168 177.077 216.162 175.302V12.02C216.162 8.43958 214.707 5.0058 212.119 2.47406C209.53 -0.0576782 206.019 -1.48 202.357 -1.48ZM292.777 45.5675H281.098V22.8402C281.098 21.05 280.371 19.3332 279.076 18.0673C277.782 16.8014 276.026 16.0902 274.196 16.0902C272.365 16.0902 270.61 16.8014 269.315 18.0673C268.021 19.3332 267.294 21.05 267.294 22.8402V45.5675H255.643C251.981 45.5675 248.47 46.9898 245.881 49.5216C243.293 52.0533 241.838 55.4871 241.838 59.0675V222.35C241.838 225.93 243.293 229.364 245.881 231.896C248.47 234.428 251.981 235.85 255.643 235.85H267.294V258.571C267.294 260.361 268.021 262.078 269.315 263.343C270.61 264.609 272.365 265.321 274.196 265.321C276.026 265.321 277.782 264.609 279.076 263.343C280.371 262.078 281.098 260.361 281.098 258.571V235.85H292.777C296.434 235.839 299.939 234.414 302.526 231.884C305.112 229.355 306.57 225.927 306.581 222.35V59.0675C306.57 55.4904 305.112 52.0628 302.526 49.5334C299.939 47.0039 296.434 45.5782 292.777 45.5675ZM383.196 -46.5025H371.496V-69.25C371.496 -71.0402 370.769 -72.7571 369.475 -74.023C368.18 -75.2888 366.425 -76 364.594 -76C362.763 -76 361.008 -75.2888 359.713 -74.023C358.419 -72.7571 357.692 -71.0402 357.692 -69.25V-46.5025H345.993C342.331 -46.5025 338.82 -45.0802 336.231 -42.5484C333.643 -40.0167 332.188 -36.5829 332.188 -33.0025V130.28C332.199 133.857 333.657 137.285 336.243 139.814C338.83 142.344 342.335 143.769 345.993 143.78H357.692V166.487C357.692 168.277 358.419 169.994 359.713 171.26C361.008 172.526 362.763 173.237 364.594 173.237C366.425 173.237 368.18 172.526 369.475 171.26C370.769 169.994 371.496 168.277 371.496 166.487V143.78H383.196C386.853 143.769 390.358 142.344 392.945 139.814C395.531 137.285 396.989 133.857 397 130.28V-33.0025C397 -36.5829 395.546 -40.0167 392.957 -42.5484C390.368 -45.0802 386.857 -46.5025 383.196 -46.5025Z" fill="url(#paint0_linear_8533_297214)"/>
<path fill-rule="evenodd" clip-rule="evenodd" d="M43.7267 101.837C42.2985 101.844 40.9722 102.402 40.0254 103.326C39.0864 104.243 38.5958 105.439 38.5893 106.641V280.273C38.5893 281.472 39.0754 282.667 40.0126 283.581C40.957 284.503 42.2825 285.058 43.7083 285.058H83.3472C84.7729 285.058 86.0985 284.503 87.0429 283.581C87.98 282.667 88.4662 281.472 88.4662 280.273V106.642C88.4598 105.439 87.9691 104.243 87.03 103.326C86.0832 102.402 84.7569 101.844 83.3288 101.837H43.7267ZM83.3472 92.2657C87.2445 92.2771 90.9788 93.7933 93.7346 96.4834C96.4905 99.1734 98.0438 102.819 98.0555 106.623V280.273C98.0555 284.08 96.5059 287.732 93.7475 290.425C90.9892 293.117 87.2481 294.63 83.3472 294.63H70.8819V318.821C70.8819 320.725 70.1071 322.551 68.7279 323.897C67.3487 325.244 65.4782 326 63.5277 326C61.5773 326 59.7067 325.244 58.3276 323.897C56.9484 322.551 56.1736 320.725 56.1736 318.821V294.63H43.7083C39.8074 294.63 36.0663 293.117 33.308 290.425C30.5496 287.732 29 284.08 29 280.273V106.623C29.0116 102.819 30.565 99.1734 33.3208 96.4834C36.0766 93.7933 39.811 92.2771 43.7083 92.2657H56.1736V68.117C56.1736 66.2131 56.9484 64.3872 58.3276 63.041C59.7067 61.6947 61.5773 60.9384 63.5277 60.9384C65.4782 60.9384 67.3487 61.6947 68.7279 63.041C70.1071 64.3872 70.8819 66.2131 70.8819 68.117V92.2657H83.3472ZM140.065 12.8229C138.637 12.8298 137.311 13.3882 136.365 14.3121C135.425 15.2291 134.935 16.4255 134.929 17.6288V191.258C134.929 192.458 135.415 193.652 136.352 194.567C137.296 195.489 138.622 196.044 140.048 196.044H179.646C180.344 196.046 181.031 195.914 181.665 195.659C182.299 195.404 182.861 195.034 183.324 194.582C183.787 194.13 184.142 193.605 184.379 193.043C184.616 192.481 184.734 191.887 184.732 191.293L184.732 191.258L184.732 17.6086C184.732 16.409 184.246 15.2143 183.309 14.2996C182.364 13.3777 181.039 12.8229 179.613 12.8229H140.065ZM125.339 17.6086C125.351 13.8043 126.904 10.1591 129.66 7.46909C132.416 4.77906 136.15 3.26279 140.048 3.25143H152.491V-20.8973C152.491 -22.8012 153.266 -24.6271 154.645 -25.9733C156.024 -27.3195 157.895 -28.0759 159.845 -28.0759C161.795 -28.0759 163.666 -27.3195 165.045 -25.9733C166.424 -24.6271 167.199 -22.8012 167.199 -20.8973V3.25143H179.613C183.514 3.25143 187.255 4.76405 190.013 7.45654C192.772 10.149 194.321 13.8008 194.321 17.6086V191.258C194.328 193.145 193.952 195.015 193.216 196.76C192.479 198.505 191.396 200.091 190.028 201.425C188.661 202.76 187.037 203.817 185.25 204.536C183.462 205.255 181.546 205.622 179.613 205.615H167.199V229.807C167.199 231.711 166.424 233.537 165.045 234.883C163.666 236.229 161.795 236.986 159.845 236.986C157.895 236.986 156.024 236.229 154.645 234.883C153.266 233.537 152.491 231.711 152.491 229.807V205.615H140.048C136.147 205.615 132.406 204.103 129.647 201.41C126.889 198.718 125.339 195.066 125.339 191.258V17.6086ZM236.387 62.8575C234.961 62.8575 233.636 63.4124 232.691 64.3343C231.754 65.249 231.268 66.4437 231.268 67.6432V241.293C231.268 242.492 231.754 243.687 232.691 244.602C233.636 245.524 234.961 246.079 236.387 246.079H275.936C277.364 246.071 278.689 245.513 279.635 244.589C280.574 243.673 281.065 242.477 281.071 241.275V67.6612C281.065 66.4586 280.574 65.2632 279.635 64.3468C278.688 63.4226 277.362 62.8641 275.934 62.8575H236.387ZM275.952 53.2861C279.85 53.2974 283.584 54.8137 286.34 57.5037C289.096 60.1938 290.649 63.839 290.661 67.6432V241.293C290.649 245.097 289.096 248.742 286.34 251.432C283.584 254.122 279.85 255.639 275.952 255.65H263.509V279.813C263.509 281.717 262.734 283.543 261.355 284.889C259.976 286.235 258.105 286.992 256.155 286.992C254.205 286.992 252.334 286.235 250.955 284.889C249.576 283.543 248.801 281.717 248.801 279.813V255.65H236.387C232.486 255.65 228.745 254.137 225.987 251.445C223.228 248.752 221.679 245.101 221.679 241.293V67.6432C221.679 63.8355 223.228 60.1837 225.987 57.4912C228.745 54.7987 232.486 53.2861 236.387 53.2861H248.801V29.1158C248.801 27.2119 249.576 25.3861 250.955 24.0398C252.334 22.6936 254.205 21.9372 256.155 21.9372C258.105 21.9372 259.976 22.6936 261.355 24.0398C262.734 25.3861 263.509 27.2119 263.509 29.1158V53.2861H275.952ZM332.653 -35.0582C331.227 -35.0582 329.902 -34.5033 328.957 -33.5815C328.02 -32.6667 327.534 -31.472 327.534 -30.2725V143.359C327.541 144.562 328.031 145.757 328.97 146.674C329.916 147.597 331.242 148.156 332.669 148.163H372.276C373.703 148.156 375.028 147.597 375.975 146.674C376.913 145.757 377.404 144.562 377.411 143.359V-30.2725C377.411 -31.472 376.925 -32.6667 375.987 -33.5815C375.043 -34.5033 373.717 -35.0582 372.292 -35.0582H332.653ZM387 143.377C386.988 147.181 385.435 150.827 382.679 153.517C379.923 156.207 376.189 157.723 372.292 157.734H359.826V181.883C359.826 183.787 359.052 185.613 357.672 186.959C356.293 188.305 354.423 189.062 352.472 189.062C350.522 189.062 348.651 188.305 347.272 186.959C345.893 185.613 345.118 183.787 345.118 181.883V157.734H332.653C328.756 157.723 325.021 156.207 322.265 153.517C319.51 150.827 317.956 147.181 317.945 143.377V-30.2725C317.945 -34.0803 319.494 -37.732 322.253 -40.4245C325.011 -43.117 328.752 -44.6296 332.653 -44.6296H345.118V-68.8214C345.118 -70.7253 345.893 -72.5512 347.272 -73.8974C348.651 -75.2437 350.522 -76 352.472 -76C354.423 -76 356.293 -75.2437 357.672 -73.8974C359.052 -72.5512 359.826 -70.7253 359.826 -68.8214V-44.6296H372.292C376.193 -44.6296 379.934 -43.117 382.692 -40.4245C385.45 -37.732 387 -34.0803 387 -30.2725V143.377Z" fill="url(#paint1_linear_8533_297214)"/>
</g>
<defs>
<linearGradient id="paint0_linear_8533_297214" x1="657.367" y1="-245.577" x2="111.975" y2="163.92" gradientUnits="userSpaceOnUse">
<stop stop-color="#4D5F5D"/>
<stop offset="1" stop-color="#262B28"/>
</linearGradient>
<linearGradient id="paint1_linear_8533_297214" x1="432.531" y1="-141.204" x2="94.455" y2="209.461" gradientUnits="userSpaceOnUse">
<stop stop-color="#4D5F5D"/>
<stop offset="1" stop-color="#2C2F2D"/>
</linearGradient>
<clipPath id="clip0_8533_297214">
<rect width="340" height="340" fill="white"/>
</clipPath>
</defs>
</svg>
