<svg width="340" height="340" viewBox="0 0 340 340" fill="none" xmlns="http://www.w3.org/2000/svg">
<g clip-path="url(#clip0_7848_342789)">
<path fill-rule="evenodd" clip-rule="evenodd" d="M124.504 40.7235H202.622V-3.48159C202.622 -11.1958 205.204 -17.5497 210.506 -23.0017C215.8 -28.4457 221.859 -31 229.126 -31H298.874C306.141 -31 312.2 -28.4457 317.494 -23.0017C322.796 -17.5497 325.378 -11.1958 325.378 -3.48159V40.7235H403.496C410.763 40.7235 416.822 43.2778 422.116 48.7218C427.418 54.1738 430 60.5278 430 68.2419V265.482C430 273.196 427.418 279.55 422.116 285.002C416.822 290.446 410.763 293 403.496 293H124.504C117.237 293 111.178 290.446 105.884 285.002C100.582 279.55 98 273.196 98 265.482V68.2419C98 60.5278 100.582 54.1738 105.884 48.7218C111.178 43.2778 117.237 40.7235 124.504 40.7235ZM234.706 -11.8249C227.002 -11.8249 220.756 -5.59919 220.756 2.08064V40.7235H307.244V2.08064C307.244 -5.5992 300.998 -11.8249 293.294 -11.8249H234.706Z" fill="url(#paint0_linear_7848_342789)"/>
<path fill-rule="evenodd" clip-rule="evenodd" d="M48.9916 145.647H116.756V107.036C116.756 100.298 118.996 94.7482 123.595 89.9861C128.188 85.231 133.444 83 139.748 83H200.252C206.556 83 211.812 85.231 216.405 89.9861C221.004 94.7482 223.244 100.298 223.244 107.036V145.647H291.008C297.312 145.647 302.568 147.878 307.161 152.634C311.76 157.396 314 162.946 314 169.684V341.964C314 348.702 311.76 354.252 307.161 359.014C302.568 363.769 297.312 366 291.008 366H48.9916C42.6876 366 37.4316 363.769 32.8392 359.014C28.24 354.252 26 348.702 26 341.964V169.684C26 162.946 28.24 157.396 32.8392 152.634C37.4316 147.878 42.6876 145.647 48.9916 145.647ZM53.8319 162.396C47.1488 162.396 41.7311 167.834 41.7311 174.542V337.105C41.7311 343.813 47.1488 349.251 53.8319 349.251H286.168C292.851 349.251 298.269 343.814 298.269 337.105V174.542C298.269 167.834 292.851 162.396 286.168 162.396H53.8319ZM144.588 99.7486C137.905 99.7486 132.487 105.187 132.487 111.895V145.647H207.513V111.895C207.513 105.187 202.095 99.7486 195.412 99.7486H144.588Z" fill="url(#paint1_linear_7848_342789)"/>
</g>
<defs>
<linearGradient id="paint0_linear_7848_342789" x1="687.267" y1="-176.352" x2="205.493" y2="240.644" gradientUnits="userSpaceOnUse">
<stop stop-color="#4D5F5D"/>
<stop offset="1" stop-color="#262B28"/>
</linearGradient>
<linearGradient id="paint1_linear_7848_342789" x1="350.628" y1="37.0978" x2="115.871" y2="315.355" gradientUnits="userSpaceOnUse">
<stop stop-color="#4D5F5D"/>
<stop offset="1" stop-color="#2C2F2D"/>
</linearGradient>
<clipPath id="clip0_7848_342789">
<rect width="340" height="340" fill="white"/>
</clipPath>
</defs>
</svg>
