<svg width="340" height="340" viewBox="0 0 340 340" fill="none" xmlns="http://www.w3.org/2000/svg">
<g clip-path="url(#clip0_8524_294795)">
<path d="M108.991 229C101.67 229 95.5079 226.523 90.5047 221.569C85.5016 216.615 83 210.514 83 203.266V-8.26595C83 -15.5143 85.5016 -21.6155 90.5047 -26.5695C95.5079 -31.5232 101.67 -34 108.991 -34H322.375C329.696 -34 335.858 -31.5232 340.861 -26.5695C345.865 -21.6155 348.366 -15.5143 348.366 -8.26595V16.9529H243.363C230.562 16.9529 220.345 20.7326 212.71 28.2921C205.075 35.8513 201.258 45.9679 201.258 58.642V136.358C201.258 149.032 205.075 159.149 212.71 166.708C220.345 174.267 230.562 178.047 243.363 178.047H348.366V203.266C348.366 210.514 345.865 216.615 340.861 221.569C335.858 226.523 329.696 229 322.375 229H108.991ZM243.363 162.607C235.728 162.607 229.401 160.122 224.382 155.152C219.362 150.182 216.853 143.918 216.853 136.358V58.642C216.853 51.0825 219.362 44.8178 224.382 39.8479C229.401 34.8781 235.728 32.3932 243.363 32.3932H338.489C346.124 32.3932 352.452 34.8781 357.471 39.8479C362.49 44.8178 365 51.0825 365 58.642V136.358C365 143.918 362.49 150.182 357.471 155.152C352.452 160.122 346.124 162.607 338.489 162.607H243.363ZM282.609 122.333C289.757 122.333 295.724 119.964 300.51 115.224C305.297 110.485 307.69 104.577 307.69 97.5C307.69 90.4231 305.297 84.515 300.51 79.7757C295.724 75.0364 289.757 72.6667 282.609 72.6667C275.462 72.6667 269.495 75.0364 264.708 79.7757C259.922 84.515 257.528 90.4231 257.528 97.5C257.528 104.577 259.922 110.485 264.708 115.224C269.495 119.964 275.462 122.333 282.609 122.333Z" fill="url(#paint0_linear_8524_294795)"/>
<path d="M371.559 320.23L265.264 212.995L271.203 205.256C291.519 178.809 302.231 147.073 302.231 113.61C302.231 29.9824 234.458 -38 151.143 -38C67.8286 -38 0 29.9824 0 113.61C0 197.238 67.7731 265.165 151.143 265.165C182.671 265.165 213.088 255.31 238.954 236.658L246.614 231.146L353.297 338.381C355.739 340.775 358.903 342 362.733 342C370.171 342 375 336.933 375 329.083C375 325.631 373.779 322.513 371.559 320.23ZM151.143 252.582C74.7114 252.582 12.5444 190.223 12.5444 113.61C12.5444 36.9978 74.7114 -25.4168 151.143 -25.4168C227.576 -25.4168 289.687 36.9421 289.687 113.61C289.687 190.278 227.52 252.582 151.143 252.582Z" fill="url(#paint1_linear_8524_294795)"/>
</g>
<defs>
<linearGradient id="paint0_linear_8524_294795" x1="583.522" y1="-151.986" x2="190.298" y2="204.16" gradientUnits="userSpaceOnUse">
<stop stop-color="#4D5F5D"/>
<stop offset="1" stop-color="#262B28"/>
</linearGradient>
<linearGradient id="paint1_linear_8524_294795" x1="422.693" y1="-99.6354" x2="105.98" y2="264.392" gradientUnits="userSpaceOnUse">
<stop stop-color="#4D5F5D"/>
<stop offset="1" stop-color="#2C2F2D"/>
</linearGradient>
<clipPath id="clip0_8524_294795">
<rect width="340" height="340" fill="white"/>
</clipPath>
</defs>
</svg>
