<svg width="340" height="340" viewBox="0 0 340 340" fill="none" xmlns="http://www.w3.org/2000/svg">
<g clip-path="url(#clip0_1759_31057)">
<path fill-rule="evenodd" clip-rule="evenodd" d="M64.504 52.8881C84.8119 39.3188 108.688 32.0762 133.112 32.0762C165.863 32.0762 197.274 45.0867 220.433 68.2457C243.592 91.4047 256.602 122.815 256.602 155.567C256.602 179.991 249.36 203.866 235.79 224.174C222.221 244.482 202.934 260.31 180.369 269.657C157.805 279.004 132.975 281.449 109.02 276.684C85.0651 271.92 63.0612 260.158 45.7907 242.888C28.5202 225.617 16.7589 203.613 11.994 179.659C7.22908 155.704 9.6746 130.874 19.0213 108.309C28.368 85.744 44.1961 66.4574 64.504 52.8881ZM126.874 114.046C125.22 115.701 124.291 117.944 124.291 120.284V137.925C124.291 140.265 125.22 142.508 126.874 144.162C128.529 145.817 130.772 146.746 133.112 146.746C135.451 146.746 137.695 145.817 139.349 144.162C141.003 142.508 141.932 140.265 141.932 137.925V120.284C141.932 117.944 141.003 115.701 139.349 114.046C137.695 112.392 135.451 111.463 133.112 111.463C130.772 111.463 128.529 112.392 126.874 114.046ZM97.8287 164.387H115.47C117.81 164.387 120.053 163.458 121.707 161.804C123.362 160.15 124.291 157.906 124.291 155.567C124.291 153.227 123.362 150.984 121.707 149.33C120.053 147.675 117.81 146.746 115.47 146.746H97.8287C95.4893 146.746 93.2457 147.675 91.5915 149.33C89.9372 150.984 89.0079 153.227 89.0079 155.567C89.0079 157.906 89.9372 160.15 91.5915 161.804C93.2457 163.458 95.4893 164.387 97.8287 164.387ZM139.349 197.087C141.003 195.433 141.932 193.189 141.932 190.85V173.208C141.932 170.869 141.003 168.625 139.349 166.971C137.695 165.317 135.451 164.387 133.112 164.387C130.772 164.387 128.529 165.317 126.874 166.971C125.22 168.625 124.291 170.869 124.291 173.208V190.85C124.291 193.189 125.22 195.433 126.874 197.087C128.529 198.741 130.772 199.67 133.112 199.67C135.451 199.67 137.695 198.741 139.349 197.087ZM150.753 164.387H168.395C170.734 164.387 172.978 163.458 174.632 161.804C176.286 160.15 177.215 157.906 177.215 155.567C177.215 153.227 176.286 150.984 174.632 149.33C172.978 147.675 170.734 146.746 168.395 146.746H150.753C148.414 146.746 146.17 147.675 144.516 149.33C142.862 150.984 141.932 153.227 141.932 155.567C141.932 157.906 142.862 160.15 144.516 161.804C146.17 163.458 148.414 164.387 150.753 164.387Z" fill="url(#paint0_linear_1759_31057)"/>
<path d="M371.559 320.23L265.264 212.995L271.203 205.256C291.519 178.809 302.231 147.073 302.231 113.61C302.231 29.9824 234.458 -38 151.143 -38C67.8286 -38 0 29.9824 0 113.61C0 197.238 67.7731 265.165 151.143 265.165C182.671 265.165 213.088 255.31 238.954 236.658L246.614 231.146L353.297 338.381C355.739 340.775 358.903 342 362.733 342C370.171 342 375 336.933 375 329.083C375 325.631 373.779 322.513 371.559 320.23ZM151.143 252.582C74.7114 252.582 12.5444 190.223 12.5444 113.61C12.5444 36.9978 74.7114 -25.4168 151.143 -25.4168C227.576 -25.4168 289.687 36.9421 289.687 113.61C289.687 190.278 227.52 252.582 151.143 252.582Z" fill="url(#paint1_linear_1759_31057)"/>
</g>
<defs>
<linearGradient id="paint0_linear_1759_31057" x1="447.988" y1="-78.7237" x2="82.1264" y2="230.315" gradientUnits="userSpaceOnUse">
<stop stop-color="#4D5F5D"/>
<stop offset="1" stop-color="#262B28"/>
</linearGradient>
<linearGradient id="paint1_linear_1759_31057" x1="422.693" y1="-99.6354" x2="105.98" y2="264.392" gradientUnits="userSpaceOnUse">
<stop stop-color="#4D5F5D"/>
<stop offset="1" stop-color="#2C2F2D"/>
</linearGradient>
<clipPath id="clip0_1759_31057">
<rect width="340" height="340" fill="white"/>
</clipPath>
</defs>
</svg>
