<svg width="340" height="340" viewBox="0 0 340 340" fill="none" xmlns="http://www.w3.org/2000/svg">
<g clip-path="url(#clip0_4818_58492)">
<path fill-rule="evenodd" clip-rule="evenodd" d="M67.0659 103.614C83.6212 103.614 97.042 90.1062 97.042 73.4437C97.042 71.9775 96.9381 70.5358 96.7373 69.1256H240.741C241.787 69.1256 242.635 68.272 242.635 67.2191V59.5387C242.635 58.4858 241.787 57.6322 240.741 57.6322H92.6006C87.3228 49.0164 77.8607 43.2734 67.0659 43.2734C50.5106 43.2734 37.0898 56.7811 37.0898 73.4437C37.0898 90.1062 50.5106 103.614 67.0659 103.614ZM108.486 82.5263C108.486 81.4734 109.334 80.6198 110.381 80.6198H195.093C196.139 80.6198 196.987 81.4734 196.987 82.5263V90.2067C196.987 91.2596 196.139 92.1132 195.093 92.1132H110.381C109.334 92.1132 108.486 91.2596 108.486 90.2067V82.5263ZM96.7395 140.977C96.9388 142.382 97.042 143.819 97.042 145.279C97.042 161.942 83.6212 175.45 67.0659 175.45C50.5106 175.45 37.0898 161.942 37.0898 145.279C37.0898 128.617 50.5106 115.109 67.0659 115.109C77.8672 115.109 87.3342 120.859 92.6102 129.484H240.741C241.787 129.484 242.635 130.337 242.635 131.39V139.07C242.635 140.123 241.787 140.977 240.741 140.977H96.7395ZM110.381 152.471C109.334 152.471 108.486 153.325 108.486 154.378V162.058C108.486 163.111 109.334 163.965 110.381 163.965H195.093C196.139 163.965 196.987 163.111 196.987 162.058V154.378C196.987 153.325 196.139 152.471 195.093 152.471H110.381ZM96.7381 212.791C96.9383 214.199 97.042 215.639 97.042 217.103C97.042 233.766 83.6212 247.273 67.0659 247.273C50.5106 247.273 37.0898 233.766 37.0898 217.103C37.0898 200.441 50.5106 186.933 67.0659 186.933C77.8631 186.933 87.327 192.678 92.6041 201.297H240.741C241.787 201.297 242.635 202.151 242.635 203.204V210.884C242.635 211.937 241.787 212.791 240.741 212.791H96.7381ZM110.381 224.285C109.334 224.285 108.486 225.139 108.486 226.192V233.872C108.486 234.925 109.334 235.778 110.381 235.778H195.093C196.139 235.778 196.987 234.925 196.987 233.872V226.192C196.987 225.139 196.139 224.285 195.093 224.285H110.381Z" fill="url(#paint0_linear_4818_58492)"/>
<path d="M371.559 320.23L265.264 212.995L271.203 205.256C291.519 178.809 302.231 147.073 302.231 113.61C302.231 29.9824 234.458 -38 151.143 -38C67.8286 -38 0 29.9824 0 113.61C0 197.238 67.7731 265.165 151.143 265.165C182.671 265.165 213.088 255.31 238.954 236.658L246.614 231.146L353.297 338.381C355.739 340.775 358.903 342 362.733 342C370.171 342 375 336.933 375 329.083C375 325.631 373.779 322.513 371.559 320.23ZM151.143 252.582C74.7114 252.582 12.5444 190.223 12.5444 113.61C12.5444 36.9978 74.7114 -25.4168 151.143 -25.4168C227.576 -25.4168 289.687 36.9421 289.687 113.61C289.687 190.278 227.52 252.582 151.143 252.582Z" fill="url(#paint1_linear_4818_58492)"/>
</g>
<defs>
<linearGradient id="paint0_linear_4818_58492" x1="401.913" y1="-48.2444" x2="99.3472" y2="209.265" gradientUnits="userSpaceOnUse">
<stop stop-color="#4D5F5D"/>
<stop offset="1" stop-color="#262B28"/>
</linearGradient>
<linearGradient id="paint1_linear_4818_58492" x1="422.693" y1="-99.6354" x2="105.98" y2="264.392" gradientUnits="userSpaceOnUse">
<stop stop-color="#4D5F5D"/>
<stop offset="1" stop-color="#2C2F2D"/>
</linearGradient>
<clipPath id="clip0_4818_58492">
<rect width="340" height="340" fill="white"/>
</clipPath>
</defs>
</svg>
