<svg width="340" height="340" viewBox="0 0 340 340" fill="none" xmlns="http://www.w3.org/2000/svg">
<g clip-path="url(#clip0_7348_122200)">
<path fill-rule="evenodd" clip-rule="evenodd" d="M114.688 128.445C116.152 129.835 117.966 130.53 120.13 130.53C122.293 130.53 124.107 129.835 125.571 128.445C127.035 127.055 127.767 125.333 127.767 123.278V115.301C135.659 114.214 142.278 111.434 147.624 106.962C152.97 102.49 155.643 95.9637 155.643 87.3826C155.643 80.4935 153.383 74.4202 148.865 69.1628C144.346 63.9053 137.695 60.068 128.912 57.6507C119.493 55.1127 112.874 52.6954 109.055 50.3991C105.237 48.1027 103.327 44.9603 103.327 40.9719C103.327 37.4669 104.791 34.536 107.719 32.1793C110.647 29.8225 114.911 28.6441 120.511 28.6441C123.821 28.6441 126.589 29.0973 128.817 30.0038C131.044 30.9102 132.986 32.2095 134.64 33.9016C136.295 35.5936 138.077 36.772 139.986 37.4367C141.896 38.1015 143.741 38.0713 145.523 37.3461C147.687 36.5001 149.119 35.1102 149.819 33.1764C150.52 31.2426 150.297 29.4901 149.151 27.9189C146.86 24.6557 143.932 21.9061 140.368 19.6701C136.804 17.4342 132.604 15.9537 127.767 15.2285V7.25166C127.767 5.19702 127.035 3.47476 125.571 2.08485C124.107 0.694951 122.293 0 120.13 0C117.966 0 116.152 0.694951 114.688 2.08485C113.224 3.47476 112.492 5.19702 112.492 7.25166V15.2285C106.892 15.8328 101.418 18.3105 96.0721 22.6615C90.726 27.0125 88.0529 33.116 88.0529 40.9719C88.0529 47.4984 90.0895 53.0278 94.1627 57.5601C98.2359 62.0924 105.746 65.9902 116.693 69.2534C126.876 72.3958 133.367 75.2058 136.168 77.6835C138.968 80.1611 140.368 83.515 140.368 87.7452C140.368 92.4587 138.554 95.9335 134.927 98.1694C131.299 100.405 126.876 101.523 121.657 101.523C116.82 101.523 112.747 100.587 109.437 98.7133C106.128 96.84 103.391 94.0904 101.227 90.4645C100.209 88.6516 98.7451 87.3524 96.8358 86.5668C94.9265 85.7812 93.0808 85.751 91.2988 86.4761C89.1349 87.3221 87.6392 88.6818 86.8118 90.5552C85.9845 92.4285 86.0163 94.2112 86.9073 95.9033C89.5804 101.342 93.0808 105.572 97.4086 108.594C101.736 111.615 106.764 113.73 112.492 114.939V123.278C112.492 125.333 113.224 127.055 114.688 128.445ZM175.427 227.665C178.223 227.764 180.682 227.517 182.804 226.923L256.571 205.564V98.47H238.057C236.707 98.47 235.357 98.6183 234.007 98.915C232.657 99.2116 231.307 99.5577 229.957 99.9533L149.825 130.509C147.125 131.498 144.955 133.278 143.316 135.849C141.677 138.42 140.857 141.09 140.857 143.859C140.857 148.012 142.255 151.374 145.052 153.945C147.848 156.516 151.079 157.802 154.743 157.802H185.118C186.082 157.802 186.805 157.752 187.287 157.653C187.77 157.555 188.396 157.307 189.168 156.912L202.186 151.869C203.729 151.275 205.271 151.374 206.814 152.165C208.357 152.956 209.321 154.044 209.707 155.429C210.093 157.011 209.996 158.494 209.418 159.878C208.839 161.263 207.779 162.252 206.236 162.845L189.168 169.075C188.782 169.273 188.204 169.421 187.432 169.52C186.661 169.619 185.986 169.668 185.407 169.668H106.143C99.9714 169.668 94.5714 171.943 89.9429 176.491C85.3143 181.04 83 186.677 83 193.401L168.339 226.33C170.268 227.121 172.63 227.566 175.427 227.665ZM319.202 222.029C323.734 217.381 326 211.794 326 205.267V122.203C326 115.676 323.734 110.089 319.202 105.441C314.67 100.794 309.221 98.47 302.857 98.47C296.493 98.47 291.045 100.794 286.512 105.441C281.98 110.089 279.714 115.676 279.714 122.203V205.267C279.714 211.794 281.98 217.381 286.512 222.029C291.045 226.676 296.493 229 302.857 229C309.221 229 314.67 226.676 319.202 222.029Z" fill="url(#paint0_linear_7348_122200)"/>
<path d="M371.559 320.23L265.264 212.995L271.203 205.256C291.519 178.809 302.231 147.073 302.231 113.61C302.231 29.9824 234.458 -38 151.143 -38C67.8286 -38 0 29.9824 0 113.61C0 197.238 67.7731 265.165 151.143 265.165C182.671 265.165 213.088 255.31 238.954 236.658L246.614 231.146L353.297 338.381C355.739 340.775 358.903 342 362.733 342C370.171 342 375 336.933 375 329.083C375 325.631 373.779 322.513 371.559 320.23ZM151.143 252.582C74.7114 252.582 12.5444 190.223 12.5444 113.61C12.5444 36.9978 74.7114 -25.4168 151.143 -25.4168C227.576 -25.4168 289.687 36.9421 289.687 113.61C289.687 190.278 227.52 252.582 151.143 252.582Z" fill="url(#paint1_linear_7348_122200)"/>
</g>
<defs>
<linearGradient id="paint0_linear_7348_122200" x1="-105.301" y1="-102.733" x2="236.718" y2="203.827" gradientUnits="userSpaceOnUse">
<stop stop-color="#4D5F5D"/>
<stop offset="1" stop-color="#262B28"/>
</linearGradient>
<linearGradient id="paint1_linear_7348_122200" x1="422.693" y1="-99.6354" x2="105.98" y2="264.392" gradientUnits="userSpaceOnUse">
<stop stop-color="#4D5F5D"/>
<stop offset="1" stop-color="#2C2F2D"/>
</linearGradient>
<clipPath id="clip0_7348_122200">
<rect width="340" height="340" fill="white"/>
</clipPath>
</defs>
</svg>
