<svg width="24" height="24" viewBox="0 0 24 24" fill="none" xmlns="http://www.w3.org/2000/svg">
<path d="M13 21V19H15V21H13ZM11 19V14H13V19H11ZM19 16V12H21V16H19ZM17 12V10H19V12H17ZM5 14V12H7V14H5ZM3 12V10H5V12H3ZM12 5V3H14V5H12ZM4.5 7.5H7.5V4.5H4.5V7.5ZM3 8V4C3 3.71667 3.09583 3.47917 3.2875 3.2875C3.47917 3.09583 3.71667 3 4 3H8C8.28333 3 8.52083 3.09583 8.7125 3.2875C8.90417 3.47917 9 3.71667 9 4V8C9 8.28333 8.90417 8.52083 8.7125 8.7125C8.52083 8.90417 8.28333 9 8 9H4C3.71667 9 3.47917 8.90417 3.2875 8.7125C3.09583 8.52083 3 8.28333 3 8ZM4.5 19.5H7.5V16.5H4.5V19.5ZM3 20V16C3 15.7167 3.09583 15.4792 3.2875 15.2875C3.47917 15.0958 3.71667 15 4 15H8C8.28333 15 8.52083 15.0958 8.7125 15.2875C8.90417 15.4792 9 15.7167 9 16V20C9 20.2833 8.90417 20.5208 8.7125 20.7125C8.52083 20.9042 8.28333 21 8 21H4C3.71667 21 3.47917 20.9042 3.2875 20.7125C3.09583 20.5208 3 20.2833 3 20ZM16.5 7.5H19.5V4.5H16.5V7.5ZM15 8V4C15 3.71667 15.0958 3.47917 15.2875 3.2875C15.4792 3.09583 15.7167 3 16 3H20C20.2833 3 20.5208 3.09583 20.7125 3.2875C20.9042 3.47917 21 3.71667 21 4V8C21 8.28333 20.9042 8.52083 20.7125 8.7125C20.5208 8.90417 20.2833 9 20 9H16C15.7167 9 15.4792 8.90417 15.2875 8.7125C15.0958 8.52083 15 8.28333 15 8ZM17 21V18H15V16H19V19H21V21H17ZM13 14V12H17V14H13ZM9 14V12H7V10H13V12H11V14H9ZM10 9V5H12V7H14V9H10ZM5.25 6.75V5.25H6.75V6.75H5.25ZM5.25 18.75V17.25H6.75V18.75H5.25ZM17.25 6.75V5.25H18.75V6.75H17.25Z" fill="#A2AAA9"/>
</svg>
