<svg width="396" height="156" viewBox="0 0 396 156" fill="none" xmlns="http://www.w3.org/2000/svg">
<path d="M393.172 61.3891L34.317 -111.434C32.1823 -112.36 30.4644 -112.159 27.6964 -110.762L27.7793 -110.824L2.22916 -98.5184C0.559592 -97.5483 0.101325 -96.0808 0 -95.4027V249.935L0.0184228 249.841C-0.059874 252.179 0.63098 253.439 2.84862 254.603L29.5778 267.477C31.503 268.17 32.5461 268.066 34.3976 267.213L393.391 94.509C395.321 93.4851 395.988 92.1847 395.998 89.6798V65.1291C395.931 64.3895 395.295 62.3227 393.172 61.3891ZM243.733 48.817L304.54 78.1027L243.726 107.388L243.733 48.817ZM61.6265 136.236L122.309 165.443L61.6265 194.667V136.236ZM122.311 -9.66039L61.6772 19.5812V-38.8597L122.311 -9.66039ZM63.7981 77.8972L182.059 20.9431V134.851L63.7981 77.8972Z" fill="#0C422F"/>
<path d="M152.274 151.013L122.44 165.507L31.678 121.82L31.4039 267.882C30.7039 267.893 30.2917 267.736 29.5778 267.476L2.84862 254.605C0.63098 253.442 -0.059874 252.18 0.0184228 249.843L0 249.937V77.682L152.274 151.013ZM395.219 63.2773L243.722 136.081L243.733 48.7228L213.732 34.3681L213.679 180.92L393.393 94.5089C395.323 93.4851 395.991 92.1846 396 89.6779V65.129C395.926 64.3203 395.622 63.8555 395.219 63.2773ZM34.317 -111.434C32.1823 -112.36 30.4644 -112.159 27.6964 -110.762L27.7793 -110.824L2.22916 -98.5184C1.54061 -98.1054 1.02246 -97.6598 0.658615 -97.1354L152.28 -24.115L61.6104 19.6138L61.6772 48.4039L213.951 -24.9256L34.317 -111.434Z" fill="#1C8B63"/>
<path d="M395.394 63.218L243.722 136.06L243.726 107.368L334.535 63.6348L182.263 -9.69283L213.935 -24.9465L393.17 61.3701C394.238 61.9233 394.95 62.5111 395.394 63.218ZM0.660917 -97.1562C0.320096 -96.6626 0.101325 -96.1017 0 -95.4236V77.6592L31.6757 92.9801V-53.3333L122.516 -9.67746L152.283 -24.1378L0.660917 -97.1562ZM61.4123 223.717L61.6242 136.215L31.6757 121.799L31.4224 267.984C32.2744 267.972 33.1633 267.751 34.1835 267.335L213.688 180.893V150.386L61.4123 223.717Z" fill="#95B1A4"/>
</svg>
