<svg width="24" height="24" viewBox="0 0 24 24" fill="none" xmlns="http://www.w3.org/2000/svg">
    <g clip-path="url(#clip0_27_2518)">
        <path d="M12 24C18.6274 24 24 18.6274 24 12C24 5.37258 18.6274 0 12 0C5.37258 0 0 5.37258 0 12C0 18.6274 5.37258 24 12 24Z" fill="#F3BA2F"/>
        <path d="M8.8719 10.628L11.9956 7.50433L15.1212 10.6293L16.9388 8.81172L11.9956 3.86914L7.0543 8.81043L8.8719 10.628ZM3.95312 11.9116L5.77072 10.094L7.58832 11.9116L5.77072 13.7292L3.95312 11.9116ZM8.8719 13.1952L11.9956 16.3189L15.1206 13.1939L16.9395 15.0102L16.9388 15.0115L11.9956 19.9541L7.0543 15.0128L7.05173 15.0102L8.8719 13.1952ZM16.4029 11.9122L18.2205 10.0947L20.0381 11.9122L18.2205 13.7298L16.4029 11.9122Z" fill="white"/>
        <path d="M13.8448 11.911H13.8455L12.0015 10.0664L10.6382 11.4291L10.4818 11.5855L10.1588 11.9085L10.1562 11.911L10.1588 11.9136L12.0015 13.7569L13.8461 11.9123L13.8468 11.911H13.8448Z" fill="white"/>
    </g>
    <defs>
        <clipPath id="clip0_27_2518">
            <rect width="24" height="24" rx="12" fill="white"/>
        </clipPath>
    </defs>
</svg>
