<svg width="340" height="340" viewBox="0 0 340 340" fill="none" xmlns="http://www.w3.org/2000/svg">
<g clip-path="url(#clip0_12932_202946)">
<path d="M159.889 273C152.494 273 146.164 270.367 140.899 265.101C135.633 259.836 133 253.506 133 246.111V57.8889C133 50.4944 135.633 44.1644 140.899 38.8986C146.164 33.6329 152.494 31 159.889 31H296.686C300.271 31 303.688 31.6722 306.938 33.0167C310.187 34.3611 313.044 36.2657 315.508 38.7306L367.269 90.4917C369.734 92.9565 371.639 95.8134 372.983 99.0625C374.328 102.312 375 105.729 375 109.314V246.111C375 253.506 372.367 259.836 367.101 265.101C361.836 270.367 355.506 273 348.111 273H159.889ZM294.333 57.8889V98.2222C294.333 102.031 295.622 105.225 298.199 107.801C300.775 110.378 303.969 111.667 307.778 111.667H348.111L294.333 57.8889ZM307.778 219.222C311.587 219.222 314.78 217.934 317.357 215.357C319.934 212.78 321.222 209.587 321.222 205.778C321.222 201.969 319.934 198.775 317.357 196.199C314.78 193.622 311.587 192.333 307.778 192.333H200.222C196.413 192.333 193.22 193.622 190.643 196.199C188.066 198.775 186.778 201.969 186.778 205.778C186.778 209.587 188.066 212.78 190.643 215.357C193.22 217.934 196.413 219.222 200.222 219.222H307.778ZM240.556 111.667C244.365 111.667 247.558 110.378 250.135 107.801C252.712 105.225 254 102.031 254 98.2222C254 94.413 252.712 91.2199 250.135 88.6431C247.558 86.0662 244.365 84.7778 240.556 84.7778H200.222C196.413 84.7778 193.22 86.0662 190.643 88.6431C188.066 91.2199 186.778 94.413 186.778 98.2222C186.778 102.031 188.066 105.225 190.643 107.801C193.22 110.378 196.413 111.667 200.222 111.667H240.556ZM307.778 165.444C311.587 165.444 314.78 164.156 317.357 161.579C319.934 159.002 321.222 155.809 321.222 152C321.222 148.191 319.934 144.998 317.357 142.421C314.78 139.844 311.587 138.556 307.778 138.556H200.222C196.413 138.556 193.22 139.844 190.643 142.421C188.066 144.998 186.778 148.191 186.778 152C186.778 155.809 188.066 159.002 190.643 161.579C193.22 164.156 196.413 165.444 200.222 165.444H307.778Z" fill="url(#paint0_linear_12932_202946)"/>
<path d="M55.18 380C46.8652 380 39.9232 377.215 34.3539 371.646C28.7846 366.077 26 359.135 26 350.82V120.18C26 111.865 28.7846 104.923 34.3539 99.3539C39.9232 93.7846 46.8652 91 55.18 91H222.985C226.875 91 230.656 91.7872 234.328 93.3617C237.998 94.9361 241.141 97.0314 243.757 99.6474L306.353 162.243C308.969 164.859 311.064 168.002 312.638 171.672C314.213 175.344 315 179.125 315 183.015V350.82C315 359.135 312.215 366.077 306.646 371.646C301.077 377.215 294.135 380 285.82 380H55.18ZM55.18 361.938H285.82C289.062 361.938 291.726 360.896 293.813 358.813C295.896 356.726 296.938 354.062 296.938 350.82V181.312H239.277C235.084 181.312 231.604 179.929 228.837 177.163C226.071 174.396 224.688 170.916 224.688 166.723V109.062H55.18C51.9377 109.062 49.2735 110.104 47.1873 112.187C45.1041 114.274 44.0625 116.938 44.0625 120.18V350.82C44.0625 354.062 45.1041 356.726 47.1873 358.813C49.2735 360.896 51.9377 361.938 55.18 361.938ZM242.75 307.75C245.321 307.75 247.469 306.888 249.194 305.163C250.919 303.438 251.781 301.29 251.781 298.719C251.781 296.148 250.919 294 249.194 292.275C247.469 290.55 245.321 289.688 242.75 289.688H98.25C95.6791 289.688 93.5312 290.55 91.8062 292.275C90.0812 294 89.2188 296.148 89.2188 298.719C89.2188 301.29 90.0812 303.438 91.8062 305.163C93.5312 306.888 95.6791 307.75 98.25 307.75H242.75ZM161.469 181.312C164.04 181.312 166.188 180.45 167.913 178.725C169.638 177 170.5 174.852 170.5 172.281C170.5 169.71 169.638 167.562 167.913 165.837C166.188 164.112 164.04 163.25 161.469 163.25H98.25C95.6791 163.25 93.5312 164.112 91.8062 165.837C90.0812 167.562 89.2188 169.71 89.2188 172.281C89.2188 174.852 90.0812 177 91.8062 178.725C93.5312 180.45 95.6791 181.312 98.25 181.312H161.469ZM242.75 244.531C245.321 244.531 247.469 243.669 249.194 241.944C250.919 240.219 251.781 238.071 251.781 235.5C251.781 232.929 250.919 230.781 249.194 229.056C247.469 227.331 245.321 226.469 242.75 226.469H98.25C95.6791 226.469 93.5312 227.331 91.8062 229.056C90.0812 230.781 89.2188 232.929 89.2188 235.5C89.2188 238.071 90.0812 240.219 91.8062 241.944C93.5312 243.669 95.6791 244.531 98.25 244.531H242.75Z" fill="url(#paint1_linear_12932_202946)"/>
</g>
<defs>
<linearGradient id="paint0_linear_12932_202946" x1="562.526" y1="-77.5652" x2="204.043" y2="225.24" gradientUnits="userSpaceOnUse">
<stop stop-color="#4D5F5D"/>
<stop offset="1" stop-color="#262B28"/>
</linearGradient>
<linearGradient id="paint1_linear_12932_202946" x1="351.755" y1="44.1246" x2="111.348" y2="324.131" gradientUnits="userSpaceOnUse">
<stop stop-color="#4D5F5D"/>
<stop offset="1" stop-color="#2C2F2D"/>
</linearGradient>
<clipPath id="clip0_12932_202946">
<rect width="340" height="340" fill="white"/>
</clipPath>
</defs>
</svg>
