<svg width="340" height="340" viewBox="0 0 340 340" fill="none" xmlns="http://www.w3.org/2000/svg">
<g clip-path="url(#clip0_9757_326971)">
<path d="M294.556 208C290.132 208 286.425 206.526 283.433 203.579C280.441 200.633 278.944 196.981 278.944 192.624V161.873H247.722C243.299 161.873 239.591 160.4 236.599 157.453C233.607 154.506 232.111 150.854 232.111 146.498C232.111 142.141 233.607 138.49 236.599 135.543C239.591 132.596 243.299 131.122 247.722 131.122H278.944V100.371C278.944 96.0147 280.441 92.363 283.433 89.416C286.425 86.4691 290.132 84.9956 294.556 84.9956C298.979 84.9956 302.686 86.4691 305.678 89.416C308.671 92.363 310.167 96.0147 310.167 100.371V131.122H341.389C345.812 131.122 349.52 132.596 352.512 135.543C355.504 138.49 357 142.141 357 146.498C357 150.854 355.504 154.506 352.512 157.453C349.52 160.4 345.812 161.873 341.389 161.873H310.167V192.624C310.167 196.981 308.671 200.633 305.678 203.579C302.686 206.526 298.979 208 294.556 208ZM154.056 162.258C149.632 162.258 145.925 160.784 142.933 157.837C139.941 154.89 138.444 151.239 138.444 146.882C138.444 142.526 139.941 138.874 142.933 135.927C145.925 132.98 149.632 131.507 154.056 131.507H193.083C197.506 131.507 201.214 132.98 204.206 135.927C207.198 138.874 208.694 142.526 208.694 146.882C208.694 151.239 207.198 154.89 204.206 157.837C201.214 160.784 197.506 162.258 193.083 162.258H154.056ZM154.056 100.756C149.632 100.756 145.925 99.282 142.933 96.3351C139.941 93.3881 138.444 89.7364 138.444 85.38C138.444 81.0236 139.941 77.3719 142.933 74.4249C145.925 71.4779 149.632 70.0044 154.056 70.0044H241.865C246.288 70.0044 249.996 71.4779 252.988 74.4249C255.98 77.3719 257.476 81.0236 257.476 85.38C257.476 89.7364 255.98 93.3881 252.988 96.3351C249.996 99.282 246.288 100.756 241.865 100.756H154.056ZM154.056 39.2533C149.632 39.2533 145.925 37.7798 142.933 34.8328C139.941 31.8859 138.444 28.2342 138.444 23.8778C138.444 19.5213 139.941 15.8697 142.933 12.9227C145.925 9.97569 149.632 8.5022 154.056 8.5022H310.167C314.59 8.5022 318.297 9.97569 321.29 12.9227C324.282 15.8697 325.778 19.5213 325.778 23.8778C325.778 28.2342 324.282 31.8859 321.29 34.8328C318.297 37.7798 314.59 39.2533 310.167 39.2533H154.056ZM154.056 -22.2489C149.632 -22.2489 145.925 -23.7224 142.933 -26.6694C139.941 -29.6164 138.444 -33.268 138.444 -37.6244C138.444 -41.9809 139.941 -45.6325 142.933 -48.5795C145.925 -51.5265 149.632 -53 154.056 -53H310.167C314.59 -53 318.297 -51.5265 321.29 -48.5795C324.282 -45.6325 325.778 -41.9809 325.778 -37.6244C325.778 -33.268 324.282 -29.6164 321.29 -26.6694C318.297 -23.7224 314.59 -22.2489 310.167 -22.2489H154.056ZM91.6111 -22.2489C87.188 -22.2489 83.4803 -23.7224 80.4882 -26.6694C77.4961 -29.6164 76 -33.268 76 -37.6244C76 -41.9809 77.4961 -45.6325 80.4882 -48.5795C83.4803 -51.5265 87.188 -53 91.6111 -53C96.0343 -53 99.7419 -51.5265 102.734 -48.5795C105.726 -45.6325 107.222 -41.9809 107.222 -37.6244C107.222 -33.268 105.726 -29.6164 102.734 -26.6694C99.7419 -23.7224 96.0343 -22.2489 91.6111 -22.2489ZM91.6111 39.2533C87.188 39.2533 83.4803 37.7798 80.4882 34.8328C77.4961 31.8859 76 28.2342 76 23.8778C76 19.5213 77.4961 15.8697 80.4882 12.9227C83.4803 9.97569 87.188 8.5022 91.6111 8.5022C96.0343 8.5022 99.7419 9.97569 102.734 12.9227C105.726 15.8697 107.222 19.5213 107.222 23.8778C107.222 28.2342 105.726 31.8859 102.734 34.8328C99.7419 37.7798 96.0343 39.2533 91.6111 39.2533ZM91.6111 100.756C87.188 100.756 83.4803 99.282 80.4882 96.3351C77.4961 93.3881 76 89.7364 76 85.38C76 81.0236 77.4961 77.3719 80.4882 74.4249C83.4803 71.4779 87.188 70.0044 91.6111 70.0044C96.0343 70.0044 99.7419 71.4779 102.734 74.4249C105.726 77.3719 107.222 81.0236 107.222 85.38C107.222 89.7364 105.726 93.3881 102.734 96.3351C99.7419 99.282 96.0343 100.756 91.6111 100.756ZM91.6111 162.258C87.188 162.258 83.4803 160.784 80.4882 157.837C77.4961 154.89 76 151.239 76 146.882C76 142.526 77.4961 138.874 80.4882 135.927C83.4803 132.98 87.188 131.507 91.6111 131.507C96.0343 131.507 99.7419 132.98 102.734 135.927C105.726 138.874 107.222 142.526 107.222 146.882C107.222 151.239 105.726 154.89 102.734 157.837C99.7419 160.784 96.0343 162.258 91.6111 162.258Z" fill="url(#paint0_linear_9757_326971)"/>
<path d="M371.559 320.23L265.264 212.995L271.203 205.256C291.519 178.809 302.231 147.073 302.231 113.61C302.231 29.9824 234.458 -38 151.143 -38C67.8286 -38 0 29.9824 0 113.61C0 197.238 67.7731 265.165 151.143 265.165C182.671 265.165 213.088 255.31 238.954 236.658L246.614 231.146L353.297 338.381C355.739 340.775 358.903 342 362.733 342C370.171 342 375 336.933 375 329.083C375 325.631 373.779 322.513 371.559 320.23ZM151.143 252.582C74.7114 252.582 12.5444 190.223 12.5444 113.61C12.5444 36.9978 74.7114 -25.4168 151.143 -25.4168C227.576 -25.4168 289.687 36.9421 289.687 113.61C289.687 190.278 227.52 252.582 151.143 252.582Z" fill="url(#paint1_linear_9757_326971)"/>
</g>
<defs>
<linearGradient id="paint0_linear_9757_326971" x1="574.747" y1="-170.089" x2="184.359" y2="184.935" gradientUnits="userSpaceOnUse">
<stop stop-color="#4D5F5D"/>
<stop offset="1" stop-color="#262B28"/>
</linearGradient>
<linearGradient id="paint1_linear_9757_326971" x1="422.693" y1="-99.6354" x2="105.98" y2="264.392" gradientUnits="userSpaceOnUse">
<stop stop-color="#4D5F5D"/>
<stop offset="1" stop-color="#2C2F2D"/>
</linearGradient>
<clipPath id="clip0_9757_326971">
<rect width="340" height="340" fill="white"/>
</clipPath>
</defs>
</svg>
