<svg width="340" height="340" viewBox="0 0 340 340" fill="none" xmlns="http://www.w3.org/2000/svg">
<g clip-path="url(#clip0_6704_137424)">
<path fill-rule="evenodd" clip-rule="evenodd" d="M302.987 138C300.244 138 297.945 137.127 296.09 135.381C294.235 133.634 293.307 131.47 293.307 128.889V118.411C286.047 116.893 279.674 114.235 274.189 110.439C268.703 106.643 264.266 101.328 260.878 94.4944C259.749 92.3685 259.709 90.1287 260.757 87.775C261.806 85.4213 263.702 83.713 266.444 82.65C268.703 81.7389 271.043 81.7769 273.463 82.7639C275.883 83.7509 277.738 85.3833 279.029 87.6611C281.771 92.2167 285.24 95.6713 289.435 98.025C293.63 100.379 298.792 101.556 304.923 101.556C311.538 101.556 317.144 100.151 321.743 97.3417C326.341 94.5324 328.64 90.1667 328.64 84.2444C328.64 78.9296 326.865 74.7157 323.316 71.6028C319.766 68.4898 311.538 64.9593 298.631 61.0111C284.756 56.9111 275.237 52.0139 270.075 46.3194C264.912 40.625 262.33 33.6778 262.33 25.4778C262.33 15.6074 265.718 7.93889 272.495 2.47222C279.271 -2.99445 286.208 -6.10741 293.307 -6.86667V-16.8889C293.307 -19.4704 294.235 -21.6343 296.09 -23.3806C297.945 -25.1269 300.244 -26 302.987 -26C305.73 -26 308.029 -25.1269 309.884 -23.3806C311.74 -21.6343 312.667 -19.4704 312.667 -16.8889V-6.86667C318.798 -5.95556 324.122 -4.09537 328.64 -1.28611C333.157 1.52315 336.868 4.97778 339.772 9.07778C341.224 11.0519 341.506 13.2537 340.619 15.6833C339.732 18.113 337.917 19.8593 335.174 20.9222C332.915 21.8333 330.576 21.8713 328.156 21.0361C325.736 20.2009 323.477 18.7204 321.38 16.5944C319.282 14.4685 316.822 12.8361 313.998 11.6972C311.175 10.5583 307.666 9.98889 303.471 9.98889C296.372 9.98889 290.968 11.4694 287.257 14.4306C283.546 17.3917 281.691 21.0741 281.691 25.4778C281.691 30.4889 284.111 34.437 288.951 37.3222C293.791 40.2074 302.181 43.2444 314.119 46.4333C325.252 49.4704 333.681 54.2917 339.409 60.8972C345.136 67.5028 348 75.1333 348 83.7889C348 94.5704 344.612 102.77 337.836 108.389C331.06 114.007 322.67 117.5 312.667 118.867V128.889C312.667 131.47 311.74 133.634 309.884 135.381C308.029 137.127 305.73 138 302.987 138ZM232.179 264.598C234.64 265.284 237.494 265.57 240.739 265.456C243.985 265.341 246.726 264.827 248.964 263.911L348 225.818C348 218.039 345.314 211.519 339.943 206.257C334.571 200.995 328.305 198.364 321.143 198.364H229.157C228.486 198.364 227.702 198.306 226.807 198.192C225.912 198.078 225.24 197.906 224.793 197.677L204.986 190.47C203.195 189.784 201.964 188.64 201.293 187.039C200.621 185.437 200.51 183.721 200.957 181.891C201.405 180.289 202.524 179.031 204.314 178.116C206.105 177.201 207.895 177.086 209.686 177.773L224.793 183.607C225.688 184.064 226.415 184.35 226.975 184.465C227.535 184.579 228.374 184.636 229.493 184.636H264.743C268.995 184.636 272.744 183.149 275.989 180.175C279.235 177.201 280.857 173.311 280.857 168.507C280.857 165.304 279.906 162.215 278.004 159.241C276.101 156.267 273.583 154.208 270.45 153.064L177.457 117.716C175.89 117.258 174.324 116.858 172.757 116.515C171.19 116.172 169.624 116 168.057 116H146.571V239.889L232.179 264.598ZM66 239.545C66 247.095 68.6298 253.559 73.8893 258.935C79.1488 264.312 85.4714 267 92.8571 267C100.243 267 106.565 264.312 111.825 258.935C117.085 253.559 119.714 247.095 119.714 239.545V143.455C119.714 135.905 117.085 129.441 111.825 124.065C106.565 118.688 100.243 116 92.8571 116C85.4714 116 79.1488 118.688 73.8893 124.065C68.6298 129.441 66 135.905 66 143.455V239.545Z" fill="url(#paint0_linear_6704_137424)"/>
<path d="M356.024 234.587C347.928 226.935 338.145 223.024 326.506 223.024H292.771C287.711 223.024 283.663 218.943 283.663 214.012C283.663 205.509 281.301 198.027 276.578 191.055C271.855 184.083 265.952 179.322 258.361 176.601L159.349 139.7C158.169 139.19 156.651 138.85 154.964 138.51C153.783 138.17 152.434 138 151.084 138H56.6265C49.7108 138 43.9759 140.551 39.253 145.312C34.3614 150.243 32 156.025 32 162.997V282.031C32 288.833 34.3614 294.614 39.253 299.546C43.9759 304.477 49.7108 306.858 56.6265 306.858H90.3614C95.5904 306.858 100.482 305.157 105.711 301.586C110.602 298.185 113.807 293.934 115.325 288.663C116.506 284.752 120.217 282.201 124.096 282.201C124.94 282.201 125.614 282.201 126.458 282.541L234.916 313.15C237.108 313.66 239.639 314 242.169 314C244.53 314 246.554 313.66 248.747 312.81L354.506 279.65C359.566 277.95 363.446 275.739 365.47 273.358C367.157 271.658 368 268.767 368 265.026C368 252.102 364.12 242.24 356.024 234.587ZM99.4699 282.031C99.4699 286.962 95.253 291.043 90.3614 291.043H56.6265C51.5663 291.043 47.5181 286.962 47.5181 282.031V162.997C47.5181 157.896 51.5663 153.814 56.6265 153.814H90.3614C95.253 153.814 99.4699 157.896 99.4699 162.997V282.031ZM350.12 260.775C349.108 263.326 346.916 265.196 344.386 266.046L244.024 297.505C244.024 297.505 242.169 297.845 241.325 297.845C240.482 297.845 239.639 297.845 238.964 297.675L121.735 265.366C117.687 264.176 114.988 260.605 114.988 256.524V162.997C114.988 157.896 119.036 153.814 124.096 153.814H151.084C152.096 153.814 153.108 153.985 154.12 154.325L252.795 190.885C257.181 192.245 260.892 195.476 263.928 200.068C266.627 204.319 268.145 209.08 268.145 214.012C268.145 218.943 263.928 223.024 259.036 223.024H254.313C243.349 222.854 234.916 222.174 228.506 221.324C221.928 220.473 216.024 219.113 210.964 217.583L192.916 211.631C192.916 211.631 191.229 211.121 190.386 211.121C189.374 211.121 188.193 211.461 187.012 212.141C185.157 213.161 183.976 214.522 183.301 216.732C182.627 219.113 182.795 220.984 183.807 223.194C184.651 225.235 185.831 226.255 187.855 226.935L212.145 235.098C216.361 236.458 220.41 237.478 224.289 237.988C228.337 238.499 234.072 238.839 241.325 238.839H326.506C331.735 238.839 336.458 240.199 340.675 243.09C344.554 245.811 347.422 249.042 349.614 252.783C350.964 255.333 351.133 258.224 350.12 260.775Z" fill="url(#paint1_linear_6704_137424)"/>
</g>
<defs>
<linearGradient id="paint0_linear_6704_137424" x1="566.522" y1="-157.445" x2="135.565" y2="192.913" gradientUnits="userSpaceOnUse">
<stop stop-color="#4D5F5D"/>
<stop offset="1" stop-color="#262B28"/>
</linearGradient>
<linearGradient id="paint1_linear_6704_137424" x1="410.733" y1="109.453" x2="299.924" y2="355.843" gradientUnits="userSpaceOnUse">
<stop stop-color="#4D5F5D"/>
<stop offset="1" stop-color="#2C2F2D"/>
</linearGradient>
<clipPath id="clip0_6704_137424">
<rect width="340" height="340" fill="white"/>
</clipPath>
</defs>
</svg>
