<svg width="80" height="80" viewBox="0 0 80 80" fill="none" xmlns="http://www.w3.org/2000/svg">
<path d="M18.5012 32.37H16.5514V28.5855C16.5514 28.2871 16.4302 28.001 16.2144 27.79C15.9987 27.579 15.7061 27.4605 15.401 27.4605C15.0959 27.4605 14.8033 27.579 14.5876 27.79C14.3718 28.001 14.2506 28.2871 14.2506 28.5855V32.37H12.3007C11.6911 32.3718 11.107 32.6094 10.6759 33.031C10.2448 33.4525 10.0018 34.0238 10 34.62V61.8338C10 62.4305 10.2424 63.0028 10.6739 63.4247C11.1053 63.8467 11.6905 64.0838 12.3007 64.0838H14.2506V67.875C14.2506 68.1734 14.3718 68.4595 14.5876 68.6705C14.8033 68.8815 15.0959 69 15.401 69C15.7061 69 15.9987 68.8815 16.2144 68.6705C16.4302 68.4595 16.5514 68.1734 16.5514 67.875V64.0838H18.5012C19.1114 64.0838 19.6966 63.8467 20.1281 63.4247C20.5596 63.0028 20.802 62.4305 20.802 61.8338V34.62C20.8002 34.0238 20.5572 33.4525 20.1261 33.031C19.695 32.6094 19.1109 32.3718 18.5012 32.37ZM33.5596 18.42H31.6177V14.6355C31.6177 14.3371 31.4965 14.051 31.2808 13.84C31.0651 13.629 30.7725 13.5105 30.4674 13.5105C30.1623 13.5105 29.8697 13.629 29.6539 13.84C29.4382 14.051 29.317 14.3371 29.317 14.6355V18.42H27.3706C26.761 18.4218 26.1768 18.6594 25.7457 19.081C25.3146 19.5025 25.0717 20.0738 25.0698 20.67V47.8838C25.0698 48.4805 25.3122 49.0528 25.7437 49.4747C26.1752 49.8967 26.7604 50.1338 27.3706 50.1338H29.317V53.925C29.317 54.2234 29.4382 54.5095 29.6539 54.7205C29.8697 54.9315 30.1623 55.05 30.4674 55.05C30.7725 55.05 31.0651 54.9315 31.2808 54.7205C31.4965 54.5095 31.6177 54.2234 31.6177 53.925V50.1338H33.5596C33.862 50.1348 34.1617 50.0773 34.4413 49.9646C34.7209 49.8519 34.975 49.6862 35.1888 49.4771C35.4027 49.2679 35.5721 49.0195 35.6873 48.746C35.8026 48.4726 35.8614 48.1795 35.8603 47.8838V20.67C35.8603 20.0733 35.6179 19.501 35.1864 19.079C34.755 18.6571 34.1698 18.42 33.5596 18.42ZM48.6294 26.2612H46.683V22.4734C46.683 22.175 46.5618 21.8889 46.3461 21.6779C46.1303 21.4669 45.8377 21.3484 45.5326 21.3484C45.2275 21.3484 44.9349 21.4669 44.7192 21.6779C44.5035 21.8889 44.3823 22.175 44.3823 22.4734V26.2612H42.4404C41.8302 26.2612 41.245 26.4983 40.8136 26.9203C40.3821 27.3422 40.1397 27.9145 40.1397 28.5112V55.725C40.1397 56.3217 40.3821 56.894 40.8136 57.316C41.245 57.7379 41.8302 57.975 42.4404 57.975H44.3823V61.7618C44.3823 62.0601 44.5035 62.3463 44.7192 62.5572C44.9349 62.7682 45.2275 62.8868 45.5326 62.8868C45.8377 62.8868 46.1303 62.7682 46.3461 62.5572C46.5618 62.3463 46.683 62.0601 46.683 61.7618V57.975H48.6294C49.2391 57.9732 49.8232 57.7356 50.2543 57.314C50.6854 56.8925 50.9283 56.3212 50.9302 55.725V28.5112C50.9283 27.9151 50.6854 27.3438 50.2543 26.9222C49.8232 26.5007 49.2391 26.263 48.6294 26.2612ZM63.6993 10.9162H61.7494V7.125C61.7494 6.82663 61.6282 6.54048 61.4124 6.32951C61.1967 6.11853 60.9041 6 60.599 6C60.2939 6 60.0013 6.11853 59.7856 6.32951C59.5698 6.54048 59.4486 6.82663 59.4486 7.125V10.9162H57.4988C56.8886 10.9162 56.3034 11.1533 55.8719 11.5753C55.4404 11.9972 55.198 12.5695 55.198 13.1662V40.38C55.1998 40.9762 55.4428 41.5475 55.8739 41.969C56.305 42.3906 56.8891 42.6282 57.4988 42.63H59.4486V46.4145C59.4486 46.7129 59.5698 46.999 59.7856 47.21C60.0013 47.421 60.2939 47.5395 60.599 47.5395C60.9041 47.5395 61.1967 47.421 61.4124 47.21C61.6282 46.999 61.7494 46.7129 61.7494 46.4145V42.63H63.6993C64.3089 42.6282 64.893 42.3906 65.3241 41.969C65.7552 41.5475 65.9982 40.9762 66 40.38V13.1662C66 12.5695 65.7576 11.9972 65.3261 11.5753C64.8947 11.1533 64.3095 10.9162 63.6993 10.9162Z" fill="url(#paint0_linear_8533_297214)"/>
<mask id="path-2-inside-1_8533_297214" fill="white">
<path d="M22.5012 37.37H20.5514V33.5855C20.5514 33.2871 20.4302 33.001 20.2144 32.79C19.9987 32.579 19.7061 32.4605 19.401 32.4605C19.0959 32.4605 18.8033 32.579 18.5876 32.79C18.3718 33.001 18.2506 33.2871 18.2506 33.5855V37.37H16.3007C15.6911 37.3718 15.107 37.6094 14.6759 38.031C14.2448 38.4525 14.0018 39.0238 14 39.62V66.8338C14 67.4305 14.2424 68.0028 14.6739 68.4247C15.1053 68.8467 15.6905 69.0838 16.3007 69.0838H18.2506V72.875C18.2506 73.1734 18.3718 73.4595 18.5876 73.6705C18.8033 73.8815 19.0959 74 19.401 74C19.7061 74 19.9987 73.8815 20.2144 73.6705C20.4302 73.4595 20.5514 73.1734 20.5514 72.875V69.0838H22.5012C23.1114 69.0838 23.6966 68.8467 24.1281 68.4247C24.5596 68.0028 24.802 67.4305 24.802 66.8338V39.62C24.8002 39.0238 24.5572 38.4525 24.1261 38.031C23.695 37.6094 23.1109 37.3718 22.5012 37.37ZM37.5596 23.42H35.6177V19.6355C35.6177 19.3371 35.4965 19.051 35.2808 18.84C35.0651 18.629 34.7725 18.5105 34.4674 18.5105C34.1623 18.5105 33.8697 18.629 33.6539 18.84C33.4382 19.051 33.317 19.3371 33.317 19.6355V23.42H31.3706C30.761 23.4218 30.1768 23.6594 29.7457 24.081C29.3146 24.5025 29.0717 25.0738 29.0698 25.67V52.8838C29.0698 53.4805 29.3122 54.0528 29.7437 54.4747C30.1752 54.8967 30.7604 55.1338 31.3706 55.1338H33.317V58.925C33.317 59.2234 33.4382 59.5095 33.6539 59.7205C33.8697 59.9315 34.1623 60.05 34.4674 60.05C34.7725 60.05 35.0651 59.9315 35.2808 59.7205C35.4965 59.5095 35.6177 59.2234 35.6177 58.925V55.1338H37.5596C37.862 55.1348 38.1617 55.0773 38.4413 54.9646C38.7209 54.8519 38.975 54.6862 39.1888 54.4771C39.4027 54.2679 39.5721 54.0195 39.6873 53.746C39.8026 53.4726 39.8614 53.1795 39.8603 52.8838V25.67C39.8603 25.0733 39.6179 24.501 39.1864 24.079C38.755 23.6571 38.1698 23.42 37.5596 23.42ZM52.6294 31.2612H50.683V27.4734C50.683 27.175 50.5618 26.8889 50.3461 26.6779C50.1303 26.4669 49.8377 26.3484 49.5326 26.3484C49.2275 26.3484 48.9349 26.4669 48.7192 26.6779C48.5035 26.8889 48.3823 27.175 48.3823 27.4734V31.2612H46.4404C45.8302 31.2612 45.245 31.4983 44.8136 31.9203C44.3821 32.3422 44.1397 32.9145 44.1397 33.5112V60.725C44.1397 61.3217 44.3821 61.894 44.8136 62.316C45.245 62.7379 45.8302 62.975 46.4404 62.975H48.3823V66.7618C48.3823 67.0601 48.5035 67.3463 48.7192 67.5572C48.9349 67.7682 49.2275 67.8868 49.5326 67.8868C49.8377 67.8868 50.1303 67.7682 50.3461 67.5572C50.5618 67.3463 50.683 67.0601 50.683 66.7618V62.975H52.6294C53.2391 62.9732 53.8232 62.7356 54.2543 62.314C54.6854 61.8925 54.9283 61.3212 54.9302 60.725V33.5112C54.9283 32.9151 54.6854 32.3438 54.2543 31.9222C53.8232 31.5007 53.2391 31.263 52.6294 31.2612ZM67.6993 15.9162H65.7494V12.125C65.7494 11.8266 65.6282 11.5405 65.4124 11.3295C65.1967 11.1185 64.9041 11 64.599 11C64.2939 11 64.0013 11.1185 63.7856 11.3295C63.5698 11.5405 63.4486 11.8266 63.4486 12.125V15.9162H61.4988C60.8886 15.9162 60.3034 16.1533 59.8719 16.5753C59.4404 16.9972 59.198 17.5695 59.198 18.1662V45.38C59.1998 45.9762 59.4428 46.5475 59.8739 46.969C60.305 47.3906 60.8891 47.6282 61.4988 47.63H63.4486V51.4145C63.4486 51.7129 63.5698 51.999 63.7856 52.21C64.0013 52.421 64.2939 52.5395 64.599 52.5395C64.9041 52.5395 65.1967 52.421 65.4124 52.21C65.6282 51.999 65.7494 51.7129 65.7494 51.4145V47.63H67.6993C68.3089 47.6282 68.893 47.3906 69.3241 46.969C69.7552 46.5475 69.9982 45.9762 70 45.38V18.1662C70 17.5695 69.7576 16.9972 69.3261 16.5753C68.8947 16.1533 68.3095 15.9162 67.6993 15.9162Z"/>
</mask>
<path d="M22.5012 37.37H20.5514V33.5855C20.5514 33.2871 20.4302 33.001 20.2144 32.79C19.9987 32.579 19.7061 32.4605 19.401 32.4605C19.0959 32.4605 18.8033 32.579 18.5876 32.79C18.3718 33.001 18.2506 33.2871 18.2506 33.5855V37.37H16.3007C15.6911 37.3718 15.107 37.6094 14.6759 38.031C14.2448 38.4525 14.0018 39.0238 14 39.62V66.8338C14 67.4305 14.2424 68.0028 14.6739 68.4247C15.1053 68.8467 15.6905 69.0838 16.3007 69.0838H18.2506V72.875C18.2506 73.1734 18.3718 73.4595 18.5876 73.6705C18.8033 73.8815 19.0959 74 19.401 74C19.7061 74 19.9987 73.8815 20.2144 73.6705C20.4302 73.4595 20.5514 73.1734 20.5514 72.875V69.0838H22.5012C23.1114 69.0838 23.6966 68.8467 24.1281 68.4247C24.5596 68.0028 24.802 67.4305 24.802 66.8338V39.62C24.8002 39.0238 24.5572 38.4525 24.1261 38.031C23.695 37.6094 23.1109 37.3718 22.5012 37.37ZM37.5596 23.42H35.6177V19.6355C35.6177 19.3371 35.4965 19.051 35.2808 18.84C35.0651 18.629 34.7725 18.5105 34.4674 18.5105C34.1623 18.5105 33.8697 18.629 33.6539 18.84C33.4382 19.051 33.317 19.3371 33.317 19.6355V23.42H31.3706C30.761 23.4218 30.1768 23.6594 29.7457 24.081C29.3146 24.5025 29.0717 25.0738 29.0698 25.67V52.8838C29.0698 53.4805 29.3122 54.0528 29.7437 54.4747C30.1752 54.8967 30.7604 55.1338 31.3706 55.1338H33.317V58.925C33.317 59.2234 33.4382 59.5095 33.6539 59.7205C33.8697 59.9315 34.1623 60.05 34.4674 60.05C34.7725 60.05 35.0651 59.9315 35.2808 59.7205C35.4965 59.5095 35.6177 59.2234 35.6177 58.925V55.1338H37.5596C37.862 55.1348 38.1617 55.0773 38.4413 54.9646C38.7209 54.8519 38.975 54.6862 39.1888 54.4771C39.4027 54.2679 39.5721 54.0195 39.6873 53.746C39.8026 53.4726 39.8614 53.1795 39.8603 52.8838V25.67C39.8603 25.0733 39.6179 24.501 39.1864 24.079C38.755 23.6571 38.1698 23.42 37.5596 23.42ZM52.6294 31.2612H50.683V27.4734C50.683 27.175 50.5618 26.8889 50.3461 26.6779C50.1303 26.4669 49.8377 26.3484 49.5326 26.3484C49.2275 26.3484 48.9349 26.4669 48.7192 26.6779C48.5035 26.8889 48.3823 27.175 48.3823 27.4734V31.2612H46.4404C45.8302 31.2612 45.245 31.4983 44.8136 31.9203C44.3821 32.3422 44.1397 32.9145 44.1397 33.5112V60.725C44.1397 61.3217 44.3821 61.894 44.8136 62.316C45.245 62.7379 45.8302 62.975 46.4404 62.975H48.3823V66.7618C48.3823 67.0601 48.5035 67.3463 48.7192 67.5572C48.9349 67.7682 49.2275 67.8868 49.5326 67.8868C49.8377 67.8868 50.1303 67.7682 50.3461 67.5572C50.5618 67.3463 50.683 67.0601 50.683 66.7618V62.975H52.6294C53.2391 62.9732 53.8232 62.7356 54.2543 62.314C54.6854 61.8925 54.9283 61.3212 54.9302 60.725V33.5112C54.9283 32.9151 54.6854 32.3438 54.2543 31.9222C53.8232 31.5007 53.2391 31.263 52.6294 31.2612ZM67.6993 15.9162H65.7494V12.125C65.7494 11.8266 65.6282 11.5405 65.4124 11.3295C65.1967 11.1185 64.9041 11 64.599 11C64.2939 11 64.0013 11.1185 63.7856 11.3295C63.5698 11.5405 63.4486 11.8266 63.4486 12.125V15.9162H61.4988C60.8886 15.9162 60.3034 16.1533 59.8719 16.5753C59.4404 16.9972 59.198 17.5695 59.198 18.1662V45.38C59.1998 45.9762 59.4428 46.5475 59.8739 46.969C60.305 47.3906 60.8891 47.6282 61.4988 47.63H63.4486V51.4145C63.4486 51.7129 63.5698 51.999 63.7856 52.21C64.0013 52.421 64.2939 52.5395 64.599 52.5395C64.9041 52.5395 65.1967 52.421 65.4124 52.21C65.6282 51.999 65.7494 51.7129 65.7494 51.4145V47.63H67.6993C68.3089 47.6282 68.893 47.3906 69.3241 46.969C69.7552 46.5475 69.9982 45.9762 70 45.38V18.1662C70 17.5695 69.7576 16.9972 69.3261 16.5753C68.8947 16.1533 68.3095 15.9162 67.6993 15.9162Z" stroke="url(#paint1_linear_8533_297214)" stroke-width="3" mask="url(#path-2-inside-1_8533_297214)"/>
<defs>
<linearGradient id="paint0_linear_8533_297214" x1="73.7447" y1="0.638301" x2="19.536" y2="71.5832" gradientUnits="userSpaceOnUse">
<stop stop-color="#3F4F47"/>
<stop offset="1" stop-color="#283931"/>
</linearGradient>
<linearGradient id="paint1_linear_8533_297214" x1="70" y1="11" x2="30.1466" y2="69.546" gradientUnits="userSpaceOnUse">
<stop stop-color="#60977E"/>
<stop offset="1" stop-color="#244033"/>
</linearGradient>
</defs>
</svg>
