<svg width="340" height="340" viewBox="0 0 340 340" fill="none" xmlns="http://www.w3.org/2000/svg">
<g clip-path="url(#clip0_13789_76987)">
<path d="M144.867 263C136.268 263 128.632 260.298 121.959 254.895C115.287 249.492 111.21 242.668 109.727 234.421L81.2968 71.1384C80.3647 65.7851 81.6282 61.0903 85.0872 57.0542C88.5466 53.0181 93.134 51 98.8493 51H402.151C407.866 51 412.453 53.0181 415.913 57.0542C419.372 61.0903 420.635 65.7851 419.703 71.1384L391.273 234.421C389.79 242.668 385.713 249.492 379.041 254.895C372.368 260.298 364.732 263 356.133 263H144.867Z" fill="url(#paint0_linear_13789_76987)"/>
<path d="M66.145 300C58.7808 300 52.242 297.594 46.5283 292.782C40.8146 287.97 37.323 281.892 36.0533 274.547L11.2614 126.562C10.4485 121.71 11.5316 117.503 14.5108 113.939C17.4901 110.376 21.4407 108.594 26.3628 108.594H294.637C299.559 108.594 303.51 110.376 306.489 113.939C309.468 117.503 310.552 121.71 309.739 126.562L284.947 274.547C283.677 281.892 280.185 287.97 274.472 292.782C268.758 297.594 262.219 300 254.855 300H66.145ZM25.8528 122.848L49.8241 272.002C50.5041 276.074 52.2892 279.383 55.1794 281.928C58.0695 284.474 61.5547 285.746 65.6349 285.746H255.365C259.445 285.746 262.93 284.474 265.821 281.928C268.711 279.383 270.496 276.074 271.176 272.002L295.147 122.848H25.8528ZM119.698 191.062H201.302C203.325 191.062 205.021 190.377 206.39 189.008C207.758 187.638 208.443 185.941 208.443 183.917C208.443 181.893 207.758 180.202 206.39 178.844C205.021 177.487 203.325 176.808 201.302 176.808H119.698C117.675 176.808 115.979 177.493 114.61 178.862C113.242 180.231 112.557 181.928 112.557 183.953C112.557 185.977 113.242 187.668 114.61 189.025C115.979 190.383 117.675 191.062 119.698 191.062ZM38.0935 78.0507C36.0703 78.0507 34.3745 77.3661 33.0059 75.9967C31.6374 74.6273 30.9531 72.9305 30.9531 70.9061C30.9531 68.8818 31.6374 67.1908 33.0059 65.8333C34.3745 64.4758 36.0703 63.7971 38.0935 63.7971H282.907C284.93 63.7971 286.625 64.4818 287.994 65.8511C289.363 67.2205 290.047 68.9174 290.047 70.9417C290.047 72.9661 289.363 74.657 287.994 76.0145C286.625 77.372 284.93 78.0507 282.907 78.0507H38.0935ZM78.8956 33.2536C76.8725 33.2536 75.1767 32.569 73.8081 31.1996C72.4395 29.8302 71.7553 28.1334 71.7553 26.109C71.7553 24.0847 72.4395 22.3937 73.8081 21.0362C75.1767 19.6787 76.8725 19 78.8956 19H242.104C244.127 19 245.823 19.6847 247.192 21.054C248.56 22.4234 249.245 24.1203 249.245 26.1446C249.245 28.169 248.56 29.8599 247.192 31.2174C245.823 32.5749 244.127 33.2536 242.104 33.2536H78.8956Z" fill="url(#paint1_linear_13789_76987)"/>
</g>
<defs>
<linearGradient id="paint0_linear_13789_76987" x1="682.691" y1="-44.1067" x2="378.035" y2="367.393" gradientUnits="userSpaceOnUse">
<stop stop-color="#4D5F5D"/>
<stop offset="1" stop-color="#262B28"/>
</linearGradient>
<linearGradient id="paint1_linear_13789_76987" x1="348.027" y1="-26.5778" x2="116.894" y2="259.872" gradientUnits="userSpaceOnUse">
<stop stop-color="#4D5F5D"/>
<stop offset="1" stop-color="#2C2F2D"/>
</linearGradient>
<clipPath id="clip0_13789_76987">
<rect width="340" height="340" fill="white"/>
</clipPath>
</defs>
</svg>
