<svg width="80" height="80" viewBox="0 0 80 80" fill="none" xmlns="http://www.w3.org/2000/svg">
<path fill-rule="evenodd" clip-rule="evenodd" d="M30.1589 58.7136C30.7689 58.7348 31.3052 58.6818 31.7679 58.5545L47.8571 53.9727V31H43.819C43.5246 31 43.2302 31.0318 42.9357 31.0955C42.6413 31.1591 42.3468 31.2333 42.0524 31.3182L24.575 37.8727C23.9861 38.0848 23.5129 38.4667 23.1554 39.0182C22.7978 39.5697 22.619 40.1424 22.619 40.7364C22.619 41.6273 22.924 42.3485 23.5339 42.9C24.1439 43.4515 24.8484 43.7273 25.6476 43.7273H32.2726C32.4829 43.7273 32.6407 43.7167 32.7458 43.6955C32.851 43.6742 32.9877 43.6212 33.156 43.5364L35.9952 42.4545C36.3317 42.3273 36.6683 42.3485 37.0048 42.5182C37.3413 42.6879 37.5516 42.9212 37.6357 43.2182C37.7198 43.5576 37.6988 43.8758 37.5726 44.1727C37.4464 44.4697 37.2151 44.6818 36.8786 44.8091L33.156 46.1455C33.0718 46.1879 32.9456 46.2197 32.7774 46.2409C32.6091 46.2621 32.4619 46.2727 32.3357 46.2727H15.0476C13.7016 46.2727 12.5238 46.7606 11.5143 47.7364C10.5048 48.7121 10 49.9212 10 51.3636L28.6131 58.4273C29.0337 58.597 29.549 58.6924 30.1589 58.7136ZM61.5173 57.5045C62.5058 56.5076 63 55.3091 63 53.9091V36.0909C63 34.6909 62.5058 33.4924 61.5173 32.4955C60.5288 31.4985 59.3405 31 57.9524 31C56.5643 31 55.376 31.4985 54.3875 32.4955C53.399 33.4924 52.9048 34.6909 52.9048 36.0909V53.9091C52.9048 55.3091 53.399 56.5076 54.3875 57.5045C55.376 58.5015 56.5643 59 57.9524 59C59.3405 59 60.5288 58.5015 61.5173 57.5045Z" fill="url(#paint0_linear_6712_211175)"/>
<path fill-rule="evenodd" clip-rule="evenodd" d="M18.2259 39.2884C18.5752 39.6161 19.0082 39.78 19.5247 39.78C20.0412 39.78 20.4741 39.6161 20.8235 39.2884C21.1729 38.9606 21.3476 38.5545 21.3476 38.07V36.189C23.2312 35.9325 24.8111 35.277 26.0871 34.2225C27.3631 33.168 28.0011 31.629 28.0011 29.6055C28.0011 27.981 27.4618 26.5489 26.3833 25.3091C25.3048 24.0694 23.7173 23.1645 21.621 22.5945C19.3728 21.996 17.7929 21.426 16.8815 20.8845C15.97 20.343 15.5143 19.602 15.5143 18.6615C15.5143 17.835 15.8637 17.1439 16.5625 16.5881C17.2612 16.0324 18.279 15.7545 19.6158 15.7545C20.4057 15.7545 21.0665 15.8614 21.5982 16.0751C22.1299 16.2889 22.5932 16.5952 22.9882 16.9942C23.3831 17.3932 23.8085 17.6711 24.2642 17.8279C24.7199 17.9846 25.1604 17.9775 25.5858 17.8065C26.1023 17.607 26.4441 17.2792 26.6112 16.8232C26.7783 16.3672 26.7251 15.954 26.4517 15.5835C25.9048 14.814 25.206 14.1656 24.3553 13.6384C23.5047 13.1111 22.5021 12.762 21.3476 12.591V10.71C21.3476 10.2255 21.1729 9.81937 20.8235 9.49162C20.4741 9.16387 20.0412 9 19.5247 9C19.0082 9 18.5752 9.16387 18.2259 9.49162C17.8765 9.81937 17.7018 10.2255 17.7018 10.71V12.591C16.365 12.7335 15.0586 13.3177 13.7826 14.3437C12.5065 15.3697 11.8685 16.809 11.8685 18.6615C11.8685 20.2005 12.3546 21.5044 13.3268 22.5731C14.2991 23.6419 16.0916 24.561 18.7044 25.3305C21.1349 26.0715 22.6844 26.7341 23.3527 27.3184C24.0211 27.9026 24.3553 28.6935 24.3553 29.691C24.3553 30.8025 23.9224 31.6219 23.0565 32.1491C22.1907 32.6764 21.1349 32.94 19.8893 32.94C18.7348 32.94 17.7625 32.7191 16.9726 32.2774C16.1827 31.8356 15.5295 31.1873 15.013 30.3322C14.77 29.9047 14.4206 29.5984 13.9649 29.4131C13.5091 29.2279 13.0686 29.2207 12.6433 29.3917C12.1268 29.5912 11.7698 29.9119 11.5723 30.3536C11.3748 30.7954 11.3824 31.2157 11.5951 31.6147C12.2331 32.8972 13.0686 33.8947 14.1016 34.6072C15.1345 35.3197 16.3346 35.8185 17.7018 36.1035V38.07C17.7018 38.5545 17.8765 38.9606 18.2259 39.2884Z" fill="url(#paint1_linear_6712_211175)"/>
<path d="M10.2455 53.1101C11.7636 51.6754 13.5979 50.942 15.7801 50.942H22.1054C23.0542 50.942 23.8133 50.1768 23.8133 49.2522C23.8133 47.658 24.256 46.2551 25.1416 44.9478C26.0271 43.6406 27.134 42.7478 28.5572 42.2377L47.122 35.3188C47.3434 35.2232 47.628 35.1594 47.9443 35.0957C48.1657 35.0319 48.4187 35 48.6717 35H66.3825C67.6792 35 68.7545 35.4783 69.6401 36.371C70.5572 37.2957 71 38.3797 71 39.687V62.0058C71 63.2812 70.5572 64.3652 69.6401 65.2899C68.7545 66.2145 67.6792 66.6609 66.3825 66.6609H60.0572C59.0768 66.6609 58.1596 66.342 57.1792 65.6725C56.262 65.0348 55.6611 64.2377 55.3765 63.2493C55.1551 62.5159 54.4593 62.0377 53.7319 62.0377C53.5738 62.0377 53.4473 62.0377 53.2892 62.1014L32.9533 67.8406C32.5422 67.9362 32.0678 68 31.5934 68C31.1506 68 30.7711 67.9362 30.3599 67.7768L10.5301 61.5594C9.58132 61.2406 8.85392 60.8261 8.4744 60.3797C8.15813 60.0609 8 59.5188 8 58.8174C8 56.3942 8.72741 54.5449 10.2455 53.1101ZM58.3494 62.0058C58.3494 62.9304 59.1401 63.6957 60.0572 63.6957H66.3825C67.3313 63.6957 68.0904 62.9304 68.0904 62.0058V39.687C68.0904 38.7304 67.3313 37.9652 66.3825 37.9652H60.0572C59.1401 37.9652 58.3494 38.7304 58.3494 39.687V62.0058ZM11.3524 58.0203C11.5422 58.4986 11.9533 58.8493 12.4277 59.0087L31.2455 64.9072C31.2455 64.9072 31.5934 64.971 31.7515 64.971C31.9096 64.971 32.0678 64.971 32.1943 64.9391L54.1747 58.8812C54.9337 58.658 55.4398 57.9884 55.4398 57.2232V39.687C55.4398 38.7304 54.6807 37.9652 53.7319 37.9652H48.6717C48.4819 37.9652 48.2922 37.9971 48.1024 38.0609L29.6009 44.9159C28.7786 45.171 28.0828 45.7768 27.5136 46.6377C27.0075 47.4348 26.7229 48.3275 26.7229 49.2522C26.7229 50.1768 27.5136 50.942 28.4307 50.942H29.3163C31.372 50.9101 32.9533 50.7826 34.1551 50.6232C35.3886 50.4638 36.4955 50.2087 37.4443 49.9217L40.8283 48.8058C40.8283 48.8058 41.1446 48.7101 41.3027 48.7101C41.4925 48.7101 41.7139 48.7739 41.9352 48.9014C42.2831 49.0928 42.5045 49.3478 42.631 49.7623C42.7575 50.2087 42.7259 50.5594 42.5361 50.9739C42.378 51.3565 42.1566 51.5478 41.7771 51.6754L37.2229 53.2058C36.4322 53.4609 35.6732 53.6522 34.9458 53.7478C34.1867 53.8435 33.1114 53.9072 31.7515 53.9072H15.7801C14.7997 53.9072 13.9142 54.1623 13.1235 54.7043C12.3961 55.2145 11.8584 55.8203 11.4473 56.5217C11.1943 57 11.1626 57.542 11.3524 58.0203Z" fill="url(#paint2_linear_6712_211175)"/>
<defs>
<linearGradient id="paint0_linear_6712_211175" x1="2.67021" y1="28.617" x2="18.5458" y2="72.8608" gradientUnits="userSpaceOnUse">
<stop stop-color="#3F4F47"/>
<stop offset="1" stop-color="#283931"/>
</linearGradient>
<linearGradient id="paint1_linear_6712_211175" x1="28.0011" y1="9" x2="7.21388" y2="27.4957" gradientUnits="userSpaceOnUse">
<stop stop-color="#60977E"/>
<stop offset="1" stop-color="#244033"/>
</linearGradient>
<linearGradient id="paint2_linear_6712_211175" x1="8" y1="35" x2="20.9254" y2="75.7807" gradientUnits="userSpaceOnUse">
<stop stop-color="#60977E"/>
<stop offset="1" stop-color="#244033"/>
</linearGradient>
</defs>
</svg>
