<svg width="80" height="80" viewBox="0 0 80 80" fill="none" xmlns="http://www.w3.org/2000/svg">
<path d="M23.5714 21.144C20.0429 24.272 17.3036 27.9366 15.3536 32.138C13.4036 36.3393 12.4286 40.7706 12.4286 45.4319C12.4286 51.0132 13.775 56.2419 16.4679 61.1179C19.1607 65.9939 22.9214 69.9039 27.75 72.8479C28.6167 73.3999 29.2202 74.1512 29.5607 75.1019C29.9012 76.0525 29.8238 76.9879 29.3286 77.9079C28.8333 78.8279 28.1214 79.4565 27.1929 79.7939C26.2643 80.1312 25.3667 80.0545 24.5 79.5639C18.4333 75.9452 13.6667 71.1152 10.2 65.0739C6.73333 59.0326 5 52.4852 5 45.4319C5 39.8506 6.11429 34.5606 8.34286 29.562C10.5714 24.5633 13.7286 20.1626 17.8143 16.36H8.71429C7.6619 16.36 6.77976 16.0073 6.06786 15.302C5.35595 14.5967 5 13.7227 5 12.68C5 11.6373 5.35595 10.7633 6.06786 10.058C6.77976 9.35267 7.6619 9 8.71429 9L27.2857 9C28.3381 9 29.2202 9.35267 29.9321 10.058C30.644 10.7633 31 11.6373 31 12.68L31 31.08C31 32.1226 30.644 32.9966 29.9321 33.702C29.2202 34.4073 28.3381 34.7599 27.2857 34.7599C26.2333 34.7599 25.3512 34.4073 24.6393 33.702C23.9274 32.9966 23.5714 32.1226 23.5714 31.08L23.5714 21.144Z" fill="url(#paint0_linear_8520_264632)"/>
<path fill-rule="evenodd" clip-rule="evenodd" d="M44.9997 25.7919C48.6998 23.3196 53.0499 22 57.5 22C63.4674 22 69.1903 24.3705 73.4099 28.5901C77.6295 32.8097 80 38.5326 80 44.5C80 48.9501 78.6804 53.3002 76.2081 57.0003C73.7357 60.7004 70.2217 63.5843 66.1104 65.2873C61.999 66.9903 57.475 67.4358 53.1105 66.5677C48.7459 65.6995 44.7368 63.5566 41.5901 60.4099C38.4434 57.2632 36.3005 53.2541 35.4323 48.8895C34.5642 44.525 35.0097 40.001 36.7127 35.8896C38.4157 31.7783 41.2996 28.2643 44.9997 25.7919ZM46.7854 60.5355C49.957 62.6546 53.6857 63.7857 57.5 63.7857C62.6149 63.7857 67.5203 61.7538 71.1371 58.1371C74.7538 54.5203 76.7857 49.6149 76.7857 44.5C76.7857 40.6856 75.6546 36.9569 73.5355 33.7854C71.4163 30.6139 68.4043 28.142 64.8803 26.6823C61.3563 25.2226 57.4786 24.8407 53.7376 25.5849C49.9965 26.329 46.5601 28.1658 43.8629 30.8629C41.1658 33.5601 39.329 36.9965 38.5849 40.7375C37.8407 44.4786 38.2226 48.3563 39.6823 51.8803C41.142 55.4043 43.6139 58.4163 46.7854 60.5355ZM48.5712 31.1371C51.2141 29.3711 54.3214 28.4286 57.5 28.4286C61.7624 28.4286 65.8502 30.1218 68.8642 33.1358C71.8782 36.1498 73.5714 40.2376 73.5714 44.5C73.5714 47.6786 72.6289 50.7859 70.8629 53.4288C69.097 56.0717 66.5869 58.1317 63.6503 59.3481C60.7136 60.5645 57.4822 60.8827 54.3646 60.2626C51.2471 59.6425 48.3834 58.1118 46.1358 55.8642C43.8882 53.6166 42.3575 50.7529 41.7374 47.6354C41.1173 44.5178 41.4355 41.2864 42.6519 38.3497C43.8684 35.4131 45.9283 32.903 48.5712 31.1371ZM56.3636 36.935C56.0622 37.2364 55.8929 37.6452 55.8929 38.0714V41.2857C55.8929 41.712 56.0622 42.1207 56.3636 42.4221C56.665 42.7235 57.0738 42.8929 57.5 42.8929C57.9262 42.8929 58.335 42.7235 58.6364 42.4221C58.9378 42.1207 59.1071 41.712 59.1071 41.2857V38.0714C59.1071 37.6452 58.9378 37.2364 58.6364 36.935C58.335 36.6336 57.9262 36.4643 57.5 36.4643C57.0738 36.4643 56.665 36.6336 56.3636 36.935ZM51.0714 46.1071H54.2857C54.712 46.1071 55.1207 45.9378 55.4221 45.6364C55.7235 45.335 55.8929 44.9262 55.8929 44.5C55.8929 44.0738 55.7235 43.665 55.4221 43.3636C55.1207 43.0622 54.712 42.8929 54.2857 42.8929H51.0714C50.6452 42.8929 50.2364 43.0622 49.935 43.3636C49.6336 43.665 49.4643 44.0738 49.4643 44.5C49.4643 44.9262 49.6336 45.335 49.935 45.6364C50.2364 45.9378 50.6452 46.1071 51.0714 46.1071ZM58.6364 52.065C58.9378 51.7636 59.1071 51.3548 59.1071 50.9286V47.7143C59.1071 47.288 58.9378 46.8793 58.6364 46.5779C58.335 46.2765 57.9262 46.1071 57.5 46.1071C57.0738 46.1071 56.665 46.2765 56.3636 46.5779C56.0622 46.8793 55.8929 47.288 55.8929 47.7143V50.9286C55.8929 51.3548 56.0622 51.7636 56.3636 52.065C56.665 52.3664 57.0738 52.5357 57.5 52.5357C57.9262 52.5357 58.335 52.3664 58.6364 52.065ZM60.7143 46.1071H63.9286C64.3548 46.1071 64.7636 45.9378 65.065 45.6364C65.3664 45.335 65.5357 44.9262 65.5357 44.5C65.5357 44.0738 65.3664 43.665 65.065 43.3636C64.7636 43.0622 64.3548 42.8929 63.9286 42.8929H60.7143C60.288 42.8929 59.8793 43.0622 59.5779 43.3636C59.2765 43.665 59.1071 44.0738 59.1071 44.5C59.1071 44.9262 59.2765 45.335 59.5779 45.6364C59.8793 45.9378 60.288 46.1071 60.7143 46.1071Z" fill="url(#paint1_linear_8520_264632)"/>
<defs>
<linearGradient id="paint0_linear_8520_264632" x1="34.5957" y1="2.95745" x2="-18.3031" y2="31.4785" gradientUnits="userSpaceOnUse">
<stop stop-color="#3F4F47"/>
<stop offset="1" stop-color="#283931"/>
</linearGradient>
<linearGradient id="paint1_linear_8520_264632" x1="80" y1="22" x2="52.8949" y2="66.7956" gradientUnits="userSpaceOnUse">
<stop stop-color="#60977E"/>
<stop offset="1" stop-color="#244033"/>
</linearGradient>
</defs>
</svg>
